<svg width="96" height="96" viewBox="0 0 96 96" fill="none" xmlns="http://www.w3.org/2000/svg">
<circle cx="48" cy="48" r="47" stroke="#8569B4" stroke-width="2"/>
<path d="M68.6667 72V66.6667C68.6667 63.8377 67.5429 61.1246 65.5425 59.1242C63.5421 57.1238 60.829 56 58 56H36.6667C33.8377 56 31.1246 57.1238 29.1242 59.1242C27.1238 61.1246 26 63.8377 26 66.6667V72M58 34.6667C58 40.5577 53.2244 45.3333 47.3333 45.3333C41.4423 45.3333 36.6667 40.5577 36.6667 34.6667C36.6667 28.7756 41.4423 24 47.3333 24C53.2244 24 58 28.7756 58 34.6667Z" stroke="#8569B4" stroke-width="2" stroke-linecap="round" stroke-linejoin="round"/>
</svg>
