<?xml version="1.0" encoding="UTF-8"?>
<!-- Generator: Adobe Illustrator 23.0.2, SVG Export Plug-In . SVG Version: 6.00 Build 0)  -->
<svg version="1.1" id="Layer_1" xmlns="http://www.w3.org/2000/svg" xmlns:xlink="http://www.w3.org/1999/xlink" x="0px" y="0px" viewBox="0 0 1974 1781" style="enable-background:new 0 0 1974 1781;" xml:space="preserve">
<style type="text/css">
	.st0{fill:#8282D1;}
	.st1{fill:#B9B9EA;}
	.st2{fill:#6060CC;}
	.st3{fill:#000099;}
	.st4{fill:#E0504C;}
	.st5{fill:#FCD5B6;}
	.st6{fill:#604848;}
	.st7{fill:#CE4646;}
	.st8{fill:#FFFFFF;}
	.st9{fill:#BA3A3A;}
	.st10{fill:#E5AB83;}
</style>
<g>
	<path class="st0" d="M782.5,1437.1l286.9-76.2c147.4-39.1,298.7,52.8,329.3,202.1c3.6,17.8,5.6,36.2,5.6,55.1v161.5h-1045l0,0   C445,1610.4,599,1485.9,782.5,1437.1z"/>
</g>
<path class="st1" d="M1932.4,1497.9c-138.8-480.6-546.8-845.3-842.9-845.3c-105.4,0-156.2,77.6-177.9,185.8  c23.3-3,47.2-4.6,71.6-4.8c124.1-1,193.9,81.6,178.7,144.1c-9.2,37.9-16,76.6-19.5,115.9l-32.5,370.8  c147.5,82.5,205.2,27.6,274.2,311.4c26.1,2.4,52.8,3.7,80,3.7C2000.2,1779.7,2024.1,1815.4,1932.4,1497.9z"/>
<path class="st2" d="M928.2,1447.9c0-117.5-55.8-413.5-16.5-609.4c-161.2,20.7-290.2,109.3-307.4,277.1  c-16,156.1,30.3,268.8,79.9,351.3c65.5,108.9,12,225.9-143.1,312.7h0H1385l0,0c-0.3-1.2-0.6-2.5-0.9-3.7  C1126.1,1752,928.2,1613.7,928.2,1447.9z"/>
<path class="st1" d="M1110,1464.6l32.5-370.8c3.4-39.3,10.3-78,19.5-115.9c15.2-62.5-54.6-145.1-178.7-144.1  c-24.4,0.2-48.3,1.8-71.6,4.8c-39.3,195.8,16.5,491.8,16.5,609.4c0,165.7,197.9,304.1,456,328.1  C1315.2,1492.3,1257.5,1547.1,1110,1464.6z"/>
<g>
	<g>
		<path class="st3" d="M1467.1,1509.4c-60.2-9.5-132.3-35.7-217.4-88.5c-10.6,1.3-21.8-0.7-31.8-6.4l-15.3-8.8c0,0,0,0,0,0    c-0.6-0.3-1.2-0.6-1.8-0.9l-144-82.6c-9.4-5.4-12.7-17.5-7.3-26.9l2.1-3.8c5.4-9.4,17.5-12.7,26.9-7.3l67.9,39    c0.8-2,1.6-3.9,2.7-5.9l-88.4-50.7c-9.4-5.4-12.7-17.5-7.3-26.9l2.1-3.8c5.4-9.4,17.5-12.7,26.9-7.3l88.4,50.7l2.8-4.8l-74.3-42.6    c-9.4-5.4-12.7-17.5-7.3-26.9l2.1-3.8c5.4-9.4,17.5-12.7,26.9-7.3l117.4,67.3c1.5-1.5,3.1-3.2,4.6-5.2l-22.3-37.9    c-5.5-9.3-2.4-21.5,7-27l3.7-2.2c9.3-5.5,21.5-2.4,27,7l54.4,92.5c0.8,1.4,1.4,2.8,1.8,4.2c0,0,0,0,0,0c4.5,7,7.3,15,8.1,23.3    c49.5,30.1,95.1,50.7,136.3,61.4L1467.1,1509.4z"/>
	</g>
</g>
<g>
	<g>
		<path class="st4" d="M1383.1,935.8c-39.5-36.8-88.4-63.4-142.8-76c29-61.1,71.4-166.1,98.6-335.5c3.3-20.8,28.9-19.9,48.1-16    c12.5,2.5,21.3,13.6,21.1,26.3c-0.9,57,2.9,222.7,70.6,344.9C1499.3,916.6,1446.8,931.1,1383.1,935.8z"/>
	</g>
</g>
<g>
	<g>
		<g>
			<g>
				<path class="st5" d="M1316.4,1346.5l-28,48.9c-8.4,14.6-23,23.6-38.6,25.5c-10.6,1.3-21.8-0.7-31.8-6.4l-15.3-8.8c0,0,0,0,0,0      l-33.6-19.3c-22.3-12.8-31.4-39.9-22.5-63.2c0.8-2,1.6-3.9,2.7-5.9c0.2-0.5,0.5-0.9,0.7-1.3l21-36.6l2.8-4.8l4.3-7.4      c12.4-21.7,36.1,17.6,60.5-5.9c1.5-1.5,3.1-3.2,4.6-5.2c1.8-2.3,3.5-5,5.3-8l48.9,28c7.3,4.2,13.2,10,17.5,16.6c0,0,0,0,0,0      c4.5,7,7.3,15,8.1,23.3C1323.9,1326.3,1321.9,1337,1316.4,1346.5z"/>
			</g>
		</g>
		<g>
			<g>
				<path class="st5" d="M1230,1393.7l-2.2,3.8c-1.4,2.4-3.2,4.4-5.2,5.9c-5.6,4.2-13.2,5.2-19.9,2.3c0,0,0,0,0,0      c-0.6-0.3-1.2-0.6-1.8-0.9l-144-82.6c-9.4-5.4-12.7-17.5-7.3-26.9l2.1-3.8c5.4-9.4,17.5-12.7,26.9-7.3l67.9,39l76.1,43.6      c2.1,1.2,3.9,2.8,5.4,4.5C1233.1,1377.6,1234.1,1386.5,1230,1393.7z"/>
			</g>
		</g>
		<g>
			<g>
				<path class="st5" d="M1233.9,1338.2l-2.2,3.8c-5.4,9.4-17.5,12.7-26.9,7.3l-55.6-31.9l-88.4-50.7c-9.4-5.4-12.7-17.5-7.3-26.9      l2.1-3.8c5.4-9.4,17.5-12.7,26.9-7.3l88.4,50.7l55.6,31.9C1236,1316.7,1239.3,1328.8,1233.9,1338.2z"/>
			</g>
		</g>
		<g>
			<g>
				<path class="st5" d="M1272.5,1303.5l-0.7,1.3l-1.4,2.5c-5.4,9.4-17.5,12.7-26.9,7.3l-69.6-39.9l-74.3-42.6      c-9.4-5.4-12.7-17.5-7.3-26.9l2.1-3.8c5.4-9.4,17.5-12.7,26.9-7.3l117.4,67.3l11.5,6.6l15.1,8.7      C1274.6,1282,1277.9,1294.1,1272.5,1303.5z"/>
			</g>
		</g>
		<g>
			<g>
				<path class="st5" d="M1312.4,1309.5c-1.6,2.4-3.7,4.5-6.4,6l-3.7,2.2c-9.3,5.5-21.5,2.3-27-7l-2.7-4.5l-0.9-1.5l-21.7-36.9      l-6.9-11.8l-22.3-37.9c-5.5-9.3-2.4-21.5,7-27l3.7-2.2c9.3-5.5,21.5-2.4,27,7l54.4,92.5c0.8,1.4,1.4,2.8,1.8,4.2c0,0,0,0,0,0      C1316.6,1298.5,1315.6,1304.7,1312.4,1309.5z"/>
			</g>
		</g>
	</g>
	<g>
		<g>
			<path class="st5" d="M1770.1,1273.3c0.3,38-10.2,78.6-29.7,114.4c-22.6,41.5-56.1,74.9-96.8,96.6c-30.5,16.3-70.4,29-120.6,29.4     c-17.4,0.2-36-1.2-55.9-4.3c-60.2-9.5-132.3-35.7-217.4-88.5c-8.9-5.5-18-11.3-27.1-17.4c-3.7-2.5-7.5-5-11.2-7.6l16.7-24.5     l44.6-65.2l10.8-15.7c9.8,6.7,19.5,13,29,19c3.5,2.2,7.1,4.4,10.6,6.6c49.5,30.1,95.1,50.7,136.3,61.4c7.1,1.8,14.1,3.4,21,4.7     c41.3,7.6,76,4,103.3-10.5c40.9-21.8,59.2-65.7,59-97.3c-0.6-72.8-64.9-129.4-129.4-167.9l53.3-116.6c50.9,29,92.9,61.3,125,96.2     C1743.1,1142.3,1769.6,1205.3,1770.1,1273.3z"/>
		</g>
	</g>
</g>
<g>
	<g>
		<g>
			<path class="st5" d="M313.4,972.7l22.8-51.5c11.5-25.9-0.4-56.5-26.3-68l-51.5-22.8c-22.6,51-56.5,0.4-68,26.3l-22.8,51.5     c-11.5,25.9,0.4,56.5,26.3,68l51.5,22.8C271.3,1010.5,301.9,998.7,313.4,972.7z"/>
		</g>
	</g>
	<g>
		<g>
			<path class="st5" d="M253.4,981.1l1.8-4c4.4-9.9-0.1-21.6-10-26L93.3,884c-9.9-4.4-21.6,0.1-26,10l-1.8,4     c-4.4,9.9,0.1,21.6,10,26l151.8,67.2C237.3,995.6,249,991,253.4,981.1z"/>
		</g>
	</g>
	<g>
		<g>
			<path class="st5" d="M251.6,925.5l1.8-4c4.4-9.9-0.1-21.6-10-26L91.5,828.4c-9.9-4.4-21.6,0.1-26,10l-1.8,4     c-4.4,9.9,0.1,21.6,10,26l151.8,67.2C235.5,939.9,247.2,935.4,251.6,925.5z"/>
		</g>
	</g>
	<g>
		<g>
			<path class="st5" d="M286.3,886.9l1.8-4c4.4-9.9-0.1-21.6-10-26l-151.8-67.2c-9.9-4.4-21.6,0.1-26,10l-1.8,4     c-4.4,9.9,0.1,21.6,10,26L260.3,897C270.2,901.4,281.9,896.8,286.3,886.9z"/>
		</g>
	</g>
	<g>
		<g>
			<path class="st5" d="M319.2,894l3.5-2.6c8.7-6.4,10.6-18.8,4.1-27.6L263,777.6c-6.4-8.7-18.8-10.6-27.6-4.1L232,776     c-8.7,6.4-10.6,18.8-4.1,27.6l63.8,86.3C298,898.6,310.4,900.5,319.2,894z"/>
		</g>
	</g>
</g>
<g>
	<g>
		<path class="st6" d="M275,697.6H148.1c-22.1,0-40-17.9-40-40V530.7c0-22.1,17.9-40,40-40H275c22.1,0,40,17.9,40,40v126.9    C315,679.6,297.1,697.6,275,697.6z"/>
	</g>
	<g>
		<path class="st7" d="M303.3,532.4c0-16.6-13.4-30-30-30H149.8c-16.6,0-30,13.4-30,30v33.9h183.5V532.4z"/>
	</g>
	<g>
		<path class="st8" d="M119.8,566.3v89.6c0,16.6,13.4,30,30,30h123.5c16.6,0,30-13.4,30-30v-89.6H119.8z"/>
	</g>
	<g>
		<g>
			<path class="st6" d="M168.6,521.8L168.6,521.8c-5.7,0-10.2-4.6-10.2-10.2v-34c0-5.7,4.6-10.2,10.2-10.2h0     c5.7,0,10.2,4.6,10.2,10.2v34C178.8,517.2,174.3,521.8,168.6,521.8z"/>
		</g>
		<g>
			<path class="st6" d="M254.5,521.8L254.5,521.8c-5.7,0-10.2-4.6-10.2-10.2v-34c0-5.7,4.6-10.2,10.2-10.2h0     c5.7,0,10.2,4.6,10.2,10.2v34C264.7,517.2,260.1,521.8,254.5,521.8z"/>
		</g>
	</g>
</g>
<g>
	<path d="M16.3,775.3c-0.5,0-1-0.2-1.4-0.6c-0.8-0.8-0.8-2,0-2.8l63.8-63.8c0.8-0.8,2-0.8,2.8,0c0.8,0.8,0.8,2,0,2.8l-63.8,63.8   C17.3,775.1,16.8,775.3,16.3,775.3z"/>
</g>
<g>
	<path d="M420.4,786.3c-0.5,0-0.9-0.2-1.3-0.5l-79.8-67.5c-0.8-0.7-0.9-2-0.2-2.8c0.7-0.8,2-0.9,2.8-0.2l79.8,67.5   c0.8,0.7,0.9,2,0.2,2.8C421.6,786.1,421,786.3,420.4,786.3z"/>
</g>
<g>
	<path d="M196.5,777c-1.1,0-2-0.9-2-2v-40.9c0-1.1,0.9-2,2-2s2,0.9,2,2V775C198.5,776.1,197.6,777,196.5,777z"/>
</g>
<g>
	<path d="M370.1,609.5c-1,0-1.9-0.8-2-1.8c-0.1-1.1,0.7-2.1,1.8-2.2l67.6-5.6c1.1-0.1,2.1,0.7,2.2,1.8c0.1,1.1-0.7,2.1-1.8,2.2   l-67.6,5.6C370.3,609.5,370.2,609.5,370.1,609.5z"/>
</g>
<g>
	<path d="M57.8,606c-0.1,0-0.3,0-0.4,0L1.6,594.2c-1.1-0.2-1.8-1.3-1.5-2.4c0.2-1.1,1.3-1.8,2.4-1.5l55.8,11.8   c1.1,0.2,1.8,1.3,1.5,2.4C59.6,605.4,58.7,606,57.8,606z"/>
</g>
<g>
	<path class="st5" d="M680.2,1091.6c-46.2,46.7-116.8,104.7-207.3,138.4c-19.1,7.1-29.3,3.4-37.4-1.7   c-13.8-8.6-49.3-40.9-79.6-154.1c-18.5-69-25-132-25.2-134c0,0,0,0,0,0l-63.2,6.2l-63.2,6.1c0.3,2.9,7.3,73.1,28.4,152.7   c12.8,48.2,28.2,90.2,45.9,124.8c24.8,48.7,55,84.4,89.5,106c26.6,16.7,55.6,25,85.7,25c20.7,0,42-4,63.4-12   c111.3-41.4,197.1-111.5,252.9-167.7C731.2,1162.1,699.5,1130.5,680.2,1091.6z"/>
</g>
<g>
	<path class="st3" d="M1441,1069.6v0.8l18.3,307.1c-41.2-10.7-86.9-31.3-136.3-61.4c-0.8-8.3-3.5-16.3-8.1-23.3c0,0,0,0,0,0   c-0.4-1.4-1-2.9-1.8-4.2l-54.4-92.5c-5.5-9.3-17.6-12.5-27-7l-3.7,2.2c-9.3,5.5-12.5,17.6-7,27l22.3,37.9c-1.5,2-3.1,3.7-4.6,5.2   l-117.4-67.3c-9.4-5.4-21.5-2.1-26.9,7.3l-2.1,3.8c-5.4,9.4-2.1,21.5,7.3,26.9l74.3,42.6l-2.8,4.8l-88.4-50.7   c-9.4-5.4-21.5-2.1-26.9,7.3l-2.1,3.8c-5.4,9.4-2.1,21.5,7.3,26.9l88.4,50.7c-1,1.9-1.9,3.9-2.7,5.9l-67.9-39   c-9.4-5.4-21.5-2.1-26.9,7.3l-2.1,3.8c-5.4,9.4-2.1,21.5,7.3,26.9l144,82.6c0.6,0.3,1.2,0.6,1.8,0.9c0,0,0,0,0,0l15.3,8.8   c10,5.7,21.1,7.7,31.8,6.4c85.1,52.8,157.2,79,217.4,88.5l16.1,270.3H762.8l34.9-627.7c-8.2,9.1-17.4,19-27.7,29.4   c-38.9-19.2-70.6-50.8-89.9-89.7c14.5-14.7,26.7-28.3,36.2-39.7c31.4-37.4,66.2-72.1,103.2-103c4.5-3.8,8.9-7.4,13.3-10.9   c3-3,6.3-6,9.9-9.1c39.9-34.8,88.6-59.6,142.4-70.7c20.6-4.3,41.9-6.5,63.7-6.5h120.6c24.4,0,48.1,2.8,70.9,8   c33.8,7.8,207.3,68.1,299,115.3c9.3,4.8,18.4,9.7,27.2,14.7l-53.3,116.6c-10.9-6.5-21.7-12.4-32.3-17.9   C1467.4,1081.7,1454.1,1075.4,1441,1069.6z"/>
</g>
<g>
	<g>
		<g>
			<path class="st5" d="M1367.8,196c-176.5-100.2-353-100.2-529.5,0c-1.2,38.4,56,22,57.7,60.4c2.9,66-46.8,186.7-35.3,252.7     c20.1,115.9,53.4,231.8,99.8,347.7c95,54,190.1,54,285.1,0C1333.8,636.5,1374.6,416.3,1367.8,196z"/>
		</g>
	</g>
</g>
<g>
	<g>
		<path class="st9" d="M985.1,858.2c-53.8,11.1-102.5,35.9-142.3,70.7c-69.5-6.8-128.9-23.4-107.7-61.6    c83.1-149.9,149.8-583.9,149.8-583.9s24.4-28.7,18.9,4.4C867.2,505.7,940.5,741.8,985.1,858.2z"/>
	</g>
</g>
<g>
	<g>
		<path d="M1020.7,435.5h2.5c6.3,0,11.5,5.2,11.5,11.5v30.3c0,6.3-5.2,11.5-11.5,11.5h-2.5c-6.3,0-11.5-5.2-11.5-11.5V447    C1009.2,440.7,1014.4,435.5,1020.7,435.5z"/>
	</g>
</g>
<g>
	<g>
		<path d="M1183.1,488.8h-2.5c-6.3,0-11.5-5.2-11.5-11.5V447c0-6.3,5.2-11.5,11.5-11.5h2.5c6.3,0,11.5,5.2,11.5,11.5v30.3    C1194.6,483.6,1189.4,488.8,1183.1,488.8z"/>
	</g>
</g>
<g>
	<g>
		<path class="st10" d="M1095.8,597.3c-19.1,0-34.7-15.8-34.7-35.1s15.6-35.1,34.7-35.1c2.8,0,5,2.2,5,5s-2.2,5-5,5    c-13.6,0-24.7,11.3-24.7,25.1s11.1,25.1,24.7,25.1c2.8,0,5,2.2,5,5S1098.6,597.3,1095.8,597.3z"/>
	</g>
</g>
<g>
	<g>
		<path class="st5" d="M1331.8,560.5c17.7,17.7,46.4,17.7,64.1,0s17.7-46.4,0-64.1c-17.7-17.7-46.4-17.7-64.1,0"/>
	</g>
</g>
<g>
	<g>
		<path class="st5" d="M946.3,499.8c-17.7-17.7-46.4-17.7-64.1,0s-17.7,46.4,0,64.1c17.7,17.7,46.4,17.7,64.1,0V499.8z"/>
	</g>
</g>
<g>
	<g>
		<path class="st4" d="M1306.7,272.3c-42-33.8-178.3-13.2-229.6,3.4c-57.9,18.7-158.3,24.7-214.6,0.1    C806.1,251.2,732.8,88.1,914.9,17c198.2-77.4,322.8,128.4,404,131c213.1,6.7,82.2,307.9,84.4,357.4c-5.5-8.9-27.7-27.7-47.7-13.3    c-25.5,18.4-3.9,37.7-18.9,37.7c-19,0,34.4-170.9-40-203.1C1258.7,310.2,1319.3,282.5,1306.7,272.3z"/>
	</g>
</g>
<g>
	<path class="st10" d="M1100.7,781.2c-14.7,0-28.8-5.3-39.9-15.2c-12-10.7-19.2-25.4-20.2-41.5c-0.2-2.8,1.9-5.1,4.7-5.3   c2.7-0.2,5.1,1.9,5.3,4.7c0.8,13.4,6.8,25.7,16.8,34.6c10.1,8.9,23,13.4,36.4,12.6c27.7-1.7,48.8-25.5,47.2-53.2   c-0.8-13.4-6.8-25.7-16.8-34.6c-10.1-8.9-23-13.4-36.4-12.6c-2.7,0.2-5.1-1.9-5.3-4.7c-0.2-2.8,1.9-5.1,4.7-5.3   c16.1-1,31.6,4.4,43.6,15.1c12,10.7,19.2,25.4,20.2,41.5c2,33.2-23.4,61.8-56.6,63.8C1103.2,781.2,1101.9,781.2,1100.7,781.2z"/>
</g>
</svg>