<?xml version="1.0" encoding="UTF-8"?>
<!-- Generator: Adobe Illustrator 23.0.2, SVG Export Plug-In . SVG Version: 6.00 Build 0)  -->
<svg version="1.1" id="Layer_1" xmlns="http://www.w3.org/2000/svg" xmlns:xlink="http://www.w3.org/1999/xlink" x="0px" y="0px" viewBox="0 0 3242 2204" style="enable-background:new 0 0 3242 2204;" xml:space="preserve">
<style type="text/css">
	.st0{fill:#E0504C;}
	.st1{fill:#FCD5B6;}
	.st2{fill:none;stroke:#E5AB83;stroke-width:10;stroke-linecap:round;stroke-miterlimit:10;}
	.st3{fill:#000099;}
	.st4{fill:#0000CC;}
	.st5{fill:#726861;}
	.st6{fill:#282421;}
</style>
<g>
	<path class="st0" d="M2450.4,1679.4l-155.5-150.5c-110.3-114.6-325.3-155.1-383.7-155.1h-288h-288c-62.7,0-234.4,43.1-360,161.8   l-183.4,187.2c18.4,76.5,47.3,148.9,84.9,215.7c37.7-24.8,80.8-53.4,119.8-79.4l-34.6,344.6h661.5h661.5l-37.3-371   c36.1,22.4,73.3,35.8,118.2,62.4C2405.8,1824.8,2435.3,1760.5,2450.4,1679.4z"/>
	<g>
		<path class="st1" d="M344.5,1782.3l25.1-76.6c12.6-38.5-8.6-80.4-47.1-93l-76.6-25.1c-24.8,75.8-80.4,8.6-93,47.1l-25.1,76.6    c-12.6,38.5,8.6,80.4,47.1,93l76.6,25.1C290,1842.1,331.8,1820.9,344.5,1782.3z"/>
		<path class="st1" d="M345.4,1680.4l5.8-4.9c13-11,14.6-30.7,3.6-43.7l-93.2-110.1c-11-13-30.7-14.6-43.7-3.6l-5.8,4.9    c-13,11-14.6,30.7-3.6,43.7l93.2,110.1C312.7,1689.8,332.4,1691.4,345.4,1680.4z"/>
		<path class="st1" d="M248.1,1670.1L248.1,1670.1c9.7-16.5,4.1-38-12.5-47.6l-117.8-68.9c-16.5-9.7-38-4.1-47.6,12.5l0,0    c-9.7,16.5-4.1,38,12.5,47.6l117.8,68.9C216.9,1692.2,238.4,1686.6,248.1,1670.1z"/>
		<path class="st1" d="M179.7,1694.8L179.7,1694.8c4.9-18.5-6.2-37.7-24.7-42.6l-98.3-26.2c-18.5-4.9-37.7,6.2-42.6,24.7l0,0    c-4.9,18.5,6.2,37.7,24.7,42.6l98.3,26.2C155.6,1724.5,174.8,1713.3,179.7,1694.8z"/>
		<path class="st1" d="M183.2,1754L183.2,1754c0.4-19.1-14.9-35.2-34-35.6l-94.7-2.2c-19.1-0.4-35.2,14.9-35.6,34l0,0    c-0.4,19.1,14.9,35.2,34,35.6l94.7,2.2C166.7,1788.5,182.8,1773.2,183.2,1754z"/>
	</g>
	<path class="st1" d="M1830,703.5c-131.7-66.5-263.5-66.5-395.2,0c-77.5,223.4-100.7,446.8-69.7,670.2   c178.2,89.9,356.4,89.9,534.7,0C1930.7,1150.4,1907.5,926.9,1830,703.5z"/>
	<path d="M1463.8,958.3L1463.8,958.3c0-6.3,5.2-11.5,11.5-11.5h46c6.3,0,11.5,5.2,11.5,11.5l0,0c0,6.3-5.2,11.5-11.5,11.5h-46   C1469,969.8,1463.8,964.6,1463.8,958.3z"/>
	<path d="M1656.8,958.3L1656.8,958.3c0-6.3,5.2-11.5,11.5-11.5h46c6.3,0,11.5,5.2,11.5,11.5l0,0c0,6.3-5.2,11.5-11.5,11.5h-46   C1662,969.8,1656.8,964.6,1656.8,958.3z"/>
	<path class="st2" d="M1652.8,1081.3c0,21.8-21.5,39.5-48,39.5c-26.5,0-48-17.7-48-39.5"/>
	<path class="st3" d="M1383.9,976.8c0,0,32.9-155.5,99.1-194.8c66.2-39.4-99.1-29.4-99.1-29.4s-29.9,164.4-23.4,212.5   C1367,1013.2,1383.9,976.8,1383.9,976.8z"/>
	<path class="st1" d="M1865.1,1058.5c23,23,60.4,23,83.4,0s23-60.4,0-83.4s-60.4-23-83.4,0"/>
	<path class="st1" d="M1392.6,975c-23-23-60.4-23-83.4,0s-23,60.4,0,83.4s60.4,23,83.4,0"/>
	<path class="st4" d="M1717,711.9c0,0-139.2,110.1-296.7,56.7c-157.4-53.3-226.4-272-122.3-394.3c59.9,79.4,104.1,132.7,236.8,97.6   s143.1,36.4,160,66.4c16.9,29.9,27.3,66.4,98.9,50.7c71.6-15.6,131.4-23.4,113.2,29.9c-18.2,53.3-23.4,95.1-13,141.9   c10.4,46.8,27.9,163.1,12.9,196.9c-35.4,4.6-22.9,88-40,88c-17.1,0,7-204-60-233C1740.1,783.9,1739.1,817.8,1717,711.9z"/>
	<path class="st2" d="M1626.8,1356.8c0,16.8-12.5,30.5-28,30.5c-15.5,0-28-13.7-28-30.5"/>
	<path class="st2" d="M1682.8,1356.8c0,16.8-12.5,30.5-28,30.5c-15.5,0-28-13.7-28-30.5"/>
	<path class="st2" d="M1490.1,1282c13.6-43.5,56.5-87.1,126.2-87.1c69.7,0,118,57.8,126.2,87.1"/>
	<path class="st1" d="M751.3,1763.9c-57.4,66.5-148.8,113.4-230.1,94.3c-22.5-5.3-42.4-18.2-56.9-36.2l-99.1-123l-88,134l70.3,101.3   c40.6,58.5,103,98.5,173.3,110.3c0.5,0.1,0.9,0.2,1.4,0.2c21.4,3.5,43,5.3,64.5,5.3c23,0,46.1-2,69-6   c44.3-7.8,86.6-22.9,125.7-44.9c12.6-7.1,49.9-31.2,95.1-60.9c-37.6-66.8-66.4-139.3-84.9-215.7L751.3,1763.9z"/>
	<g>
		<path class="st1" d="M2897.5,1739l-25.1-76.6c-12.6-38.5,8.6-80.4,47.1-93l76.6-25.1c24.8,75.8,80.4,8.6,93,47.1l25.1,76.6    c12.6,38.5-8.6,80.4-47.1,93l-76.6,25.1C2952,1798.7,2910.2,1777.5,2897.5,1739z"/>
		<path class="st1" d="M2993.9,1626.7L2993.9,1626.7c-9.7-16.5-4.1-38,12.5-47.6l117.8-68.9c16.5-9.7,38-4.1,47.6,12.5l0,0    c9.7,16.5,4.1,38-12.5,47.6l-117.8,68.9C3025.1,1648.8,3003.6,1643.2,2993.9,1626.7z"/>
		<path class="st1" d="M3062.3,1651.5L3062.3,1651.5c-4.9-18.5,6.2-37.7,24.7-42.6l98.3-26.2c18.5-4.9,37.7,6.2,42.6,24.7l0,0    c4.9,18.5-6.2,37.7-24.7,42.6l-98.3,26.2C3086.4,1681.1,3067.2,1670,3062.3,1651.5z"/>
		<path class="st1" d="M3058.8,1710.7L3058.8,1710.7c-0.4-19.1,14.9-35.2,34-35.6l94.7-2.2c19.1-0.4,35.2,14.9,35.6,34v0    c0.4,19.1-14.9,35.2-34,35.6l-94.7,2.2C3075.3,1745.1,3059.2,1729.8,3058.8,1710.7z"/>
		<g>
			<path class="st5" d="M3047.6,1393.4l-81.9,37.6c-14.6,6.7-20.9,23.9-14.2,38.5l77.2,168c6.7,14.6,23.9,20.9,38.5,14.2l81.9-37.6     c14.6-6.7,20.9-23.9,14.2-38.5l-77.2-168C3079.4,1393,3062.2,1386.7,3047.6,1393.4z"/>
			
				<rect x="3061.4" y="1392" transform="matrix(0.9087 -0.4175 0.4175 0.9087 -350.8246 1422.8107)" class="st6" width="31.6" height="242.9"/>
		</g>
		<path class="st1" d="M2896.6,1637l-5.8-4.9c-13-11-14.6-30.7-3.6-43.7l93.2-110.1c11-13,30.7-14.6,43.7-3.6l5.8,4.9    c13,11,14.6,30.7,3.6,43.7l-93.2,110.1C2929.3,1646.4,2909.6,1648,2896.6,1637z"/>
	</g>
	<path class="st1" d="M2490.7,1720.6c57.4,66.5,148.8,113.4,230.1,94.3c22.5-5.3,42.4-18.2,56.9-36.2l99.1-123l88,134l-70.3,101.3   c-40.6,58.5-103,98.5-173.3,110.3c-0.5,0.1-0.9,0.2-1.4,0.2c-21.4,3.5-43,5.3-64.5,5.3c-23,0-46.1-2-69-6   c-44.3-7.8-86.6-22.9-125.7-44.9c-12.6-7.1-49.9-31.2-95.1-60.9c37.6-66.8,66.4-139.3,84.8-215.7L2490.7,1720.6z"/>
</g>
</svg>