<svg width="16" height="16" viewBox="0 0 16 16" fill="none" xmlns="http://www.w3.org/2000/svg">
<path d="M13.138 5.36214L11.5833 6.91681L9.08335 4.41681L10.638 2.86214C10.6999 2.80018 10.7733 2.75102 10.8542 2.71748C10.9351 2.68394 11.0218 2.66667 11.1093 2.66667C11.1969 2.66667 11.2836 2.68394 11.3645 2.71748C11.4454 2.75102 11.5188 2.80018 11.5807 2.86214L13.138 4.41947C13.2 4.48133 13.2491 4.5548 13.2827 4.63568C13.3162 4.71655 13.3335 4.80325 13.3335 4.89081C13.3335 4.97836 13.3162 5.06506 13.2827 5.14593C13.2491 5.22681 13.2 5.30028 13.138 5.36214ZM2.00002 11.4995L8.71001 4.79014L11.21 7.29014L4.50001 13.9995H2.00068V11.4995H2.00002ZM11.0813 3.36347L10.0547 4.38947L11.6127 5.94614L12.638 4.92014L11.0813 3.36347ZM10.2387 7.32014L8.68201 5.76281L2.66735 11.7768V13.3341H4.22468L10.2387 7.32014Z" fill="#8569B4"/>
</svg>
