<?xml version="1.0" encoding="utf-8"?>
<!-- Generator: Adobe Illustrator 23.0.2, SVG Export Plug-In . SVG Version: 6.00 Build 0)  -->
<svg version="1.1" id="Layer_1" xmlns="http://www.w3.org/2000/svg" xmlns:xlink="http://www.w3.org/1999/xlink" x="0px" y="0px"
	 viewBox="0 0 864 1080" style="enable-background:new 0 0 864 1080;" xml:space="preserve">
<style type="text/css">
	.st0{fill:#FFFFFF;}
	.st1{fill:#F9BE8F;}
	.st2{fill:#FFE1C5;}
	.st3{fill:#FFBB43;}
	.st4{fill:#F7B981;}
	.st5{fill:#7D7DFF;}
	.st6{fill:#FCD5B6;}
	.st7{fill:#560099;}
	.st8{fill:#E5AB83;}
	.st9{fill:#000099;}
	.st10{fill:#E0504C;}
	.st11{fill:#898989;}
	.st12{fill:#A8A8A8;}
	.st13{fill:#EDE6DD;}
	.st14{fill:#B9B9EA;}
	.st15{fill:#9D9DCE;}
	.st16{fill:#8787AF;}
	.st17{fill:#5E5E5E;}
	.st18{fill:#BA3A3A;}
	.st19{fill:#4B1D77;}
	.st20{fill:#6161AD;}
	.st21{fill:#8282D1;}
	.st22{fill:#FF8C5B;}
	.st23{font-family:'MavenProBold';}
	.st24{font-size:40.0281px;}
</style>
<g>
	<rect y="0" class="st0" width="864" height="1080"/>
</g>
<g>
	<path class="st1" d="M376.1,548.7c-43.7-15.2-184.8,71.6-190.9,139.5c-5.2,57.9,30.4,128.8,64,156.6l0,0h153.5l0,0
		C478.7,745.3,497.6,590.9,376.1,548.7z"/>
	<path class="st2" d="M462.3,370.1c66.6-24.3,140.8-18.9,175.9,70.7c33.8,86.1-8.4,163.6-22.2,213.8
		c-18.2,66.3-3.3,137.4,39.7,190.3l0,0H421.9l0,0C306.1,685.3,277.2,437.7,462.3,370.1z"/>
	<path class="st3" d="M601.2,797.6c37-67.9,25.3-186.4-52-186.4c-140,0-204,156.3-204,233.6c73.6,0,110.7,0,188,0
		C558,844.8,582,832.8,601.2,797.6z"/>
	<path class="st4" d="M691.6,678.2c-39-116.8-46.1-184.6-120.8-152.8c-28.7,12.2-44,43.1-52,75.6c-12.4,50.1-6.9,102.2,14.7,149.9
		l43.7,93.8h105.6C682.8,844.8,717.4,755.4,691.6,678.2z"/>
	<path class="st5" d="M671.1,778.3c2.6-14.3,9.8-32.8,28.6-46.2c0.1,0.1,0.2,0.2,0.3,0.3c5.8,5.4,16.6-3.9,30.1-3.5
		c18.4,0.5,32.8-15.4,20.5-24.5c-14.6-10.8-23.3,4.7-35.1,8.5c-11.3,3.7-20.1,12.2-16.7,18c-6.9,4.9-12.7,10.7-17.3,17.4
		c-5.9,8.5-9.9,18.5-11.9,29.7c-0.4,2.1-0.7,4.2-0.9,6.3c-1.9-27.5-4.1-61.5-3.8-65.5c0.2-2.5,0.6-5.1,1.2-7.3
		c0.4,0.3,1,0.5,1.6,0.4c4.4-0.7,13-2.8,19.3-9c7-6.8,12.5-23.2,14.4-29.8c0.3-1-0.8-1.8-1.6-1.2c-5.3,3.4-18.1,11.8-25,18.5
		c-5,4.9-7.5,11.2-8.8,15.8c-0.8,2.5-2.2,7.4-2.6,12.4c-0.3,4.5,2.3,44,4.3,72.4c-0.5-2.6-1.2-5.3-1.9-8.1c-2.3-9.2-5.1-17-8.3-23.2
		c-2.2-4.4-4.6-8.1-7.2-10.9c3.6-3.1-2.1-10.5-6.3-20.4c-3.6-8.6-11.3-22-18.5-11c-3.5,5.3-4.4,12.1,4.6,23.3c6.3,7.8,13.1,12,19,9
		c6.1,6.7,11.3,18.1,15.3,33.7c1.9,7.4,3.2,14.4,4,19.8c0,0.6,0.1,1.2,0.2,1.8c-11.2,0-24.1,0-42.9,0c0,24.8,20.1,44.8,44.8,44.8
		c24.8,0,44.8-20.1,44.8-44.8c-18.2,0-29.9,0-44,0c0.4-1.2,2.6-7,6.6-13.6c4.1-6.8,11-15.8,20.8-20.2c6.2-2.8,12.8-3.4,19.8-2
		c-0.9,0.7-1.5,1.6-1.7,2.7c-0.5,3-0.6,7.2,1.6,10c1.2,1.5,5.6,4.5,10.3,7.5c4.5,2.9,9.9-2,7.6-6.8c-2.3-4.8-4.5-9.1-5.7-10.6
		c-2.2-2.8-6.4-3.6-9.4-3.8c-0.1,0-0.2,0-0.2,0c-8.1-2.2-15.8-1.7-23,1.5c-10.1,4.6-17.2,13.8-21.4,20.8c-3.6,5.9-5.7,11.3-6.5,13.3
		c-0.1-2-0.3-4.2-0.5-6.5C669.5,791.9,669.8,785.3,671.1,778.3z"/>
	<g>
		<path class="st6" d="M543.8,607c-0.4,2.1-0.8,4.3-1.1,6.6c-1.7,12.6-0.5,28.1-1.4,42.3c-1.7,26.2-1.7,41.1-1.7,41.1
			c-0.4,1.6,0.3,8.6-1,12.1c-1.8,5-3.6,9.6-1.8,14.2l0.9,1.5l1.3,6.3c0.2,0.9,1,1.4,1.9,1.2c0.4-0.1,0.7-0.3,0.9-0.5l0.3,0.5
			c1.4,1.5,3,0.6,2.4-1.4l-3.1-8.9c-0.5-1.1-0.1-2.3,1-2.9l0.1,0c0,0,0.1,0,0.1-0.1c1.2-0.5,2.4,0.5,2.4,1.8l-0.2,5.5
			c1.1,1.2,3.1,0.1,2.7-1.5l1-4.7c0.6-2.7,0.5-5.5-0.3-8.1c-0.8-2.9-0.7-5.5-0.6-5.8c0,0,4.3-22,7.7-48.7
			c1.8-14.1,1.3-29.5,2.9-41.7c0,0,0,0,0,0C552.6,614.2,547.6,611.2,543.8,607z"/>
		<path class="st6" d="M598,492.9c-4.1,0.1-8.1,0.4-12.1,1c-11.7,1.7-19.7,12.7-17.7,24.3c2.9,17.3,7.1,34.5,12.5,51.6
			c6,1,12.4,7.7,18.2,7.3s11-8.2,16.7-10.2c2.5-17.7,3.8-35.4,3.8-52.9C619.5,502.1,609.8,492.6,598,492.9z"/>
		<path class="st7" d="M569.4,534.8l5.6,2.6c1.3,0.6,2.8-0.3,2.9-1.8c0.2-4.8,0.2-14.1-2.1-19.7c-3.1-7.7-2.5-11.7-2.9-14.9
			c-0.4-3.3-7.5,2.7-7,10.8C566.4,519.9,567.9,534.1,569.4,534.8z"/>
		<path class="st7" d="M622.1,530.4l-5.7,3.9c-0.9,0.6-2.1,0.1-2.4-0.9c-0.9-4.4-2.7-14.3-1.4-20.5c1.8-8.1,1.2-10.1,1.1-13.4
			c-0.1-3.3,7.2-0.3,8,7.7C622.6,515.2,623.5,529.5,622.1,530.4z"/>
		<path class="st6" d="M568.4,541.7c0.4,5.2,0.4,9.8,4.7,9.1c2.2-0.3,3.6-4.6,3.1-9.8c-0.4-5.2-2.6-9.3-4.7-9.1
			S568,536.4,568.4,541.7z"/>
		<path class="st6" d="M623.4,537.1c0.4,5.2,1.2,9.8-3.1,9.8c-2.2,0-4.3-3.9-4.7-9.1c-0.4-5.2,1-9.6,3.1-9.8
			S622.9,531.8,623.4,537.1z"/>
		<g>
			<path class="st7" d="M592.9,496.5c-0.3,0-0.5-0.2-0.6-0.4c-0.6-2.2,1.5-4.7,4.8-5.5c3.3-0.9,6.4,0.2,7,2.4
				c0.1,0.3-0.1,0.6-0.4,0.7c-0.3,0.1-0.6-0.1-0.7-0.4c-0.4-1.5-2.9-2.2-5.5-1.5c-2.6,0.7-4.4,2.6-4,4.1c0.1,0.3-0.1,0.6-0.4,0.7
				C593,496.5,592.9,496.5,592.9,496.5z"/>
		</g>
		<g>
			<path class="st7" d="M594.3,498c-0.3,0-0.5-0.2-0.6-0.4c-0.6-2.2,1.5-4.7,4.8-5.5c3.3-0.9,6.4,0.2,7,2.4c0.1,0.3-0.1,0.6-0.4,0.7
				c-0.3,0.1-0.6-0.1-0.7-0.4c-0.4-1.5-2.9-2.2-5.5-1.5c-2.6,0.7-4.4,2.6-4,4.1c0.1,0.3-0.1,0.6-0.4,0.7
				C594.4,498,594.3,498,594.3,498z"/>
		</g>
		<g>
			<path d="M589.3,524.2L589.3,524.2c0.5,0.4,0.5,1.1,0.1,1.5l-1.5,1.8c-0.4,0.5-1.1,0.5-1.5,0.1l0,0c-0.5-0.4-0.5-1.1-0.1-1.5
				l1.5-1.8C588.2,523.8,588.9,523.8,589.3,524.2z"/>
		</g>
		<g>
			<path d="M600.9,523.2L600.9,523.2c0.4-0.5,1.1-0.5,1.5-0.1l1.8,1.5c0.5,0.4,0.5,1.1,0.1,1.5l0,0c-0.4,0.5-1.1,0.5-1.5,0.1
				l-1.8-1.5C600.5,524.3,600.5,523.7,600.9,523.2z"/>
		</g>
		<g>
			<path class="st8" d="M597.3,552.5c-2.8,0.9-4.9,0.7-6.6-0.4c-0.2-0.1-0.2-0.4-0.1-0.6c0.1-0.2,0.4-0.2,0.6-0.1
				c1.4,1,3.3,1.1,5.8,0.3c2.9-0.9,4.5-2,5.4-3.8c0.1-0.2,0.4-0.3,0.6-0.2c0.2,0.1,0.3,0.4,0.2,0.6
				C602.2,550.2,600.4,551.6,597.3,552.5z"/>
		</g>
		<g>
			<path class="st8" d="M594.4,541.6c-0.3,0-0.5-0.1-0.8-0.2c-1-0.6-1.6-1.9-1.8-3.7c-0.4-3.4,0.8-8.1,2.5-9.9
				c0.2-0.2,0.6-0.3,0.8,0c0.2,0.2,0.3,0.6,0,0.8c-1.5,1.5-2.5,5.9-2.1,9c0.2,1.4,0.6,2.4,1.3,2.9c0.2,0.1,0.6-0.1,1.2-0.4
				c0.9-0.5,2.3-1.3,3.7,0c0.2,0.2,0.3,0.6,0,0.8c-0.2,0.2-0.6,0.3-0.8,0c-0.7-0.6-1.2-0.4-2.2,0.2
				C595.6,541.3,595,541.6,594.4,541.6z"/>
		</g>
		<path class="st9" d="M555.2,706c0,0-2.7,102.5-2.7,108.7l1.2,59l19.9,2l7.1-70.6l12-67.1c0.6-3.6,3.8-6.3,7.4-6.3h0l12.1,146.5
			l19.9-3.8l2.5-70.2l7.6-98.1H555.2z"/>
		<path class="st10" d="M637.3,615.3c5.7,34.4,8.1,78.5,9.3,90.7c-28.1,7.1-69.8,7.6-96.2,0c1.5-14.4,8.6-94.2,7.3-90.4
			c-5.6-1.4-12.8-3.1-16.6-7.3c1.4-6.5,2.8-13.4,5.6-18.2c3.2-5.5,6.7-9.3,11.5-12.3c5.4-3.4,10-5.1,13.2-5.3c0,0,0,0,0,0
			c0.7-0.4,1.5-0.7,2.3-0.8c6.8-1,16.1,0.3,21.6,3.7c1.5,0.9,3.3,1,4.8,0.2c5.3-2.8,13.2-3.8,19.4-3.8c1.3,0,2.6,0.5,3.7,1.5
			c0,0,0,0,0,0c1.4,0.2,7.2,1,13.4,3.9c0.5,0.3,1.1,0.6,1.7,0.9c5.4,3.2,9.6,8.3,11.8,14.2c2.4,6.5,3.8,15.5,4.3,18.1
			c0.1,0.3-0.1,0.6-0.4,0.8c-4.1,2.8-9.9,5-15.1,5.5c-0.3,0-0.6-0.1-0.8-0.4c-0.1-0.2-0.2-0.4-0.4-0.5
			C637.3,615.3,637.3,615.3,637.3,615.3z"/>
		<path class="st6" d="M653.7,611.3c-0.1-0.8-9.6,4.6-14.9,5.3c1.1,6.5,3.9,18.4,4,19.9c-9.7-4.1-48.8-14.8-48.8-14.8l-3,7.3
			c0,0,35.3,18.4,49.4,24.7c2.8,1.3,4.9,2.2,6.9,2.2c2.6,0,4.6-1,5.6-1.7c4.6-3,5.2-8.8,5.4-10.6
			C658.7,640.8,655.1,619.2,653.7,611.3z M649.1,640.5C649.1,640.5,649.1,640.5,649.1,640.5C649.1,640.5,649.1,640.5,649.1,640.5z"
			/>
		<path class="st9" d="M605.3,567.6c3.5-0.6,7-1.2,10.5-1.8c1.4-0.2,4,0.6,5.4,2.1c0.9,1,1.7,2.1,2.3,3.2c0.9,1.5-0.5,3.2-2.8,3.8
			c-5.2,1.4-10.5,2.8-15.7,4.2c-2.3,0.6-3.3-0.7-2.7-2.9c0.4-1.6,0.6-3.1,0.6-4.5C603,569.5,603.8,567.8,605.3,567.6z"/>
		<path class="st9" d="M591.2,567.4c-3.5-0.5-7-1-10.5-1.5c-1.5-0.2-4,0.8-5.3,2.2c-0.9,1.1-1.6,2.1-2.2,3.2
			c-0.9,1.5,0.6,3.2,2.9,3.7c5.3,1.2,10.6,2.5,15.8,3.7c2.3,0.6,3.2-0.8,2.6-3c-0.4-1.5-0.7-3-0.8-4.5
			C593.6,569.2,592.7,567.6,591.2,567.4z"/>
		<circle class="st9" cx="598.4" cy="581.6" r="1.3"/>
		<circle class="st9" cx="598.4" cy="588.8" r="1.3"/>
		<g>
			<path class="st6" d="M600.8,622.9L600.8,622.9c0.7-0.8,0.7-2.1-0.2-2.9l-7.1-6.4c-0.8-0.7-2.1-0.7-2.9,0.2l0,0
				c-0.7,0.8-0.7,2.1,0.2,2.9l7.1,6.4C598.7,623.8,600,623.7,600.8,622.9z"/>
		</g>
		<g>
			<path class="st11" d="M596.1,633.4l-0.7,0.8l-3.9-28.7c0-0.3-0.3-0.5-0.6-0.5l-14.5,2l0.6-0.6c0.2-0.2,0.4-0.3,0.7-0.3l13.9-1.8
				c0.3,0,0.6,0.2,0.6,0.5L596.1,633.4z"/>
			<path class="st12" d="M592.4,634.5l-9.3,1.2c-1.6,0.2-3.1-0.9-3.4-2.6l-3.1-23.3c-0.2-1.6,0.9-3.1,2.6-3.4l9.3-1.2
				c1.6-0.2,3.1,0.9,3.4,2.6l3.1,23.3C595.2,632.8,594.1,634.3,592.4,634.5z"/>
			<polygon class="st13" points="584.9,616.3 584.3,615.8 584.9,614.9 586.5,616.1 585.3,617.6 584.4,616.9 			"/>
			<circle class="st11" cx="579.1" cy="609.3" r="1.1"/>
			<circle class="st11" cx="581.4" cy="608.9" r="0.4"/>
		</g>
		<g>
			<path class="st6" d="M596.3,632L596.3,632c0.2-1.1-0.5-2.2-1.6-2.4l-14.7-3.1c-1.1-0.2-2.2,0.5-2.4,1.6l0,0
				c-0.2,1.1,0.5,2.2,1.6,2.4l14.7,3.1C595,633.8,596.1,633.1,596.3,632z"/>
		</g>
		<g>
			<path class="st6" d="M595.1,627L595.1,627c0.2-1.1-0.5-2.2-1.6-2.4l-14.7-3.1c-1.1-0.2-2.2,0.5-2.4,1.6l0,0
				c-0.2,1.1,0.5,2.2,1.6,2.4l14.7,3.1C593.8,628.8,594.9,628.1,595.1,627z"/>
		</g>
		<g>
			<path class="st6" d="M597.5,622.8L597.5,622.8c0.2-1.1-0.5-2.2-1.6-2.4l-14.7-3.1c-1.1-0.2-2.2,0.5-2.4,1.6l0,0
				c-0.2,1.1,0.5,2.2,1.6,2.4l14.7,3.1C596.2,624.6,597.3,623.9,597.5,622.8z"/>
		</g>
		<g>
			<path class="st6" d="M601.6,630.3l1.1-5.1c0.6-2.6-1.1-5.1-3.7-5.7l-5.1-1.1c-1.1,5.1-5.1,1.1-5.7,3.7l-1.1,5.1
				c-0.6,2.6,1.1,5.1,3.7,5.7l5.1,1.1C598.5,634.5,601,632.9,601.6,630.3z"/>
		</g>
		<path class="st9" d="M573.8,873.4H556l0,0c-6.7,1.1-13.1,3.3-19.1,6.7l-2.3,1.3c-2.1,1.5-1.1,5.1,1.4,5.1l12.8,0.9
			c4.5,0.3,9,0.3,13.5-0.2l7.7-0.8c2.1,0,3.8-1.9,3.8-4.1V873.4z"/>
		<path class="st9" d="M632.2,874.3l-15.6,2.2l0,0c-6.8,1.1-7.4,6.4-13.5,9.8l-4,3c-1.7,1.2-1.4,3.1,0,4.3c0.6,0.5,10.7,2,10.7,2
			c3.4,0.2,6.5-1.1,9.8-1.9c3.3-0.9,9.6-6.7,10.2-7.2c1.9-1.5,2.4-2.9,2.4-5.1V874.3z"/>
		<path class="st6" d="M599.7,620.9"/>
	</g>
	<g>
		<path class="st5" d="M607.8,616.3c-0.4,0-0.7-0.2-0.8-0.6c-0.2-0.5,0-1,0.5-1.2c2.7-1.2,5.5-2.4,8.4-3.8c0.5-0.2,1,0,1.2,0.4
			c0.2,0.5,0,1-0.4,1.2c-2.8,1.4-5.7,2.7-8.4,3.8C608.1,616.3,608,616.3,607.8,616.3z M624.4,608.3c-0.3,0-0.6-0.2-0.8-0.5
			c-0.2-0.4-0.1-1,0.4-1.2c2.7-1.5,5.4-3,8-4.6c0.4-0.3,1-0.1,1.3,0.3c0.3,0.4,0.1,1-0.3,1.3c-2.6,1.6-5.3,3.1-8,4.6
			C624.7,608.3,624.6,608.3,624.4,608.3z M640.2,598.7c-0.3,0-0.6-0.1-0.8-0.4c-0.3-0.4-0.2-1,0.2-1.3c2.6-1.8,5.1-3.6,7.4-5.4
			c0.4-0.3,1-0.2,1.3,0.1c0.3,0.4,0.2,1-0.1,1.3c-2.3,1.9-4.8,3.7-7.5,5.5C640.5,598.7,640.3,598.7,640.2,598.7z M654.6,587.3
			c-0.2,0-0.5-0.1-0.7-0.3c-0.3-0.4-0.3-1,0-1.3c2.3-2.1,4.4-4.3,6.3-6.5c0.3-0.4,0.9-0.4,1.3-0.1c0.4,0.3,0.4,0.9,0.1,1.3
			c-1.9,2.2-4.1,4.5-6.5,6.7C655,587.2,654.8,587.3,654.6,587.3z M666.6,573.4c-0.2,0-0.4,0-0.5-0.2c-0.4-0.3-0.5-0.9-0.3-1.3
			c1.2-1.8,2.3-3.6,3.2-5.4c0.4-0.8,0.8-1.7,1.3-2.5c0.2-0.5,0.8-0.6,1.2-0.4c0.5,0.2,0.6,0.8,0.4,1.2c-0.4,0.9-0.8,1.7-1.3,2.6
			c-1,1.9-2.1,3.7-3.3,5.6C667.1,573.2,666.9,573.4,666.6,573.4z M674.7,556.9c-0.1,0-0.2,0-0.3-0.1c-0.5-0.2-0.7-0.7-0.5-1.2
			c1.1-2.8,2.1-5.7,2.9-8.6c0.1-0.5,0.7-0.8,1.1-0.6c0.5,0.1,0.8,0.7,0.6,1.1c-0.9,2.9-1.9,5.9-3,8.8
			C675.4,556.7,675.1,556.9,674.7,556.9z M679.8,539.3c-0.1,0-0.1,0-0.2,0c-0.5-0.1-0.8-0.6-0.7-1.1c0.6-3,1-6,1.3-9
			c0.1-0.5,0.5-0.9,1-0.8c0.5,0.1,0.9,0.5,0.8,1c-0.3,3-0.8,6.1-1.4,9.2C680.7,539,680.3,539.3,679.8,539.3z M681.7,521
			c-0.5,0-0.9-0.4-0.9-0.9c0-3.1-0.2-6.1-0.5-9.1c-0.1-0.5,0.3-1,0.8-1c0.5-0.1,1,0.3,1,0.8c0.3,3,0.5,6.2,0.5,9.3
			C682.6,520.6,682.2,521,681.7,521C681.7,521,681.7,521,681.7,521z M679.6,502.8c-0.4,0-0.8-0.3-0.9-0.7c-0.7-3-1.6-5.9-2.6-8.7
			c-0.2-0.5,0.1-1,0.5-1.2c0.5-0.2,1,0.1,1.2,0.5c1.1,2.9,2,5.9,2.7,8.9c0.1,0.5-0.2,1-0.7,1.1C679.8,502.8,679.7,502.8,679.6,502.8
			z M673.3,485.6c-0.3,0-0.6-0.2-0.8-0.5c-1.4-2.7-3-5.3-4.8-7.7c-0.3-0.4-0.2-1,0.2-1.3c0.4-0.3,1-0.2,1.3,0.2
			c1.8,2.5,3.5,5.2,4.9,7.9c0.2,0.4,0.1,1-0.4,1.2C673.5,485.5,673.4,485.6,673.3,485.6z M662.5,470.7c-0.2,0-0.5-0.1-0.7-0.3
			c-2.1-2.2-4.3-4.2-6.7-6.1c-0.4-0.3-0.5-0.9-0.1-1.3c0.3-0.4,0.9-0.5,1.3-0.1c2.4,1.9,4.8,4.1,6.9,6.3c0.4,0.4,0.3,0.9,0,1.3
			C663,470.6,662.8,470.7,662.5,470.7z M648.2,459.2c-0.2,0-0.3,0-0.5-0.1c-2.5-1.5-5.2-3-8-4.3c-0.5-0.2-0.7-0.8-0.4-1.2
			c0.2-0.5,0.8-0.7,1.2-0.4c2.9,1.3,5.6,2.8,8.2,4.4c0.4,0.3,0.6,0.8,0.3,1.3C648.8,459.1,648.5,459.2,648.2,459.2z"/>
	</g>
	<g>
		<g>
			<path class="st5" d="M515,633.6C515,633.6,515,633.6,515,633.6c-3.1,0-6.2-0.1-9.2-0.2c-0.5,0-0.9-0.4-0.9-1c0-0.5,0.4-0.9,1-0.9
				c3,0.1,6.1,0.2,9.2,0.2c0.5,0,0.9,0.4,0.9,0.9C515.9,633.2,515.5,633.6,515,633.6z M524.2,633.5c-0.5,0-0.9-0.4-0.9-0.9
				c0-0.5,0.4-0.9,0.9-0.9c3-0.1,6.1-0.2,9.2-0.4c0.5,0,0.9,0.4,1,0.9c0,0.5-0.4,0.9-0.9,1C530.4,633.3,527.3,633.4,524.2,633.5
				C524.2,633.5,524.2,633.5,524.2,633.5z M496.6,632.8C496.6,632.8,496.6,632.8,496.6,632.8c-3.2-0.2-6.3-0.5-9.3-0.9
				c-0.5-0.1-0.9-0.5-0.8-1c0.1-0.5,0.5-0.9,1-0.8c3,0.4,6.1,0.6,9.1,0.9c0.5,0,0.9,0.5,0.8,1C497.5,632.4,497.1,632.8,496.6,632.8z
				 M542.6,632.5c-0.5,0-0.9-0.4-0.9-0.8c0-0.5,0.3-1,0.8-1c3-0.2,6.1-0.5,9.1-0.9c0.5-0.1,1,0.3,1,0.8c0.1,0.5-0.3,1-0.8,1
				C548.8,632,545.7,632.3,542.6,632.5C542.6,632.5,542.6,632.5,542.6,632.5z M560.9,630.5c-0.5,0-0.8-0.3-0.9-0.8
				c-0.1-0.5,0.3-1,0.8-1c3-0.4,6.1-0.9,9.1-1.4c0.5-0.1,1,0.3,1.1,0.8c0.1,0.5-0.3,1-0.8,1.1c-3,0.5-6.1,1-9.1,1.4
				C561,630.5,560.9,630.5,560.9,630.5z M426.3,613.2c-0.2,0-0.3,0-0.5-0.1c-2.7-1.5-5.3-3.2-7.9-4.9c-0.4-0.3-0.5-0.9-0.2-1.3
				c0.3-0.4,0.9-0.5,1.3-0.2c2.5,1.7,5.1,3.3,7.7,4.8c0.4,0.3,0.6,0.8,0.3,1.3C426.9,613,426.6,613.2,426.3,613.2z M411.1,602.9
				c-0.2,0-0.4-0.1-0.6-0.2c-2.4-2-4.7-4-6.9-6.2c-0.4-0.4-0.4-0.9,0-1.3c0.4-0.4,0.9-0.4,1.3,0c2.2,2.1,4.4,4.1,6.8,6
				c0.4,0.3,0.5,0.9,0.1,1.3C411.6,602.7,411.4,602.9,411.1,602.9z M398,590.1c-0.3,0-0.5-0.1-0.7-0.3c-2-2.3-3.9-4.8-5.7-7.3
				c-0.3-0.4-0.2-1,0.2-1.3c0.4-0.3,1-0.2,1.3,0.2c1.8,2.5,3.6,4.9,5.6,7.2c0.3,0.4,0.3,1-0.1,1.3C398.4,590,398.2,590.1,398,590.1z
				 M387.3,575.2c-0.3,0-0.6-0.2-0.8-0.5c-1.5-2.6-3-5.4-4.4-8.2c-0.2-0.5,0-1,0.4-1.2c0.5-0.2,1,0,1.2,0.4c1.3,2.7,2.8,5.5,4.3,8
				c0.3,0.4,0.1,1-0.3,1.3C387.6,575.1,387.5,575.2,387.3,575.2z M379.3,558.6c-0.4,0-0.7-0.2-0.9-0.6c-1.1-2.8-2.1-5.8-3-8.7
				c-0.1-0.5,0.1-1,0.6-1.1c0.5-0.1,1,0.1,1.1,0.6c0.9,2.9,1.9,5.8,3,8.6c0.2,0.5-0.1,1-0.5,1.2
				C379.6,558.6,379.4,558.6,379.3,558.6z M374,541.1c-0.4,0-0.8-0.3-0.9-0.7c-0.7-2.9-1.3-6-1.8-9.1c-0.1-0.5,0.3-1,0.8-1.1
				c0.5-0.1,1,0.3,1.1,0.8c0.5,3,1.1,6,1.8,9c0.1,0.5-0.2,1-0.7,1.1C374.1,541.1,374,541.1,374,541.1z M370.9,523
				c-0.5,0-0.9-0.3-0.9-0.8c-0.3-3-0.6-6.1-0.8-9.2c0-0.5,0.4-0.9,0.9-1c0.5,0,0.9,0.4,1,0.9c0.2,3.1,0.5,6.1,0.8,9.1
				c0.1,0.5-0.3,1-0.8,1C371,523,370.9,523,370.9,523z M369.8,504.6c-0.5,0-0.9-0.4-0.9-0.9c0-1.2,0-2.3,0-3.5c0-1.9,0-3.9,0.1-5.8
				c0-0.5,0.5-0.9,1-0.9c0.5,0,0.9,0.5,0.9,1c-0.1,1.9-0.1,3.8-0.1,5.7c0,1.2,0,2.3,0,3.5C370.7,504.2,370.3,504.6,369.8,504.6
				C369.8,504.6,369.8,504.6,369.8,504.6z M370.7,486.3c0,0-0.1,0-0.1,0c-0.5-0.1-0.9-0.5-0.8-1c0.4-3.1,0.9-6.2,1.6-9.1
				c0.1-0.5,0.6-0.8,1.1-0.7c0.5,0.1,0.8,0.6,0.7,1.1c-0.6,2.9-1.1,5.9-1.5,9C371.5,486,371.1,486.3,370.7,486.3z M374.6,468.4
				c-0.1,0-0.2,0-0.3,0c-0.5-0.2-0.8-0.7-0.6-1.2c0.9-3,2-5.9,3.2-8.7c0.2-0.5,0.7-0.7,1.2-0.5c0.5,0.2,0.7,0.7,0.5,1.2
				c-1.2,2.7-2.3,5.6-3.2,8.5C375.3,468.1,375,468.4,374.6,468.4z M381.9,451.6c-0.2,0-0.3,0-0.4-0.1c-0.4-0.2-0.6-0.8-0.4-1.3
				c1.5-2.7,3.2-5.3,5-7.8c0.3-0.4,0.9-0.5,1.3-0.2c0.4,0.3,0.5,0.9,0.2,1.3c-1.7,2.5-3.4,5.1-4.9,7.7
				C382.5,451.4,382.2,451.6,381.9,451.6z M392.4,436.6c-0.2,0-0.4-0.1-0.6-0.2c-0.4-0.3-0.4-0.9-0.1-1.3c2-2.3,4.2-4.6,6.4-6.7
				c0.4-0.3,1-0.3,1.3,0c0.3,0.4,0.3,1,0,1.3c-2.2,2.1-4.3,4.3-6.3,6.6C393,436.5,392.7,436.6,392.4,436.6z M405.8,423.9
				c-0.3,0-0.5-0.1-0.7-0.4c-0.3-0.4-0.2-1,0.2-1.3c2.4-1.9,4.9-3.7,7.5-5.4c0.4-0.3,1-0.2,1.3,0.3c0.3,0.4,0.2,1-0.3,1.3
				c-2.6,1.7-5.1,3.5-7.4,5.3C406.2,423.9,406,423.9,405.8,423.9z M421.2,413.8c-0.3,0-0.6-0.2-0.8-0.5c-0.2-0.4-0.1-1,0.4-1.2
				c2.7-1.5,5.5-2.9,8.3-4.2c0.5-0.2,1,0,1.2,0.5c0.2,0.5,0,1-0.5,1.2c-2.8,1.3-5.5,2.6-8.2,4.1
				C421.5,413.8,421.3,413.8,421.2,413.8z M437.9,406.2c-0.4,0-0.7-0.2-0.9-0.6c-0.2-0.5,0.1-1,0.5-1.2c2.9-1.1,5.9-2.1,8.8-2.9
				c0.5-0.1,1,0.1,1.1,0.6s-0.1,1-0.6,1.1c-2.9,0.8-5.8,1.8-8.7,2.9C438.1,406.2,438,406.2,437.9,406.2z M455.6,401
				c-0.4,0-0.8-0.3-0.9-0.7c-0.1-0.5,0.2-1,0.7-1.1c0.8-0.2,1.3-0.2,1.3-0.2c0.5-0.1,1,0.3,1.1,0.8c0.1,0.5-0.3,1-0.8,1.1
				c0,0-0.4,0.1-1.3,0.2C455.7,401,455.7,401,455.6,401z"/>
		</g>
		<path class="st5" d="M495.2,384.9l-1.4-0.4l0.5-1.7c0.2-0.8-0.2-1.6-0.9-1.8l0,0c-0.8-0.2-1.6,0.2-1.8,0.9l-0.5,1.7l-8.7-2.7
			l0.5-1.7c0.2-0.8-0.2-1.6-0.9-1.8c-0.8-0.2-1.6,0.2-1.8,0.9l-0.5,1.7l-1.4-0.4c-3-0.9-6.1,0.7-7,3.7l-5.3,17c-0.9,3,0.7,6.1,3.7,7
			l17,5.3c3,0.9,6.1-0.7,7-3.7l5.3-17C499.8,389,498.1,385.8,495.2,384.9z M492,408.1c-0.7,2.2-3.1,3.4-5.3,2.8l-16.5-5.2
			c-2.2-0.7-3.4-3.1-2.7-5.3l3.8-12l24.5,7.7L492,408.1z"/>
	</g>
	<g>
		<path class="st5" d="M617.7,458.2c-5.3,0-9.7-3.8-10.5-9.1c-0.7-4.5,1.4-8.9,5.3-11.1l1.1,2.2l1.5-4.5l-4.5-1.5l1.1,2.2
			c-4.6,2.6-7.2,7.8-6.3,13.1c1,6.1,6.2,10.5,12.3,10.6c0,0,0,0,0,0c0.5,0,0.9-0.4,0.9-0.9C618.6,458.7,618.2,458.2,617.7,458.2z"/>
		<path class="st5" d="M630.2,445.4c-1-6-6.1-10.5-12.2-10.6c-0.5,0-0.9,0.4-0.9,0.9c0,0.5,0.4,0.9,0.9,0.9
			c5.2,0.1,9.6,3.9,10.5,9.1c0.7,4.6-1.4,9-5.5,11.2l-1.1-2.2l-1.5,4.5l4.5,1.5l-1.1-2.2C628.5,456,631.1,450.8,630.2,445.4z"/>
	</g>
	<polygon class="st14" points="202,550.7 246.2,550.7 235,456.9 164.2,456.9 153,550.7 197.2,550.7 197.2,840.5 162.8,840.5 
		162.8,844.8 236.4,844.8 236.4,840.5 202,840.5 	"/>
	<path class="st14" d="M442.1,844.9H295.8c-18.6,0-33.6-15.1-33.6-33.6V657.5c0-18.6,15.1-33.6,33.6-33.6h146.3
		c18.6,0,33.6,15.1,33.6,33.6v153.7C475.7,829.8,460.7,844.9,442.1,844.9z"/>
	<path class="st15" d="M515.2,837.4h-73V737.2c0-20.2,16.3-36.5,36.5-36.5h0c20.2,0,36.5,16.3,36.5,36.5V837.4z"/>
	<path class="st15" d="M301.6,837.4h-73V737.2c0-20.2,16.3-36.5,36.5-36.5h0c20.2,0,36.5,16.3,36.5,36.5V837.4z"/>
	<path class="st16" d="M442.2,780.2c0,0-34.2,5.7-70.3,5.7c-35,0-70.3-5.7-70.3-5.7v-49.6c0,0,21.1-4.1,70.3-4.1s70.3,4.1,70.3,4.1
		V780.2z"/>
	<rect x="228.7" y="837.4" class="st17" width="73" height="7.4"/>
	<rect x="442.2" y="837.4" class="st17" width="73" height="7.4"/>
	<g>
		<g>
			<path class="st9" d="M364.7,646.5l-1.2,71.2l74.3,23.8c0,0,2.3-96.9-11.8-110.9c-4-4-9.1-6.7-14.6-7.9c-2.1-0.5-4.3-0.7-6.5-0.7
				h-12.3c-2.5,0-4.9,0.3-7.2,0.9c-5.6,1.4-10.6,4.4-14.6,8.5C364.3,637.8,364.7,636.3,364.7,646.5z"/>
		</g>
		<g>
			<path class="st10" d="M425.3,630.2c-3.8-3.6-8.6-6.2-13.9-7.4c2.8-5.9,7-16.2,9.6-32.7c0.3-2,2.8-1.9,4.7-1.6
				c1.2,0.2,2.1,1.3,2.1,2.6c-0.1,5.6,0.3,21.7,6.9,33.6C436.6,628.3,431.5,629.7,425.3,630.2z"/>
		</g>
		<g>
			<g>
				<path class="st6" d="M423.8,558.1c-17.2-9.8-34.4-9.8-51.6,0c-0.1,3.7,5.5,2.1,5.6,5.9c0.3,6.4-4.6,18.2-3.4,24.6
					c2,11.3,5.2,22.6,9.7,33.9c9.3,5.3,18.5,5.3,27.8,0C420.5,601,424.5,579.6,423.8,558.1z"/>
			</g>
		</g>
		<g>
			<path class="st18" d="M386.5,622.6c-5.2,1.1-10,3.5-13.9,6.9c-6.8-0.7-12.6-2.3-10.5-6c8.1-14.6,14.6-56.9,14.6-56.9
				s2.4-2.8,1.8,0.4C375,588.3,382.2,611.3,386.5,622.6z"/>
		</g>
		<g>
			<path d="M385.5,581.5L385.5,581.5c0.7,0,1.2,0.6,1.2,1.2v2.7c0,0.7-0.6,1.2-1.2,1.2l0,0c-0.7,0-1.2-0.6-1.2-1.2v-2.7
				C384.2,582,384.8,581.5,385.5,581.5z"/>
		</g>
		<g>
			<path d="M401,586.7L401,586.7c-0.7,0-1.2-0.6-1.2-1.2v-2.7c0-0.7,0.6-1.2,1.2-1.2l0,0c0.7,0,1.2,0.6,1.2,1.2v2.7
				C402.3,586.1,401.7,586.7,401,586.7z"/>
		</g>
		<g>
			<path class="st8" d="M392.7,597.2c-1.9,0-3.4-1.5-3.4-3.4c0-1.9,1.5-3.4,3.4-3.4c0.3,0,0.5,0.2,0.5,0.5c0,0.3-0.2,0.5-0.5,0.5
				c-1.3,0-2.4,1.1-2.4,2.4c0,1.3,1.1,2.4,2.4,2.4c0.3,0,0.5,0.2,0.5,0.5S392.9,597.2,392.7,597.2z"/>
		</g>
		<g>
			<path class="st6" d="M420.3,593.6c1.7,1.7,4.5,1.7,6.2,0c1.7-1.7,1.7-4.5,0-6.2c-1.7-1.7-4.5-1.7-6.2,0"/>
		</g>
		<g>
			<path class="st6" d="M382.8,587.7c-1.7-1.7-4.5-1.7-6.2,0c-1.7,1.7-1.7,4.5,0,6.2c1.7,1.7,4.5,1.7,6.2,0V587.7z"/>
		</g>
		<g>
			<path class="st10" d="M417.9,565.6c-4.1-3.3-17.4-1.3-22.4,0.3c-5.6,1.8-15.4,2.4-20.9,0c-5.5-2.4-12.6-18.3,5.1-25.2
				c19.3-7.5,31.4,12.5,39.4,12.8c20.8,0.6,8,30,8.2,34.8c-0.5-0.9-2.7-2.7-4.6-1.3c-2.5,1.8-0.4,3.7-1.8,3.7
				c-1.8,0,3.4-16.6-3.9-19.8C413.2,569.3,419.1,566.6,417.9,565.6z"/>
		</g>
		<g>
			<path class="st8" d="M395.9,612.2c-0.3,0-0.6-0.3-0.6-0.6s0.3-0.6,0.6-0.6c4.7,0,8.1-1.1,10.2-3.3c2.1-2.2,1.9-4.7,1.9-4.7
				c0-0.3,0.2-0.6,0.6-0.6c0.3,0,0.6,0.2,0.6,0.6c0,0.1,0.2,3.1-2.3,5.6C404.6,611,400.9,612.2,395.9,612.2z"/>
		</g>
		<g>
			<path class="st19" d="M369.8,848.7c4.7-5.3,6.4-12.7,4.3-19.5c-0.2-0.7-0.5-1.3-0.7-1.9l-43.9-87.8c-2.4-4.9,62.1,32.8,79.6,27.4
				c17.2-5.3,20-16.7,6.8-29c-0.1-0.1-52.9-14.3-76.6-20.7c-7.1-1.9-14.7-0.5-20.7,3.7l-0.3,0.2c-5.3,3.8-8.4,10-8.1,16.6
				c0.1,1.4,0.3,3.1,0.6,4.9c1.4,8.4,4.4,16.5,8.7,23.8l39.1,66.7c0.3,0.7-10.6,25.3-5.8,29.6C355.1,864.6,363.8,855.5,369.8,848.7z
				"/>
		</g>
		<g>
			<path class="st7" d="M337.8,861.3c6.2-2.7,10.6-8.4,11.5-15.1c0.1-0.7,0.1-1.3,0.1-1.9l-2.9-93.2c-0.1-5.2,3.3-7.8,4.8-8.7
				c1.5-0.9,5.4-2.7,9.9-0.1c0,0,35.5,27.3,52.7,29.5c16.9,2.2,30.2-14.5,23.7-30.3c0,0,0,0,0,0c-0.1-0.3-10.3-5.9-10.3-5.9
				c-11.3-6.1-23.3-10.9-35.7-14.2c-10.1-2.7-31.3-9.2-36.1-9.1c-5.4,0.2-10.8,1.7-15.5,4.5c-4.7,2.8-8.6,6.8-11.3,11.5
				c-2.9,5-4.4,10.8-4.2,16.7c0,0,0,0,0,0l9.7,98.2c0,0.7-19.2,17.6-16.8,23.2C318.7,869.2,329.9,864.8,337.8,861.3z"/>
		</g>
		<path class="st6" d="M435.5,663.9c1.6,5.3,4.5,15,6.6,24.9c1.8,8.3,2.4,13.4,2.5,16.4c-24.9-11.9-43.5-6.3-44.3-6.1l3.8,12.3l0,0
			c0,0,4.2-1.2,10.9-0.9c9.1,0.4,18.3,3.1,27.5,8.1c2,1.1,3.8,1.5,5.3,1.5c2.8,0,4.7-1.3,5.6-2c3.9-3.2,4.2-8.9,4-13.4
			c-0.2-4.1-0.9-9.4-2.2-15.8c-2.3-11.1-5.9-23.9-8.6-32.2c-0.6-1.7-1.2-3.4-1.9-5C443,656.2,439.7,660.4,435.5,663.9z M448.7,707.4
			C448.7,707.4,448.7,707.4,448.7,707.4C448.7,707.4,448.7,707.4,448.7,707.4z"/>
		<path class="st6" d="M337.8,665.8c4.2-5.8,12.3-14.8,17.3-20.2c0.5,4.7,2.5,9.1,5.6,13c-4.4,4.9-9.5,10.8-12.4,14.8L337.8,665.8z"
			/>
		<path class="st9" d="M423.2,642.9c-4.3-4-6.8-4.7-7.7-4.8l1.8-12.7c4.7,0.7,9.5,3.3,14.6,8.1c5.4,5.1,9.8,11.3,12.8,18.2
			c-1.8,4.6-5,8.8-9.3,12.3c-0.5-1.5-0.8-2.6-1.1-3.3C432.2,653.7,428.3,647.6,423.2,642.9z"/>
		<path class="st9" d="M359.2,641c1.1-1.3,7.7-8.7,19.8-15.9l6.6,11.1c-10.8,6.4-16.3,12.9-16.6,13.2l-0.1,0.1l-0.2,0.2
			c-0.1,0.1-3.7,4-8.1,8.9c-3.1-3.9-5-8.3-5.6-13C357.2,643.2,358.7,641.5,359.2,641z"/>
		<g>
			<path class="st12" d="M326.8,713.7h82.1c2.1,0,3.7-1.7,3.7-3.7v-50.1c0-2.1-1.7-3.7-3.7-3.7h-82.1c-2.1,0-3.7,1.7-3.7,3.7V710
				C323.1,712,324.7,713.7,326.8,713.7z"/>
			<path class="st11" d="M326,719.6h83.7c1.6,0,3-1.3,3-3l0,0c0-1.6-1.3-3-3-3H326c-1.6,0-3,1.3-3,3l0,0
				C323.1,718.3,324.4,719.6,326,719.6z"/>
			<polygon class="st13" points="366.8,684.9 364.5,682.6 367.8,679.2 373.5,684.9 367.8,690.6 364.5,687.3 			"/>
		</g>
	</g>
	<g>
		<g>
			<path class="st5" d="M311,660.4c0,0-0.1,0-0.2,0c0,0-3.6-0.6-9.1-2c-0.5-0.1-0.8-0.6-0.7-1.1c0.1-0.5,0.6-0.8,1.1-0.7
				c5.5,1.4,8.9,1.9,9,1.9c0.5,0.1,0.8,0.6,0.8,1.1C311.8,660,311.4,660.4,311,660.4z M293,656c-0.1,0-0.2,0-0.3,0
				c-3-0.9-5.9-1.9-8.8-2.9c-0.5-0.2-0.7-0.7-0.6-1.2c0.2-0.5,0.7-0.7,1.2-0.6c2.8,1,5.8,2,8.7,2.9c0.5,0.1,0.8,0.7,0.6,1.1
				C293.8,655.7,293.4,656,293,656z M275.7,649.8c-0.1,0-0.2,0-0.4-0.1c-2.9-1.2-5.7-2.5-8.5-3.8c-0.5-0.2-0.6-0.8-0.4-1.2
				c0.2-0.5,0.8-0.6,1.2-0.4c2.7,1.3,5.5,2.6,8.4,3.8c0.5,0.2,0.7,0.7,0.5,1.2C276.4,649.6,276,649.8,275.7,649.8z M259.1,641.7
				c-0.2,0-0.3,0-0.5-0.1c-2.7-1.6-5.4-3.2-7.9-4.9c-0.4-0.3-0.5-0.9-0.3-1.3c0.3-0.4,0.9-0.5,1.3-0.3c2.5,1.7,5.1,3.3,7.8,4.8
				c0.4,0.3,0.6,0.8,0.3,1.3C259.7,641.5,259.4,641.7,259.1,641.7z M243.8,631.4c-0.2,0-0.4-0.1-0.6-0.2c-2.5-2-4.8-4.1-6.9-6.2
				c-0.4-0.4-0.4-0.9,0-1.3c0.4-0.4,0.9-0.4,1.3,0c2.1,2.1,4.4,4.1,6.8,6.1c0.4,0.3,0.5,0.9,0.1,1.3
				C244.4,631.3,244.1,631.4,243.8,631.4z M230.8,618.5c-0.3,0-0.5-0.1-0.7-0.3c-2-2.5-3.8-5-5.3-7.6c-0.3-0.4-0.1-1,0.3-1.3
				c0.4-0.3,1-0.1,1.3,0.3c1.5,2.5,3.3,5,5.2,7.4c0.3,0.4,0.3,1-0.1,1.3C231.2,618.4,231,618.5,230.8,618.5z M221.4,602.8
				c-0.4,0-0.7-0.2-0.8-0.6c-1.2-2.9-2.2-5.8-2.9-8.8c-0.1-0.5,0.2-1,0.7-1.1c0.5-0.1,1,0.2,1.1,0.7c0.7,2.9,1.7,5.8,2.9,8.6
				c0.2,0.5,0,1-0.5,1.2C221.7,602.8,221.5,602.8,221.4,602.8z M216.9,585.1c-0.5,0-0.9-0.4-0.9-0.8c-0.2-1.9-0.3-3.8-0.3-5.7
				c0-0.5,0-1,0-1.5c0-0.7,0-1.4,0-2.1c0-0.5,0.4-0.9,0.9-0.9c0.5,0,0.9,0.4,0.9,0.9c0,0.7,0,1.4,0,2.1c0,0.5,0,1,0,1.5
				c0,1.8,0.1,3.7,0.3,5.5C217.9,584.6,217.5,585,216.9,585.1C217,585.1,216.9,585.1,216.9,585.1z M217.5,566.8c-0.1,0-0.1,0-0.2,0
				c-0.5-0.1-0.8-0.6-0.8-1.1c0.5-3.1,1.3-6.2,2.3-9c0.2-0.5,0.7-0.7,1.2-0.6c0.5,0.2,0.7,0.7,0.6,1.2c-1,2.8-1.7,5.7-2.2,8.7
				C218.3,566.5,217.9,566.8,217.5,566.8z M223.6,549.6c-0.2,0-0.3,0-0.5-0.1c-0.4-0.3-0.6-0.8-0.3-1.3c1.5-2.6,3.3-5.2,5.4-7.6
				c0.3-0.4,0.9-0.4,1.3-0.1c0.4,0.3,0.4,0.9,0.1,1.3c-2,2.3-3.7,4.8-5.2,7.4C224.2,549.4,223.9,549.6,223.6,549.6z M235.3,535.5
				c-0.3,0-0.5-0.1-0.7-0.3c-0.3-0.4-0.3-1,0.1-1.3c2.2-1.9,4.7-3.9,7.3-5.7c0.4-0.3,1-0.2,1.3,0.2c0.3,0.4,0.2,1-0.2,1.3
				c-2.6,1.8-5,3.7-7.2,5.6C235.7,535.5,235.5,535.5,235.3,535.5z M250.3,525c-0.3,0-0.6-0.2-0.8-0.5c-0.3-0.4-0.1-1,0.3-1.3
				c2.4-1.4,5.1-2.9,8.1-4.4c0.5-0.2,1-0.1,1.2,0.4c0.2,0.5,0.1,1-0.4,1.2c-3,1.5-5.6,3-8,4.4C250.6,524.9,250.4,525,250.3,525z
				 M266.6,516.4c-0.3,0-0.7-0.2-0.8-0.5c-0.2-0.5,0-1,0.4-1.2c1.4-0.7,2.8-1.4,4.2-2c1.4-0.7,2.7-1.3,4.1-2c0.5-0.2,1,0,1.2,0.4
				c0.2,0.5,0,1-0.4,1.2c-1.4,0.7-2.7,1.3-4.1,2c-1.4,0.7-2.8,1.4-4.2,2C266.9,516.4,266.7,516.4,266.6,516.4z M283.1,508.3
				c-0.3,0-0.7-0.2-0.8-0.5c-0.2-0.5-0.1-1,0.4-1.2c3-1.6,5.6-3,8-4.4c0.4-0.3,1-0.1,1.3,0.3c0.3,0.4,0.1,1-0.3,1.3
				c-2.4,1.4-5.1,2.9-8.1,4.5C283.4,508.3,283.3,508.3,283.1,508.3z M298.9,498.9c-0.3,0-0.6-0.1-0.7-0.4c-0.3-0.4-0.2-1,0.2-1.3
				c2.6-1.9,4.9-3.8,6.9-5.8c0.4-0.4,0.9-0.4,1.3,0c0.4,0.4,0.4,0.9,0,1.3c-2.1,2.1-4.4,4-7.1,6
				C299.3,498.8,299.1,498.9,298.9,498.9z M311.7,485.9c-0.2,0-0.4,0-0.5-0.2c-0.4-0.3-0.5-0.9-0.3-1.3c1.2-1.8,2.2-3.7,3.1-5.6
				c0.2-0.5,0.7-0.7,1.2-0.5c0.5,0.2,0.7,0.7,0.5,1.2c-0.9,2-2,4-3.2,5.9C312.3,485.7,312,485.9,311.7,485.9z"/>
		</g>
		<path class="st5" d="M351,436.5h-21.8c-2.4,0-4.3,1.9-4.3,4.3v12.6c0,2.4,1.9,4.3,4.3,4.3H351c2.4,0,4.3-1.9,4.3-4.3v-12.6
			C355.3,438.4,353.4,436.5,351,436.5z M329.2,437.6H351c1.8,0,3.2,1.4,3.2,3.2v1.9H326v-1.9C326,439,327.5,437.6,329.2,437.6z
			 M351,456.7h-21.8c-1.8,0-3.2-1.4-3.2-3.2v-7.7h28.2v7.7C354.3,455.2,352.8,456.7,351,456.7z"/>
		<g>
			
				<rect x="310.7" y="451.7" transform="matrix(0.8745 0.4851 -0.4851 0.8745 263.0875 -100.8395)" class="st20" width="31.3" height="12.4"/>
			<path class="st5" d="M336.8,472.3c-8.2-8.3-17.5-11.1-26.9-13.8c1.7-3.5,3.5-6.8,5.4-10.1c9.9,3.3,19.5,6.3,27.9,14.2
				C340.9,466.3,338.8,469.4,336.8,472.3z"/>
			<circle class="st20" cx="326.4" cy="458.7" r="2.9"/>
		</g>
	</g>
	<g>
		<g>
			<path class="st5" d="M420.8,689.3c-0.4,0-0.8-0.3-0.9-0.8c-0.1-0.5,0.2-1,0.8-1.1c3-0.5,6-1.1,9-1.8c0.5-0.1,1,0.2,1.1,0.7
				c0.1,0.5-0.2,1-0.7,1.1c-3,0.7-6,1.3-9.1,1.8C420.9,689.3,420.8,689.3,420.8,689.3z M438.7,685.1c-0.4,0-0.8-0.3-0.9-0.7
				c-0.1-0.5,0.1-1,0.6-1.1c2.9-0.9,5.9-1.8,8.7-2.9c0.5-0.2,1,0.1,1.2,0.5c0.2,0.5-0.1,1-0.5,1.2c-2.9,1-5.8,2-8.8,2.9
				C438.9,685.1,438.8,685.1,438.7,685.1z M456,678.8c-0.4,0-0.7-0.2-0.8-0.5c-0.2-0.5,0-1,0.5-1.2c2.8-1.2,5.6-2.6,8.2-4
				c0.4-0.2,1-0.1,1.2,0.4c0.2,0.4,0.1,1-0.4,1.2c-2.7,1.4-5.5,2.8-8.3,4.1C456.2,678.8,456.1,678.8,456,678.8z M472.2,670.1
				c-0.3,0-0.6-0.1-0.8-0.4c-0.3-0.4-0.1-1,0.3-1.3c2.6-1.6,5.1-3.4,7.5-5.2c0.4-0.3,1-0.2,1.3,0.2c0.3,0.4,0.2,1-0.2,1.3
				c-2.4,1.8-5,3.6-7.6,5.3C472.5,670.1,472.4,670.1,472.2,670.1z M486.8,658.9c-0.2,0-0.5-0.1-0.7-0.3c-0.3-0.4-0.3-1,0.1-1.3
				c2.2-2.1,4.4-4.2,6.4-6.5c0.3-0.4,0.9-0.4,1.3-0.1c0.4,0.3,0.4,0.9,0.1,1.3c-2.1,2.3-4.3,4.5-6.5,6.6
				C487.2,658.9,487,658.9,486.8,658.9z M499.1,645.3c-0.2,0-0.4-0.1-0.5-0.2c-0.4-0.3-0.5-0.9-0.2-1.3c1.8-2.4,3.5-5,5.1-7.6
				c0.3-0.4,0.8-0.6,1.3-0.3c0.4,0.3,0.6,0.8,0.3,1.3c-1.6,2.6-3.3,5.2-5.2,7.7C499.6,645.2,499.4,645.3,499.1,645.3z M508.6,629.6
				c-0.1,0-0.3,0-0.4-0.1c-0.5-0.2-0.6-0.8-0.4-1.2l0-0.1c1.3-2.8,2.5-5.5,3.6-8.3c0.2-0.5,0.7-0.7,1.2-0.5c0.5,0.2,0.7,0.7,0.5,1.2
				c-1.1,2.8-2.3,5.7-3.7,8.5l0,0.1C509.2,629.4,508.9,629.6,508.6,629.6z M515.2,612.5c-0.1,0-0.2,0-0.3,0
				c-0.5-0.1-0.8-0.6-0.6-1.1c0.8-2.9,1.5-5.9,2.1-8.9c0.1-0.5,0.6-0.8,1.1-0.7c0.5,0.1,0.8,0.6,0.7,1.1c-0.6,3-1.3,6-2.1,9
				C515.9,612.2,515.6,612.5,515.2,612.5z M518.5,594.4C518.4,594.4,518.4,594.4,518.5,594.4c-0.6,0-1-0.5-0.9-1
				c0.2-2.4,0.3-4.9,0.3-7.3c0-0.6,0-1.2,0-1.8c0-0.5,0.4-0.9,0.9-0.9c0.5,0,0.9,0.4,0.9,0.9c0,0.6,0,1.2,0,1.8c0,2.5-0.1,5-0.3,7.5
				C519.3,594,518.9,594.4,518.5,594.4z M518.1,576c-0.5,0-0.9-0.3-0.9-0.8c-0.4-3-0.9-6-1.6-9c-0.1-0.5,0.2-1,0.7-1.1
				c0.5-0.1,1,0.2,1.1,0.7c0.7,3,1.2,6.1,1.6,9.1c0.1,0.5-0.3,1-0.8,1C518.2,576,518.1,576,518.1,576z M514.1,558.1
				c-0.4,0-0.7-0.2-0.9-0.6c-0.9-2.9-2-5.7-3.3-8.5c-0.2-0.5,0-1,0.5-1.2c0.5-0.2,1,0,1.2,0.5c1.2,2.8,2.4,5.8,3.3,8.7
				c0.2,0.5-0.1,1-0.6,1.2C514.3,558.1,514.2,558.1,514.1,558.1z M506.7,541.3c-0.3,0-0.6-0.2-0.8-0.5c-1.5-2.7-3.1-5.3-4.7-7.8
				c-0.3-0.4-0.2-1,0.3-1.3c0.4-0.3,1-0.2,1.3,0.3c1.7,2.5,3.3,5.2,4.8,7.9c0.2,0.4,0.1,1-0.4,1.2
				C507,541.2,506.9,541.3,506.7,541.3z M496.5,526c-0.3,0-0.5-0.1-0.7-0.3c-1.3-1.5-2-2.3-2-2.3c-0.4-0.4-0.3-0.9,0-1.3
				c0.4-0.4,0.9-0.3,1.3,0c0,0,0.8,0.9,2.1,2.4c0.3,0.4,0.3,1-0.1,1.3C496.9,525.9,496.7,526,496.5,526z"/>
		</g>
		<g>
			<g>
				<path class="st5" d="M478.1,518.1c-0.3,0.1-0.6,0.2-0.9,0.1c-0.7-0.1-1.3-0.6-1.4-1.3c-0.4-2.2-0.7-2.9-0.9-3.1
					c-2.9-1.1-5-2.9-6.2-5.4c-3-6.3,1.2-14.5,9.4-18.4s17.2-2,20.2,4.3c3,6.3-1.2,14.5-9.4,18.4c-2.7,1.3-5.7,2-8.5,2
					c-0.2,0.2-0.7,0.8-1.5,2.6C478.7,517.7,478.4,518,478.1,518.1z M479.6,513c0.2-0.1,0.4-0.1,0.5-0.1c2.6,0,5.4-0.6,7.9-1.8
					c7.2-3.5,11.1-10.6,8.5-16c-2.6-5.4-10.5-6.9-17.8-3.4s-11.1,10.6-8.5,16c1,2.1,2.9,3.7,5.4,4.5c0.5,0.2,1,0.6,1.7,3.9
					C478.5,514,479.1,513.3,479.6,513z"/>
			</g>
			<g>
				<path class="st5" d="M486.2,508.6l-0.8-1.7c-1,0.5-2.1,0.6-2.9,0.5l-0.1-1.3c0.8,0.1,1.8,0,2.8-0.4c1.2-0.6,1.7-1.6,1.2-2.6
					c-0.4-0.9-1.4-1.2-2.9-1.1c-2,0.1-3.5-0.1-4.2-1.6c-0.7-1.4-0.2-2.9,1.3-3.9l-0.8-1.7l1-0.5l0.8,1.6c1-0.4,1.8-0.5,2.5-0.5
					l0.1,1.3c-0.5,0-1.3-0.1-2.4,0.4c-1.3,0.6-1.4,1.6-1.1,2.3c0.4,0.9,1.3,1,3,0.9c2.1-0.1,3.4,0.3,4.1,1.8c0.6,1.3,0.3,3-1.3,4.1
					l0.8,1.8L486.2,508.6z"/>
			</g>
		</g>
	</g>
	<g>
		<path class="st5" d="M478.3,630.6c0,0-0.1,0-0.1,0c-3.1-0.5-6.1-1.1-9.1-1.7c-0.5-0.1-0.8-0.6-0.7-1.1c0.1-0.5,0.6-0.8,1.1-0.7
			c2.9,0.6,6,1.2,9,1.7c0.5,0.1,0.8,0.6,0.8,1.1C479.2,630.3,478.8,630.6,478.3,630.6z"/>
		<path class="st5" d="M460.3,626.8c-0.1,0-0.2,0-0.2,0c-3-0.8-6-1.7-8.9-2.6c-0.5-0.2-0.7-0.7-0.6-1.2c0.2-0.5,0.7-0.7,1.2-0.6
			c2.8,0.9,5.8,1.8,8.8,2.6c0.5,0.1,0.8,0.6,0.7,1.1C461.1,626.6,460.7,626.8,460.3,626.8z"/>
		<path class="st5" d="M442.9,621.1c-0.1,0-0.2,0-0.3-0.1c-2.9-1.1-5.8-2.4-8.5-3.7c-0.5-0.2-0.7-0.8-0.4-1.2
			c0.2-0.5,0.8-0.7,1.2-0.4c2.7,1.3,5.5,2.5,8.4,3.6c0.5,0.2,0.7,0.7,0.5,1.2C443.6,620.9,443.2,621.1,442.9,621.1z"/>
	</g>
</g>
<path class="st14" d="M-93.6,2973.2c-138.8-332-546.8-584-842.9-584s-161.4,423.3-161.4,549.4c0,126.1,240,229.2,536,229.2
	C-25.8,3167.9-1.9,3192.5-93.6,2973.2z"/>
<path class="st21" d="M-1045.2,2718.8l-286.9-99.8c-147.4-51.2-298.7,69.1-329.3,264.7c-3.6,23.3-5.6,47.5-5.6,72.2v211.5h1045l0,0
	C-707.7,2945.8-861.7,2782.6-1045.2,2718.8z"/>
<path class="st14" d="M156,1037"/>
<g>
	<text transform="matrix(1 0 0 1 78.1201 248.5957)" class="st22 st23 st24">#EmerixAutogestión</text>
</g>
</svg>
