<svg width="65" height="63" viewBox="0 0 65 63" fill="none" xmlns="http://www.w3.org/2000/svg">
<path d="M63.0063 34.112H59.6323C58.6573 34.112 57.9263 34.338 57.4223 34.701V34.112H52.6093C51.8463 34.112 50.9263 34.296 50.4993 34.701V34.112H41.8973V34.701C41.2093 34.217 40.0563 34.112 39.5133 34.112H33.8343V34.701C33.2903 34.18 32.0983 34.112 31.3683 34.112H25.0013L23.5443 35.682L22.1903 34.112H12.6963V44.35H22.0133L23.5073 42.756L24.9213 44.346L30.6573 44.351V41.937H31.2283C31.9863 41.937 32.8843 41.92 33.6673 41.584V44.351H38.4183V41.671H38.6503C38.9393 41.668 38.9623 41.693 38.9623 41.967V44.351H53.3453C54.2503 44.351 55.2263 44.118 55.7523 43.703V44.351H60.3113C61.2563 44.351 63.3173 44.214 64.0233 43.882V62.64H0.236328V31.723H3.24433L3.92233 30.081H5.43833L6.11933 31.723H12.0403V30.474L12.5713 31.726H15.6363L16.1703 30.454V31.723H30.8773L30.8743 29.043H31.1613C31.3733 29.043 31.4233 29.068 31.4233 29.393V31.723H39.0323L39.0303 31.087C39.6363 31.415 40.5893 31.723 41.8563 31.723H45.0563L45.7473 30.081H47.2633L47.9443 31.723H54.0943V30.168L55.0393 31.723H59.9803V21.484H55.0943V22.691L54.3933 21.484H49.3733V22.691L48.7573 21.484H41.9763C40.8343 21.484 39.8293 21.636 39.0313 22.073V21.484H34.3573V22.073C33.8263 21.626 33.1353 21.484 32.3623 21.484H15.2653L14.1083 24.124L12.9383 21.484H7.55833V22.691L6.95033 21.484H2.35933L0.236328 26.34V0H64.0223L63.9133 34.113L63.0063 34.112ZM58.4173 30.277H55.9083L52.5743 24.77L52.5763 30.277H48.9923L48.3143 28.633H44.6483L43.9723 30.277H41.9223C41.0573 30.277 39.9743 30.078 39.3613 29.46C38.7433 28.832 38.4283 27.995 38.4283 26.658C38.4283 25.568 38.6233 24.572 39.3733 23.789C39.9393 23.205 40.8403 22.93 42.0543 22.93H43.7373V24.505L42.0893 24.502C41.4383 24.502 41.0713 24.599 40.7273 24.942C40.4183 25.247 40.2113 25.834 40.2113 26.606C40.2113 27.388 40.3663 27.95 40.7123 28.327C40.9713 28.613 41.4603 28.702 41.9343 28.702H42.7243L45.2063 22.93H47.8303L50.8153 29.877V22.93H53.5063L56.6043 28.044L56.6013 22.93H58.4173V30.277ZM35.7653 30.277H37.5683V22.927H35.7653V30.277ZM33.8453 23.285C33.2763 22.962 32.6153 22.93 31.7233 22.93H27.6653V30.277H29.4263V27.602H31.3173C31.9583 27.602 32.3443 27.659 32.5963 27.925C32.9233 28.27 32.8853 28.911 32.8853 29.348V30.277H34.6583V28.819C34.6583 28.181 34.6133 27.843 34.3663 27.488C34.2163 27.274 33.8853 27.011 33.4983 26.865C33.9623 26.684 34.7533 26.08 34.7533 24.915C34.7523 24.093 34.4113 23.611 33.8453 23.285ZM26.4453 28.742L22.3233 28.747V27.292L26.3463 27.294V25.784H22.3233V24.46H26.4453V22.93H20.5623V30.277H26.4453V28.742ZM19.2473 22.93H16.3143L14.1943 27.913L11.8973 22.93H9.01533L9.01733 29.88L6.03033 22.93H3.40633L0.251328 30.277H2.17133L2.84733 28.633H6.51333L7.19133 30.277H10.7753V24.517L13.3363 30.277H14.8853L17.4393 24.524V30.277H19.2473V22.93ZM47.6813 27.103L46.4793 24.184L45.2793 27.103H47.6813ZM32.4363 25.943C32.1993 26.085 31.9123 26.094 31.5733 26.094H29.4263V24.46H31.5983C31.9103 24.46 32.2263 24.47 32.4363 24.587C32.6553 24.709 32.7983 24.935 32.7983 25.245C32.7973 25.56 32.6603 25.814 32.4363 25.943ZM3.47833 27.103L4.67833 24.184L5.88033 27.103H3.47833ZM63.2813 40.59C63.2813 42.152 62.2963 42.902 60.5133 42.902H57.1113V41.327H60.5003C60.8273 41.327 61.0613 41.282 61.2083 41.148C61.3253 41.039 61.4153 40.875 61.4153 40.669C61.4153 40.45 61.3253 40.286 61.2003 40.182C61.0683 40.07 60.8883 40.026 60.5873 40.018C58.9413 39.973 56.8713 40.07 56.8713 37.74C56.8713 36.687 57.5423 35.554 59.3953 35.554H62.9063V37.131H59.6913C59.3743 37.131 59.1623 37.141 58.9903 37.255C58.8033 37.377 58.7283 37.551 58.7283 37.786C58.7283 38.059 58.8873 38.25 59.1143 38.33C59.2943 38.392 59.4963 38.407 59.7903 38.412L60.7353 38.437C61.7133 38.459 62.3513 38.621 62.7483 39.028C63.0993 39.395 63.2813 39.825 63.2813 40.59ZM55.8663 39.03C55.4693 38.625 54.8263 38.461 53.8483 38.439L52.9053 38.414C52.6113 38.409 52.4113 38.394 52.2293 38.332C52.0053 38.253 51.8453 38.061 51.8453 37.788C51.8453 37.552 51.9203 37.378 52.1043 37.257C52.2763 37.143 52.4913 37.133 52.8103 37.133H56.0403V35.556H52.5113C50.6583 35.556 49.9873 36.686 49.9873 37.742C49.9873 40.074 52.0573 39.975 53.7013 40.02C54.0033 40.027 54.1853 40.072 54.3153 40.184C54.4403 40.288 54.5323 40.452 54.5323 40.671C54.5323 40.877 54.4403 41.041 54.3233 41.15C54.1763 41.284 53.9443 41.329 53.6153 41.329H50.1963V42.904H53.6283C55.4113 42.904 56.3963 42.154 56.3963 40.592C56.3953 39.825 56.2153 39.395 55.8663 39.03ZM49.1473 41.375L45.0253 41.373V39.922H49.0503V38.41L45.0253 38.412V37.088H49.1473V35.555H43.2643V42.902H49.1473V41.375ZM41.3813 35.913C40.8103 35.588 40.1523 35.555 39.2613 35.555H35.2013V42.902H36.9593V40.232L38.8543 40.23C39.4953 40.23 39.8793 40.287 40.1333 40.55C40.4603 40.898 40.4203 41.536 40.4203 41.973V42.902H42.1963V41.447C42.1933 40.809 42.1513 40.471 41.9023 40.116C41.7553 39.9 41.4233 39.637 41.0393 39.49C41.4983 39.309 42.2883 38.708 42.2883 37.54C42.2893 36.72 41.9473 36.238 41.3813 35.913ZM31.4113 35.555H25.7803L23.5333 37.967L21.3733 35.555H14.2803V42.902H21.2633L23.5153 40.48L25.6823 42.902H29.1113V40.443H31.3013C32.8403 40.443 34.3663 40.018 34.3663 37.984C34.3663 35.953 32.8003 35.555 31.4113 35.555ZM39.9753 38.573C39.7363 38.71 39.4493 38.72 39.1103 38.72L36.9603 38.723V37.089H39.1353C39.4473 37.089 39.7633 37.099 39.9753 37.213C40.1953 37.337 40.3343 37.563 40.3343 37.874C40.3343 38.188 40.1973 38.441 39.9753 38.573ZM31.3913 38.936H29.1123V37.088H31.4113C32.0423 37.088 32.4763 37.349 32.4763 37.985C32.4763 38.615 32.0623 38.936 31.3913 38.936ZM24.6523 39.246L27.3513 36.352V42.231L24.6523 39.246ZM20.3703 41.372H16.0433V39.921H19.9013V38.409L16.0433 38.411V37.087H20.4473L22.3803 39.223L20.3703 41.372Z" fill="url(#paint0_radial)"/>
<defs>
<radialGradient id="paint0_radial" cx="0" cy="0" r="1" gradientUnits="userSpaceOnUse" gradientTransform="translate(10.8743 9.13694) rotate(46.8677) scale(70.4128 64.7201)">
<stop stop-color="#80D2F1"/>
<stop offset="0.8709" stop-color="#087DC1"/>
</radialGradient>
</defs>
</svg>
