<svg width="64" height="45" viewBox="0 0 64 45" fill="none" xmlns="http://www.w3.org/2000/svg">
<path d="M0 0H63.94V44.04H0V0Z" fill="#F8F8F8"/>
<path fill-rule="evenodd" clip-rule="evenodd" d="M26.9801 14L24.3701 30.13H28.5401L31.1401 14H26.9801Z" fill="#222C64"/>
<path fill-rule="evenodd" clip-rule="evenodd" d="M39.5505 20.47C38.0905 19.73 37.2005 19.23 37.2005 18.47C37.2005 17.71 37.9605 17.08 39.6005 17.08C40.6707 17.0492 41.7339 17.2612 42.7105 17.7L43.0905 17.87L43.6605 14.39C42.4675 13.9296 41.1992 13.6956 39.9205 13.7C35.8005 13.7 32.9205 15.9 32.9205 19.04C32.9205 21.36 35.0005 22.64 36.5805 23.42C38.1605 24.2 38.7405 24.72 38.7405 25.42C38.7405 26.5 37.4305 27 36.2305 27C34.8764 27.0371 33.534 26.7418 32.3205 26.14L31.7705 25.88L31.1505 29.54C32.6331 30.1148 34.2103 30.4065 35.8005 30.4C40.1705 30.4 43.0205 28.24 43.0605 24.89C43.0705 23.03 41.9605 21.62 39.5505 20.47ZM54.3505 14H51.1205C50.6592 13.9449 50.1929 14.0472 49.7972 14.2905C49.4014 14.5337 49.0995 14.9036 48.9405 15.34L42.7505 30.13H47.1305L48.0005 27.71H53.3505C53.4705 28.27 53.8505 30.13 53.8505 30.13H57.7105L54.3505 14ZM49.2005 24.42L50.8605 19.91C50.8605 19.91 51.2005 18.97 51.4105 18.36L51.7005 19.75C51.7005 19.75 52.4905 23.61 52.7005 24.42H49.2005ZM20.8905 14L16.8105 25L16.3605 22.77L14.9005 15.36C14.8091 14.9406 14.565 14.5702 14.2157 14.3207C13.8664 14.0712 13.4368 13.9605 13.0105 14.01H6.30047L6.23047 14.34C7.7719 14.7331 9.24991 15.3425 10.6205 16.15L14.3305 30.15H18.7405L25.2905 14.04L20.8905 14Z" fill="#222C64"/>
</svg>
