<svg width="89" height="96" viewBox="0 0 89 96" fill="none" xmlns="http://www.w3.org/2000/svg">
<path d="M71.7277 0H23.7277C17.0977 0 11.7277 5.37 11.7277 12V55.5C11.7277 56.34 12.3877 57 13.2277 57C14.0677 57 14.7277 56.34 14.7277 55.5V12C14.7277 7.05 18.7777 3 23.7277 3H71.7277C76.6777 3 80.7277 7.05 80.7277 12V84C80.7277 88.95 76.6777 93 71.7277 93H67.2277C66.3877 93 65.7277 93.66 65.7277 94.5C65.7277 95.34 66.3877 96 67.2277 96H71.7277C78.3577 96 83.7277 90.63 83.7277 84V12C83.7277 5.37 78.3577 0 71.7277 0Z" fill="#8569B4"/>
<path d="M47.2179 29.79C45.9579 29.79 44.6679 29.4 43.6479 28.74C43.4379 28.62 43.1979 28.56 42.9579 28.65C42.7179 28.74 42.5379 28.89 42.4479 29.13L41.7879 30.96C41.6679 31.29 41.7879 31.68 42.0879 31.89C43.0479 32.55 44.5179 33.03 45.9879 33.18V35.19C45.9879 35.64 46.3479 35.97 46.7979 35.97H48.5379C48.9879 35.97 49.3479 35.61 49.3479 35.19V33C51.9879 32.31 53.7279 30.27 53.7279 27.72C53.7279 24.36 51.1479 22.89 48.9279 21.99C46.4079 20.97 45.9879 20.43 45.9879 19.62C45.9879 18.87 46.5579 18.06 48.1179 18.06C49.7679 18.06 50.7879 18.63 51.2079 18.87C51.4179 18.99 51.6579 18.99 51.8679 18.93C52.0779 18.84 52.2579 18.69 52.3479 18.48L53.0379 16.68C53.1879 16.32 53.0379 15.9 52.7079 15.72C51.7479 15.18 50.6979 14.85 49.4979 14.7V12.78C49.4979 12.33 49.1379 12 48.6879 12H46.9779C46.5279 12 46.1679 12.36 46.1679 12.78V14.91C43.5879 15.57 41.9679 17.49 41.9679 19.95C41.9679 23.04 44.5479 24.45 47.0679 25.41C49.3779 26.34 49.7079 27.18 49.7079 27.93C49.7079 29.04 48.7179 29.79 47.2179 29.79Z" fill="#8569B4"/>
<path d="M64.2278 51H59.6078C58.7678 51 58.1078 51.66 58.1078 52.5C58.1078 53.13 58.4978 53.64 59.0078 53.88C57.3578 55.02 55.4078 56.52 53.5778 58.38C50.2178 61.74 48.4778 64.59 47.7578 66H44.1578C45.8078 63.6 48.5978 59.79 51.3578 57.03C55.7378 52.65 62.1578 47.73 62.2178 47.7C62.7278 47.31 62.9378 46.65 62.7278 46.02C62.5178 45.39 61.9478 45 61.2878 45H50.2178C49.9178 45 49.6178 45.09 49.3778 45.27C49.2278 45.36 45.0878 48.42 41.1878 51.96C40.2578 51.36 39.1478 51 37.9478 51C36.7178 51 35.5478 51.39 34.5878 52.05C34.5578 52.05 34.4978 52.08 34.4678 52.11L13.7678 66.9C13.6778 66.99 13.5578 67.05 13.4978 67.14C13.4678 67.17 13.4678 67.2 13.4678 67.2C12.8678 67.59 12.2978 68.04 11.7578 68.58C11.5478 68.76 11.3378 68.94 11.1278 69.15C10.9178 69.36 10.7378 69.57 10.5578 69.78C4.1378 76.71 3.1478 87.3 8.2778 95.31C8.7278 96 9.6578 96.21 10.3478 95.76C11.0378 95.31 11.2478 94.38 10.7978 93.69C7.7078 88.83 7.2278 82.86 9.1478 77.7C9.9878 75.33 11.3678 73.14 13.2278 71.28V71.25C13.9178 70.59 14.6678 69.96 15.4178 69.39C15.4478 69.39 15.4778 69.39 15.5078 69.36L16.1978 68.88L18.8378 66.99L24.2378 63.12H24.2678L31.9778 57.6L35.8178 54.87C35.9678 54.75 36.1178 54.6 36.2978 54.51C36.7778 54.18 37.3478 54 37.9478 54C39.6278 54 40.9478 55.35 40.9478 57C40.9478 57.81 40.6478 58.53 40.1378 59.07C40.1078 59.07 40.1078 59.07 40.0778 59.1L39.9278 59.25L36.4178 62.79L34.4078 64.83L33.2378 66L32.1278 67.14L30.8078 68.46C31.0778 68.79 31.4978 69 31.9478 69H35.9078H40.6178H52.1978C53.8778 69 55.1978 70.35 55.1978 72C55.1978 73.65 53.8778 75 52.1978 75H45.4478C45.2978 75 45.1178 75.03 44.9978 75.09C44.9678 75.09 44.9378 75.09 44.9378 75.09C44.9078 75.09 44.8778 75.12 44.8778 75.12C44.7578 75.18 44.6378 75.24 44.5478 75.3C44.4278 75.39 44.3078 75.51 44.2178 75.66C44.1578 75.75 44.0978 75.81 44.0678 75.9C43.9778 76.08 43.9478 76.29 43.9478 76.5C43.9478 77.34 44.6378 78 45.4478 78H46.0478H52.1978H54.4478C56.1278 78 57.4478 79.35 57.4478 81C57.4478 82.65 56.1278 84 54.4478 84H51.4478H46.9178H45.4478C44.6378 84 43.9478 84.66 43.9478 85.5C43.9478 86.34 44.6378 87 45.4478 87H46.7078H51.4478C53.1278 87 54.4478 88.35 54.4478 90C54.4478 91.65 53.1278 93 51.4478 93H44.9078H42.3878C41.8778 93 41.4278 93.24 41.1578 93.63C41.1578 93.66 41.1278 93.66 41.1278 93.69C41.0678 93.81 41.0078 93.93 40.9778 94.05C40.9178 94.2 40.8878 94.35 40.8878 94.5C40.8878 94.74 40.9478 94.98 41.0678 95.19C41.1278 95.31 41.1878 95.4 41.2778 95.49C41.3678 95.61 41.4578 95.7 41.5778 95.76C41.6978 95.82 41.8178 95.88 41.9378 95.91C42.0878 95.97 42.2378 96 42.3878 96H51.4478C54.7778 96 57.4478 93.3 57.4478 90C57.4478 88.77 57.0878 87.6 56.4278 86.64C58.7978 85.83 60.4478 83.61 60.4478 81C60.4478 78.6 59.0378 76.53 56.9978 75.6C57.7478 74.58 58.1978 73.35 58.1978 72C58.1978 68.7 55.5278 66 52.1978 66H51.2078C52.0778 64.62 53.4878 62.67 55.6778 60.51C59.9378 56.25 63.3878 54.75 64.8578 53.85C65.4578 53.49 65.8178 52.86 65.6678 52.17C65.5178 51.48 64.9178 51 64.2278 51ZM37.4678 66L42.2078 61.23C43.2878 60.15 43.9478 58.65 43.9478 57C43.9478 56.01 43.6778 55.05 43.2278 54.24C43.4078 54.09 43.5578 53.94 43.5578 53.94C46.7678 50.91 49.7078 48.72 50.6978 48H56.9678C54.6878 49.86 51.6578 52.44 49.1978 54.9C45.3878 58.71 41.7278 64.11 40.4978 66H37.4678Z" fill="#8569B4"/>
</svg>
