<?xml version="1.0" encoding="utf-8"?>
<!-- Generator: Adobe Illustrator 23.0.2, SVG Export Plug-In . SVG Version: 6.00 Build 0)  -->
<svg version="1.1" id="Layer_1" xmlns="http://www.w3.org/2000/svg" xmlns:xlink="http://www.w3.org/1999/xlink" x="0px" y="0px"
	 viewBox="0 0 422 240" style="enable-background:new 0 0 422 240;" xml:space="preserve">
<style type="text/css">
	.st0{opacity:0.78;fill:#E2D9F2;}
	.st1{opacity:0.78;fill:#C7B3E9;}
	.st2{fill:#DA1F47;}
	.st3{fill:#FCD5B6;}
	.st4{fill:#2C285D;}
	.st5{fill:#675890;}
	.st6{fill:#D6AE92;}
	.st7{fill:#E2AB86;}
	.st8{fill:#000099;}
	.st9{fill:#0000CC;}
	.st10{fill:none;stroke:#EB8F4D;stroke-linecap:round;stroke-miterlimit:10;}
	.st11{fill:none;stroke:#0000CC;stroke-linecap:round;stroke-miterlimit:10;}
</style>
<g>
	<path class="st0" d="M58.6,182.3c49.8-33.9,325.7-52.8,350.5-33.9c24.9,18.9,0,91.6,0,91.6H26.8C26.8,240,8.8,216.1,58.6,182.3z"/>
	<path class="st1" d="M121,164.5c55.3-123.3,277.9-49.9,264.7,76H245.4C245.4,240.5,102.7,205.2,121,164.5z"/>
	<path class="st2" d="M264,122.1c-3.2,8.3-6.9,16.4-10.9,24.3c0,0-61.9,0-61.9,0c-9.3,0-17,4.2-25,8.6c-4.7,2.6-9.7,4.8-14.7,6.9
		c-7.9,3.4-16,6.5-24.2,9.2c1.2,14.5,4,26.9,7.9,35.4c5.2,0,10.4-0.1,15.6-0.3c0.9,0,0.9,0.3,0.8,1.1c-0.1,0.4-0.1,0.8-0.2,1.2
		c-0.2,1.1-0.3,2.3-0.5,3.4c-0.4,3.2-0.9,6.3-1.3,9.5c-0.8,5.6-1.6,11.3-2.3,16.9c-0.1,0.4-0.1,0.8-0.2,1.2h142.7v-46.6
		c0.1,0,0.1,0.1,0.2,0.1c-0.2-0.1,2.7-12.2,2.9-13.4c0.9-4.5,1.7-9.1,2.4-13.7c1.3-8.6,2.4-17.3,3-26
		C280.8,137.7,267.2,130.8,264,122.1z"/>
	<path class="st3" d="M307.5,19.7c0,0.5-0.1,1-0.2,1.5l-1.8,8.9c-0.1,0.6-0.3,1.1-0.5,1.6c0,0,0,0.1,0,0.1c-0.2,0.5-0.5,0.9-0.7,1.3
		c-0.1,0.2-0.3,0.4-0.4,0.5c-0.7-0.4-1.5-0.8-2.2-1.3c-4.6-1.3-9.1-2.9-13.6-4.6c-2.5-1-5.1-2-7.5-3.1l0.4-1.9l0,0l0.2-0.9l1.2-5.8
		c0.7,0.1,1.3,0.2,1.9,0.2c0.8,0,1.4-0.1,2-0.3c0.2-0.1,0.4-0.2,0.6-0.2c0.5,0.5,1.2,0.9,2,1.1c2.1,0.4,4.2-0.9,4.6-3.1l0.7-3.3
		l0.1-0.6l0,0l-0.1,0.6l-0.8,3.8c-0.1,1.9,1.2,3.6,3.1,4c2.1,0.4,4.2-0.9,4.6-3.1l0.5-2.7l0.1-0.6l0.1-0.5c0,0,0,0,0,0l-0.1,0.5
		l-0.1,0.6l-0.7,3.3c-0.1,1.9,1.2,3.6,3.1,4c1.3,0.3,2.6-0.2,3.5-1C307.5,19.3,307.5,19.5,307.5,19.7z"/>
	<path class="st3" d="M288.1,27.8c-2.5-1-5.1-2-7.5-3.1c-0.7-0.3-1.3-0.6-2-0.9l-0.6-1.6l-0.2-0.6l-0.5-1.3L275,14
		c-0.7-1.8,0.3-3.8,2.1-4.5l0.8-0.3c1.8-0.7,3.8,0.3,4.5,2.1l1.9,5l2.9,7.9l0,0.1l0.4,1.1l0.4,1.1C288,26.9,288.1,27.4,288.1,27.8z"
		/>
	<path class="st4" d="M320.4,16.2c-0.4,1.5-0.8,2.9-1.2,4.4c-0.9,3.1-1.8,6.1-2.8,9.1c-0.7,2-1.3,3.9-2,5.8
		c-0.3-0.1-0.5-0.1-0.8-0.2c-1.1-0.2-2.2-0.5-3.2-0.7c-0.6-0.1-1.2-0.3-1.7-0.4c-1.5-0.3-2.9-0.7-4.3-1.1c-0.9-0.2-1.8-0.5-2.6-0.7
		c-4.6-1.3-9.1-2.9-13.6-4.6c-2.5-1-5.1-2-7.5-3.1c-0.7-0.3-1.3-0.6-2-0.9c-1.6-0.7-3.2-1.5-4.8-2.3c-0.8-0.4-1.6-0.8-2.4-1.2
		c-1-0.5-2.1-1.1-3.1-1.6c-0.1,0-0.1-0.1-0.2-0.1c-1.7-0.9-3.3-1.8-4.9-2.8c3.2-4.2,6.3-8.7,9.2-13.5c0.5,0.2,1,0.5,1.5,0.7
		c0.6,0.3,1.3,0.6,1.9,0.8c3.1,1.4,6.3,2.7,9.5,3.9c0,0,0,0,0,0c0.4,0.1,0.7,0.3,1.1,0.4c0,0,0,0,0,0l-1,4.8c0,1.1,0.4,2.1,1.1,2.9
		c0.5,0.5,1.2,0.9,2,1.1c2.1,0.4,4.2-0.9,4.6-3.1l0.7-3.3c0,0,0,0,0,0l-0.8,3.8c-0.1,1.9,1.2,3.6,3.1,4c2.1,0.4,4.2-0.9,4.6-3.1
		l0.5-2.7c0,0,0,0,0,0l-0.7,3.3c-0.1,1.9,1.2,3.6,3.1,4c1.3,0.3,2.6-0.2,3.5-1c0.6-0.5,1-1.2,1.1-2l0.4-2l0.1-0.3l0.1-0.3
		c0,0,0,0,0,0c0.9,0.2,1.9,0.4,2.8,0.5C314.8,15.5,317.6,15.9,320.4,16.2z"/>
	<path class="st5" d="M317.4,19c-0.1,0.1-0.1,0.3-0.2,0.4c-2.3,5-4.5,9.9-6.6,14.7c-0.1,0.2-0.2,0.4-0.3,0.7
		c-0.1,0.2-0.2,0.5-0.3,0.7c-0.2,0.6-0.5,1.1-0.7,1.7c-1.8-1.1-3.6-2.3-5.4-3.3c-0.7-0.4-1.5-0.8-2.2-1.3c-4.6-2.6-9.3-4.9-14.2-7
		c-2.1-0.9-4.2-1.8-6.4-2.6c0,0-0.1,0-0.1-0.1c-1-0.4-2.1-0.8-3.2-1.1c-2-0.7-4.1-1.4-6.2-2c-1.1-0.3-2.2-0.6-3.3-0.9
		c-0.1,0-0.1,0-0.2-0.1c0,0,0,0,0,0c1.7-5,3.6-10.2,5.6-15.6c0.1,0,0.1,0,0.2,0c0.7,0.1,1.4,0.3,2,0.4c3.7,0.8,7.3,1.8,10.9,2.8
		c0,0,0,0,0,0L286.6,8l0,0.1l-1,4.8c0,1.1,0.4,2.1,1.1,2.9c0.5,0.5,1.2,0.9,2,1.1c2.1,0.4,4.2-0.9,4.6-3.1l0.7-3.3l0.1-0.6l0-0.2
		l0.2-1.2c0,0,0,0,0,0l-0.2,1.2l0,0.2l-0.1,0.6l-0.8,3.8c-0.1,1.9,1.2,3.6,3.1,4c2.1,0.4,4.2-0.9,4.6-3.1l0.5-2.7l0.1-0.6l0.1-0.5
		l0-0.2c0,0,0,0,0,0l0,0.2l-0.1,0.5l-0.1,0.6l-0.7,3.3c-0.1,1.9,1.2,3.6,3.1,4c1.3,0.3,2.6-0.2,3.5-1c0.6-0.5,1-1.2,1.1-2l0.4-2
		l0.1-0.3c0,0,0,0,0,0C311.9,16.1,314.7,17.5,317.4,19z"/>
	<path class="st3" d="M309.7,11.3c0,0.3,0,0.5-0.1,0.8l0,0.2l-0.3,1.6l-0.1,0.6l-0.1,0.3L309,15l-0.4,2c-0.2,0.8-0.6,1.5-1.1,2
		c-0.9,0.9-2.2,1.3-3.5,1c-1.9-0.4-3.2-2.1-3.1-4l0.7-3.3l0.1-0.6l0.1-0.5l0-0.2l0-0.2c0,0,0,0,0,0c0-0.1,0.1-0.3,0.1-0.4l0,0
		l0.2-0.9c0.7-1.8,2.5-2.9,4.4-2.5C308.4,7.8,309.7,9.5,309.7,11.3z"/>
	<path class="st4" d="M319.5,18.1l-0.9,2.2l-6,14.6l-2.1-0.8l-5.6-2.3l-0.6-0.2l-17.4-7.1l-0.6-0.2l-5.4-2.2l-3.8-1.6l-5.2-2.1
		l-1.8-0.7l5.6-13.6l0.2-0.4l1.1-2.8l10,4.1l0,0l-0.3,1.5l-0.4,1.7l0,0.1l-1,4.8c0,1.1,0.4,2.1,1.1,2.9c0.5,0.5,1.2,0.9,2,1.1
		c2.1,0.4,4.2-0.9,4.6-3.1l0.7-3.3l0.1-0.6l0-0.2l0.2-1.2l0.2-0.9l0,0l-0.2,0.9l-0.2,1.2l0,0.2l-0.1,0.6l-0.8,3.8
		c-0.1,1.9,1.2,3.6,3.1,4c2.1,0.4,4.2-0.9,4.6-3.1l0.5-2.7l0.1-0.6l0.1-0.5l0-0.2l0.1-0.7l0,0l0,0c0,0.1-0.1,0.3-0.1,0.4
		c0,0,0,0,0,0l0,0.2l0,0.2l-0.1,0.5l-0.1,0.6l-0.7,3.3c-0.1,1.9,1.2,3.6,3.1,4c1.3,0.3,2.6-0.2,3.5-1c0.6-0.5,1-1.2,1.1-2l0.4-2
		l0.1-0.3l0.1-0.3l0.1-0.6l0,0L312,15L319.5,18.1z"/>
	<path class="st5" d="M320.4,21.4c-1.4,2.9-2.7,5.6-4,8.3c-1,1.9-1.9,3.8-2.8,5.6c-0.3,0.7-0.7,1.4-1,2c-0.8-0.7-1.7-1.4-2.5-2.1
		c-0.5-0.4-0.9-0.7-1.4-1.1c-1.2-0.9-2.4-1.7-3.6-2.4c-0.2-0.1-0.3-0.2-0.5-0.3c-5.6-3.4-11.5-5.6-17.4-7.2c-0.2,0-0.4-0.1-0.5-0.1
		c-1.8-0.5-3.6-0.9-5.4-1.3c0,0-0.1,0-0.1,0c-1-0.2-2-0.4-2.9-0.6c-1.4-0.3-2.8-0.5-4.2-0.7c-0.9-0.1-1.7-0.3-2.6-0.4
		c0.1-0.3,0.2-0.5,0.2-0.8c0.1-0.2,0.1-0.4,0.2-0.7c0.2-0.5,0.3-1,0.5-1.5c1.4-4.3,3-8.4,4.7-12.4c2.9,0.7,5.7,1.3,8.6,1.9
		c0,0,0,0,0,0c0.4,0.1,0.8,0.2,1.1,0.3c0,0,0,0,0,0l0,0.1l-1,4.8c0,1.1,0.4,2.1,1.1,2.9c0.5,0.5,1.2,0.9,2,1.1
		c2.1,0.4,4.2-0.9,4.6-3.1l0.7-3.3l0.1-0.6l0-0.2c0,0,0,0,0,0l0,0.2l-0.1,0.6l-0.8,3.8c-0.1,1.9,1.2,3.6,3.1,4
		c2.1,0.4,4.2-0.9,4.6-3.1l0.5-2.7l0.1-0.6c0,0,0,0,0,0l-0.1,0.6l-0.7,3.3c-0.1,1.9,1.2,3.6,3.1,4c1.3,0.3,2.6-0.2,3.5-1
		c0.6-0.5,1-1.2,1.1-2l0.4-2c0,0,0,0,0,0c2.8,1.2,5.5,2.6,8.1,4.3c0.5,0.3,1,0.6,1.4,0.9c0.2,0.1,0.4,0.2,0.5,0.4
		C319.6,20.9,320,21.1,320.4,21.4z"/>
	<path class="st4" d="M295,5.4c0,0.2,0,0.4-0.1,0.6l0,0.2l-0.3,1.4c0,0,0,0,0,0l-0.1,0.3l-0.2,0.9l-0.2,1.2l0,0.2l-0.1,0.6l-0.8,3.8
		l0,0.2c-0.4,2.1-2.5,3.5-4.6,3.1c-1-0.2-1.9-0.8-2.5-1.7c-0.6-0.8-0.8-1.9-0.6-2.9l0-0.2c0,1.1,0.4,2.1,1.1,2.9
		c0.5,0.5,1.2,0.9,2,1.1c2.1,0.4,4.2-0.9,4.6-3.1l0.7-3.3l0.1-0.6l0-0.2l0.2-1.2l0.2-0.9l0.2-1c0,0,0,0,0,0L295,5.4z"/>
	<path class="st6" d="M294.6,7.8l-0.2,0.9L294.6,7.8z"/>
	<path class="st4" d="M302.4,8.5c0,0.2,0,0.4-0.1,0.6l-0.2,0.8l-0.2,0.9l-0.1,0.4c0,0,0,0,0,0l0,0.2l0,0.2l-0.1,0.5l-0.1,0.6
		l-0.7,3.3l0,0.2c-0.4,2.1-2.5,3.5-4.6,3.1c-2.1-0.4-3.5-2.5-3.1-4.6l0-0.2c-0.1,1.9,1.2,3.6,3.1,4c2.1,0.4,4.2-0.9,4.6-3.1l0.5-2.7
		l0.1-0.6l0.1-0.5l0-0.2l0.1-0.7l0.1-0.3L302.4,8.5z"/>
	<path class="st4" d="M309.6,12.3c0,0.2,0,0.4-0.1,0.6l-0.2,1l-0.1,0.6l-0.1,0.3l-0.1,0.3l-0.6,2.7c-0.2,0.7-0.5,1.4-1,1.9
		c-0.9,0.9-2.2,1.4-3.6,1.1c-2.1-0.4-3.5-2.5-3.1-4.6l0-0.2c-0.1,1.9,1.2,3.6,3.1,4c1.3,0.3,2.6-0.2,3.5-1c0.6-0.5,1-1.2,1.1-2
		l0.4-2l0.1-0.3l0.1-0.3l0.1-0.6L309.6,12.3z"/>
	<path class="st3" d="M295.1,4.4c0,0.3,0,0.5-0.1,0.8l0,0.2l-0.3,1.4c0,0,0,0,0,0l-0.2,1l-0.2,0.9l-0.2,1.2l0,0.2l-0.1,0.6l-0.7,3.3
		c-0.4,2.1-2.5,3.5-4.6,3.1c-0.8-0.2-1.5-0.6-2-1.1c-0.7-0.8-1.2-1.8-1.1-2.9l1-4.8l0-0.1l0.4-1.7l0.3-1.5l0,0l0.2-1.2
		c0.4-2.1,2.5-3.5,4.6-3.1C293.9,1,295.1,2.6,295.1,4.4z"/>
	<path class="st3" d="M287.2,4.8L287.2,4.8l-0.3,1.5L286.6,8l0,0.1l-1,4.8c0-0.2,0-0.4,0.1-0.6l0.8-4.2l0-0.1l0.4-1.7L287.2,4.8z"/>
	<path class="st3" d="M294,10.7l-0.7,3.2L294,10.7L294,10.7z"/>
	<path class="st3" d="M302.5,7.6c0,0.3,0,0.5-0.1,0.8l0,0.2l-0.4,2l-0.1,0.3l-0.1,0.7l0,0.2l-0.1,0.5l-0.1,0.6l-0.5,2.7
		c-0.4,2.1-2.5,3.5-4.6,3.1c-1.9-0.4-3.2-2.1-3.1-4l0.8-3.8l0.1-0.6l0-0.2l0.2-1.2l0.2-0.9l0.1-0.3c0,0,0,0,0,0l0.3-1.4
		c0.7-1.8,2.5-2.9,4.4-2.5C301.2,4.1,302.5,5.7,302.5,7.6z"/>
	<path class="st3" d="M258.3,111c-1.2,1.2-2.8,1.9-4.5,1.9c0.9,11.1,0.5,22.3-1,33.4c-20,10.1-40,10.1-60,0
		c-1.5-11.2-1.9-22.3-1-33.5c0.3-4.3,0.8-8.6,1.5-12.9c1.5-9.6,4-19.2,7.3-28.9c14.8-7.5,29.6-7.5,44.3,0c3.3,9.6,5.7,19.1,7.3,28.7
		c2.1-0.4,4.4,0.2,6,1.8C260.8,104.3,260.8,108.4,258.3,111z"/>
	<path class="st3" d="M294.9,6.2l-0.3,1.4c0,0,0,0,0,0l-0.1,0.3l-0.2,0.9l-0.2,1.2l0,0.2l-0.1,0.6l-0.8,3.8c0-0.2,0-0.4,0.1-0.6
		l0.7-3.3l0.1-0.6l0-0.2l0.2-1.2l0.2-0.9l0.2-1c0,0,0,0,0,0C294.8,6.6,294.8,6.4,294.9,6.2z"/>
	<path class="st3" d="M301.9,10.9L301.9,10.9c0,0.1-0.1,0.3-0.1,0.4c0,0,0,0,0,0l0,0.2l0,0.2l-0.1,0.5l-0.1,0.6l-0.7,3.3
		c0-0.2,0-0.4,0.1-0.6l0.5-2.7l0.1-0.6l0.1-0.5l0-0.2L301.9,10.9l0-0.3c0-0.2,0.1-0.4,0.2-0.6L301.9,10.9z"/>
	<path d="M207.8,103.7c-0.7,0-1.3-0.6-1.3-1.3v-5.2c0-0.7,0.6-1.3,1.3-1.3c0.7,0,1.3,0.6,1.3,1.3v5.2
		C209,103.1,208.5,103.7,207.8,103.7z"/>
	<path d="M229.4,103.7c-0.7,0-1.3-0.6-1.3-1.3v-5.2c0-0.7,0.6-1.3,1.3-1.3c0.7,0,1.3,0.6,1.3,1.3v5.2
		C230.7,103.1,230.1,103.7,229.4,103.7z"/>
	<path class="st7" d="M220.2,135.1c-5.5,0-9.3-1.1-11.6-3.4c-0.2-0.2-0.2-0.5-0.1-0.8c0.1-0.2,0.4-0.3,0.6-0.1
		c2.1,2.1,5.8,3.2,11.1,3.2c6,0,9.8-1,12.7-3.2c0.2-0.2,0.5-0.1,0.6,0.2c0.1,0.3,0.1,0.6-0.1,0.8C230.3,134,226.4,135.1,220.2,135.1
		z"/>
	<path class="st8" d="M194.9,101.9c0,0,3.7-17.4,11.1-21.9c7.4-4.4-11.1-3.3-11.1-3.3s-3.4,18.4-2.6,23.8
		C193,106,194.9,101.9,194.9,101.9z"/>
	<path class="st3" d="M193.3,100.1c-0.7,4.3-1.2,8.6-1.5,12.9c-1.9,0.2-3.8-0.5-5.2-1.9c-2.6-2.6-2.6-6.8,0-9.4
		C188.4,99.8,191,99.3,193.3,100.1z"/>
	<path class="st9" d="M232.3,72.2c0,0-15.6,12.3-33.3,6.4c-17.7-6-25.4-30.5-13.7-44.2c6.7,8.9,11.7,14.9,26.6,10.9
		c14.9-3.9,16.1,4.1,18,7.4c1.9,3.4,3.1,7.4,11.1,5.7c8-1.8,14.7-2.6,12.7,3.4c-2,6-2.6,10.7-1.5,15.9s3.1,18.3,1.4,22.1
		c-4,0.5-2.6,9.9-4.5,9.9c-1.9,0,0.8-22.9-6.7-26.1C234.9,80.2,234.8,84,232.3,72.2z"/>
	<path class="st3" d="M22.4,186.3c0,0.1,0,0.2,0,0.3l0.5-0.1L22.4,186.3z"/>
	<path class="st3" d="M37.4,184.7c-0.3-0.2-0.6-0.4-0.9-0.6c0.2,0.2,0.4,0.4,0.5,0.6L37.4,184.7z"/>
	<path class="st6" d="M31.4,197.3c-0.3-2.1-2.3-3.6-4.4-3.3l-0.5,0.1c1.5,0.4,2.7,1.6,3,3.2c0.3,2.1-1.2,4.1-3.3,4.4
		c0.5-0.1,1,0,1.5,0.1l0.5-0.1C30.3,201.4,31.7,199.4,31.4,197.3z"/>
	<path class="st6" d="M24.8,209.8l-4.4,0.6c0.3,0.1,0.6,0.1,0.9,0.1c0.2,0,0.4,0,0.6,0l7.3-1.1c0.4-0.1,0.8-0.2,1.2-0.4l-4.4,0.6
		C25.6,209.8,25.2,209.8,24.8,209.8z"/>
	<path class="st6" d="M32.6,205c-0.3-2.1-2.3-3.6-4.4-3.3l-0.5,0.1c1.5,0.4,2.7,1.6,3,3.2c0.3,2.1-1.2,4.1-3.3,4.4l-2.5,0.4
		c0.4,0,0.8,0,1.2-0.1l4.4-0.6C31.9,208.3,32.8,206.7,32.6,205z"/>
	<path class="st3" d="M16.7,203C16.7,203.1,16.7,203.1,16.7,203L16.7,203C16.7,203.1,16.7,203.1,16.7,203z"/>
	<path class="st3" d="M25.1,193.9l-9.6,1.4l0,0.1l10.1-1.5c0.1,0,0.1,0,0.2,0C25.6,193.9,25.4,193.9,25.1,193.9z"/>
	<path class="st3" d="M37.4,184.7l-0.4,0c-0.1-0.2-0.3-0.4-0.5-0.6c-0.3-0.3-0.6-0.5-1-0.7L20.6,177c-1.8-0.8-3.8,0.1-4.6,1.8
		l-0.3,0.8c-0.8,1.8,0.1,3.8,1.8,4.6l4.9,2.1l0.5,0.2l-0.5,0.1l-18.2,2.6c-2.1,0.3-3.6,2.3-3.3,4.4c0.3,1.9,2,3.3,3.9,3.3
		c0.2,0,0.4,0,0.6,0l9-1.3c-1.7,0.6-2.8,2.4-2.5,4.2c0.3,1.9,2,3.3,3.9,3.3c0.2,0,0.4,0,0.6,0l0.4-0.1c0,0,0,0,0,0c0,0,0,0,0,0l0,0
		c0,0.2,0.1,0.4,0.2,0.6c-0.9,0.8-1.5,2.1-1.3,3.5c0.3,1.9,2,3.3,3.9,3.3c0.2,0,0.4,0,0.6,0l0.5-0.1l4.4-0.6l2.5-0.4
		c2.1-0.3,3.6-2.3,3.3-4.4c-0.2-1.6-1.5-2.9-3-3.2l-6.9,1l-2.6,0.4c-0.2,0-0.4,0-0.6,0h0c0.4-0.2,0.8-0.4,1.3-0.4l7.3-1.1
		c2.1-0.3,3.6-2.3,3.3-4.4c-0.2-1.6-1.5-2.9-3-3.2l0.5-0.1c2.1-0.3,4.1,1.2,4.4,3.3c0.3,2.1-1.2,4.1-3.3,4.4
		c2.1-0.3,4.1,1.2,4.4,3.3c0.2,1.7-0.7,3.3-2.1,4.1l4.5-0.7c3.2-0.5,5.7-2.7,6.7-5.6l0.4,0l-4.4-18.2L37.4,184.7z M25.7,193.9
		l-10.1,1.5l0-0.1l9.6-1.4c0.3,0,0.5,0,0.8,0C25.8,193.9,25.7,193.9,25.7,193.9z"/>
	<path class="st3" d="M26.2,201.7l-7.3,1.1c-0.5,0.1-0.9,0.2-1.3,0.4h0c0.2,0,0.4,0,0.6,0l2.6-0.4l6.9-1
		C27.2,201.6,26.7,201.6,26.2,201.7z"/>
	<path class="st3" d="M298.4,139.8c0-0.5,0.1-0.9,0.1-1.4c0.9-12.2,0.8-24.5,1-36.7c0.2-9.1,0.3-18.1,0.5-27.2
		c0.2-9.4,0.3-18.7,0.5-28.1c0.1-3.5,0.1-7,0.2-10.5c1.2-0.5,2.3-1.3,3.2-2.4c-0.7-0.4-1.5-0.8-2.2-1.3c-4.6-1.3-9.1-2.9-13.6-4.6
		c-2.5-1-5.1-2-7.5-3.1c-0.7-0.3-1.3-0.6-2-0.9l2,5.4c0.2,0.4,0.4,0.8,0.6,1.1c0.4,0.8,0.9,1.6,1.6,2.2c-0.8,4.9-1.6,9.7-2.4,14.6
		c-1.6,9.7-3.2,19.4-4.8,29.1c-1.2,7.2-2.3,14.4-3.6,21.5c-1.5,8.2-4.8,16.3-7.8,24c0,0.1-0.1,0.2-0.1,0.4
		C267.2,130.8,280.8,137.7,298.4,139.8z"/>
	<path class="st3" d="M120.5,173.2c-12,3.6-58.3,8.7-69.1,9.9c-4.6,0.5-9.2,1-13.7,1.5l4.4,18.2c0.3,0,0.6,0,1,0
		c0.9,0,1.8,0.1,2.7,0.1c1.4,0.1,2.8,0.1,4.1,0.2c1.8,0.1,3.6,0.1,5.3,0.2c2.1,0.1,4.2,0.2,6.2,0.2c2.3,0.1,67.6,2.8,70.7,2.9
		c1,0,2.1,0,3.1,0c-3.8-8.5-6.7-20.9-7.9-35.4C125,171.8,122.7,172.5,120.5,173.2z"/>
	<path class="st10" d="M101.7,121.3l11.3,9.3l11.3-9.3l11.3,9.3l11.3-9.3l11.3,9.3"/>
	<path class="st11" d="M345.7,181c5.6,0,5.6,9.5,11.2,9.5c5.6,0,5.6-9.5,11.2-9.5c5.6,0,5.6,9.5,11.2,9.5s5.6-9.5,11.2-9.5
		c5.6,0,5.6,9.5,11.2,9.5"/>
	<path class="st7" d="M218.8,121.9c0,0.5-0.5,0.9-1,0.8c-1.2-0.3-2.9,0-4.2-0.2c-1.5-0.2-1.7-2.9-1.2-6.5c0.4-3.1,4.7-9,6.4-11.1
		c0.2-0.2,0.5-0.1,0.5,0.2l-1,5.1c-0.6,3.2-0.6,6.6,0.2,9.8L218.8,121.9z"/>
</g>
</svg>
