<svg width="60" height="64" viewBox="0 0 60 64" fill="none" xmlns="http://www.w3.org/2000/svg">
<path d="M38.3,45.6c-0.5-0.5-1.2-0.5-1.6,0c-0.5,0.5-0.5,1.2,0,1.6l5.8,5.8c0.2,0.2,0.5,0.3,0.8,0.3s0.6-0.1,0.8-0.3,c0.5-0.5,0.5-1.2,0-1.6L38.3,45.6z" fill="#8569B4"/>
<path d="M31.2,48.2c-0.6,0-1.2,0.5-1.2,1.2v4.6c0,0.6,0.5,1.2,1.2,1.2c0.6,0,1.2-0.5,1.2-1.2v-4.6,C32.3,48.7,31.8,48.2,31.2,48.2z" fill="#8569B4"/>
<path d="M39.2,40.1c0,0.6,0.5,1.2,1.2,1.2H45c0.6,0,1.2-0.5,1.2-1.2s-0.5-1.2-1.2-1.2h-4.6,C39.7,38.9,39.2,39.4,39.2,40.1z" fill="#8569B4"/>
<path d="M19.9,27.1c-0.2-0.2-0.5-0.3-0.8-0.3c-0.3,0-0.6,0.1-0.8,0.3c-0.5,0.5-0.5,1.2,0,1.6l5.8,5.8,c0.5,0.5,1.2,0.5,1.6,0c0.5-0.5,0.5-1.2,0-1.6L19.9,27.1z" fill="#8569B4"/>
<path d="M31.2,25.1c-0.6,0-1.2,0.5-1.2,1.2v4.6c0,0.6,0.5,1.2,1.2,1.2c0.6,0,1.2-0.5,1.2-1.2v-4.6,C32.3,25.6,31.8,25.1,31.2,25.1z" fill="#8569B4"/>
<path d="M21.9,38.9h-4.6c-0.6,0-1.2,0.5-1.2,1.2s0.5,1.2,1.2,1.2h4.6c0.6,0,1.2-0.5,1.2-1.2S22.6,38.9,21.9,38.9z" fill="#8569B4"/>
<path d="M50.8,22.8v-3.5c0-0.6-0.5-1.2-1.2-1.2s-1.2,0.5-1.2,1.2v3.5h-6.9v-6.9c0-5.1-4.1-9.2-9.2-9.2V3.2,c0-0.6-0.5-1.2-1.2-1.2S30,2.5,30,3.2v3.5H11.5V3.2C11.5,2.5,11,2,10.4,2S9.2,2.5,9.2,3.2v3.5C4.1,6.6,0,10.7,0,15.8v23.1,c0,5.1,4.1,9.2,9.2,9.2h11.5v4.6c0,5.1,4.1,9.2,9.2,9.2h20.8c5.1,0,9.2-4.1,9.2-9.2V34.3V32C60,26.9,55.9,22.8,50.8,22.8z,M50.8,25.1c3.8,0,6.9,3.1,6.9,6.9H41.5v-6.9H50.8z M9.2,8.9h23.1c3.8,0,6.9,3.1,6.9,6.9H2.3C2.3,12,5.4,8.9,9.2,8.9z M57.7,52.8,c0,3.8-3.1,6.9-6.9,6.9H30c-3.8,0-6.9-3.1-6.9-6.9v-4.6v-2.3h-2.3H9.2c-3.8,0-6.9-3.1-6.9-6.9V18.2h36.9v4.6v2.3V32v2.3h2.3h16.2,V52.8z" fill="#8569B4"/>
</svg>
