<?xml version="1.0" encoding="utf-8"?>
<!-- Generator: Adobe Illustrator 23.0.2, SVG Export Plug-In . SVG Version: 6.00 Build 0)  -->
<svg version="1.1" id="Layer_1" xmlns="http://www.w3.org/2000/svg" xmlns:xlink="http://www.w3.org/1999/xlink" x="0px" y="0px"
	 viewBox="0 0 32 32" style="enable-background:new 0 0 32 32;" xml:space="preserve">
<style type="text/css">
	.st0{fill:#8569B4;}
</style>
<g>
	<g>
		<path class="st0" d="M19.6,21.9c-0.2-0.2-0.5-0.2-0.7,0s-0.2,0.5,0,0.7l2.5,2.5c0.1,0.1,0.2,0.1,0.4,0.1s0.3,0,0.4-0.1
			c0.2-0.2,0.2-0.5,0-0.7L19.6,21.9z"/>
	</g>
	<g>
		<path class="st0" d="M16.5,23c-0.3,0-0.5,0.2-0.5,0.5v2c0,0.3,0.2,0.5,0.5,0.5s0.5-0.2,0.5-0.5v-2C17,23.2,16.8,23,16.5,23z"/>
	</g>
	<g>
		<path class="st0" d="M20,19.5c0,0.3,0.2,0.5,0.5,0.5h2c0.3,0,0.5-0.2,0.5-0.5S22.8,19,22.5,19h-2C20.2,19,20,19.2,20,19.5z"/>
	</g>
	<g>
		<path class="st0" d="M11.6,13.9c-0.1-0.1-0.2-0.1-0.4-0.1s-0.3,0-0.4,0.1c-0.2,0.2-0.2,0.5,0,0.7l2.5,2.5c0.2,0.2,0.5,0.2,0.7,0
			s0.2-0.5,0-0.7L11.6,13.9z"/>
	</g>
	<g>
		<path class="st0" d="M16.5,13c-0.3,0-0.5,0.2-0.5,0.5v2c0,0.3,0.2,0.5,0.5,0.5s0.5-0.2,0.5-0.5v-2C17,13.2,16.8,13,16.5,13z"/>
	</g>
	<g>
		<path class="st0" d="M12.5,19h-2c-0.3,0-0.5,0.2-0.5,0.5s0.2,0.5,0.5,0.5h2c0.3,0,0.5-0.2,0.5-0.5S12.8,19,12.5,19z"/>
	</g>
	<g>
		<path class="st0" d="M25,12v-1.5c0-0.3-0.2-0.5-0.5-0.5S24,10.2,24,10.5V12h-3V9c0-2.2-1.8-4-4-4V3.5C17,3.2,16.8,3,16.5,3
			S16,3.2,16,3.5V5H8V3.5C8,3.2,7.8,3,7.5,3S7,3.2,7,3.5V5C4.8,5,3,6.8,3,9v10c0,2.2,1.8,4,4,4h5v2c0,2.2,1.8,4,4,4h9
			c2.2,0,4-1.8,4-4v-8v-1C29,13.8,27.2,12,25,12z M25,13c1.7,0,3,1.3,3,3h-7v-3H25z M7,6h10c1.7,0,3,1.3,3,3H4C4,7.3,5.3,6,7,6z
			 M28,25c0,1.6-1.3,3-3,3h-9c-1.7,0-3-1.4-3-3v-2v-1h-1H7c-1.7,0-3-1.4-3-3v-9h16v2v1v3v1h1h7V25z"/>
	</g>
</g>
</svg>
