<?xml version="1.0" encoding="utf-8"?>
<!-- Generator: Adobe Illustrator 23.0.2, SVG Export Plug-In . SVG Version: 6.00 Build 0)  -->
<svg version="1.1" id="Layer_1" xmlns="http://www.w3.org/2000/svg" xmlns:xlink="http://www.w3.org/1999/xlink" x="0px" y="0px"
	 viewBox="0 0 327 167.2" style="enable-background:new 0 0 327 167.2;" xml:space="preserve">
<style type="text/css">
	.st0{fill:#000099;}
	.st1{fill:#0000CC;}
	.st2{fill:#00007A;}
	.st3{fill:#E050A2;}
</style>
<path class="st0" d="M83.4,37.5c17-12.8,34.7-25.7,52.7-37.5H0v61.2C15.2,64.8,40.9,69.7,83.4,37.5z"/>
<path class="st1" d="M327,78.1V0H160.8c38,15.8,75.7,35.9,110.9,56C293.5,68.4,311.8,74.9,327,78.1z"/>
<path class="st2" d="M61.7,129.1C145.2,110.5,240.7,91.8,327,91v-13c-15.2-3.2-33.5-9.7-55.2-22.1c-35.3-20.1-72.9-40.2-110.9-56
	h-24.8c-18,11.9-35.7,24.7-52.7,37.5C40.9,69.7,15.2,64.8,0,61.2v77.6C17,137.4,37.4,134.6,61.7,129.1z"/>
<path class="st3" d="M327,91v76.1H0v-28.4c17-1.4,37.4-4.2,61.7-9.7C145.3,110.5,240.7,91.8,327,91z"/>
</svg>
