<svg width="24" height="24" viewBox="0 0 24 24" fill="none" xmlns="http://www.w3.org/2000/svg">
<path d="M15.6316 10.1053C14.6265 10.1053 13.6627 9.70602 12.952 8.99535C12.2414 8.28469 11.8421 7.32082 11.8421 6.31579V1.26316H6.78947C6.11945 1.26316 5.47687 1.52932 5.0031 2.0031C4.52932 2.47687 4.26316 3.11945 4.26316 3.78947V20.2105C4.26316 20.8805 4.52932 21.5231 5.0031 21.9969C5.47687 22.4707 6.11945 22.7368 6.78947 22.7368H18.1579C18.8279 22.7368 19.4705 22.4707 19.9443 21.9969C20.418 21.5231 20.6842 20.8805 20.6842 20.2105V10.1053H15.6316ZM13.1053 6.31579C13.1053 6.98581 13.3714 7.62839 13.8452 8.10216C14.319 8.57594 14.9616 8.8421 15.6316 8.8421H20.1613L13.1053 1.78611V6.31579ZM6.78947 0H13.1053L21.9474 8.8421V20.2105C21.9474 21.2156 21.5481 22.1794 20.8375 22.8901C20.1268 23.6008 19.1629 24 18.1579 24H6.78947C5.78444 24 4.82058 23.6008 4.10991 22.8901C3.39925 22.1794 3 21.2156 3 20.2105V3.78947C3 2.78444 3.39925 1.82058 4.10991 1.10991C4.82058 0.399247 5.78444 0 6.78947 0Z" fill="#B6A1DA"/>
</svg>
