<svg width="26" height="26" viewBox="0 0 26 26" fill="none" xmlns="http://www.w3.org/2000/svg">
<path d="M9.508 9.4C9.79012 8.598 10.347 7.92173 11.0799 7.49096C11.8129 7.06019 12.6747 6.90272 13.5126 7.04645C14.3505 7.19018 15.1106 7.62583 15.6581 8.27623C16.2056 8.92664 16.5053 9.74982 16.504 10.6C16.504 13 12.904 14.2 12.904 14.2M13 19H13.012M25 13C25 19.6274 19.6274 25 13 25C6.37258 25 1 19.6274 1 13C1 6.37258 6.37258 1 13 1C19.6274 1 25 6.37258 25 13Z" stroke="#898989" stroke-width="2" stroke-linecap="round" stroke-linejoin="round"/>
</svg>
