<svg width="26" height="26" viewBox="0 0 26 26" fill="none" xmlns="http://www.w3.org/2000/svg">
<path d="M6.99996 11.7999L11.7999 1C12.7547 1 13.6704 1.37928 14.3455 2.05441C15.0206 2.72954 15.3999 3.6452 15.3999 4.59998V9.39995H22.1919C22.5398 9.39601 22.8843 9.46775 23.2017 9.61021C23.5192 9.75266 23.8018 9.96242 24.0301 10.225C24.2584 10.4875 24.4269 10.7965 24.5239 11.1306C24.6209 11.4647 24.6441 11.816 24.5918 12.1599L22.9359 22.9599C22.8491 23.5321 22.5584 24.0538 22.1174 24.4287C21.6763 24.8035 21.1147 25.0064 20.5359 24.9998H6.99996M6.99996 11.7999V24.9998M6.99996 11.7999H3.39998C2.76347 11.7999 2.15302 12.0528 1.70294 12.5029C1.25285 12.953 1 13.5634 1 14.1999V22.5999C1 23.2364 1.25285 23.8468 1.70294 24.2969C2.15302 24.747 2.76347 24.9998 3.39998 24.9998H6.99996" stroke="#898989" stroke-width="2" stroke-linecap="round" stroke-linejoin="round"/>
</svg>
