<svg width="19" height="19" viewBox="0 0 19 19" fill="none" xmlns="http://www.w3.org/2000/svg">
<path d="M1 17.586L4.586 14H16C16.5304 14 17.0391 13.7893 17.4142 13.4142C17.7893 13.0391 18 12.5304 18 12V3C18 2.46957 17.7893 1.96086 17.4142 1.58579C17.0391 1.21071 16.5304 1 16 1H3C2.46957 1 1.96086 1.21071 1.58579 1.58579C1.21071 1.96086 1 2.46957 1 3V17.586ZM1 19H0V3C0 2.20435 0.316071 1.44129 0.87868 0.87868C1.44129 0.316071 2.20435 0 3 0H16C16.7956 0 17.5587 0.316071 18.1213 0.87868C18.6839 1.44129 19 2.20435 19 3V12C19 12.7956 18.6839 13.5587 18.1213 14.1213C17.5587 14.6839 16.7956 15 16 15H5L1 19ZM4 4H15V5H4V4ZM4 7H15V8H4V7ZM4 10H12V11H4V10Z" fill="black"/>
</svg>
