<?xml version="1.0" encoding="UTF-8"?>
<!-- Generator: Adobe Illustrator 23.0.2, SVG Export Plug-In . SVG Version: 6.00 Build 0)  -->
<svg version="1.1" id="Layer_1" xmlns="http://www.w3.org/2000/svg" xmlns:xlink="http://www.w3.org/1999/xlink" x="0px" y="0px" viewBox="0 0 2553 2616" style="enable-background:new 0 0 2553 2616;" xml:space="preserve">
<style type="text/css">
	.st0{fill:#AB80FF;}
	.st1{fill:#CABDF4;}
	.st2{fill:#B7B0E2;}
	.st3{fill:#FCD5B6;}
	.st4{fill:#560099;}
	.st5{fill:none;stroke:#560099;stroke-width:5;stroke-linecap:round;stroke-linejoin:round;stroke-miterlimit:10;}
	.st6{fill:#E5AB83;}
	.st7{fill:none;stroke:#E5AB83;stroke-width:10;stroke-linecap:round;stroke-miterlimit:10;}
	.st8{fill:#E2E2E2;}
	.st9{fill:#777777;}
	.st10{fill:#E0504C;}
	.st11{fill:#000099;}
	.st12{fill:#EB8F4D;}
	.st13{fill:#824DCE;}
	.st14{fill:#E2B72D;}
	.st15{fill:#A5C986;}
	.st16{fill:#759D59;}
	.st17{fill:#726861;}
	.st18{fill:#282421;}
</style>
<g>
	<path class="st0" d="M2220.1,2383.9c-2.2,26.6-7.9,52.5-16.8,77.5c-20.7,57.9-59.2,110.6-114.2,154.6H147.6   c-5.9-16.2-8.9-33.2-8.7-50.8c0.1-60.4,36.4-127.6,101.4-192.9c64.7-65.4,158.1-128.8,264.8-185.8c5.4-2.9,10.8-5.8,16.3-8.6   c102.4-53.8,216-102,324.1-148.6c114.9-48.7,213-90.7,297-128.4c61.3-27.1,115.1-51.9,167.2-72.2c19.8-7.7,39.3-14.7,58.8-21   c71-22.6,142.7-34.8,226.8-26.8c83.3,8,178.9,36.3,279.6,93.6c99,56.5,193.2,136.7,256.5,226.9   C2195.4,2191.5,2228.4,2291.6,2220.1,2383.9z"/>
	<g>
		<path class="st1" d="M1628.4,2169.8c-9,15.8-24.8,32.4-61.9,89.1c-37.2,50.9-95.6,141.8-187.3,232.7    c-42,42.9-91.5,85.8-142.9,124.5H594.4c-16.8-27-32.8-57.4-46.7-91.4c-42-98.5-54.6-231.5-26.4-346.7c0.9-3.6,1.8-7.1,2.7-10.6    c29.4-122.5,95.7-207.6,147.4-271.4c54.4-64.5,94.2-107.8,131.5-164.3c37-51,71.4-115.3,117.7-157.4    c44.6-42.6,101.1-63.1,143.4-38.2c45.6,20.8,71.2,78.1,97.7,126c26.6,50.3,54.1,91.1,104.8,132.4c12.9,11.3,27.4,22.6,43.1,34.2    c41.9,30.9,92,63.8,139.5,103.5c65.4,52.6,126,117.9,154.9,160.5c10.7,15.6,17.8,27.6,22.3,37.3    C1635.2,2149.4,1633.3,2159.4,1628.4,2169.8z"/>
	</g>
	<path class="st2" d="M2268.2,2616H872.9c77.4-280.2,334.2-486,639.1-486h117c245.4,0,459.6,133.3,574.2,331.4   c13.7,23.6,25.9,48.2,36.7,73.6C2251,2561.1,2260.5,2588.2,2268.2,2616z"/>
	<path class="st3" d="M2270.9,1056.5l-21-86.5c-3.7-15.3,5.7-30.7,21-34.4h0c15.3-3.7,30.7,5.7,34.4,21l21,86.5   c3.7,15.3-5.7,30.7-21,34.4v0C2290,1081.2,2274.6,1071.8,2270.9,1056.5z"/>
	<path class="st3" d="M2180.6,1103.3l-44.5-77.1c-7.9-13.6-3.2-31.1,10.4-38.9l0,0c13.6-7.9,31.1-3.2,38.9,10.4l44.5,77.1   c7.9,13.6,3.2,31.1-10.4,38.9l0,0C2205.9,1121.6,2188.5,1116.9,2180.6,1103.3z"/>
	<path class="st3" d="M1336.1,559.8c-48.1-2.8-96.3-2.8-144.4,0C1051.8,568,946,690.2,957.8,829.9c17.5,207.7,50.1,415.4,97.6,623.1   c69.5,18,139.2,104,208.7,104s138.9-86,208.4-104c47.5-207.7,80-415.4,97.6-623.1C1581.8,690.2,1476,568,1336.1,559.8z"/>
	<path class="st4" d="M956,1028l63.9,36.3c15.1,8.6,34-1,36.1-18.2c6.8-56.7,16-167.4-4.9-235.1c-29-94-18-141-20-180s-92,25-94,121   S939,1018,956,1028z"/>
	<path class="st4" d="M1584.5,1028l-71.7,40.7c-11.3,6.4-25.5-0.7-27.2-13.6c-6.8-53.1-18.3-172.6,3.8-244.2   c29-94,24.6-119,26.6-158s85.4,3,87.4,99S1601.5,1018,1584.5,1028z"/>
	<path class="st3" d="M937.2,1108c0,62.4-5,117,47,113c25.9-2,47-50.6,47-113s-21-113-47-113C958.2,995,937.2,1045.6,937.2,1108z"/>
	<path class="st3" d="M1593.1,1108c0,62.4,5,117-47,113c-25.9-2-47-50.6-47-113s21-113,47-113S1593.1,1045.6,1593.1,1108z"/>
	<path class="st5" d="M1330.6,557.4c-6-22.2-39.1-32.6-74.1-23.2c-35,9.4-58.5,35-52.6,57.2"/>
	<path class="st5" d="M1347.4,575.7c-6-22.2-39.1-32.6-74.1-23.2c-35,9.4-58.5,35-52.6,57.2"/>
	<g>
		<path d="M1201.8,920.7l1.8,1.8c4.5,4.5,4.5,11.8,0,16.3l-21.4,21.4c-4.5,4.5-11.8,4.5-16.3,0l-1.8-1.8c-4.5-4.5-4.5-11.8,0-16.3    l21.4-21.4C1190,916.2,1197.4,916.2,1201.8,920.7z"/>
	</g>
	<g>
		<path d="M1339.2,922.5l1.8-1.8c4.5-4.5,11.8-4.5,16.3,0l21.4,21.4c4.5,4.5,4.5,11.8,0,16.3l-1.8,1.8c-4.5,4.5-11.8,4.5-16.3,0    l-21.4-21.4C1334.7,934.3,1334.7,927,1339.2,922.5z"/>
	</g>
	<g>
		<path class="st6" d="M1269.1,1265.1c-33.9,7.4-59.2,3.6-77.4-11.8c-2.1-1.8-2.4-4.9-0.6-7c1.8-2.1,4.9-2.4,7-0.6    c15.6,13.2,38.1,16.4,68.8,9.7c34.8-7.6,55.1-19.6,68-40.1c1.5-2.3,4.6-3,6.9-1.6c2.3,1.5,3,4.6,1.6,6.9    C1329.2,1243.2,1306.3,1256.9,1269.1,1265.1z"/>
	</g>
	<path class="st7" d="M1297.5,1123c-19.9-22.2-43,12-57,1c-31.9-25.1-7.4-124,21.6-150"/>
	<path class="st3" d="M1267.1,1579c-18.9,1-38.2,2.1-58.1,3.1c-134,6.9-255.3-50.8-370.6-176.4c-99.8-108.7-192-264.9-271.5-465.2   c-38.7-97.5-64.2-169-93.1-291.6c-31.3-132.9-45.5-223.9-45.8-226c-8.3-54.6-59.4-92.1-114-83.7c-54.6,8.3-65.3,70.7-61.9,125.9   c5,82,9,146,26.2,226.4C306,821.3,330.1,883,380,1012.1c86.7,224.3,193.7,400.8,309.9,527.8c72.6,79.3,151.1,140.1,233.3,180.5   c93.6,46.1,193.2,66.8,296,61.5c16.2-0.8,32.1-1.7,47.9-2.5V1579z"/>
	<rect x="265.1" y="230" class="st8" width="169" height="263"/>
	<rect x="295.1" y="266.7" class="st9" width="109" height="13.3"/>
	<g>
		<rect x="295.1" y="396.4" class="st9" width="63" height="13.3"/>
		<rect x="377.1" y="396.4" class="st9" width="27" height="13.3"/>
	</g>
	<g>
		<rect x="377.1" y="439.7" class="st9" width="27" height="13.3"/>
	</g>
	<g>
		<rect x="295.1" y="353.2" class="st9" width="63" height="13.3"/>
		<rect x="377.1" y="353.2" class="st9" width="27" height="13.3"/>
	</g>
	<g>
		<rect x="295.1" y="309.9" class="st9" width="63" height="13.3"/>
		<rect x="377.1" y="309.9" class="st9" width="27" height="13.3"/>
	</g>
	<path class="st3" d="M436.6,430h-89c-15.7,0-28.5-12.8-28.5-28.5v0c0-15.7,12.8-28.5,28.5-28.5h89c15.7,0,28.5,12.8,28.5,28.5v0   C465.1,417.2,452.3,430,436.6,430z"/>
	<path class="st3" d="M267.9,468.5l-42.9-9.9c-15.3-3.5-24.9-18.8-21.4-34.2l0,0c3.5-15.3,18.8-24.9,34.2-21.4l42.9,9.9   c15.3,3.5,24.9,18.8,21.4,34.2v0C298.5,462.4,283.2,472,267.9,468.5z"/>
	<path class="st3" d="M266.9,414.9L224,405c-15.3-3.5-24.9-18.8-21.4-34.2l0,0c3.5-15.3,18.8-24.9,34.2-21.4l42.9,9.9   c15.3,3.5,24.9,18.8,21.4,34.2l0,0C297.5,408.8,282.2,418.4,266.9,414.9z"/>
	<path class="st3" d="M284.1,375.7l-42.9-9.9c-15.3-3.5-24.9-18.8-21.4-34.2l0,0c3.5-15.3,18.8-24.9,34.2-21.4l42.9,9.9   c15.3,3.5,24.9,18.8,21.4,34.2v0C314.8,369.7,299.5,379.3,284.1,375.7z"/>
	<path class="st3" d="M2347.1,1071c-76-77-290-11-99,142c20.9,16.8,40.6,87.9,34.7,158.6c-9.7,116.7-58.2,121.2-84.2,123.6   l-511.4,47.6c-55,5.1-95.4,53.8-90.3,108.8c4.9,52.7,49.8,92,101.9,90.7c2.3-0.1,4.6-0.2,6.9-0.4l511.4-47.6   c86.6-8.1,166.1-42.3,203.4-115C2488.1,1448,2389.3,1113.8,2347.1,1071z"/>
	<path class="st10" d="M1904.1,1494.2c-42.1,7-90.8,14.2-151.2,21.3c-65.7,7.8-131.9-5.2-190.9-35.2c-15.3-7.8-32.9-12.3-51.7-12.3   c-69.6,0-158.6,11.5-217.6,43.1c-17.1,9.2-37.8,8.5-54.3-1.8c-62-38.3-165-41.3-242.3-41.3c-1,0-1.9,0-2.9,0   c-33.4,0.8-65.9-10.8-90.6-33.3c-15.4-14.1-30.6-29.4-45.8-45.9c-36.4-39.7-71.7-85.9-105.8-138.5c-3-4.6-9.6-4.9-13-0.7   c-56,70-98.3,151.4-123.1,240.2c18.5,23.6,37.4,46,56.6,66.9c65.1,71.2,135,127.9,208.2,169c-15.7,252.6-62.8,638.5-88.6,890.3   c126,0,634,0,939,0c-24-234-81.9-602.2-99.9-836.8c59.1-5.3,113-10.8,162.2-16.8c58.2-7,106.3-14,148.1-21   c2.3-22.9,3.5-46,3.5-69.5c0-56.9-7-112.1-20.2-164.8C1921.7,1498.3,1913,1492.7,1904.1,1494.2z"/>
	<path class="st11" d="M1344.7,1421.1c39.1-6.8,78.3-13.6,117.4-20.4c16.2-2.7,45.4,7.2,60.4,23.2c10.4,11.6,19.1,23.5,26.1,35.6   c10.3,16.6-6,36-31.7,43c-58.8,15.7-117.6,31.4-176.4,47.1c-25.8,7-36.6-8.2-30.1-32.8c4.4-17.4,6.7-34.4,7.1-50.6   C1318.6,1443.1,1328.4,1423.9,1344.7,1421.1z"/>
	<path class="st11" d="M1186.8,1418.9c-39.3-5.7-78.6-11.4-118-17.1c-16.3-2.3-45.2,8.5-59.7,24.9c-10.1,11.9-18.4,24-25,36.3   c-9.8,16.9,7.1,35.8,32.9,42c59.2,14,118.4,28,177.6,42.1c26,6.3,36.4-9.3,29.1-33.7c-4.9-17.3-7.7-34.2-8.5-50.4   C1213.5,1440.1,1203.2,1421.2,1186.8,1418.9z"/>
	<circle class="st11" cx="1267.1" cy="1579" r="15"/>
	<circle class="st11" cx="1267.1" cy="1660" r="15"/>
	<g>
		<path class="st12" d="M2354.6,745l-27.4,21.5c-2,1.5-4.8,1.2-6.3-0.8c-1.5-2-1.2-4.8,0.8-6.3l21.4-16.8l-14.8-27.3l24.4-19.1    L2338,669l27.4-21.5c2-1.5,4.8-1.2,6.3,0.8c1.5,2,1.2,4.8-0.8,6.3l-21.4,16.8l14.8,27.3l-24.4,19.1L2354.6,745z"/>
	</g>
	<g>
		<path class="st13" d="M103.7,272.7c-0.4,0-0.8-0.1-1.2-0.2c-7-3-7.9-10.1-8.7-16.3c-0.8-6.1-1.5-9.9-5.1-11.5    c-3.6-1.6-6.9,0.5-11.9,4.2c-5.1,3.7-10.8,7.8-17.8,4.8c-7-3-7.9-10.1-8.7-16.3c-0.8-6.1-1.5-9.9-5.1-11.5    c-3.6-1.6-6.9,0.5-11.9,4.2c-5.1,3.7-10.8,7.8-17.8,4.8c-7-3-7.9-10.1-8.7-16.3c-0.8-6.1-1.5-9.9-5.1-11.5    c-1.5-0.7-2.2-2.4-1.6-3.9c0.7-1.5,2.4-2.2,3.9-1.6c7,3,7.9,10.1,8.7,16.3c0.8,6.1,1.5,9.9,5.1,11.5c3.6,1.6,6.9-0.5,11.9-4.2    c5.1-3.7,10.8-7.8,17.8-4.8c7,3,7.9,10.1,8.7,16.3c0.8,6.1,1.5,9.9,5.1,11.5c3.6,1.6,6.9-0.5,11.9-4.2c5.1-3.7,10.8-7.8,17.8-4.8    c7,3,7.9,10.1,8.7,16.3c0.8,6.1,1.5,9.9,5.1,11.5c1.5,0.7,2.2,2.4,1.6,3.9C106,272,104.9,272.7,103.7,272.7z"/>
	</g>
	<g>
		<path class="st14" d="M515.8,158.9c-0.2-0.1-0.4-0.3-0.6-0.5c-1.1-1.3-0.9-3.2,0.4-4.2c5.8-4.9,12.5-2.6,18.4-0.5    c5.8,2,9.6,3.1,12.6,0.6c3-2.5,2.6-6.4,1.6-12.5c-1-6.2-2.2-13.2,3.7-18.1c5.8-4.9,12.5-2.6,18.4-0.5c5.8,2,9.6,3.1,12.6,0.6    c3-2.5,2.6-6.4,1.6-12.5c-1-6.2-2.2-13.2,3.7-18.1c5.8-4.9,12.5-2.6,18.4-0.5c5.8,2,9.6,3.1,12.6,0.6c1.3-1.1,3.2-0.9,4.2,0.4    c1.1,1.3,0.9,3.2-0.4,4.2c-5.8,4.9-12.5,2.6-18.4,0.5c-5.8-2-9.6-3.1-12.6-0.6c-3,2.5-2.6,6.4-1.6,12.5c1,6.2,2.2,13.2-3.7,18.1    c-5.8,4.9-12.5,2.6-18.4,0.5c-5.8-2-9.6-3.1-12.6-0.6c-3,2.5-2.6,6.4-1.6,12.5c1,6.2,2.2,13.2-3.7,18.1    c-5.8,4.9-12.5,2.6-18.4,0.5c-5.8-2-9.6-3.1-12.6-0.6C518.4,159.7,516.9,159.7,515.8,158.9z"/>
	</g>
	<g>
		<circle class="st10" cx="648.6" cy="353.5" r="33.5"/>
	</g>
	<g>
		<circle class="st11" cx="2110.6" cy="707.5" r="33.5"/>
	</g>
	<g>
		<polygon class="st12" points="2490,860 2464.1,941 2544.7,924.3   "/>
	</g>
	<g>
		<polygon class="st12" points="197,4 171.1,85 251.7,68.3   "/>
	</g>
	<g>
		<path class="st13" d="M1982.7,969.7c-0.4,0-0.8-0.1-1.2-0.2c-7-3-7.9-10.1-8.7-16.3c-0.8-6.1-1.5-9.9-5.1-11.5    c-3.6-1.6-6.9,0.5-11.9,4.2c-5.1,3.7-10.8,7.8-17.8,4.8c-7-3-7.9-10.1-8.7-16.3c-0.8-6.1-1.5-9.9-5.1-11.5    c-3.6-1.6-6.9,0.5-11.9,4.2c-5.1,3.7-10.8,7.8-17.8,4.8c-7-3-7.9-10.1-8.7-16.3c-0.8-6.1-1.5-9.9-5.1-11.5    c-1.5-0.7-2.2-2.4-1.6-3.9c0.7-1.5,2.4-2.2,3.9-1.6c7,3,7.9,10.1,8.7,16.3c0.8,6.1,1.5,9.9,5.1,11.5c3.6,1.6,6.9-0.5,11.9-4.2    c5.1-3.7,10.8-7.8,17.8-4.8c7,3,7.9,10.1,8.7,16.3c0.8,6.1,1.5,9.9,5.1,11.5c3.6,1.6,6.9-0.5,11.9-4.2c5.1-3.7,10.8-7.8,17.8-4.8    c7,3,7.9,10.1,8.7,16.3c0.8,6.1,1.5,9.9,5.1,11.5c1.5,0.7,2.2,2.4,1.6,3.9C1985,969,1983.9,969.7,1982.7,969.7z"/>
	</g>
	<g>
		<path class="st15" d="M2263.4,1135.9c-80.6-50.3-148.2-108.1-205-167.3c30.6-15.5,59.7-35.2,86.5-58.4    c56.7,49.4,123.8,96.7,203,135.7C2322.7,1079.2,2294.4,1109.4,2263.4,1135.9z"/>
		<path class="st16" d="M2240.2,1137.4c-49.4-62.4-104-113.2-163.8-151.8c22.2-24.3,45.5-50.1,69.8-77.4    c60,40.3,114.9,92.7,164.5,156.6C2286.2,1090.5,2262.7,1114.7,2240.2,1137.4z"/>
		
			<rect x="2095.9" y="967.2" transform="matrix(0.7259 0.6878 -0.6878 0.7259 1305.6451 -1240.1681)" class="st15" width="226.1" height="102.1"/>
		<path class="st16" d="M2250.1,1137.8c-50.6-65-106-99.9-164.6-134.9c21.9-25.9,45.4-49.8,69.8-74.2    c59.5,37.6,116.2,78.2,164.6,153.5C2295.9,1102.9,2272.7,1120.4,2250.1,1137.8z"/>
	</g>
	<g>
		<path class="st17" d="M2225.9,1110.9l60-22.3c15-5.6,22.7-22.3,17.1-37.3l-49.4-133.1c-5.6-15-22.3-22.7-37.3-17.1l-60,22.3    c-15,5.6-22.7,22.3-17.1,37.3l49.4,133.1C2194.2,1108.8,2210.9,1116.5,2225.9,1110.9z"/>
		
			<rect x="2191.2" y="912.3" transform="matrix(-0.9374 0.3482 -0.3482 -0.9374 4622.9268 1193.624)" class="st18" width="26" height="200"/>
	</g>
	<path class="st3" d="M2225,1099.7l-30.4,26.8c-11.7,10.3-29.6,9.2-40-2.5l0,0c-10.3-11.7-9.2-29.6,2.5-40l30.4-26.8   c11.7-10.3,29.6-9.2,40,2.5l0,0C2237.9,1071.5,2236.7,1089.4,2225,1099.7z"/>
</g>
</svg>