<?xml version="1.0" encoding="UTF-8"?>
<!-- Generator: Adobe Illustrator 23.0.2, SVG Export Plug-In . SVG Version: 6.00 Build 0)  -->
<svg version="1.1" id="Layer_1" xmlns="http://www.w3.org/2000/svg" xmlns:xlink="http://www.w3.org/1999/xlink" x="0px" y="0px" viewBox="0 0 2987 2204" style="enable-background:new 0 0 2987 2204;" xml:space="preserve">
<style type="text/css">
	.st0{fill:#FCD5B6;}
	.st1{fill:#A5C986;}
	.st2{fill:#759D59;}
	.st3{fill:#D6AE92;}
	.st4{fill:#726861;}
	.st5{fill:#282421;}
	.st6{fill:#E2E2E2;}
	.st7{fill:#777777;}
	.st8{fill:#824DCE;}
	.st9{fill:#E2B72D;}
	.st10{fill:#E0504C;}
	.st11{fill:#EB8F4D;}
	.st12{fill:none;stroke:#E5AB83;stroke-width:10;stroke-linecap:round;stroke-miterlimit:10;}
	.st13{fill:#000099;}
	.st14{fill:#0000CC;}
</style>
<path class="st0" d="M776.1,1138.4c-2.2,2.8-9.5,12.1-11.2,14.3C712,1222,670.3,1300.4,642.6,1385c-0.3,1-10,32.9-10.3,34  c-59-93.8-121.5-209-172.9-326.7c-64.7-148.2-110-382.5-147-592.3c-11.2-63.5-11.1-139.9,52.2-152.4  c63.3-12.5,191.1,56.6,137.2,92.1C422.2,492,639.7,866,689.7,977.9C716.1,1036.9,748.1,1086.3,776.1,1138.4z"/>
<g>
	<path class="st0" d="M2774.9,1398.7c-1.9,105.3-109.7,240.2-211.8,266.1c-214.7,54.5-483.7,89.1-513.9,77.9   c-23.1-8.6-113.3-245.5-141.9-258.3c-19.2-8.6,360.4-38,566.4-53.2c73.1-5.4,130.6-64.7,133.7-138l18.5-310.3l159,21.9   L2774.9,1398.7z"/>
	<path class="st0" d="M2741.1,1023.6l-79-16c-39.8-8.1-65.7-47.2-57.6-86.9l16-79c78.2,15.9,47.2-65.7,86.9-57.6l79,16   c39.8,8.1,65.7,47.2,57.6,86.9l-16,79C2820,1005.7,2780.9,1031.6,2741.1,1023.6z"/>
	<g>
		<path class="st1" d="M2911.3,1027.2c-155.5-50.1-295.2-123.1-418.8-209.6c34-32.4,66.5-68.3,97.1-107.3    c119,68.5,251.3,124.2,396.7,157.9C2964.3,923.6,2939.1,976.8,2911.3,1027.2z"/>
	</g>
	<g>
		<path class="st2" d="M2866.1,1036.9c-102.4-83.7-214.4-148.7-335.4-193.8c21.2-41.4,43.9-84.8,68.1-130    c125.7,40.8,242.2,101.8,349.2,181.6C2919.3,943.9,2892,991.3,2866.1,1036.9z"/>
	</g>
	
		<rect x="2565.3" y="781.6" transform="matrix(0.8745 0.4851 -0.4851 0.8745 763.2303 -1231.4474)" class="st1" width="391.4" height="154.8"/>
	<g>
		<path class="st2" d="M2891.1,1039.5c-103-103.3-218.9-139-337.1-172.4c20.8-44.1,43.7-85.5,68.1-126.3    c124.4,41.2,244.2,78.8,349.2,177.8C2943.1,963.5,2916.5,1003,2891.1,1039.5z"/>
	</g>
	<path class="st3" d="M2676.9,856.1L2676.9,856.1c-18.8-3.8-31-22.3-27.2-41.1l15.8-77.8c3.8-18.8,22.3-31,41.1-27.2l0,0   c18.8,3.8,31,22.3,27.2,41.1l-15.8,77.8C2714.1,847.7,2695.7,859.9,2676.9,856.1z"/>
	<path class="st3" d="M2745.1,870L2745.1,870c-18.8-3.8-31-22.3-27.2-41.1l12.9-63.5c3.8-18.8,22.3-31,41.1-27.2h0   c18.8,3.8,31,22.3,27.2,41.1l-12.9,63.5C2782.4,861.5,2763.9,873.8,2745.1,870z"/>
	<path class="st3" d="M2813.4,883.8L2813.4,883.8c-18.8-3.8-31-22.3-27.2-41.1l8.9-44c3.8-18.8,22.3-31,41.1-27.2l0,0   c18.8,3.8,31,22.3,27.2,41.1l-8.9,44C2850.7,875.4,2832.2,887.6,2813.4,883.8z"/>
	<path class="st0" d="M2652,974l-7.2,2.6c-16,5.9-33.9-2.4-39.8-18.4l-49.7-135.5c-5.9-16,2.4-33.9,18.4-39.8l7.2-2.6   c16-5.9,33.9,2.4,39.8,18.4l49.7,135.5C2676.3,950.2,2668.1,968.1,2652,974z"/>
	<g>
		<path class="st4" d="M2649.5,955.3l71,46.5c13.4,8.8,31.4,5,40.1-8.4l96.6-147.5c8.8-13.4,5-31.4-8.4-40.1l-71-46.5    c-13.4-8.8-31.4-5-40.1,8.4l-96.6,147.5C2632.4,928.5,2636.1,946.5,2649.5,955.3z"/>
		
			<rect x="2716.4" y="751.9" transform="matrix(-0.8366 -0.5479 0.5479 -0.8366 4540.6167 3092.5964)" class="st5" width="30.5" height="234.3"/>
	</g>
	<path class="st0" d="M2677.9,849L2677.9,849c-18.8-3.8-31-22.3-27.2-41.1l15.8-77.8c3.8-18.8,22.3-31,41.1-27.2l0,0   c18.8,3.8,31,22.3,27.2,41.1l-15.8,77.8C2715.1,840.6,2696.7,852.8,2677.9,849z"/>
	<path class="st0" d="M2746.2,862.9L2746.2,862.9c-18.8-3.8-31-22.3-27.2-41.1l12.9-63.5c3.8-18.8,22.3-31,41.1-27.2h0   c18.8,3.8,31,22.3,27.2,41.1l-12.9,63.5C2783.4,854.4,2764.9,866.7,2746.2,862.9z"/>
	<path class="st0" d="M2814.4,876.7L2814.4,876.7c-18.8-3.8-31-22.3-27.2-41.1l8.9-44c3.8-18.8,22.3-31,41.1-27.2l0,0   c18.8,3.8,31,22.3,27.2,41.1l-8.9,44C2851.7,868.3,2833.2,880.5,2814.4,876.7z"/>
</g>
<rect x="308.5" y="218.3" transform="matrix(0.9991 -4.275164e-02 4.275164e-02 0.9991 -15.5279 17.7495)" class="st6" width="197.5" height="307.3"/>
<rect x="339.1" y="261.2" transform="matrix(0.9991 -4.275164e-02 4.275164e-02 0.9991 -11.1323 17.4672)" class="st7" width="127.4" height="15.6"/>
<g>
	
		<rect x="345.6" y="413.8" transform="matrix(0.9991 -4.275164e-02 4.275164e-02 0.9991 -17.6755 16.7359)" class="st7" width="73.6" height="15.6"/>
	
		<rect x="441.4" y="410.7" transform="matrix(0.9991 -4.275164e-02 4.275164e-02 0.9991 -17.4705 19.9271)" class="st7" width="31.5" height="15.6"/>
</g>
<g>
	
		<rect x="443.6" y="461.1" transform="matrix(0.9991 -4.275164e-02 4.275164e-02 0.9991 -19.6271 20.0656)" class="st7" width="31.5" height="15.6"/>
</g>
<g>
	
		<rect x="343.5" y="363.4" transform="matrix(0.9991 -4.275164e-02 4.275164e-02 0.9991 -15.519 16.5974)" class="st7" width="73.6" height="15.6"/>
	
		<rect x="439.2" y="360.2" transform="matrix(0.9991 -4.275164e-02 4.275164e-02 0.9991 -15.314 19.7885)" class="st7" width="31.5" height="15.6"/>
</g>
<g>
	
		<rect x="341.3" y="312.9" transform="matrix(0.9991 -4.275164e-02 4.275164e-02 0.9991 -13.3625 16.4589)" class="st7" width="73.6" height="15.6"/>
	
		<rect x="437.1" y="309.7" transform="matrix(0.9991 -4.275164e-02 4.275164e-02 0.9991 -13.1575 19.65)" class="st7" width="31.5" height="15.6"/>
</g>
<path class="st0" d="M517,447.3l-113.5,4.9c-15.7,0.7-29-11.5-29.7-27.3l-0.4-9.6c-0.7-15.7,11.5-29,27.3-29.7l113.5-4.9  c15.7-0.7,29,11.5,29.7,27.3l0.4,9.6C544.9,433.4,532.7,446.7,517,447.3z"/>
<path class="st0" d="M322,501.8l-60-11.1c-15.5-2.9-25.7-17.7-22.8-33.2l1.8-9.4c2.9-15.5,17.7-25.7,33.2-22.8l60,11.1  c15.5,2.9,25.7,17.7,22.8,33.2l-1.8,9.4C352.3,494.4,337.4,504.6,322,501.8z"/>
<path class="st0" d="M318.1,439.2l-60-11.1c-15.5-2.9-25.7-17.7-22.8-33.2l1.8-9.4c2.9-15.5,17.7-25.7,33.2-22.8l60,11.1  c15.5,2.9,25.7,17.7,22.8,33.2l-1.8,9.4C348.5,431.9,333.6,442.1,318.1,439.2z"/>
<path class="st0" d="M336.3,392.7l-60-11.1c-15.5-2.9-25.7-17.7-22.8-33.2l1.8-9.4c2.9-15.5,17.7-25.7,33.2-22.8l60,11.1  c15.5,2.9,25.7,17.7,22.8,33.2l-1.8,9.4C366.6,385.3,351.7,395.6,336.3,392.7z"/>
<g>
	<path class="st8" d="M132,272.6c-0.4,0-0.8,0-1.2-0.2c-7.1-2.7-8.3-9.7-9.4-15.9c-1-6.1-1.9-9.9-5.6-11.3   c-3.7-1.4-6.9,0.8-11.7,4.7c-4.9,3.9-10.4,8.3-17.6,5.6c-7.1-2.7-8.3-9.7-9.4-15.9c-1-6.1-1.9-9.9-5.6-11.3   c-3.7-1.4-6.9,0.8-11.7,4.7c-4.9,3.9-10.4,8.3-17.6,5.6c-7.1-2.7-8.3-9.7-9.4-15.9c-1-6.1-1.9-9.9-5.6-11.3   c-1.5-0.6-2.3-2.3-1.7-3.9c0.6-1.5,2.3-2.3,3.9-1.7c7.1,2.7,8.3,9.7,9.4,15.9c1,6.1,1.9,9.9,5.6,11.3c3.7,1.4,6.9-0.8,11.7-4.7   c4.9-3.9,10.4-8.3,17.6-5.6c7.1,2.7,8.3,9.7,9.4,15.9c1,6.1,1.9,9.9,5.6,11.3c3.7,1.4,6.9-0.8,11.7-4.7c4.9-3.9,10.4-8.3,17.6-5.6   c7.1,2.7,8.3,9.7,9.4,15.9c1,6.1,1.9,9.9,5.6,11.3c1.5,0.6,2.3,2.3,1.7,3.9C134.3,271.9,133.2,272.6,132,272.6z"/>
</g>
<g>
	<path class="st9" d="M538.9,141.4c-0.2-0.1-0.4-0.3-0.6-0.5c-1.1-1.2-1-3.1,0.2-4.2c5.6-5.2,12.4-3.1,18.4-1.3   c5.9,1.8,9.7,2.7,12.6,0c2.9-2.7,2.3-6.5,1.1-12.6c-1.3-6.1-2.7-13,2.9-18.2c5.6-5.2,12.4-3.1,18.4-1.3c5.9,1.8,9.7,2.7,12.6,0   c2.9-2.7,2.3-6.5,1.1-12.5c-1.3-6.1-2.7-13,2.9-18.2c5.6-5.2,12.4-3.1,18.4-1.3c5.9,1.8,9.7,2.7,12.6,0c1.2-1.1,3.1-1,4.2,0.2   c1.1,1.2,1,3.1-0.2,4.2c-5.6,5.2-12.4,3.1-18.4,1.3c-5.9-1.8-9.7-2.7-12.6,0c-2.9,2.7-2.3,6.5-1.1,12.5c1.3,6.1,2.7,13-2.9,18.2   c-5.6,5.2-12.4,3.1-18.4,1.3c-5.9-1.8-9.7-2.7-12.6,0s-2.3,6.5-1.1,12.6c1.3,6.1,2.7,13-2.9,18.2s-12.4,3.1-18.4,1.3   c-5.9-1.8-9.7-2.7-12.6,0C541.5,142,540,142.1,538.9,141.4z"/>
</g>
<g>
	<circle class="st10" cx="679.8" cy="330.1" r="33.5"/>
</g>
<g>
	<polygon class="st11" points="213.8,0.2 191.3,82.2 271.1,62.1  "/>
</g>
<path class="st10" d="M1825.8,1373.5h-557.1c-7.5,0-15,0.3-22.5,0.8v0c-62.5,1.7-166.4-0.7-204.2-10.5c-17.2-4.5-36.9-12.8-55.6-22  c-42.1-20.7-79.4-50-109.8-85.7l-100.5-117.8c0,0-7.5,9.5-11.2,14.3C712,1222,670.3,1300.4,642.6,1385c-3.7,11.2-7.1,22.5-10.3,34  c21.5,27.5,222.1,289,301.3,368.5l-16,115.9c-3.8,20.3-7.8,45.1-11.4,82.5l0,0l-30,217.8h1272V1696  C2148.2,1518.6,2003.1,1373.5,1825.8,1373.5z"/>
<polygon class="st10" points="2371,1706.4 2060.8,1772 1906.5,1383.8 2383.2,1438 "/>
<g>
	<path class="st0" d="M1748.3,703.3c-131.7-66.5-263.5-66.5-395.2,0c-77.5,223.4-100.7,446.8-69.7,670.2   c178.2,89.9,356.4,89.9,534.7,0C1849.1,1150.1,1825.8,926.7,1748.3,703.3z"/>
</g>
<path d="M1416.7,992.5L1416.7,992.5c-6.3,0-11.5-5.2-11.5-11.5v-46c0-6.3,5.2-11.5,11.5-11.5l0,0c6.3,0,11.5,5.2,11.5,11.5v46  C1428.2,987.4,1423,992.5,1416.7,992.5z"/>
<path d="M1609.7,992.5L1609.7,992.5c-6.3,0-11.5-5.2-11.5-11.5v-46c0-6.3,5.2-11.5,11.5-11.5l0,0c6.3,0,11.5,5.2,11.5,11.5v46  C1621.2,987.4,1616,992.5,1609.7,992.5z"/>
<path class="st12" d="M1571.2,1081c0,21.8-21.5,39.5-48,39.5s-48-17.7-48-39.5"/>
<path class="st13" d="M1302.2,976.5c0,0,32.9-155.5,99.1-194.8s-99.1-29.4-99.1-29.4s-29.9,164.4-23.4,212.5  C1285.3,1013,1302.2,976.5,1302.2,976.5z"/>
<path class="st0" d="M1783.5,1058.3c23,23,60.4,23,83.4,0c23-23,23-60.4,0-83.4c-23-23-60.4-23-83.4,0"/>
<path class="st0" d="M1310.9,974.8c-23-23-60.4-23-83.4,0c-23,23-23,60.4,0,83.4c23,23,60.4,23,83.4,0"/>
<path class="st14" d="M1635.3,711.6c0,0-139.2,110.1-296.7,56.7c-157.4-53.3-226.4-272-122.3-394.3  c59.9,79.4,104.1,132.7,236.8,97.6s143.1,36.4,160,66.4c16.9,29.9,27.3,66.4,98.9,50.7s131.4-23.4,113.2,29.9  c-18.2,53.3-23.4,95.1-13,141.9c10.4,46.8,27.9,163.1,12.9,196.9c-35.4,4.6-22.9,88-40,88s7-204-60-233  C1658.5,783.7,1657.5,817.6,1635.3,711.6z"/>
<path class="st12" d="M1545.2,1356.5c0,16.8-12.5,30.5-28,30.5s-28-13.7-28-30.5"/>
<path class="st12" d="M1601.2,1356.5c0,16.8-12.5,30.5-28,30.5s-28-13.7-28-30.5"/>
<path class="st12" d="M1660.9,1194.7c-13.6,43.5-56.5,87.1-126.2,87.1c-69.7,0-118-57.8-126.2-87.1"/>
</svg>