<?xml version="1.0" encoding="UTF-8"?>
<!-- Generator: Adobe Illustrator 23.0.2, SVG Export Plug-In . SVG Version: 6.00 Build 0)  -->
<svg version="1.1" id="Layer_1" xmlns="http://www.w3.org/2000/svg" xmlns:xlink="http://www.w3.org/1999/xlink" x="0px" y="0px" viewBox="0 0 91 16" style="enable-background:new 0 0 91 16;" xml:space="preserve">
<style type="text/css">
	.st0{fill:#E30613;}
	.st1{fill:#24246B;}
</style>
<g>
	<path class="st0" d="M32.72,3.62H23.6c-0.1,0-0.18,0.06-0.22,0.15l-0.91,2.35c-0.06,0.15,0.05,0.32,0.22,0.32h0.73   c0.16,0,0.28,0.16,0.22,0.32l-1.18,3.06l-1.09,2.81l-1.18,3.06C20.13,15.84,20.24,16,20.4,16h3.44c0.1,0,0.18-0.06,0.22-0.15   l1.19-3.08c0.03-0.09,0.12-0.15,0.22-0.15h3.74c1.94,0,3.68-1.21,4.37-3.03l1.15-3.08C35.26,5.12,34.22,3.62,32.72,3.62z    M30.4,7.55l-0.35,0.92c-0.3,0.8-1.07,1.34-1.93,1.34h-1.4c-0.16,0-0.28-0.16-0.22-0.32l1.13-2.91c0.03-0.09,0.12-0.15,0.22-0.15   h1.77C30.21,6.43,30.61,7.01,30.4,7.55z"/>
	<path class="st1" d="M51.29,3.62h-9.12c-0.1,0-0.18,0.06-0.22,0.15l-0.91,2.35c-0.06,0.15,0.05,0.32,0.22,0.32h0.73   c0.16,0,0.28,0.16,0.22,0.32l-1.18,3.06l-1.09,2.81l-1.18,3.06C38.7,15.84,38.81,16,38.97,16h3.44c0.1,0,0.18-0.06,0.22-0.15   l1.19-3.08c0.03-0.09,0.12-0.15,0.22-0.15h3.74c1.94,0,3.68-1.21,4.37-3.03l1.15-3.08C53.83,5.12,52.79,3.62,51.29,3.62z    M48.97,7.55l-0.35,0.92c-0.3,0.8-1.07,1.34-1.93,1.34h-1.4c-0.16,0-0.28-0.16-0.22-0.32l1.13-2.91c0.03-0.09,0.12-0.15,0.22-0.15   h1.77C48.78,6.43,49.18,7.01,48.97,7.55z"/>
	<path class="st0" d="M39.04,3.06l0.45,0c0.06,0,0.12,0,0.17-0.01C41.57,2.89,42.23,0,40.31,0l-0.45,0c-0.06,0-0.12,0-0.17,0.01   C37.78,0.17,37.12,3.06,39.04,3.06z"/>
	<path class="st0" d="M10.94,3.93c0.06-0.15-0.06-0.31-0.22-0.31H7.4H3.62c-0.1,0-0.18,0.06-0.22,0.15l-3.2,8.54   c-0.06,0.15,0.06,0.31,0.22,0.31h3.44c0.1,0,0.18-0.06,0.22-0.15l1.96-5.23c0.18-0.48,0.65-0.81,1.16-0.81h2.64   c0.1,0,0.18-0.06,0.22-0.15L10.94,3.93z"/>
	<path class="st0" d="M21.35,9.81h-0.74c-0.16,0-0.27-0.16-0.22-0.31l2.09-5.56c0.06-0.15-0.06-0.31-0.22-0.31h-7.33   c-1.99,0-3.78,1.24-4.47,3.1L9.23,9.99c-0.48,1.27,0.46,2.63,1.82,2.63h9.41c0.1,0,0.18-0.06,0.22-0.15l0.88-2.35   C21.62,9.97,21.51,9.81,21.35,9.81z M16.39,9.66c-0.03,0.09-0.12,0.15-0.22,0.15h-2.06c-0.42,0-0.71-0.42-0.56-0.81l0.59-1.59   c0.22-0.59,0.78-0.97,1.4-0.97h1.72c0.16,0,0.27,0.16,0.22,0.31L16.39,9.66z"/>
	<path class="st1" d="M64.95,9.81h-1.02c-0.16,0-0.27-0.16-0.22-0.31l2.09-5.56c0.06-0.15-0.06-0.31-0.22-0.31h-7.05   c-1.99,0-3.78,1.24-4.47,3.1l-1.23,3.27c-0.48,1.27,0.46,2.63,1.82,2.63h9.41c0.1,0,0.18-0.06,0.22-0.15l0.88-2.35   C65.23,9.97,65.12,9.81,64.95,9.81z M60,9.66c-0.03,0.09-0.12,0.15-0.22,0.15h-2.06c-0.42,0-0.71-0.42-0.56-0.81l0.59-1.59   c0.22-0.59,0.78-0.97,1.4-0.97h1.72c0.16,0,0.27,0.16,0.22,0.31L60,9.66z"/>
	<path class="st0" d="M39.63,9.81H38.9c-0.16,0-0.27-0.16-0.22-0.31l2.09-5.56c0.06-0.15-0.06-0.31-0.22-0.31H37.1   c-0.1,0-0.18,0.06-0.22,0.15l-2.3,6.12c-0.5,1.32,0.48,2.73,1.89,2.73h2.27c0.1,0,0.18-0.06,0.22-0.15l0.88-2.35   C39.91,9.97,39.8,9.81,39.63,9.81z"/>
	<path class="st1" d="M90.36,6.45l-0.52-0.56l-1.1-1.18c-1.51-1.63-3.96-1.96-5.84-0.79L77.9,7.03c-1,0.62-1.19,2-0.39,2.87   l0.3,0.33l1.12,1.19c1.45,1.53,3.75,1.87,5.58,0.81l5.46-3.16C90.9,8.52,91.1,7.25,90.36,6.45z M85.59,8.54l-1.81,1.13   c-0.42,0.26-0.98,0.19-1.31-0.18l-0.58-0.63c-0.36-0.39-0.27-1,0.17-1.28l1.6-0.99c0.55-0.34,1.26-0.24,1.69,0.23l0.41,0.44   C86.12,7.65,86.04,8.26,85.59,8.54z"/>
	<path class="st1" d="M76.83,6.19l-1.46-1.8c-0.09-0.11-0.06-0.27,0.06-0.35l0.92-0.55c0.13-0.08,0.15-0.26,0.04-0.36L74.77,1.5   c-0.07-0.07-0.19-0.09-0.28-0.04l-8.45,5.02c-0.33,0.2-0.62,0.47-0.8,0.81c-0.41,0.79-0.08,1.51,0.41,2.05l0.41,0.48l0.65,0.68   c0.1,0.11,1.81,1.66,1.81,1.91c0,0.4-0.2,0.49-0.35,0.51v-0.01h-2.39c-0.09,0-0.17,0.05-0.21,0.13l-1.17,2.35   c-0.08,0.15,0.04,0.34,0.21,0.34h3.56c0.4,0,1.5-0.54,2.27-0.95c0.75-0.4,1.43-0.93,1.96-1.61c0.29-0.37,0.52-0.78,0.52-1.14   c0-0.59-0.22-1.01-0.38-1.24c-0.08-0.11-0.05-0.27,0.07-0.34l3.92-2.27C77.25,7.76,77.39,6.79,76.83,6.19z M72.43,7.86l-1.54,0.96   c-0.38,0.24-0.89,0.17-1.19-0.16l-0.47-0.51c-0.33-0.35-0.25-0.92,0.16-1.17l1.36-0.85c0.49-0.31,1.13-0.22,1.53,0.21l0.32,0.35   C72.92,7.04,72.84,7.61,72.43,7.86z"/>
</g>
</svg>