<svg width="72" height="72" viewBox="0 0 72 72" fill="none" xmlns="http://www.w3.org/2000/svg">
<path d="M11.75 0.25H60.5C63.4837 0.25 66.3452 1.43526 68.455 3.54505C70.5647 5.65483 71.75 8.51631 71.75 11.5V60.25C71.75 63.2337 70.5647 66.0952 68.455 68.205C66.3452 70.3147 63.4837 71.5 60.5 71.5H11.75C8.76631 71.5 5.90483 70.3147 3.79505 68.205C1.68526 66.0952 0.5 63.2337 0.5 60.25V11.5C0.5 8.51631 1.68526 5.65483 3.79505 3.54505C5.90483 1.43526 8.76631 0.25 11.75 0.25ZM11.75 4C9.76088 4 7.85322 4.79018 6.4467 6.1967C5.04018 7.60322 4.25 9.51088 4.25 11.5V54.9475L20.3488 38.8488L29.7238 48.2238L48.4738 29.4738L68 49V11.5C68 9.51088 67.2098 7.60322 65.8033 6.1967C64.3968 4.79018 62.4891 4 60.5 4H11.75ZM29.7238 53.5263L20.3488 44.1512L4.25 60.25C4.25 62.2391 5.04018 64.1468 6.4467 65.5533C7.85322 66.9598 9.76088 67.75 11.75 67.75H60.5C62.4891 67.75 64.3968 66.9598 65.8033 65.5533C67.2098 64.1468 68 62.2391 68 60.25V54.3025L48.4738 34.7762L29.7238 53.5263ZM21.125 11.5C23.6114 11.5 25.996 12.4877 27.7541 14.2459C29.5123 16.004 30.5 18.3886 30.5 20.875C30.5 23.3614 29.5123 25.746 27.7541 27.5041C25.996 29.2623 23.6114 30.25 21.125 30.25C18.6386 30.25 16.254 29.2623 14.4959 27.5041C12.7377 25.746 11.75 23.3614 11.75 20.875C11.75 18.3886 12.7377 16.004 14.4959 14.2459C16.254 12.4877 18.6386 11.5 21.125 11.5ZM21.125 15.25C19.6332 15.25 18.2024 15.8426 17.1475 16.8975C16.0926 17.9524 15.5 19.3832 15.5 20.875C15.5 22.3668 16.0926 23.7976 17.1475 24.8525C18.2024 25.9074 19.6332 26.5 21.125 26.5C22.6168 26.5 24.0476 25.9074 25.1025 24.8525C26.1574 23.7976 26.75 22.3668 26.75 20.875C26.75 19.3832 26.1574 17.9524 25.1025 16.8975C24.0476 15.8426 22.6168 15.25 21.125 15.25Z" fill="black"/>
</svg>
