<?xml version="1.0" encoding="utf-8"?>
<!-- Generator: Adobe Illustrator 23.0.2, SVG Export Plug-In . SVG Version: 6.00 Build 0)  -->
<svg version="1.1" id="Layer_1" xmlns="http://www.w3.org/2000/svg" xmlns:xlink="http://www.w3.org/1999/xlink" x="0px" y="0px"
	 viewBox="0 0 864 1080" style="enable-background:new 0 0 864 1080;" xml:space="preserve">
<style type="text/css">
	.st0{fill:#FCFCFC;}
	.st1{fill:#FFE1C5;}
	.st2{fill:#F9BE8F;}
	.st3{fill:#FFBB43;}
	.st4{fill:#F7B981;}
	.st5{fill:#7D7DFF;}
	.st6{fill:#FCD5B6;}
	.st7{fill:#560099;}
	.st8{fill:#E5AB83;}
	.st9{fill:#000099;}
	.st10{fill:#E0504C;}
	.st11{fill:#898989;}
	.st12{fill:#A8A8A8;}
	.st13{fill:#EDE6DD;}
	.st14{fill:#B9B9EA;}
	.st15{fill:#9D9DCE;}
	.st16{fill:#8787AF;}
	.st17{fill:#5E5E5E;}
	.st18{fill:#BA3A3A;}
	.st19{fill:#4B1D77;}
	.st20{fill:#6161AD;}
	.st21{fill:#8282D1;}
</style>
<g>
	<rect y="0" class="st0" width="864" height="1080"/>
</g>
<rect y="844" transform="matrix(-1 -1.224647e-16 1.224647e-16 -1 864 1924)" class="st1" width="864" height="236"/>
<path class="st2" d="M356.7,478.7c-54.6-19-231,89.5-238.7,174.3c-6.5,72.3,38,161,80,195.8l0,0h191.9v0
	C484.8,724.4,508.5,531.4,356.7,478.7z"/>
<path class="st1" d="M464.4,250.6c83.2-30.4,176-23.6,219.9,88.4c42.2,107.7-10.5,204.4-27.7,267.2C633.9,689,652.4,778,706.2,844
	l0,0H413.8l0,0C269.1,644.7,233,335.1,464.4,250.6z"/>
<path class="st3" d="M638,790c46.3-84.8,31.6-233-65-233c-175,0-255,196.4-255,293c92,0,138.4-1,235-1C584,849,614,834,638,790z"/>
<path class="st4" d="M751,635.8c-48.8-146-57.7-230.8-151-190.9c-35.8,15.3-55,53.9-65.1,94.5c-15.5,62.6-8.6,127.8,18.4,187.4
	L608,844h132C740,844,783.2,732.2,751,635.8z"/>
<path class="st5" d="M725.3,760.4c3.3-17.9,12.2-41,35.8-57.7c0.1,0.1,0.2,0.2,0.3,0.3c7.2,6.8,20.7-4.8,37.7-4.4
	c23,0.6,41-19.3,25.6-30.6c-18.3-13.6-29.1,5.8-43.9,10.7c-14.2,4.6-25.1,15.3-20.9,22.5c-8.6,6.1-15.8,13.4-21.6,21.8
	c-7.3,10.7-12.3,23.2-14.9,37.1c-0.5,2.7-0.9,5.3-1.1,7.9c-2.3-34.3-5.1-76.9-4.8-81.9c0.2-3.2,0.8-6.3,1.4-9.1
	c0.5,0.4,1.3,0.6,2,0.5c5.5-0.9,16.2-3.5,24.1-11.2c8.8-8.5,15.6-29.1,18-37.3c0.4-1.2-1-2.2-2-1.5c-6.6,4.3-22.6,14.8-31.2,23.1
	c-6.3,6.1-9.4,14-11,19.8c-1,3.2-2.8,9.3-3.2,15.5c-0.4,5.7,2.9,55,5.3,90.4c-0.7-3.3-1.5-6.6-2.3-10.1c-2.9-11.5-6.4-21.2-10.4-29
	c-2.8-5.5-5.8-10.1-9-13.6c4.5-3.9-2.7-13.1-7.9-25.5c-4.5-10.8-14.2-27.5-23.2-13.7c-4.3,6.7-5.5,15.1,5.8,29.1
	c7.9,9.8,16.4,15,23.7,11.2c7.6,8.3,14.2,22.6,19.2,42.1c2.4,9.2,4,18,5,24.8c0.1,0.8,0.1,1.5,0.2,2.2c-14,0-30.1,0-53.7,0
	c0,30.9,25.1,56,56,56s56-25.1,56-56c-22.7,0-37.3,0-55.1,0c0.5-1.5,3.2-8.8,8.2-17c5.1-8.5,13.8-19.7,26-25.2
	c7.7-3.5,16-4.3,24.8-2.5c-1.1,0.8-1.9,2-2.1,3.4c-0.6,3.7-0.8,9,2,12.5c1.5,1.9,7,5.7,12.9,9.4c5.6,3.6,12.4-2.5,9.5-8.5
	c-2.8-6-5.6-11.4-7.1-13.2c-2.8-3.5-8-4.5-11.8-4.7c-0.1,0-0.2,0-0.3,0c-10.2-2.8-19.8-2.1-28.7,1.9c-12.6,5.7-21.6,17.3-26.8,26
	c-4.5,7.4-7.1,14.1-8.1,16.6c-0.2-2.6-0.4-5.3-0.6-8.2C723.4,777.3,723.8,769.1,725.3,760.4z"/>
<g>
	<path class="st6" d="M566.2,552.7c-0.6,2.6-1,5.4-1.4,8.2c-2.1,15.7-0.6,35.1-1.7,52.8c-2.1,32.8-2.1,51.4-2.1,51.4
		c-0.5,1.9,0.4,10.7-1.2,15.2c-2.3,6.2-4.5,12-2.2,17.8l1.1,1.8l1.7,7.9c0.2,1.1,1.3,1.8,2.4,1.5c0.4-0.1,0.8-0.3,1.1-0.7l0.4,0.6
		c1.8,1.8,3.7,0.7,3-1.8l-3.8-11.1c-0.6-1.3-0.1-2.9,1.2-3.6l0.1,0c0.1,0,0.1-0.1,0.2-0.1c1.5-0.6,3,0.6,3,2.2l-0.2,6.8
		c1.4,1.5,3.9,0.2,3.4-1.9l1.2-5.9c0.7-3.3,0.6-6.8-0.4-10.1c-1-3.6-0.9-6.8-0.8-7.3c0,0,5.4-27.5,9.6-60.9
		c2.2-17.7,1.6-36.9,3.6-52.1c0,0,0,0,0,0C577.2,561.7,571,557.9,566.2,552.7z"/>
	<path class="st6" d="M634,410.1c-5.1,0.1-10.1,0.5-15.1,1.3c-14.6,2.1-24.6,15.8-22.1,30.3c3.7,21.6,8.9,43.1,15.7,64.4
		c7.4,1.3,15.5,9.7,22.8,9.1c7.3-0.6,13.8-10.2,20.9-12.7c3.2-22.2,4.8-44.2,4.8-66.2C660.9,421.6,648.7,409.7,634,410.1z"/>
	<path class="st7" d="M598.2,462.5l7,3.2c1.7,0.8,3.6-0.4,3.6-2.2c0.2-6,0.2-17.7-2.6-24.6c-3.9-9.6-3.1-14.6-3.7-18.7
		c-0.6-4.1-9.4,3.4-8.8,13.5C594.5,443.8,596.4,461.6,598.2,462.5z"/>
	<path class="st7" d="M664.1,457l-7.2,4.9c-1.1,0.8-2.7,0.2-3-1.2c-1.2-5.5-3.4-17.9-1.7-25.6c2.2-10.1,1.5-12.7,1.4-16.8
		s9-0.4,10,9.6S665.8,455.8,664.1,457z"/>
	<path class="st6" d="M597,471c0.5,6.5,0.5,12.3,5.9,11.4c2.7-0.4,4.5-5.7,3.9-12.3c-0.5-6.5-3.2-11.7-5.9-11.4
		C598.2,459,596.4,464.5,597,471z"/>
	<path class="st6" d="M665.7,465.3c0.5,6.5,1.5,12.2-3.9,12.3c-2.7,0-5.4-4.9-5.9-11.4c-0.5-6.5,1.2-12,3.9-12.3
		C662.5,453.6,665.1,458.7,665.7,465.3z"/>
	<g>
		<path class="st7" d="M627.5,414.5c-0.3,0-0.6-0.2-0.7-0.6c-0.7-2.8,1.9-5.8,6.1-6.9c4.1-1.1,8,0.2,8.7,3c0.1,0.4-0.1,0.8-0.5,0.9
			c-0.4,0.1-0.8-0.1-0.9-0.5c-0.5-1.9-3.7-2.8-6.9-1.9c-3.2,0.9-5.5,3.2-5,5.1c0.1,0.4-0.1,0.8-0.5,0.9
			C627.7,414.5,627.6,414.5,627.5,414.5z"/>
	</g>
	<g>
		<path class="st7" d="M629.3,416.5c-0.3,0-0.6-0.2-0.7-0.6c-0.7-2.8,1.9-5.8,6.1-6.9c4.1-1.1,8,0.2,8.7,3c0.1,0.4-0.1,0.8-0.5,0.9
			c-0.4,0.1-0.8-0.1-0.9-0.5c-0.5-1.9-3.7-2.8-6.9-1.9c-3.2,0.9-5.5,3.2-5,5.1c0.1,0.4-0.1,0.8-0.5,0.9
			C629.4,416.4,629.4,416.5,629.3,416.5z"/>
	</g>
	<g>
		<path d="M623.2,449.1L623.2,449.1c0.6,0.5,0.6,1.3,0.2,1.9l-1.9,2.2c-0.5,0.6-1.3,0.6-1.9,0.2l0,0c-0.6-0.5-0.6-1.3-0.2-1.9
			l1.9-2.2C621.7,448.7,622.6,448.7,623.2,449.1z"/>
	</g>
	<g>
		<path d="M637.5,447.9L637.5,447.9c0.5-0.6,1.3-0.6,1.9-0.2l2.2,1.9c0.6,0.5,0.6,1.3,0.2,1.9l0,0c-0.5,0.6-1.3,0.6-1.9,0.2
			l-2.2-1.9C637.1,449.4,637.1,448.5,637.5,447.9z"/>
	</g>
	<g>
		<path class="st8" d="M633.1,484.6c-3.5,1.1-6.2,0.9-8.2-0.6c-0.2-0.2-0.3-0.5-0.1-0.7c0.2-0.2,0.5-0.3,0.7-0.1
			c1.8,1.2,4.1,1.4,7.3,0.4c3.6-1.1,5.6-2.5,6.8-4.8c0.1-0.3,0.5-0.4,0.7-0.2c0.3,0.1,0.4,0.5,0.2,0.7
			C639.2,481.7,636.9,483.4,633.1,484.6z"/>
	</g>
	<g>
		<path class="st8" d="M629.5,471c-0.3,0-0.7-0.1-1-0.3c-1.2-0.8-2-2.4-2.3-4.6c-0.5-4.3,1-10.2,3.1-12.4c0.3-0.3,0.8-0.3,1.1,0
			c0.3,0.3,0.3,0.8,0,1.1c-1.8,1.9-3.1,7.4-2.7,11.2c0.2,1.8,0.8,3,1.6,3.6c0.3,0.2,0.8-0.1,1.5-0.5c1.1-0.7,2.9-1.6,4.6,0
			c0.3,0.3,0.3,0.8,0,1.1c-0.3,0.3-0.8,0.3-1.1,0c-0.8-0.8-1.5-0.5-2.8,0.2C630.9,470.5,630.2,471,629.5,471z"/>
	</g>
	<path class="st9" d="M580.5,676.5c0,0-3.4,128.2-3.4,135.9l1.5,73.8l24.9,2.5l8.9-88.3l15-83.9c0.8-4.5,4.7-7.9,9.3-7.9h0
		l15.1,183.1l24.9-4.8l3.2-87.8l9.5-122.6H580.5z"/>
	<path class="st10" d="M683.1,563.1c7.1,43,10.1,98.1,11.7,113.4c-35.1,8.9-87.2,9.5-120.3,0c1.8-18,10.7-117.8,9.1-113
		c-7-1.7-16-3.9-20.7-9.1c1.7-8.2,3.5-16.8,7-22.8c4-6.8,8.4-11.6,14.4-15.4c6.7-4.2,12.5-6.3,16.5-6.7c0,0,0,0,0,0
		c0.9-0.5,1.9-0.8,2.9-1c8.5-1.3,20.1,0.3,27,4.6c1.8,1.1,4.1,1.2,6.1,0.2c6.6-3.5,16.5-4.8,24.2-4.8c1.6,0,3.2,0.6,4.7,1.8
		c0,0,0,0,0,0c1.8,0.2,9,1.2,16.7,4.9c0.7,0.3,1.4,0.7,2.1,1.1c6.7,4,12,10.3,14.7,17.7c3,8.2,4.8,19.3,5.4,22.6
		c0.1,0.4-0.1,0.8-0.4,1c-5.1,3.4-12.4,6.3-18.9,6.9c-0.4,0-0.8-0.2-1-0.5c-0.1-0.3-0.3-0.5-0.5-0.7
		C683.1,563.1,683.1,563.1,683.1,563.1z"/>
	<path class="st6" d="M703.7,558c-0.2-0.9-12,5.8-18.6,6.7c1.4,8.1,4.8,23.1,4.9,24.8c-12.1-5.1-60.9-18.5-60.9-18.5l-3.7,9.1
		c0,0,44.1,23,61.8,30.9c3.5,1.6,6.1,2.8,8.6,2.8c3.3,0,5.7-1.3,6.9-2.1c5.8-3.8,6.5-10.9,6.8-13.3C709.8,594.9,705.3,568,703.7,558
		z M697.8,594.6C697.8,594.6,697.8,594.6,697.8,594.6C697.8,594.6,697.8,594.6,697.8,594.6z"/>
	<path class="st9" d="M643.1,503.4c4.4-0.8,8.7-1.5,13.1-2.3c1.8-0.3,5.1,0.8,6.7,2.6c1.2,1.3,2.1,2.6,2.9,4c1.1,1.9-0.7,4-3.5,4.8
		c-6.5,1.7-13.1,3.5-19.6,5.2c-2.9,0.8-4.1-0.9-3.4-3.7c0.5-1.9,0.7-3.8,0.8-5.6C640.2,505.8,641.3,503.7,643.1,503.4z"/>
	<path class="st9" d="M625.5,503.1c-4.4-0.6-8.8-1.3-13.1-1.9c-1.8-0.3-5,0.9-6.6,2.8c-1.1,1.3-2.1,2.7-2.8,4
		c-1.1,1.9,0.8,4,3.7,4.7c6.6,1.6,13.2,3.1,19.8,4.7c2.9,0.7,4.1-1,3.2-3.8c-0.5-1.9-0.9-3.8-1-5.6
		C628.5,505.5,627.3,503.4,625.5,503.1z"/>
	<circle class="st9" cx="634.4" cy="521" r="1.7"/>
	<circle class="st9" cx="634.4" cy="530" r="1.7"/>
	<g>
		<path class="st6" d="M637.4,572.5L637.4,572.5c0.9-1,0.8-2.7-0.2-3.6l-8.9-8c-1-0.9-2.7-0.8-3.6,0.2l0,0c-0.9,1-0.8,2.7,0.2,3.6
			l8.9,8C634.9,573.7,636.5,573.6,637.4,572.5z"/>
	</g>
	<g>
		<path class="st11" d="M631.6,585.7l-0.9,1l-4.8-35.9c-0.1-0.4-0.4-0.6-0.8-0.6l-18.1,2.5l0.8-0.7c0.2-0.2,0.5-0.4,0.8-0.4
			l17.4-2.3c0.4-0.1,0.7,0.2,0.8,0.6L631.6,585.7z"/>
		<path class="st12" d="M627.7,587l-13.1,1.7c-1.6,0.2-3.1-0.9-3.4-2.6l-4.1-30.6c-0.2-1.6,0.9-3.1,2.6-3.4l13.1-1.7
			c1.6-0.2,3.1,0.9,3.4,2.6l4.1,30.6C630.5,585.3,629.4,586.8,627.7,587z"/>
		<polygon class="st13" points="617.6,564.3 616.8,563.7 617.7,562.6 619.5,564 618.1,565.9 617,565.1 		"/>
		<circle class="st11" cx="610.3" cy="555.6" r="1.4"/>
		<circle class="st11" cx="613.2" cy="555.1" r="0.4"/>
	</g>
	<g>
		<path class="st6" d="M631.9,583.9L631.9,583.9c0.3-1.4-0.6-2.7-2-3l-18.3-3.9c-1.4-0.3-2.7,0.6-3,2l0,0c-0.3,1.4,0.6,2.7,2,3
			l18.3,3.9C630.3,586.2,631.6,585.3,631.9,583.9z"/>
	</g>
	<g>
		<path class="st6" d="M630.4,577.6L630.4,577.6c0.3-1.4-0.6-2.7-2-3l-18.3-3.9c-1.4-0.3-2.7,0.6-3,2l0,0c-0.3,1.4,0.6,2.7,2,3
			l18.3,3.9C628.7,579.9,630.1,579,630.4,577.6z"/>
	</g>
	<g>
		<path class="st6" d="M633.4,572.4L633.4,572.4c0.3-1.4-0.6-2.7-2-3l-18.3-3.9c-1.4-0.3-2.7,0.6-3,2l0,0c-0.3,1.4,0.6,2.7,2,3
			l18.3,3.9C631.8,574.7,633.1,573.8,633.4,572.4z"/>
	</g>
	<g>
		<path class="st6" d="M638.5,581.8l1.4-6.4c0.7-3.2-1.4-6.4-4.6-7.1l-6.4-1.4c-1.4,6.3-6.4,1.4-7.1,4.6l-1.4,6.4
			c-0.7,3.2,1.4,6.4,4.6,7.1l6.4,1.4C634.6,587.1,637.8,585,638.5,581.8z"/>
	</g>
	<path class="st9" d="M603.8,885.6h-22.3l0,0c-8.3,1.3-16.4,4.1-23.9,8.4l-2.9,1.6c-2.6,1.9-1.4,6.4,1.8,6.4l16,1.2
		c5.6,0.4,11.2,0.3,16.8-0.2l9.7-1c2.6,0,4.7-2.3,4.7-5.2V885.6z"/>
	<path class="st9" d="M676.7,886.9l-19.4,2.7l0,0c-8.5,1.3-9.3,8-16.9,12.2l-5,3.7c-2.1,1.5-1.8,3.8,0,5.3
		c0.8,0.7,13.4,2.5,13.4,2.5c4.3,0.3,8.2-1.3,12.2-2.4c4.2-1.1,12-8.4,12.7-8.9c2.3-1.9,3-3.7,3-6.3V886.9z"/>
	<path class="st6" d="M636.1,570"/>
</g>
<g>
	<path class="st5" d="M646.3,564.3c-0.4,0-0.9-0.3-1.1-0.7c-0.2-0.6,0-1.3,0.6-1.5c3.4-1.4,6.9-3,10.4-4.7c0.6-0.3,1.3,0,1.5,0.5
		c0.3,0.6,0,1.3-0.5,1.5c-3.5,1.7-7.1,3.3-10.5,4.8C646.6,564.3,646.4,564.3,646.3,564.3z M667,554.3c-0.4,0-0.8-0.2-1-0.6
		c-0.3-0.6-0.1-1.3,0.5-1.6c3.4-1.8,6.7-3.8,9.9-5.7c0.5-0.3,1.3-0.2,1.6,0.4c0.3,0.5,0.2,1.3-0.4,1.6c-3.2,2-6.6,3.9-10,5.8
		C667.4,554.3,667.2,554.3,667,554.3z M686.7,542.4c-0.4,0-0.7-0.2-0.9-0.5c-0.4-0.5-0.2-1.2,0.3-1.6c3.2-2.2,6.3-4.5,9.2-6.8
		c0.5-0.4,1.2-0.3,1.6,0.2c0.4,0.5,0.3,1.2-0.2,1.6c-2.9,2.3-6.1,4.6-9.3,6.9C687.1,542.3,686.9,542.4,686.7,542.4z M704.7,528
		c-0.3,0-0.6-0.1-0.8-0.4c-0.4-0.5-0.4-1.2,0.1-1.6c2.9-2.7,5.5-5.4,7.9-8.2c0.4-0.5,1.1-0.5,1.6-0.1c0.5,0.4,0.5,1.1,0.1,1.6
		c-2.4,2.8-5.2,5.6-8.1,8.3C705.2,527.9,705,528,704.7,528z M719.7,510.7c-0.2,0-0.4-0.1-0.6-0.2c-0.5-0.4-0.7-1.1-0.3-1.6
		c1.5-2.2,2.8-4.5,4-6.7c0.5-1,1.1-2.1,1.6-3.1c0.3-0.6,1-0.8,1.5-0.5c0.6,0.3,0.8,1,0.5,1.5c-0.5,1.1-1.1,2.1-1.6,3.2
		c-1.2,2.3-2.6,4.7-4.1,7C720.4,510.5,720,510.7,719.7,510.7z M729.9,490.1c-0.1,0-0.3,0-0.4-0.1c-0.6-0.2-0.9-0.9-0.7-1.5
		c1.4-3.6,2.6-7.2,3.7-10.8c0.2-0.6,0.8-1,1.4-0.8c0.6,0.2,1,0.8,0.8,1.4c-1.1,3.7-2.3,7.4-3.7,11
		C730.8,489.8,730.3,490.1,729.9,490.1z M736.3,468.1c-0.1,0-0.1,0-0.2,0c-0.6-0.1-1-0.7-0.9-1.3c0.7-3.7,1.3-7.5,1.7-11.3
		c0.1-0.6,0.6-1.1,1.3-1c0.6,0.1,1.1,0.6,1,1.3c-0.4,3.8-1,7.7-1.7,11.5C737.3,467.7,736.8,468.1,736.3,468.1z M738.5,445.2
		c-0.6,0-1.1-0.5-1.1-1.1c0-3.8-0.2-7.6-0.6-11.3c-0.1-0.6,0.4-1.2,1-1.3c0.6-0.1,1.2,0.4,1.3,1c0.4,3.8,0.6,7.7,0.6,11.6
		C739.7,444.7,739.2,445.2,738.5,445.2C738.5,445.2,738.5,445.2,738.5,445.2z M736,422.4c-0.5,0-1-0.4-1.1-0.9
		c-0.9-3.7-1.9-7.4-3.2-10.9c-0.2-0.6,0.1-1.3,0.7-1.5c0.6-0.2,1.3,0.1,1.5,0.7c1.3,3.6,2.4,7.3,3.3,11.1c0.1,0.6-0.2,1.2-0.9,1.4
		C736.2,422.4,736.1,422.4,736,422.4z M728,400.9c-0.4,0-0.8-0.2-1-0.6c-1.8-3.3-3.8-6.6-6-9.6c-0.4-0.5-0.3-1.2,0.3-1.6
		c0.5-0.4,1.2-0.3,1.6,0.3c2.3,3.1,4.3,6.5,6.1,9.9c0.3,0.6,0.1,1.3-0.5,1.6C728.4,400.9,728.2,400.9,728,400.9z M714.6,382.3
		c-0.3,0-0.6-0.1-0.8-0.4c-2.6-2.7-5.4-5.3-8.4-7.6c-0.5-0.4-0.6-1.1-0.2-1.6c0.4-0.5,1.1-0.6,1.6-0.2c3,2.4,5.9,5.1,8.6,7.9
		c0.4,0.5,0.4,1.2,0,1.6C715.2,382.2,714.9,382.3,714.6,382.3z M696.7,368c-0.2,0-0.4-0.1-0.6-0.2c-3.2-1.9-6.5-3.7-10-5.3
		c-0.6-0.3-0.8-1-0.6-1.5c0.3-0.6,0.9-0.8,1.5-0.6c3.6,1.6,7,3.5,10.3,5.5c0.5,0.3,0.7,1,0.4,1.6C697.5,367.8,697.1,368,696.7,368z"
		/>
</g>
<g>
	<g>
		<path class="st5" d="M530.2,585.9C530.2,585.9,530.2,585.9,530.2,585.9c-3.9,0-7.8-0.1-11.6-0.3c-0.6,0-1.1-0.6-1.1-1.2
			c0-0.6,0.6-1.1,1.2-1.1c3.8,0.2,7.6,0.2,11.5,0.3c0.6,0,1.1,0.5,1.1,1.2C531.4,585.4,530.8,585.9,530.2,585.9z M541.7,585.8
			c-0.6,0-1.1-0.5-1.1-1.1c0-0.6,0.5-1.2,1.1-1.2c3.8-0.1,7.6-0.2,11.5-0.4c0.6,0,1.2,0.5,1.2,1.1c0,0.6-0.5,1.2-1.1,1.2
			C549.4,585.5,545.5,585.7,541.7,585.8C541.7,585.8,541.7,585.8,541.7,585.8z M507.2,584.9C507.2,584.9,507.2,584.9,507.2,584.9
			c-4-0.3-7.8-0.7-11.6-1.1c-0.6-0.1-1.1-0.6-1-1.3c0.1-0.6,0.6-1.1,1.3-1c3.7,0.4,7.6,0.8,11.4,1.1c0.6,0,1.1,0.6,1.1,1.2
			C508.3,584.5,507.8,584.9,507.2,584.9z M564.7,584.6c-0.6,0-1.1-0.5-1.1-1.1c-0.1-0.6,0.4-1.2,1.1-1.2c3.8-0.3,7.6-0.7,11.4-1.1
			c0.6-0.1,1.2,0.4,1.3,1c0.1,0.6-0.4,1.2-1,1.3C572.4,583.9,568.6,584.2,564.7,584.6C564.8,584.6,564.7,584.6,564.7,584.6z
			 M587.6,582.1c-0.6,0-1.1-0.4-1.1-1c-0.1-0.6,0.4-1.2,1-1.3c3.8-0.5,7.6-1.1,11.3-1.7c0.6-0.1,1.2,0.3,1.3,0.9
			c0.1,0.6-0.3,1.2-0.9,1.3c-3.8,0.6-7.6,1.2-11.4,1.7C587.7,582.1,587.6,582.1,587.6,582.1z M419.3,560.4c-0.2,0-0.4,0-0.6-0.2
			c-3.4-1.9-6.7-4-9.8-6.1c-0.5-0.4-0.7-1.1-0.3-1.6c0.4-0.5,1.1-0.7,1.6-0.3c3.1,2.1,6.3,4.1,9.7,6c0.6,0.3,0.7,1,0.4,1.6
			C420.1,560.2,419.7,560.4,419.3,560.4z M400.4,547.5c-0.3,0-0.5-0.1-0.7-0.3c-3-2.4-5.9-5-8.7-7.7c-0.5-0.4-0.5-1.2,0-1.6
			c0.4-0.5,1.2-0.5,1.6,0c2.7,2.6,5.6,5.2,8.5,7.6c0.5,0.4,0.6,1.1,0.2,1.6C401,547.4,400.7,547.5,400.4,547.5z M383.9,531.5
			c-0.3,0-0.6-0.1-0.9-0.4c-2.5-2.9-4.9-6-7.1-9.1c-0.4-0.5-0.2-1.2,0.3-1.6c0.5-0.4,1.2-0.2,1.6,0.3c2.2,3.1,4.6,6.1,7,8.9
			c0.4,0.5,0.4,1.2-0.1,1.6C384.4,531.4,384.2,531.5,383.9,531.5z M370.6,512.9c-0.4,0-0.8-0.2-1-0.6c-1.9-3.3-3.8-6.7-5.4-10.2
			c-0.3-0.6,0-1.3,0.5-1.5c0.6-0.3,1.3,0,1.5,0.5c1.7,3.4,3.5,6.8,5.3,10c0.3,0.5,0.1,1.3-0.4,1.6
			C371,512.8,370.8,512.9,370.6,512.9z M360.6,492.2c-0.5,0-0.9-0.3-1.1-0.7c-1.4-3.5-2.6-7.2-3.8-10.9c-0.2-0.6,0.2-1.2,0.8-1.4
			c0.6-0.2,1.2,0.2,1.4,0.8c1.1,3.7,2.4,7.3,3.7,10.8c0.2,0.6-0.1,1.3-0.7,1.5C360.9,492.2,360.8,492.2,360.6,492.2z M353.9,470.3
			c-0.5,0-1-0.4-1.1-0.9c-0.9-3.7-1.6-7.5-2.3-11.3c-0.1-0.6,0.3-1.2,0.9-1.3c0.6-0.1,1.2,0.3,1.3,0.9c0.6,3.8,1.4,7.6,2.2,11.2
			c0.1,0.6-0.2,1.2-0.9,1.4C354.1,470.3,354,470.3,353.9,470.3z M350.1,447.6c-0.6,0-1.1-0.4-1.1-1c-0.4-3.7-0.8-7.6-1-11.5
			c0-0.6,0.4-1.2,1.1-1.2c0.6,0,1.2,0.4,1.2,1.1c0.2,3.8,0.6,7.7,1,11.4c0.1,0.6-0.4,1.2-1,1.3C350.2,447.6,350.2,447.6,350.1,447.6
			z M348.7,424.7c-0.6,0-1.1-0.5-1.1-1.1c0-1.4,0-2.9,0-4.4c0-2.4,0.1-4.8,0.2-7.2c0-0.6,0.6-1.1,1.2-1.1c0.6,0,1.1,0.6,1.1,1.2
			c-0.1,2.3-0.2,4.7-0.2,7.1c0,1.4,0,2.9,0,4.3C349.8,424.2,349.3,424.7,348.7,424.7C348.7,424.7,348.7,424.7,348.7,424.7z
			 M349.8,401.8c0,0-0.1,0-0.1,0c-0.6-0.1-1.1-0.7-1-1.3c0.5-3.9,1.1-7.7,1.9-11.4c0.1-0.6,0.7-1,1.4-0.9c0.6,0.1,1,0.7,0.9,1.4
			c-0.8,3.6-1.4,7.4-1.9,11.2C350.9,401.4,350.4,401.8,349.8,401.8z M354.7,379.4c-0.1,0-0.2,0-0.3-0.1c-0.6-0.2-0.9-0.8-0.7-1.4
			c1.2-3.7,2.5-7.3,4.1-10.9c0.3-0.6,0.9-0.9,1.5-0.6c0.6,0.3,0.9,0.9,0.6,1.5c-1.5,3.4-2.8,7-4,10.6
			C355.6,379.1,355.2,379.4,354.7,379.4z M363.8,358.4c-0.2,0-0.4,0-0.6-0.1c-0.6-0.3-0.8-1-0.4-1.6c1.9-3.4,4-6.7,6.2-9.8
			c0.4-0.5,1.1-0.6,1.6-0.3c0.5,0.4,0.6,1.1,0.3,1.6c-2.2,3.1-4.2,6.3-6.1,9.6C364.6,358.2,364.2,358.4,363.8,358.4z M377,339.6
			c-0.3,0-0.5-0.1-0.8-0.3c-0.5-0.4-0.5-1.1-0.1-1.6c2.5-2.9,5.2-5.7,8-8.4c0.5-0.4,1.2-0.4,1.6,0c0.4,0.5,0.4,1.2,0,1.6
			c-2.8,2.6-5.4,5.4-7.9,8.2C377.7,339.5,377.4,339.6,377,339.6z M393.7,323.9c-0.3,0-0.7-0.2-0.9-0.4c-0.4-0.5-0.3-1.2,0.2-1.6
			c3-2.3,6.2-4.6,9.4-6.8c0.5-0.3,1.2-0.2,1.6,0.3c0.3,0.5,0.2,1.2-0.3,1.6c-3.2,2.1-6.3,4.3-9.3,6.7
			C394.2,323.8,394,323.9,393.7,323.9z M412.9,311.2c-0.4,0-0.8-0.2-1-0.6c-0.3-0.6-0.1-1.3,0.5-1.6c3.3-1.8,6.8-3.6,10.4-5.2
			c0.6-0.3,1.3,0,1.5,0.6c0.3,0.6,0,1.3-0.6,1.5c-3.5,1.6-6.9,3.3-10.2,5.1C413.3,311.2,413.1,311.2,412.9,311.2z M433.9,301.7
			c-0.5,0-0.9-0.3-1.1-0.7c-0.2-0.6,0.1-1.3,0.7-1.5c3.6-1.4,7.3-2.6,11-3.7c0.6-0.2,1.2,0.2,1.4,0.8c0.2,0.6-0.2,1.2-0.8,1.4
			c-3.6,1.1-7.3,2.3-10.9,3.6C434.1,301.6,434,301.7,433.9,301.7z M456,295.2c-0.5,0-1-0.4-1.1-0.9c-0.1-0.6,0.3-1.2,0.9-1.4
			c1.1-0.2,1.6-0.3,1.7-0.3c0.6-0.1,1.2,0.3,1.3,1c0.1,0.6-0.3,1.2-1,1.3c0,0-0.6,0.1-1.6,0.3C456.1,295.2,456.1,295.2,456,295.2z"
			/>
	</g>
	<path class="st5" d="M505.5,275l-1.7-0.5l0.7-2.2c0.3-0.9-0.2-1.9-1.2-2.2l0,0c-0.9-0.3-1.9,0.2-2.2,1.2l-0.7,2.2l-10.9-3.4
		l0.7-2.2c0.3-0.9-0.2-1.9-1.2-2.2c-0.9-0.3-1.9,0.2-2.2,1.2l-0.7,2.2l-1.7-0.5c-3.7-1.2-7.6,0.9-8.8,4.6l-6.6,21.2
		c-1.2,3.7,0.9,7.6,4.6,8.8l21.2,6.6c3.7,1.2,7.6-0.9,8.8-4.6l6.6-21.2C511.2,280.1,509.1,276.2,505.5,275z M501.5,304.1
		c-0.9,2.8-3.8,4.3-6.6,3.4l-20.6-6.5c-2.8-0.9-4.3-3.8-3.4-6.6l4.7-15l30.6,9.6L501.5,304.1z"/>
</g>
<g>
	<path class="st5" d="M658.5,366.7c-6.6-0.1-12.1-4.8-13.2-11.3c-0.9-5.6,1.8-11.1,6.7-13.9l1.4,2.7l1.8-5.6l-5.6-1.8l1.4,2.7
		c-5.8,3.2-9,9.7-7.9,16.3c1.2,7.6,7.7,13.2,15.4,13.2c0,0,0,0,0,0c0.6,0,1.1-0.5,1.1-1.1C659.7,367.3,659.2,366.7,658.5,366.7z"/>
	<path class="st5" d="M674.2,350.7c-1.2-7.6-7.7-13.1-15.3-13.2c-0.6,0-1.2,0.5-1.2,1.1c0,0.6,0.5,1.2,1.1,1.2
		c6.5,0.1,12,4.9,13.1,11.3c0.9,5.7-1.8,11.3-6.8,14l-1.3-2.7l-1.9,5.6l5.6,1.9l-1.3-2.7C672.1,364,675.3,357.4,674.2,350.7z"/>
</g>
<polygon class="st14" points="139,482.2 194.2,482.2 180.3,364.9 91.7,364.9 77.8,482.2 133,482.2 133,844.3 90,844.3 90,849.8 
	182,849.8 182,844.3 139,844.3 "/>
<g>
	<path class="st14" d="M437.5,850H257.9c-24.1,0-43.7-19.5-43.7-43.7V617.4c0-24.1,19.5-43.7,43.7-43.7h179.6
		c24.1,0,43.7,19.5,43.7,43.7v188.9C481.1,830.5,461.6,850,437.5,850z"/>
	<path class="st15" d="M530.4,840.6h-91.2V715.4c0-25.2,20.4-45.6,45.6-45.6h0c25.2,0,45.6,20.4,45.6,45.6V840.6z"/>
	<path class="st15" d="M263.5,840.6h-91.2V715.4c0-25.2,20.4-45.6,45.6-45.6h0c25.2,0,45.6,20.4,45.6,45.6V840.6z"/>
	<path class="st16" d="M439.2,769.1c0,0-42.8,7.2-87.9,7.2c-43.7,0-87.9-7.2-87.9-7.2v-61.9c0,0,26.4-5.1,87.9-5.1
		s87.9,5.1,87.9,5.1V769.1z"/>
	<rect x="172.3" y="840.6" class="st17" width="91.2" height="9.3"/>
	<rect x="439.2" y="840.6" class="st17" width="91.2" height="9.3"/>
	<g>
		<g>
			<path class="st9" d="M342.4,602.1l-1.5,89l92.8,29.7c0,0,2.8-121.1-14.8-138.6c-5-5-11.3-8.4-18.2-9.9c-2.6-0.6-5.4-0.9-8.1-0.9
				h-15.4c-3.1,0-6.2,0.4-9.1,1.1c-7,1.8-13.2,5.5-18.3,10.7C341.9,591.2,342.4,589.3,342.4,602.1z"/>
		</g>
		<g>
			<path class="st10" d="M418.1,581.7c-4.8-4.5-10.8-7.7-17.4-9.3c3.5-7.4,8.7-20.2,12-40.8c0.4-2.5,3.5-2.4,5.9-2
				c1.5,0.3,2.6,1.7,2.6,3.2c-0.1,6.9,0.3,27.1,8.6,42C432.2,579.3,425.8,581.1,418.1,581.7z"/>
		</g>
		<g>
			<g>
				<path class="st6" d="M416.2,491.6c-21.5-12.2-43-12.2-64.5,0c-0.1,4.7,6.8,2.7,7,7.4c0.4,8-5.7,22.7-4.3,30.8
					c2.4,14.1,6.5,28.2,12.2,42.3c11.6,6.6,23.1,6.6,34.7,0C412.1,545.2,417.1,518.4,416.2,491.6z"/>
			</g>
		</g>
		<g>
			<path class="st18" d="M369.6,572.2c-6.5,1.4-12.5,4.4-17.3,8.6c-8.5-0.8-15.7-2.8-13.1-7.5c10.1-18.3,18.2-71.1,18.2-71.1
				s3-3.5,2.3,0.5C355.3,529.3,364.2,558.1,369.6,572.2z"/>
		</g>
		<g>
			<path d="M368.3,520.8L368.3,520.8c0.9,0,1.6,0.7,1.6,1.6v3.4c0,0.9-0.7,1.6-1.6,1.6l0,0c-0.9,0-1.6-0.7-1.6-1.6v-3.4
				C366.8,521.5,367.5,520.8,368.3,520.8z"/>
		</g>
		<g>
			<path d="M387.8,527.2L387.8,527.2c-0.9,0-1.6-0.7-1.6-1.6v-3.4c0-0.9,0.7-1.6,1.6-1.6l0,0c0.9,0,1.6,0.7,1.6,1.6v3.4
				C389.3,526.5,388.6,527.2,387.8,527.2z"/>
		</g>
		<g>
			<path class="st8" d="M377.3,540.5c-2.3,0-4.2-1.9-4.2-4.3c0-2.4,1.9-4.3,4.2-4.3c0.3,0,0.6,0.3,0.6,0.6s-0.3,0.6-0.6,0.6
				c-1.7,0-3,1.4-3,3.1c0,1.7,1.3,3.1,3,3.1c0.3,0,0.6,0.3,0.6,0.6S377.6,540.5,377.3,540.5z"/>
		</g>
		<g>
			<path class="st6" d="M411.8,536c2.2,2.2,5.6,2.2,7.8,0s2.2-5.6,0-7.8s-5.6-2.2-7.8,0"/>
		</g>
		<g>
			<path class="st6" d="M364.9,528.6c-2.2-2.2-5.6-2.2-7.8,0c-2.2,2.2-2.2,5.6,0,7.8c2.2,2.2,5.6,2.2,7.8,0V528.6z"/>
		</g>
		<g>
			<path class="st10" d="M408.8,500.9c-5.1-4.1-21.7-1.6-28,0.4c-7.1,2.3-19.3,3-26.1,0c-6.9-3-15.8-22.9,6.4-31.5
				c24.1-9.4,39.3,15.6,49.2,15.9c25.9,0.8,10,37.5,10.3,43.5c-0.7-1.1-3.4-3.4-5.8-1.6c-3.1,2.2-0.5,4.6-2.3,4.6
				c-2.3,0,4.2-20.8-4.9-24.7C402.9,505.5,410.3,502.1,408.8,500.9z"/>
		</g>
		<g>
			<path class="st8" d="M381.3,559.2c-0.4,0-0.8-0.3-0.8-0.8s0.3-0.8,0.8-0.8c5.9,0,10.1-1.4,12.7-4.1c2.6-2.7,2.4-5.9,2.4-5.9
				c0-0.4,0.3-0.8,0.7-0.8c0.4,0,0.8,0.3,0.8,0.7c0,0.2,0.2,3.8-2.8,7C392.2,557.7,387.6,559.2,381.3,559.2z"/>
		</g>
		<g>
			<path class="st19" d="M348.8,854.8c5.9-6.7,8-15.9,5.4-24.4c-0.3-0.9-0.6-1.7-0.9-2.4l-54.8-109.7c-3-6.1,77.6,41,99.5,34.2
				c21.5-6.7,25-20.9,8.5-36.2c-0.1-0.1-66.1-17.9-95.7-25.8c-8.9-2.4-18.4-0.7-25.9,4.7l-0.4,0.3c-6.7,4.7-10.5,12.5-10.1,20.7
				c0.1,1.8,0.3,3.9,0.7,6.1c1.8,10.5,5.5,20.6,10.9,29.7l48.9,83.3c0.4,0.8-13.2,31.7-7.2,37C330.3,874.7,341.2,863.3,348.8,854.8z
				"/>
		</g>
		<g>
			<path class="st7" d="M308.8,870.6c7.7-3.4,13.2-10.6,14.4-18.9c0.1-0.9,0.2-1.7,0.2-2.4l-3.6-116.5c-0.1-6.5,4.1-9.7,6-10.8
				c1.9-1.1,6.8-3.3,12.4-0.1c0,0,44.3,34.1,65.9,36.9c21.2,2.8,37.8-18.2,29.7-37.9c0,0,0,0,0,0c-0.2-0.4-12.9-7.3-12.9-7.3
				c-14.1-7.6-29.1-13.6-44.6-17.7c-12.6-3.4-39.2-11.5-45.1-11.3c-6.8,0.2-13.5,2.1-19.4,5.7c-5.9,3.5-10.8,8.5-14.2,14.4
				c-3.6,6.3-5.4,13.5-5.3,20.9c0,0,0,0,0,0l12.1,122.8c0,0.9-24,22-20.9,29C284.9,880.4,298.9,874.9,308.8,870.6z"/>
		</g>
		<path class="st6" d="M430.8,623.8c2.1,6.7,5.6,18.7,8.3,31.1c2.3,10.4,3,16.8,3.1,20.5c-31.1-14.8-54.3-7.9-55.4-7.6l4.8,15.4
			l-0.1,0c0.1,0,5.2-1.5,13.7-1.1c11.3,0.5,22.9,3.9,34.4,10.1c2.5,1.4,4.8,1.8,6.7,1.8c3.4,0,5.9-1.6,7-2.5
			c4.9-4.1,5.2-11.1,5-16.8c-0.2-5.2-1.1-11.8-2.8-19.8c-2.8-13.9-7.4-29.9-10.7-40.2c-0.7-2.1-1.5-4.2-2.4-6.3
			C440.2,614.2,436.1,619.4,430.8,623.8z M447.4,678.2C447.4,678.2,447.4,678.2,447.4,678.2C447.4,678.2,447.4,678.2,447.4,678.2z"
			/>
		<path class="st6" d="M308.7,626.1c5.3-7.2,15.4-18.5,21.6-25.3c0.7,5.9,3.1,11.4,7,16.3c-5.5,6.2-11.9,13.5-15.5,18.5L308.7,626.1
			z"/>
		<path class="st9" d="M415.5,597.5c-5.3-4.9-8.5-5.8-9.6-6l2.3-15.9c5.8,0.8,11.8,4.2,18.3,10.2c6.8,6.3,12.3,14.1,16,22.7
			c-2.3,5.7-6.3,11-11.6,15.4c-0.6-1.8-1-3.2-1.3-4.2C426.7,611.1,421.9,603.4,415.5,597.5z"/>
		<path class="st9" d="M335.5,595.2c1.4-1.7,9.7-10.9,24.7-19.9l8.2,13.8c-13.5,8-20.4,16.2-20.7,16.5l-0.1,0.2l-0.2,0.2
			c-0.1,0.1-4.7,5-10.1,11.1c-3.8-4.9-6.3-10.4-7-16.3C332.9,597.9,334.9,595.8,335.5,595.2z"/>
		<g>
			<path class="st12" d="M294.9,686h102.7c2.6,0,4.7-2.1,4.7-4.7v-62.6c0-2.6-2.1-4.7-4.7-4.7H294.9c-2.6,0-4.7,2.1-4.7,4.7v62.6
				C290.3,683.9,292.4,686,294.9,686z"/>
			<path class="st11" d="M294,693.4h104.6c2,0,3.7-1.7,3.7-3.7l0,0c0-2-1.7-3.7-3.7-3.7H294c-2,0-3.7,1.7-3.7,3.7l0,0
				C290.3,691.8,291.9,693.4,294,693.4z"/>
			<polygon class="st13" points="345,650.1 342.1,647.2 346.3,643 353.4,650.1 346.3,657.2 342.1,653 			"/>
		</g>
	</g>
</g>
<g>
	<g>
		<path class="st5" d="M275.2,619.4c-0.1,0-0.1,0-0.2,0c0,0-4.4-0.7-11.4-2.5c-0.6-0.2-1-0.8-0.8-1.4c0.2-0.6,0.8-1,1.4-0.8
			c6.9,1.7,11.2,2.4,11.2,2.4c0.6,0.1,1.1,0.7,0.9,1.3C276.2,619,275.7,619.4,275.2,619.4z M252.7,613.9c-0.1,0-0.2,0-0.3,0
			c-3.7-1.1-7.4-2.3-11-3.6c-0.6-0.2-0.9-0.9-0.7-1.5c0.2-0.6,0.9-0.9,1.5-0.7c3.6,1.3,7.2,2.5,10.9,3.6c0.6,0.2,1,0.8,0.8,1.4
			C253.7,613.6,253.2,613.9,252.7,613.9z M231,606.1c-0.1,0-0.3,0-0.4-0.1c-3.6-1.5-7.2-3.1-10.6-4.7c-0.6-0.3-0.8-1-0.5-1.5
			c0.3-0.6,1-0.8,1.5-0.5c3.4,1.6,6.9,3.2,10.4,4.7c0.6,0.2,0.9,0.9,0.6,1.5C231.9,605.9,231.5,606.1,231,606.1z M210.3,596.1
			c-0.2,0-0.4,0-0.6-0.2c-3.4-1.9-6.7-4-9.9-6.1c-0.5-0.4-0.7-1.1-0.3-1.6c0.4-0.5,1.1-0.7,1.6-0.3c3.1,2.1,6.3,4.1,9.7,6
			c0.6,0.3,0.7,1,0.4,1.6C211.1,595.9,210.7,596.1,210.3,596.1z M191.3,583.2c-0.3,0-0.5-0.1-0.7-0.3c-3.1-2.5-6-5.1-8.7-7.7
			c-0.5-0.4-0.5-1.2,0-1.6c0.4-0.5,1.2-0.5,1.6,0c2.6,2.6,5.5,5.1,8.5,7.6c0.5,0.4,0.6,1.1,0.2,1.6
			C192,583.1,191.6,583.2,191.3,583.2z M175,567c-0.3,0-0.7-0.1-0.9-0.4c-2.5-3.1-4.7-6.3-6.7-9.5c-0.3-0.5-0.2-1.3,0.4-1.6
			c0.5-0.3,1.3-0.2,1.6,0.4c1.9,3.2,4.1,6.3,6.5,9.3c0.4,0.5,0.3,1.2-0.2,1.6C175.5,567,175.3,567,175,567z M163.2,547.4
			c-0.4,0-0.9-0.3-1.1-0.7c-1.5-3.6-2.7-7.3-3.7-11c-0.2-0.6,0.2-1.2,0.8-1.4c0.6-0.2,1.2,0.2,1.4,0.8c0.9,3.6,2.1,7.2,3.6,10.7
			c0.2,0.6,0,1.3-0.6,1.5C163.5,547.4,163.4,547.4,163.2,547.4z M157.6,525.3c-0.6,0-1.1-0.4-1.1-1c-0.2-2.3-0.4-4.7-0.4-7.1
			c0-0.6,0-1.3,0-1.9c0-0.9,0-1.8,0-2.6c0-0.6,0.5-1.1,1.2-1.1c0.6,0,1.1,0.5,1.1,1.2c0,0.8,0,1.7,0,2.6c0,0.6,0,1.2,0,1.9
			c0,2.3,0.2,4.6,0.4,6.9c0.1,0.6-0.4,1.2-1,1.3C157.7,525.3,157.7,525.3,157.6,525.3z M158.3,502.4c-0.1,0-0.1,0-0.2,0
			c-0.6-0.1-1-0.7-0.9-1.3c0.7-3.9,1.6-7.7,2.9-11.3c0.2-0.6,0.9-0.9,1.5-0.7c0.6,0.2,0.9,0.9,0.7,1.5c-1.2,3.4-2.2,7.1-2.8,10.9
			C159.4,502,158.9,502.4,158.3,502.4z M165.9,480.9c-0.2,0-0.4,0-0.6-0.2c-0.6-0.3-0.7-1-0.4-1.6c1.9-3.3,4.2-6.5,6.7-9.5
			c0.4-0.5,1.1-0.6,1.6-0.1c0.5,0.4,0.5,1.1,0.1,1.6c-2.5,2.9-4.6,6-6.5,9.2C166.7,480.7,166.3,480.9,165.9,480.9z M180.5,463.4
			c-0.3,0-0.6-0.1-0.9-0.4c-0.4-0.5-0.4-1.2,0.1-1.6c2.7-2.4,5.8-4.8,9.2-7.2c0.5-0.4,1.2-0.2,1.6,0.3c0.4,0.5,0.2,1.2-0.3,1.6
			c-3.3,2.3-6.3,4.6-8.9,7C181.1,463.3,180.8,463.4,180.5,463.4z M199.3,450.1c-0.4,0-0.8-0.2-1-0.6c-0.3-0.5-0.1-1.3,0.4-1.6
			c3.1-1.8,6.4-3.6,10.1-5.5c0.6-0.3,1.3-0.1,1.5,0.5c0.3,0.6,0.1,1.3-0.5,1.5c-3.7,1.9-7,3.7-10,5.5
			C199.7,450.1,199.5,450.1,199.3,450.1z M219.7,439.5c-0.4,0-0.8-0.2-1-0.6c-0.3-0.6,0-1.3,0.5-1.5c1.8-0.9,3.5-1.7,5.3-2.5
			c1.7-0.8,3.4-1.6,5.1-2.5c0.6-0.3,1.3,0,1.5,0.5c0.3,0.6,0,1.3-0.5,1.5c-1.7,0.8-3.4,1.6-5.1,2.5c-1.8,0.8-3.5,1.7-5.3,2.5
			C220,439.4,219.9,439.5,219.7,439.5z M240.4,429.4c-0.4,0-0.8-0.2-1-0.6c-0.3-0.6-0.1-1.3,0.5-1.5c3.8-1.9,7-3.8,10-5.5
			c0.5-0.3,1.3-0.1,1.6,0.4c0.3,0.5,0.1,1.3-0.4,1.6c-3,1.8-6.3,3.6-10.1,5.6C240.7,429.3,240.6,429.4,240.4,429.4z M260.1,417.5
			c-0.4,0-0.7-0.2-0.9-0.5c-0.4-0.5-0.3-1.2,0.2-1.6c3.3-2.4,6.1-4.8,8.6-7.3c0.5-0.4,1.2-0.4,1.6,0c0.4,0.5,0.4,1.2,0,1.6
			c-2.6,2.6-5.5,5.1-8.9,7.5C260.5,417.4,260.3,417.5,260.1,417.5z M276.1,401.3c-0.2,0-0.4-0.1-0.6-0.2c-0.5-0.4-0.7-1.1-0.3-1.6
			c1.5-2.3,2.8-4.6,3.9-7c0.3-0.6,0.9-0.8,1.5-0.6c0.6,0.3,0.8,0.9,0.6,1.5c-1.1,2.5-2.5,5-4,7.4
			C276.9,401.1,276.5,401.3,276.1,401.3z"/>
	</g>
	<path class="st5" d="M325.2,339.5H298c-3,0-5.4,2.4-5.4,5.4v15.8c0,3,2.4,5.4,5.4,5.4h27.2c3,0,5.4-2.4,5.4-5.4v-15.8
		C330.7,342,328.2,339.5,325.2,339.5z M298,340.9h27.2c2.2,0,4,1.8,4,4v2.3H294v-2.3C294,342.7,295.8,340.9,298,340.9z M325.2,364.8
		H298c-2.2,0-4-1.8-4-4v-9.6h35.3v9.6C329.3,363,327.5,364.8,325.2,364.8z"/>
	<g>
		
			<rect x="274.9" y="358.6" transform="matrix(0.8745 0.4851 -0.4851 0.8745 214.6498 -96.8465)" class="st20" width="39.1" height="15.5"/>
		<path class="st5" d="M307.4,384.4c-10.3-10.3-21.9-13.9-33.7-17.2c2.1-4.4,4.4-8.5,6.8-12.6c12.4,4.1,24.4,7.9,34.9,17.8
			C312.6,376.8,310,380.7,307.4,384.4z"/>
		<circle class="st20" cx="294.4" cy="367.3" r="3.6"/>
	</g>
</g>
<g>
	<g>
		<path class="st5" d="M412.4,655.5c-0.5,0-1-0.4-1.1-1c-0.1-0.6,0.3-1.2,0.9-1.3c3.7-0.6,7.5-1.4,11.2-2.3c0.6-0.1,1.2,0.2,1.4,0.9
			c0.1,0.6-0.2,1.2-0.9,1.4c-3.7,0.9-7.6,1.6-11.4,2.3C412.6,655.5,412.5,655.5,412.4,655.5z M434.8,650.3c-0.5,0-1-0.3-1.1-0.8
			c-0.2-0.6,0.2-1.2,0.8-1.4c3.7-1.1,7.3-2.3,10.9-3.6c0.6-0.2,1.3,0.1,1.5,0.7c0.2,0.6-0.1,1.3-0.7,1.5c-3.6,1.3-7.3,2.5-11,3.6
			C435.1,650.3,435,650.3,434.8,650.3z M456.4,642.4c-0.4,0-0.9-0.3-1.1-0.7c-0.3-0.6,0-1.3,0.6-1.5c3.5-1.6,7-3.2,10.3-5
			c0.6-0.3,1.3-0.1,1.6,0.5c0.3,0.6,0.1,1.3-0.5,1.6c-3.4,1.8-6.9,3.5-10.4,5.1C456.8,642.4,456.6,642.4,456.4,642.4z M476.7,631.6
			c-0.4,0-0.8-0.2-1-0.5c-0.3-0.5-0.2-1.2,0.3-1.6c3.2-2.1,6.4-4.3,9.3-6.5c0.5-0.4,1.2-0.3,1.6,0.2c0.4,0.5,0.3,1.2-0.2,1.6
			c-3,2.3-6.2,4.5-9.5,6.6C477.1,631.5,476.9,631.6,476.7,631.6z M494.9,617.6c-0.3,0-0.6-0.1-0.8-0.4c-0.4-0.5-0.4-1.2,0.1-1.6
			c2.8-2.6,5.5-5.3,8-8.1c0.4-0.5,1.2-0.5,1.6-0.1c0.5,0.4,0.5,1.2,0.1,1.6c-2.6,2.8-5.3,5.6-8.2,8.2
			C495.5,617.5,495.2,617.6,494.9,617.6z M510.3,600.6c-0.2,0-0.5-0.1-0.7-0.2c-0.5-0.4-0.6-1.1-0.2-1.6c2.2-3,4.4-6.2,6.3-9.4
			c0.3-0.5,1-0.7,1.6-0.4c0.5,0.3,0.7,1,0.4,1.6c-2,3.3-4.2,6.5-6.5,9.6C511,600.4,510.7,600.6,510.3,600.6z M522.2,581
			c-0.2,0-0.3,0-0.5-0.1c-0.6-0.3-0.8-1-0.5-1.5l0-0.1c1.7-3.4,3.2-6.9,4.5-10.4c0.2-0.6,0.9-0.9,1.5-0.7c0.6,0.2,0.9,0.9,0.7,1.5
			c-1.4,3.5-2.9,7.1-4.6,10.6l0,0.1C523,580.7,522.6,581,522.2,581z M530.4,559.5c-0.1,0-0.2,0-0.3,0c-0.6-0.2-1-0.8-0.8-1.4
			c1-3.7,1.9-7.4,2.6-11.1c0.1-0.6,0.7-1,1.3-0.9s1,0.7,0.9,1.3c-0.7,3.8-1.6,7.6-2.6,11.3C531.4,559.2,530.9,559.5,530.4,559.5z
			 M534.6,536.9C534.5,536.9,534.5,536.9,534.6,536.9c-0.7-0.1-1.2-0.6-1.1-1.2c0.3-3,0.4-6.1,0.4-9.2c0-0.7,0-1.5,0-2.2
			c0-0.6,0.5-1.2,1.1-1.2c0.6,0,1.2,0.5,1.2,1.1c0,0.8,0,1.5,0,2.3c0,3.1-0.1,6.2-0.4,9.3C535.6,536.5,535.1,536.9,534.6,536.9z
			 M534.1,514c-0.6,0-1.1-0.4-1.1-1c-0.5-3.7-1.1-7.5-2-11.2c-0.1-0.6,0.2-1.2,0.9-1.4c0.6-0.1,1.2,0.2,1.4,0.9
			c0.9,3.8,1.5,7.6,2,11.4c0.1,0.6-0.4,1.2-1,1.3C534.2,514,534.1,514,534.1,514z M529,491.6c-0.5,0-0.9-0.3-1.1-0.8
			c-1.2-3.6-2.5-7.1-4.1-10.6c-0.3-0.6,0-1.3,0.6-1.5c0.6-0.3,1.3,0,1.5,0.6c1.6,3.6,2.9,7.2,4.1,10.8c0.2,0.6-0.1,1.3-0.7,1.5
			C529.3,491.6,529.2,491.6,529,491.6z M519.9,470.5c-0.4,0-0.8-0.2-1-0.6c-1.8-3.3-3.8-6.6-5.9-9.7c-0.4-0.5-0.2-1.2,0.3-1.6
			c0.5-0.4,1.2-0.2,1.6,0.3c2.1,3.2,4.2,6.5,6,9.9c0.3,0.6,0.1,1.3-0.5,1.6C520.3,470.5,520.1,470.5,519.9,470.5z M507.1,451.4
			c-0.3,0-0.7-0.1-0.9-0.4c-1.6-1.9-2.6-2.9-2.6-2.9c-0.4-0.5-0.4-1.2,0-1.6c0.5-0.4,1.2-0.4,1.6,0c0,0,1,1.1,2.7,3
			c0.4,0.5,0.3,1.2-0.1,1.6C507.6,451.3,507.3,451.4,507.1,451.4z"/>
	</g>
	<g>
		<g>
			<path class="st5" d="M484.1,441.6c-0.3,0.2-0.7,0.2-1.2,0.2c-0.9-0.1-1.6-0.8-1.8-1.6c-0.6-2.7-0.9-3.6-1.1-3.9
				c-3.6-1.3-6.3-3.7-7.8-6.8c-3.7-7.8,1.5-18.2,11.7-23c10.2-4.9,21.5-2.5,25.3,5.4c3.7,7.8-1.5,18.2-11.7,23
				c-3.4,1.6-7.1,2.5-10.6,2.5c-0.2,0.2-0.8,1-1.9,3.3C484.8,441.1,484.5,441.4,484.1,441.6z M486,435.2c0.2-0.1,0.4-0.1,0.7-0.1
				c3.3,0,6.7-0.8,9.9-2.3c9.1-4.3,13.8-13.3,10.6-20s-13.2-8.6-22.2-4.3s-13.8,13.3-10.6,20c1.3,2.6,3.6,4.6,6.7,5.7
				c0.7,0.2,1.3,0.8,2.2,4.9C484.5,436.5,485.3,435.5,486,435.2z"/>
		</g>
		<g>
			<path class="st5" d="M494.3,429.7l-1-2.1c-1.2,0.6-2.7,0.8-3.7,0.6l-0.2-1.7c1,0.1,2.3,0,3.5-0.5c1.5-0.7,2.1-2.1,1.5-3.3
				c-0.6-1.2-1.7-1.5-3.6-1.4c-2.6,0.2-4.3-0.2-5.2-2c-0.8-1.8-0.2-3.7,1.6-4.9l-1-2.1l1.3-0.6l1,2c1.3-0.6,2.3-0.6,3.1-0.6l0.1,1.6
				c-0.6,0-1.6-0.1-3,0.6c-1.6,0.8-1.8,2-1.4,2.9c0.5,1.1,1.6,1.3,3.8,1.2c2.6-0.2,4.2,0.4,5.1,2.3c0.8,1.7,0.4,3.8-1.6,5.2l1,2.2
				L494.3,429.7z"/>
		</g>
	</g>
</g>
<g>
	<path class="st5" d="M484.4,582.2c-0.1,0-0.1,0-0.2,0c-3.8-0.6-7.7-1.3-11.4-2.1c-0.6-0.1-1-0.7-0.9-1.4c0.1-0.6,0.7-1,1.4-0.9
		c3.7,0.8,7.4,1.5,11.2,2.1c0.6,0.1,1.1,0.7,1,1.3C485.4,581.8,484.9,582.2,484.4,582.2z"/>
	<path class="st5" d="M461.9,577.5c-0.1,0-0.2,0-0.3,0c-3.8-1-7.5-2.1-11.1-3.3c-0.6-0.2-0.9-0.8-0.7-1.4c0.2-0.6,0.8-0.9,1.4-0.7
		c3.6,1.2,7.2,2.2,11,3.2c0.6,0.2,1,0.8,0.8,1.4C462.9,577.1,462.4,577.5,461.9,577.5z"/>
	<path class="st5" d="M440,570.3c-0.1,0-0.3,0-0.4-0.1c-3.6-1.4-7.2-3-10.6-4.6c-0.6-0.3-0.8-1-0.5-1.5c0.3-0.6,1-0.8,1.5-0.5
		c3.4,1.6,6.9,3.1,10.5,4.6c0.6,0.2,0.9,0.9,0.6,1.5C440.9,570.1,440.5,570.3,440,570.3z"/>
</g>
<path class="st14" d="M-93.6,2973.2c-138.8-332-546.8-584-842.9-584s-161.4,423.3-161.4,549.4c0,126.1,240,229.2,536,229.2
	C-25.8,3167.9-1.9,3192.5-93.6,2973.2z"/>
<path class="st21" d="M-1045.2,2718.8l-286.9-99.8c-147.4-51.2-298.7,69.1-329.3,264.7c-3.6,23.3-5.6,47.5-5.6,72.2v211.5h1045l0,0
	C-707.7,2945.8-861.7,2782.6-1045.2,2718.8z"/>
<path class="st14" d="M156,1037"/>
<g>
	<path class="st3" d="M81.8,178.7v-3.8h4.5l1.2-7h-4.2V164h4.9l0.9-5.2h4l-0.9,5.2h5.6l0.9-5.2h3.9l-0.9,5.2h3.2v3.8h-3.9l-1.2,7
		h3.7v3.8h-4.4l-0.9,5.2h-4l0.9-5.2h-5.6l-0.9,5.2h-4l0.9-5.2H81.8z M90.2,174.8h5.6l1.2-7h-5.6L90.2,174.8z"/>
	<path class="st3" d="M110.9,168.2c0-2.7,0.3-5.1,1-7.2s1.5-3.7,2.5-4.9c1-1.2,2.2-2.2,3.6-3c1.4-0.8,2.8-1.3,4.2-1.5
		s2.8-0.4,4.4-0.4s3,0.1,4.4,0.4c1.4,0.3,2.7,0.8,4.2,1.5c1.4,0.8,2.6,1.8,3.6,3c1,1.2,1.8,2.9,2.5,4.9s1,4.5,1,7.2
		c0,2.5-0.3,4.7-0.8,6.6c-0.5,1.9-1.2,3.5-2.1,4.7c-0.8,1.2-1.9,2.3-3.1,3.1c-1.2,0.8-2.4,1.4-3.6,1.8c-1.2,0.4-2.5,0.6-3.9,0.8
		c0,1.5,0.6,2.6,1.7,3.3c1.1,0.7,2.5,1,4,1v4.7c-7.1,0-10.7-3-10.7-9.1c-1.7-0.2-3.3-0.7-4.7-1.3c-1.4-0.6-2.8-1.6-4-2.8
		c-1.3-1.2-2.3-3-3-5.1C111.2,173.7,110.9,171.1,110.9,168.2z M117.6,162c-0.5,1.6-0.7,3.7-0.7,6.2c0,2.5,0.2,4.6,0.7,6.2
		c0.5,1.6,1.2,2.8,2.2,3.6c1,0.8,2,1.3,3,1.6c1,0.3,2.2,0.4,3.7,0.4c1.4,0,2.6-0.1,3.6-0.4c1-0.3,2-0.8,3-1.6c1-0.8,1.7-2,2.2-3.6
		c0.5-1.6,0.7-3.7,0.7-6.2c0-2.5-0.2-4.6-0.7-6.2c-0.5-1.6-1.2-2.8-2.2-3.6c-1-0.8-2-1.3-3-1.6c-1-0.3-2.2-0.4-3.6-0.4
		c-1.4,0-2.6,0.1-3.7,0.4c-1,0.3-2,0.8-3,1.6C118.8,159.2,118.1,160.4,117.6,162z"/>
	<path class="st3" d="M147.9,173.6V160h6v14.4c0,2,0.4,3.4,1.2,4.3s2.1,1.3,4,1.3c1.9,0,3.2-0.4,4-1.3s1.2-2.3,1.2-4.3V160h6v13.6
		c0,3.7-1,6.5-3,8.6c-2,2.1-4.7,3.1-8.3,3.1c-3.5,0-6.3-1-8.3-3.1C148.9,180.1,147.9,177.3,147.9,173.6z"/>
	<path class="st3" d="M176.7,172.7c0-4,0.9-7.2,2.7-9.6c1.8-2.4,4.6-3.6,8.5-3.6c3.7,0,6.4,1.2,8.3,3.5c1.9,2.3,2.8,5.2,2.8,8.6
		c0,1.4,0,2.4-0.1,3.1h-16.2c0.2,2.2,0.8,3.6,1.9,4.3c1.1,0.7,2.6,1.1,4.4,1.1c2.9,0,5.8-0.6,8.5-1.9v4.8c-2.8,1.5-5.9,2.2-9.4,2.2
		c-1.1,0-2.1-0.1-3.1-0.3s-2-0.6-3-1.1c-1-0.6-1.9-1.3-2.7-2.2c-0.8-0.9-1.4-2.1-1.9-3.6C177,176.5,176.7,174.7,176.7,172.7z
		 M182.7,170.6h10.1c-0.2-1.7-0.7-3.2-1.5-4.3c-0.9-1.2-2-1.8-3.5-1.8c-1.5,0-2.7,0.5-3.5,1.4C183.4,166.9,182.9,168.4,182.7,170.6z
		"/>
	<path class="st3" d="M203.9,172.1c0-4.1,1-7.2,3-9.3c2-2.2,4.8-3.2,8.6-3.2c1.3,0,2.7,0.1,4.2,0.4v-9.6h6v26.5
		c0,2.3-0.9,4.3-2.6,5.9c-1.7,1.7-4.4,2.5-7.9,2.5c-0.8,0-1.7-0.1-2.5-0.2c-0.8-0.1-1.8-0.5-2.9-1c-1.1-0.6-2.1-1.3-2.9-2.2
		c-0.8-0.9-1.5-2.2-2.1-3.9C204.1,176.3,203.9,174.4,203.9,172.1z M209.9,171.8c0,2.9,0.4,5.1,1.1,6.4c0.8,1.3,2.1,2,4,2
		c3,0,4.5-0.9,4.5-2.7v-12.8c-1.2-0.3-2.5-0.4-4-0.4c-1.9,0-3.3,0.6-4.3,1.7S209.9,169,209.9,171.8z"/>
	<path class="st3" d="M231.2,176.8c0-0.5,0-1,0.1-1.6c0.1-0.5,0.4-1.2,0.8-2c0.4-0.8,1-1.5,1.7-2.1c0.7-0.6,1.8-1.1,3.2-1.6
		c1.4-0.4,3.1-0.6,5-0.6c1.4,0,2.8,0.1,4.4,0.3c0-3.2-1.8-4.8-5.3-4.8c-2.8,0-5.3,0.4-7.3,1.3v-4.9c2.3-0.8,4.9-1.3,7.7-1.3
		c3.6,0,6.3,0.9,8.2,2.7c1.9,1.8,2.8,4.4,2.8,7.9v6.7c0,2.3-0.9,4.3-2.6,5.9c-1.7,1.7-4.4,2.5-7.9,2.5c-3.7,0-6.4-0.8-8.1-2.5
		C232.1,181.1,231.2,179.1,231.2,176.8z M237.3,176c0,2.7,1.6,4,4.7,4c0,0,0,0,0,0c3,0,4.5-1.3,4.5-3.8v-3.1
		c-1.4-0.2-2.6-0.3-3.6-0.3C239.2,172.7,237.3,173.8,237.3,176z"/>
	<path class="st3" d="M256.2,165.1V160h4.2v-7.4h6v7.4h5.9v5.2h-5.9v12.3c0,1.1,0.2,1.8,0.7,2.2c0.4,0.4,1.2,0.6,2.4,0.6
		c1.1,0,2-0.2,2.9-0.5v5c-1.2,0.5-2.5,0.7-3.8,0.7c0,0-0.1,0-0.1,0c-2.5,0-4.4-0.7-5.8-2.2s-2.1-3.5-2.1-6.1v-11.9H256.2z"/>
	<path class="st3" d="M276.9,172.7c0-4,0.9-7.2,2.7-9.6c1.8-2.4,4.6-3.6,8.5-3.6c3.7,0,6.4,1.2,8.3,3.5c1.9,2.3,2.8,5.2,2.8,8.6
		c0,1.4,0,2.4-0.1,3.1h-16.2c0.2,2.2,0.8,3.6,1.9,4.3c1.1,0.7,2.6,1.1,4.4,1.1c2.9,0,5.8-0.6,8.5-1.9v4.8c-2.8,1.5-5.9,2.2-9.4,2.2
		c-1.1,0-2.1-0.1-3.1-0.3s-2-0.6-3-1.1c-1-0.6-1.9-1.3-2.7-2.2c-0.8-0.9-1.4-2.1-1.9-3.6C277.1,176.5,276.9,174.7,276.9,172.7z
		 M282.9,170.6H293c-0.2-1.7-0.7-3.2-1.5-4.3c-0.9-1.2-2-1.8-3.5-1.8c-1.5,0-2.7,0.5-3.5,1.4C283.6,166.9,283.1,168.4,282.9,170.6z"
		/>
	<path class="st3" d="M306,184.9v-33.3h22.2v5.4H312v8.4h14v5.7h-14v8.4h16.2v5.4H306z"/>
	<path class="st3" d="M334.4,184.9v-22.6c3.7-1.8,7.5-2.7,11.5-2.7c3.5,0,6.2,0.9,8.2,2.7c2,1.8,2.9,4.4,2.9,7.6v15h-6v-15.5
		c0-0.7-0.1-1.2-0.2-1.7c-0.1-0.4-0.4-0.9-0.7-1.4c-0.4-0.5-1-0.9-1.8-1.1s-1.9-0.4-3.2-0.4c-1.5,0-3,0.1-4.6,0.4v19.6H334.4z"/>
	<path class="st3" d="M365.4,175.4c-0.6-2.1-1-4.5-1-7.2s0.3-5.1,1-7.2c0.6-2.1,1.5-3.7,2.5-4.9c1-1.2,2.2-2.2,3.6-3
		c1.4-0.8,2.8-1.3,4.2-1.6c1.4-0.3,2.8-0.4,4.4-0.4c3.4,0,6.8,0.7,10.1,2v5.6c-3.2-1.5-6.4-2.2-9.6-2.2c-1.5,0-2.8,0.1-3.8,0.4
		c-1.1,0.3-2.1,0.8-3.1,1.6c-1,0.8-1.8,2-2.3,3.6c-0.5,1.6-0.8,3.7-0.8,6.2c0,2.5,0.3,4.5,0.8,6.2c0.5,1.6,1.3,2.8,2.3,3.6
		c1,0.8,2.1,1.3,3.1,1.6c1.1,0.3,2.3,0.4,3.8,0.4c3.2,0,6.4-0.7,9.6-2.2v5.6c-3.3,1.3-6.7,2-10.1,2c-1.6,0-3-0.1-4.4-0.4
		c-1.4-0.3-2.7-0.8-4.2-1.6c-1.4-0.8-2.6-1.8-3.6-3C366.9,179.1,366,177.5,365.4,175.4z"/>
	<path class="st3" d="M395.6,176.8c0-0.5,0-1,0.1-1.6c0.1-0.5,0.4-1.2,0.8-2c0.4-0.8,1-1.5,1.7-2.1c0.7-0.6,1.8-1.1,3.2-1.6
		c1.4-0.4,3.1-0.6,5-0.6c1.4,0,2.8,0.1,4.4,0.3c0-3.2-1.8-4.8-5.3-4.8c-2.8,0-5.3,0.4-7.3,1.3v-4.9c2.3-0.8,4.9-1.3,7.7-1.3
		c3.6,0,6.3,0.9,8.2,2.7c1.9,1.8,2.8,4.4,2.8,7.9v6.7c0,2.3-0.9,4.3-2.6,5.9c-1.7,1.7-4.4,2.5-7.9,2.5c-3.7,0-6.4-0.8-8.1-2.5
		C396.5,181.1,395.6,179.1,395.6,176.8z M401.6,176c0,2.7,1.6,4,4.7,4c0,0,0,0,0,0c3,0,4.5-1.3,4.5-3.8v-3.1
		c-1.4-0.2-2.6-0.3-3.6-0.3C403.5,172.7,401.6,173.8,401.6,176z"/>
	<path class="st3" d="M422.1,167.4c0-2.5,0.9-4.4,2.6-5.8c1.8-1.3,4-2,6.6-2c2.5,0,4.7,0.6,6.8,1.8v4.6c-1.7-0.8-3.6-1.2-5.8-1.2
		c-2.9,0-4.3,0.7-4.3,2.1c0,0.7,0.4,1.3,1.2,1.7c0.8,0.4,1.8,0.8,3,1.1c1.2,0.3,2.3,0.7,3.5,1.2c1.2,0.5,2.2,1.4,3,2.6
		c0.8,1.2,1.2,2.8,1.2,4.7c0,2.1-0.9,3.8-2.6,5.2c-1.7,1.4-4,2.1-6.8,2.1c-2.9,0-5.5-0.7-7.9-2v-5.3c2.2,1.5,4.5,2.2,7.1,2.2
		c1.7,0,2.8-0.2,3.4-0.6c0.5-0.4,0.8-1,0.8-1.8c0-0.7-0.4-1.3-1.2-1.8c-0.8-0.4-1.8-0.8-3-1.2c-1.2-0.3-2.3-0.7-3.5-1.2
		c-1.2-0.5-2.2-1.2-3-2.3C422.5,170.3,422.1,169,422.1,167.4z"/>
	<path class="st3" d="M444.9,176.8c0-0.5,0-1,0.1-1.6c0.1-0.5,0.4-1.2,0.8-2c0.4-0.8,1-1.5,1.7-2.1c0.7-0.6,1.8-1.1,3.2-1.6
		c1.4-0.4,3.1-0.6,5-0.6c1.4,0,2.8,0.1,4.4,0.3c0-3.2-1.8-4.8-5.3-4.8c-2.8,0-5.3,0.4-7.3,1.3v-4.9c2.3-0.8,4.9-1.3,7.7-1.3
		c3.6,0,6.3,0.9,8.2,2.7c1.9,1.8,2.8,4.4,2.8,7.9v6.7c0,2.3-0.9,4.3-2.6,5.9c-1.7,1.7-4.4,2.5-7.9,2.5c-3.7,0-6.4-0.8-8.1-2.5
		C445.8,181.1,444.9,179.1,444.9,176.8z M450.9,176c0,2.7,1.6,4,4.7,4c0,0,0,0,0,0c3,0,4.5-1.3,4.5-3.8v-3.1
		c-1.4-0.2-2.6-0.3-3.6-0.3C452.8,172.7,450.9,173.8,450.9,176z"/>
</g>
</svg>
