<?xml version="1.0" encoding="UTF-8"?>
<!-- Generator: Adobe Illustrator 23.0.2, SVG Export Plug-In . SVG Version: 6.00 Build 0)  -->
<svg width="72" height="72" version="1.1" id="Layer_1" xmlns="http://www.w3.org/2000/svg" xmlns:xlink="http://www.w3.org/1999/xlink" x="0px" y="0px" viewBox="0 0 22 24" style="enable-background:new 0 0 22 24;" xml:space="preserve">
<style type="text/css">
	.st0{fill:#8569B4;}
</style>
<g>
	<path class="st0" d="M17.8,0h-12c-2.2,0-4,1.8-4,4v1.5h-1C0.5,5.5,0.3,5.7,0.3,6s0.2,0.5,0.5,0.5h1v3h-1c-0.3,0-0.5,0.2-0.5,0.5   s0.2,0.5,0.5,0.5h1v3h-1c-0.3,0-0.5,0.2-0.5,0.5s0.2,0.5,0.5,0.5h1v3h-1c-0.3,0-0.5,0.2-0.5,0.5s0.2,0.5,0.5,0.5h1V20   c0,2.2,1.8,4,4,4h12c2.2,0,4-1.8,4-4V4C21.8,1.8,20,0,17.8,0z M20.8,20c0,1.7-1.3,3-3,3h-12c-1.7,0-3-1.3-3-3v-1.5h1   c0.3,0,0.5-0.2,0.5-0.5S4,17.5,3.8,17.5h-1v-3h1c0.3,0,0.5-0.2,0.5-0.5S4,13.5,3.8,13.5h-1v-3h1c0.3,0,0.5-0.2,0.5-0.5   S4,9.5,3.8,9.5h-1v-3h1C4,6.5,4.3,6.3,4.3,6S4,5.5,3.8,5.5h-1V4c0-1.7,1.3-3,3-3h12c1.7,0,3,1.3,3,3V20z"/>
	<path class="st0" d="M17.8,11H8.3c-0.3,0-0.5,0.2-0.5,0.5S8,12,8.3,12h9.5c0.3,0,0.5-0.2,0.5-0.5S18,11,17.8,11z"/>
	<path class="st0" d="M17.8,15H8.3c-0.3,0-0.5,0.2-0.5,0.5S8,16,8.3,16h9.5c0.3,0,0.5-0.2,0.5-0.5S18,15,17.8,15z"/>
	<path class="st0" d="M17.8,19H8.3c-0.3,0-0.5,0.2-0.5,0.5S8,20,8.3,20h9.5c0.3,0,0.5-0.2,0.5-0.5S18,19,17.8,19z"/>
	<path class="st0" d="M10,7.7c0.1,0.1,0.2,0.1,0.4,0.1s0.3,0,0.4-0.1l1-1l1,1c0.1,0.1,0.2,0.1,0.4,0.1s0.3,0,0.4-0.1   c0.2-0.2,0.2-0.5,0-0.7l-1-1l1-1c0.2-0.2,0.2-0.5,0-0.7s-0.5-0.2-0.7,0l-1,1l-1-1c-0.2-0.2-0.5-0.2-0.7,0S9.8,4.8,10,5l1,1l-1,1   C9.8,7.2,9.8,7.5,10,7.7z"/>
	<path class="st0" d="M15.3,6c0.3,0,0.5-0.2,0.5-0.5v-1c0-0.3-0.2-0.5-0.5-0.5s-0.5,0.2-0.5,0.5v1C14.8,5.8,15,6,15.3,6z"/>
	<circle class="st0" cx="15.3" cy="7.5" r="0.5"/>
</g>
</svg>