<svg width="64" height="45" viewBox="0 0 64 45" fill="none" xmlns="http://www.w3.org/2000/svg">
<path d="M0 0H63.94V44.04H0V0Z" fill="#F8F8F8"/>
<path d="M25.9297 7.59H38.0097V29.31H25.9297V7.59Z" fill="#F26522"/>
<path d="M26.6998 18.45C26.6973 16.3587 27.1704 14.2942 28.0834 12.4127C28.9964 10.5313 30.3254 8.88209 31.9698 7.59001C29.9324 5.98951 27.4858 4.99445 24.9096 4.71854C22.3334 4.44262 19.7315 4.89698 17.4014 6.0297C15.0712 7.16242 13.1066 8.9278 11.7322 11.1241C10.3578 13.3204 9.62891 15.8591 9.62891 18.45C9.62891 21.0409 10.3578 23.5796 11.7322 25.7759C13.1066 27.9722 15.0712 29.7376 17.4014 30.8703C19.7315 32.003 22.3334 32.4574 24.9096 32.1815C27.4858 31.9056 29.9324 30.9105 31.9698 29.31C30.3254 28.0179 28.9964 26.3687 28.0834 24.4873C27.1704 22.6058 26.6973 20.5413 26.6998 18.45Z" fill="#E51B24"/>
<path d="M54.3097 18.45C54.3096 21.0408 53.5807 23.5792 52.2063 25.7754C50.8319 27.9715 48.8675 29.7368 46.5375 30.8695C44.2075 32.0022 41.6058 32.4566 39.0298 32.1808C36.4537 31.9051 34.0072 30.9102 31.9697 29.31C33.6147 28.0178 34.9446 26.3689 35.8591 24.4876C36.7736 22.6063 37.2488 20.5418 37.2488 18.45C37.2488 16.3582 36.7736 14.2937 35.8591 12.4124C34.9446 10.5312 33.6147 8.88218 31.9697 7.59001C34.0072 5.98978 36.4537 4.99495 39.0298 4.71918C41.6058 4.44341 44.2075 4.89783 46.5375 6.03051C48.8675 7.1632 50.8319 8.92846 52.2063 11.1246C53.5807 13.3208 54.3096 15.8593 54.3097 18.45Z" fill="#F99F1C"/>
<path d="M17.7602 39.2V36.9C17.7732 36.7066 17.745 36.5127 17.6775 36.331C17.6101 36.1493 17.5048 35.984 17.3687 35.846C17.2326 35.708 17.0687 35.6005 16.888 35.5305C16.7073 35.4605 16.5137 35.4297 16.3202 35.44C16.0667 35.423 15.8133 35.4744 15.5864 35.5887C15.3595 35.703 15.1674 35.8762 15.0302 36.09C14.9051 35.8833 14.7269 35.7139 14.514 35.5996C14.3012 35.4853 14.0616 35.4302 13.8202 35.44C13.6095 35.4314 13.4002 35.4775 13.2127 35.5739C13.0252 35.6703 12.8658 35.8137 12.7502 35.99V35.52H11.9502V39.19H12.7602V37.19C12.7389 37.0625 12.7467 36.9318 12.7829 36.8077C12.819 36.6836 12.8827 36.5692 12.9692 36.4731C13.0557 36.377 13.1628 36.3017 13.2824 36.2527C13.402 36.2036 13.5311 36.1822 13.6602 36.19C14.1902 36.19 14.4602 36.53 14.4602 37.19V39.19H15.2602V37.19C15.2389 37.0625 15.2467 36.9318 15.2829 36.8077C15.319 36.6836 15.3827 36.5692 15.4692 36.4731C15.5557 36.377 15.6628 36.3017 15.7824 36.2527C15.902 36.2036 16.0311 36.1822 16.1602 36.19C16.7102 36.19 16.9602 36.53 16.9602 37.19V39.19L17.7602 39.2ZM29.6802 35.52H28.3702V34.42H27.5702V35.52H26.8302V36.25H27.5702V37.92C27.5702 38.77 27.9002 39.28 28.8402 39.28C29.1932 39.2824 29.5398 39.1854 29.8402 39L29.6102 38.32C29.3955 38.4498 29.151 38.5222 28.9002 38.53C28.5002 38.53 28.3702 38.28 28.3702 37.92V36.27H29.6702L29.6802 35.52ZM36.4702 35.44C36.2698 35.4282 36.0701 35.4724 35.8934 35.5678C35.7168 35.6632 35.5702 35.8059 35.4702 35.98V35.52H34.6802V39.19H35.4802V37.15C35.4802 36.54 35.7402 36.21 36.2602 36.21C36.4312 36.2066 36.6011 36.2371 36.7602 36.3L37.0102 35.55C36.8275 35.4835 36.6346 35.4497 36.4402 35.45L36.4702 35.44ZM26.1502 35.83C25.7 35.5637 25.183 35.4318 24.6602 35.45C23.7302 35.45 23.1302 35.9 23.1302 36.63C23.1302 37.36 23.5702 37.63 24.3902 37.71L24.7702 37.76C25.2002 37.82 25.4102 37.94 25.4102 38.14C25.4102 38.34 25.1202 38.58 24.5702 38.58C24.1329 38.5901 23.7044 38.4567 23.3502 38.2L22.9702 38.82C23.436 39.1433 23.9935 39.3081 24.5602 39.29C25.6202 39.29 26.2302 38.79 26.2302 38.09C26.2302 37.39 25.7502 37.09 24.9502 36.99L24.5702 36.94C24.2202 36.94 23.9502 36.82 23.9502 36.58C23.9502 36.34 24.2102 36.15 24.6502 36.15C25.0503 36.155 25.4426 36.2617 25.7902 36.46L26.1502 35.83ZM47.5202 35.45C47.3198 35.4382 47.1201 35.4824 46.9434 35.5778C46.7668 35.6732 46.6202 35.8159 46.5202 35.99V35.52H45.7302V39.19H46.5302V37.15C46.5302 36.54 46.7902 36.21 47.3102 36.21C47.4812 36.2066 47.6511 36.2371 47.8102 36.3L48.0602 35.55C47.8776 35.4833 47.6846 35.4495 47.4902 35.45H47.5202ZM37.2902 37.37C37.2794 37.6319 37.3244 37.8931 37.4222 38.1364C37.52 38.3796 37.6683 38.5992 37.8574 38.7808C38.0465 38.9623 38.2721 39.1016 38.5191 39.1894C38.7661 39.2772 39.0289 39.3115 39.2902 39.29C39.7696 39.3126 40.2402 39.1557 40.6102 38.85L40.2202 38.21C39.9329 38.4283 39.581 38.5444 39.2202 38.54C38.9273 38.5129 38.655 38.3775 38.4568 38.1601C38.2586 37.9427 38.1487 37.6592 38.1487 37.365C38.1487 37.0708 38.2586 36.7873 38.4568 36.5699C38.655 36.3525 38.9273 36.217 39.2202 36.19C39.581 36.1856 39.9329 36.3017 40.2202 36.52L40.6102 35.88C40.2407 35.5735 39.7697 35.4165 39.2902 35.44C39.0284 35.42 38.7654 35.4557 38.5184 35.5447C38.2714 35.6336 38.046 35.7739 37.8571 35.9562C37.6682 36.1385 37.52 36.3587 37.4223 36.6024C37.3246 36.8461 37.2796 37.1077 37.2902 37.37ZM44.7602 37.37V35.52H43.9602V35.97C43.8242 35.7937 43.6479 35.6526 43.446 35.5586C43.2442 35.4646 43.0227 35.4205 42.8002 35.43C42.3136 35.4651 41.8584 35.6831 41.5261 36.0403C41.1938 36.3974 41.009 36.8672 41.009 37.355C41.009 37.8428 41.1938 38.3126 41.5261 38.6697C41.8584 39.0269 42.3136 39.2449 42.8002 39.28C43.0227 39.2895 43.2442 39.2454 43.446 39.1514C43.6479 39.0574 43.8242 38.9163 43.9602 38.74V39.19H44.7602V37.37ZM41.7602 37.37C41.7681 37.1536 41.8391 36.9443 41.9644 36.7678C42.0898 36.5912 42.264 36.4552 42.4657 36.3765C42.6674 36.2977 42.8877 36.2797 43.0995 36.3245C43.3113 36.3694 43.5053 36.4752 43.6578 36.629C43.8102 36.7827 43.9143 36.9777 43.9573 37.1899C44.0003 37.4021 43.9804 37.6222 43.8998 37.8232C43.8193 38.0242 43.6818 38.1972 43.5042 38.321C43.3266 38.4448 43.1166 38.514 42.9002 38.52C42.7488 38.5217 42.5987 38.4921 42.4593 38.4331C42.3199 38.3741 42.1941 38.287 42.09 38.1772C41.9858 38.0673 41.9054 37.9372 41.8538 37.7948C41.8022 37.6525 41.7806 37.5011 41.7902 37.35L41.7602 37.37ZM32.1602 35.42C31.6737 35.4609 31.2207 35.6846 30.8926 36.0461C30.5645 36.4076 30.3856 36.8801 30.3919 37.3683C30.3983 37.8565 30.5894 38.3241 30.9268 38.677C31.2642 39.0299 31.7228 39.2418 32.2102 39.27C32.7559 39.2903 33.2899 39.1087 33.7102 38.76L33.3202 38.17C33.0161 38.4128 32.6393 38.5465 32.2502 38.55C32.1188 38.5638 31.9859 38.5514 31.8593 38.5136C31.7326 38.4757 31.6148 38.4131 31.5125 38.3294C31.4102 38.2457 31.3255 38.1426 31.2633 38.026C31.2011 37.9094 31.1627 37.7816 31.1502 37.65H33.8702V37.34C33.8938 37.0967 33.8665 36.8511 33.7899 36.6189C33.7134 36.3867 33.5893 36.173 33.4256 35.9915C33.2619 35.8099 33.0622 35.6644 32.8391 35.5643C32.6161 35.4642 32.3747 35.4116 32.1302 35.41L32.1602 35.42ZM32.1302 36.13C32.2497 36.1273 32.3686 36.1483 32.48 36.1916C32.5914 36.2348 32.6932 36.2997 32.7796 36.3823C32.8659 36.465 32.9352 36.5638 32.9833 36.6732C33.0315 36.7827 33.0576 36.9005 33.0602 37.02H31.1702C31.1974 36.7743 31.3146 36.5473 31.4993 36.383C31.684 36.2186 31.923 36.1285 32.1702 36.13H32.1302ZM52.1702 37.34V34.06H51.3702V35.98C51.2337 35.8043 51.0572 35.6636 50.8555 35.5697C50.6538 35.4758 50.4325 35.4313 50.2102 35.44C49.7236 35.4751 49.2684 35.6931 48.9361 36.0503C48.6038 36.4074 48.419 36.8772 48.419 37.365C48.419 37.8528 48.6038 38.3226 48.9361 38.6797C49.2684 39.0369 49.7236 39.2549 50.2102 39.29C50.4325 39.2987 50.6538 39.2542 50.8555 39.1603C51.0572 39.0664 51.2337 38.9257 51.3702 38.75V39.2H52.1702V37.34ZM49.1702 37.34C49.1838 37.1248 49.2598 36.9183 49.3889 36.7456C49.518 36.5729 49.6946 36.4416 49.8971 36.3676C50.0996 36.2936 50.3193 36.2802 50.5293 36.329C50.7393 36.3779 50.9305 36.4868 51.0797 36.6425C51.2288 36.7982 51.3293 36.994 51.369 37.2059C51.4087 37.4178 51.3858 37.6367 51.3031 37.8358C51.2205 38.0349 51.0816 38.2057 50.9035 38.3272C50.7254 38.4487 50.5158 38.5157 50.3002 38.52C50.1488 38.5217 49.9987 38.4921 49.8593 38.4331C49.7199 38.3741 49.5941 38.287 49.49 38.1772C49.3858 38.0673 49.3054 37.9372 49.2538 37.7948C49.2022 37.6525 49.1806 37.5011 49.1902 37.35L49.1702 37.34ZM22.2502 37.35V35.52H21.4702V35.97C21.3337 35.7943 21.1572 35.6536 20.9555 35.5597C20.7538 35.4658 20.5325 35.4213 20.3102 35.43C19.8236 35.4651 19.3684 35.6831 19.0361 36.0403C18.7038 36.3974 18.519 36.8672 18.519 37.355C18.519 37.8428 18.7038 38.3126 19.0361 38.6697C19.3684 39.0269 19.8236 39.2449 20.3102 39.28C20.531 39.2918 20.7514 39.2508 20.9531 39.1604C21.1549 39.0699 21.3321 38.9327 21.4702 38.76V39.21H22.2702L22.2502 37.35ZM19.2502 37.35C19.2619 37.1347 19.3361 36.9275 19.4637 36.7537C19.5913 36.5798 19.7667 36.4469 19.9686 36.3712C20.1705 36.2955 20.39 36.2801 20.6005 36.3271C20.8109 36.3741 21.0031 36.4814 21.1536 36.6358C21.304 36.7902 21.4063 36.9852 21.4478 37.1967C21.4893 37.4083 21.4683 37.6274 21.3873 37.8273C21.3064 38.0271 21.1689 38.199 20.9919 38.322C20.8148 38.4451 20.6057 38.5138 20.3902 38.52C20.2388 38.5217 20.0887 38.4921 19.9493 38.4331C19.8099 38.3741 19.6841 38.287 19.58 38.1772C19.4758 38.0673 19.3954 37.9372 19.3438 37.7948C19.2922 37.6525 19.2706 37.5011 19.2802 37.35H19.2502ZM53.4702 38.67C53.5197 38.66 53.5707 38.66 53.6202 38.67C53.6651 38.6885 53.7058 38.7157 53.7402 38.75C53.7737 38.785 53.8008 38.8256 53.8202 38.87C53.8284 38.9163 53.8284 38.9637 53.8202 39.01C53.8286 39.0563 53.8286 39.1037 53.8202 39.15C53.7998 39.1909 53.7728 39.228 53.7402 39.26C53.7055 39.2939 53.6648 39.321 53.6202 39.34C53.5708 39.3505 53.5196 39.3505 53.4702 39.34C53.4216 39.3407 53.3734 39.3313 53.3286 39.3124C53.2838 39.2934 53.2435 39.2654 53.2102 39.23C53.1764 39.1991 53.1492 39.1617 53.1302 39.12C53.1199 39.0739 53.1199 39.0261 53.1302 38.98C53.1202 38.9339 53.1202 38.8861 53.1302 38.84C53.1707 38.7538 53.2421 38.686 53.3302 38.65C53.3797 38.64 53.4307 38.64 53.4802 38.65L53.4702 38.67ZM53.4802 39.3H53.5902C53.6241 39.2865 53.6547 39.2661 53.6802 39.24C53.7059 39.2142 53.7262 39.1836 53.7402 39.15C53.7475 39.1137 53.7475 39.0763 53.7402 39.04C53.748 39.0037 53.748 38.9662 53.7402 38.93C53.7262 38.8964 53.7059 38.8658 53.6802 38.84L53.5902 38.78H53.3702L53.2802 38.84C53.2541 38.8655 53.2337 38.8961 53.2202 38.93C53.2109 38.9661 53.2109 39.0039 53.2202 39.04C53.2113 39.0761 53.2113 39.1139 53.2202 39.15C53.2337 39.1839 53.2541 39.2145 53.2802 39.24L53.3702 39.3H53.4802ZM53.4802 38.84C53.5127 38.8293 53.5477 38.8293 53.5802 38.84C53.5857 38.8526 53.5885 38.8662 53.5885 38.88C53.5885 38.8938 53.5857 38.9074 53.5802 38.92C53.5886 38.9426 53.5886 38.9674 53.5802 38.99C53.5541 38.9978 53.5263 38.9978 53.5002 38.99L53.6102 39.12H53.5202L53.4202 38.99V39.12H53.3502V38.78L53.4802 38.84ZM53.4002 38.9V38.99H53.5302H53.4702L53.4002 38.9Z" fill="black"/>
</svg>
