<svg width="80" height="96" viewBox="0 0 80 96" fill="none" xmlns="http://www.w3.org/2000/svg">
<path d="M33 24H66C66.84 24 67.5 23.34 67.5 22.5C67.5 21.66 66.84 21 66 21H33C32.16 21 31.5 21.66 31.5 22.5C31.5 23.34 32.16 24 33 24Z" fill="#C4C4C4"/>
<path d="M21 24C21.8284 24 22.5 23.3284 22.5 22.5C22.5 21.6716 21.8284 21 21 21C20.1716 21 19.5 21.6716 19.5 22.5C19.5 23.3284 20.1716 24 21 24Z" fill="#C4C4C4"/>
<path d="M33 39H66C66.84 39 67.5 38.34 67.5 37.5C67.5 36.66 66.84 36 66 36H33C32.16 36 31.5 36.66 31.5 37.5C31.5 38.34 32.16 39 33 39Z" fill="#C4C4C4"/>
<path d="M21 39C21.8284 39 22.5 38.3284 22.5 37.5C22.5 36.6716 21.8284 36 21 36C20.1716 36 19.5 36.6716 19.5 37.5C19.5 38.3284 20.1716 39 21 39Z" fill="#C4C4C4"/>
<path d="M33 54H66C66.84 54 67.5 53.34 67.5 52.5C67.5 51.66 66.84 51 66 51H33C32.16 51 31.5 51.66 31.5 52.5C31.5 53.34 32.16 54 33 54Z" fill="#C4C4C4"/>
<path d="M67.5 0H19.5C12.87 0 7.5 5.37 7.5 12V70.5C7.5 71.34 8.16 72 9 72C9.84 72 10.5 71.34 10.5 70.5V12C10.5 7.05 14.55 3 19.5 3H67.5C72.45 3 76.5 7.05 76.5 12V84C76.5 88.95 72.45 93 67.5 93H64.5H64.47C63.63 93 62.97 93.66 62.97 94.5C62.97 95.34 63.63 96 64.47 96H64.5H67.5C74.13 96 79.5 90.63 79.5 84V12C79.5 5.37 74.13 0 67.5 0Z" fill="#C4C4C4"/>
<path d="M48 70.5C46.77 70.5 45.6 70.86 44.64 71.52C43.83 69.18 41.61 67.5 39 67.5C37.77 67.5 36.6 67.86 35.64 68.52C34.83 66.18 32.61 64.5 30 64.5C28.92 64.5 27.87 64.8 27 65.31V54C27 50.7 24.3 48 21 48C17.7 48 15 50.7 15 54V87.48L10.23 82.74C10.2 82.71 10.14 82.68 10.11 82.65C9.03 81.6 7.59 81 6 81C2.7 81 0 83.7 0 87C0 88.29 0.39 89.46 1.11 90.45C1.11 90.45 1.11 90.45 1.11 90.48L5.04 96H8.73L6.6 92.97L3.87 89.13C3.75 88.98 3.63 88.83 3.51 88.68C3.18 88.2 3 87.63 3 87C3 85.35 4.35 84 6 84C6.78 84 7.5 84.3 8.04 84.78C8.04 84.81 8.07 84.84 8.1 84.87L8.25 85.02L11.79 88.53L13.8 90.51L15 91.71L16.11 92.82L17.97 94.65C18 94.59 18 94.56 18 94.5V90.45V89.07V84.33V54C18 52.35 19.35 51 21 51C22.65 51 24 52.35 24 54V70.5V79.5V80.04V81C24 81.84 24.66 82.5 25.5 82.5C25.71 82.5 25.89 82.47 26.07 82.38C26.16 82.35 26.25 82.32 26.34 82.26C26.73 81.99 27 81.54 27 81V79.5V78.87V70.5C27 68.85 28.35 67.5 30 67.5C31.65 67.5 33 68.85 33 70.5V73.5V78V79.5C33 80.34 33.66 81 34.5 81C35.34 81 36 80.34 36 79.5V78.24V73.5C36 71.85 37.35 70.5 39 70.5C40.65 70.5 42 71.85 42 73.5V76.5V79.5C42 79.71 42.03 79.92 42.12 80.1C42.18 80.22 42.24 80.37 42.33 80.46C42.42 80.58 42.54 80.67 42.66 80.76C42.9 80.91 43.2 81 43.5 81C43.59 81 43.68 81 43.74 80.97C43.95 80.94 44.16 80.85 44.34 80.76C44.46 80.67 44.55 80.58 44.64 80.49C44.73 80.37 44.82 80.25 44.88 80.1C44.91 80.04 44.91 80.01 44.94 79.95C44.97 79.8 45 79.65 45 79.5V76.5C45 74.85 46.35 73.5 48 73.5C49.65 73.5 51 74.85 51 76.5V88.23V96H54V76.5C54 73.2 51.3 70.5 48 70.5Z" fill="#C4C4C4"/>
<path d="M64.2602 81C64.5302 81 64.7702 80.79 64.7702 80.52V79.14C66.4202 78.72 67.5002 77.43 67.5002 75.84C67.5002 73.74 65.9102 72.81 64.5002 72.27C62.9402 71.64 62.6702 71.31 62.6702 70.77C62.6702 70.29 63.0302 69.81 64.0202 69.81C65.0402 69.81 65.6702 70.17 65.9702 70.32C66.0902 70.38 66.2402 70.41 66.3902 70.35C66.5402 70.29 66.6302 70.2 66.6902 70.05L67.1102 68.91C67.2002 68.67 67.1102 68.43 66.9002 68.31C66.3002 67.98 65.6402 67.77 64.8902 67.68V66.48C64.8902 66.21 64.6502 66 64.3802 66H63.3002C63.0302 66 62.7902 66.21 62.7902 66.48V67.8C61.1702 68.22 60.1802 69.42 60.1802 70.95C60.1802 72.87 61.8002 73.74 63.3602 74.37C64.8002 74.94 65.0102 75.48 65.0102 75.93C65.0102 76.65 64.3802 77.1 63.4502 77.1C62.6702 77.1 61.8602 76.86 61.2302 76.44C61.1102 76.35 60.9302 76.32 60.7802 76.38C60.6302 76.44 60.5102 76.53 60.4502 76.68L60.0302 77.82C59.9402 78.03 60.0302 78.27 60.2102 78.39C60.8102 78.81 61.7402 79.11 62.6702 79.2V80.46C62.6702 80.73 62.9102 80.94 63.1802 80.94H64.2602V81Z" fill="#C4C4C4"/>
</svg>
