<?xml version="1.0" encoding="utf-8"?>
<!-- Generator: Adobe Illustrator 23.0.2, SVG Export Plug-In . SVG Version: 6.00 Build 0)  -->
<svg version="1.1" id="Layer_1" xmlns="http://www.w3.org/2000/svg" xmlns:xlink="http://www.w3.org/1999/xlink" x="0px" y="0px"
	 viewBox="0 0 24 24" style="enable-background:new 0 0 24 24;" xml:space="preserve">
<style type="text/css">
	.st0{fill:#B6A1DA;}
</style>
<g>
	<g>
		<path class="st0" d="M2,22.1c-0.2,0-0.4,0-0.6-0.1C0.5,21.7,0,21,0,20.1V6.9C0,4.2,2.2,2,4.9,2h14.2C21.8,2,24,4.2,24,6.9v7.2
			c0,2.7-2.2,4.9-4.9,4.9H6.7c-0.9,0-1.8,0.5-2.4,1.2l-0.7,1C3.2,21.8,2.6,22.1,2,22.1z M4.9,4C3.3,4,2,5.3,2,6.9v13.2l0.7-1
			c0.9-1.3,2.4-2.1,4-2.1h12.4c1.6,0,2.9-1.3,2.9-2.9V6.9C22,5.3,20.7,4,19.1,4H4.9z"/>
	</g>
</g>
<g>
	<path class="st0" d="M11.5,8c0,0.6-0.4,1-1,1c-0.6,0-1-0.4-1-1s0.4-1,1-1C11.1,7,11.5,7.4,11.5,8z"/>
</g>
<g>
	<circle class="st0" cx="14.5" cy="8" r="1"/>
</g>
<g>
	<path class="st0" d="M12.5,13.8c-1.6,0-3.1-1-3.8-2.4c-0.2-0.4,0-0.8,0.4-1c0.4-0.2,0.8,0,1,0.4c0.4,1,1.4,1.6,2.5,1.6
		c1.1,0,2-0.6,2.5-1.6c0.2-0.4,0.6-0.5,1-0.4c0.4,0.2,0.5,0.6,0.4,1C15.6,12.8,14.1,13.8,12.5,13.8z"/>
</g>
</svg>
