<svg width="77" height="90" viewBox="0 0 77 90" fill="none" xmlns="http://www.w3.org/2000/svg">
<path d="M69.2308 41.5385H65.7692V27.6923C65.7692 12.4269 53.3423 0 38.0769 0C22.8115 0 10.3846 12.4269 10.3846 27.6923V41.5385H6.92308C3.11538 41.5385 0 44.6538 0 48.4615V83.0769C0 86.8846 3.11538 90 6.92308 90H69.2308C73.0385 90 76.1538 86.8846 76.1538 83.0769V48.4615C76.1538 44.6538 73.0385 41.5385 69.2308 41.5385ZM13.8462 27.6923C13.8462 14.3308 24.7154 3.46154 38.0769 3.46154C51.4385 3.46154 62.3077 14.3308 62.3077 27.6923V41.5385H13.8462V27.6923ZM72.6923 83.0769C72.6923 84.9808 71.1346 86.5385 69.2308 86.5385H6.92308C5.01923 86.5385 3.46154 84.9808 3.46154 83.0769V48.4615C3.46154 46.5577 5.01923 45 6.92308 45H69.2308C71.1346 45 72.6923 46.5577 72.6923 48.4615V83.0769Z" fill="#8569B4"/>
<path d="M16.4423 69.2308C18.354 69.2308 19.9038 67.681 19.9038 65.7693C19.9038 63.8575 18.354 62.3077 16.4423 62.3077C14.5305 62.3077 12.9807 63.8575 12.9807 65.7693C12.9807 67.681 14.5305 69.2308 16.4423 69.2308Z" fill="#8569B4"/>
<path d="M30.2884 69.2308C32.2002 69.2308 33.75 67.681 33.75 65.7693C33.75 63.8575 32.2002 62.3077 30.2884 62.3077C28.3767 62.3077 26.8269 63.8575 26.8269 65.7693C26.8269 67.681 28.3767 69.2308 30.2884 69.2308Z" fill="#8569B4"/>
<path d="M44.1346 69.2308C46.0464 69.2308 47.5962 67.681 47.5962 65.7693C47.5962 63.8575 46.0464 62.3077 44.1346 62.3077C42.2229 62.3077 40.6731 63.8575 40.6731 65.7693C40.6731 67.681 42.2229 69.2308 44.1346 69.2308Z" fill="#8569B4"/>
<path d="M63.1731 69.2307H56.2501C55.2808 69.2307 54.5193 69.9923 54.5193 70.9615C54.5193 71.9307 55.2808 72.6923 56.2501 72.6923H63.1731C64.1424 72.6923 64.9039 71.9307 64.9039 70.9615C64.9039 69.9923 64.1424 69.2307 63.1731 69.2307Z" fill="#8569B4"/>
</svg>
