<svg width="81" height="90" viewBox="0 0 81 90" fill="none" xmlns="http://www.w3.org/2000/svg">
<path d="M65.625 0H20.625C12.3375 0 5.625 6.7125 5.625 15V20.625H1.875C0.825 20.625 0 21.45 0 22.5C0 23.55 0.825 24.375 1.875 24.375H5.625V35.625H1.875C0.825 35.625 0 36.45 0 37.5C0 38.55 0.825 39.375 1.875 39.375H5.625V50.625H1.875C0.825 50.625 0 51.45 0 52.5C0 53.55 0.825 54.375 1.875 54.375H5.625V65.625H1.875C0.825 65.625 0 66.45 0 67.5C0 68.55 0.825 69.375 1.875 69.375H5.625V75C5.625 83.2875 12.3375 90 20.625 90H65.625C73.9125 90 80.625 83.2875 80.625 75V15C80.625 6.7125 73.9125 0 65.625 0ZM76.875 75C76.875 81.1875 71.8125 86.25 65.625 86.25H20.625C14.4375 86.25 9.375 81.1875 9.375 75V69.375H13.125C14.175 69.375 15 68.55 15 67.5C15 66.45 14.175 65.625 13.125 65.625H9.375V54.375H13.125C14.175 54.375 15 53.55 15 52.5C15 51.45 14.175 50.625 13.125 50.625H9.375V39.375H13.125C14.175 39.375 15 38.55 15 37.5C15 36.45 14.175 35.625 13.125 35.625H9.375V24.375H13.125C14.175 24.375 15 23.55 15 22.5C15 21.45 14.175 20.625 13.125 20.625H9.375V15C9.375 8.8125 14.4375 3.75 20.625 3.75H65.625C71.8125 3.75 76.875 8.8125 76.875 15V75Z" fill="#8569B4"/>
<path d="M65.625 41.25H30C28.95 41.25 28.125 42.075 28.125 43.125C28.125 44.175 28.95 45 30 45H65.625C66.675 45 67.5 44.175 67.5 43.125C67.5 42.075 66.675 41.25 65.625 41.25Z" fill="#8569B4"/>
<path d="M65.625 56.25H30C28.95 56.25 28.125 57.075 28.125 58.125C28.125 59.175 28.95 60 30 60H65.625C66.675 60 67.5 59.175 67.5 58.125C67.5 57.075 66.675 56.25 65.625 56.25Z" fill="#8569B4"/>
<path d="M65.625 71.25H30C28.95 71.25 28.125 72.075 28.125 73.125C28.125 74.175 28.95 75 30 75H65.625C66.675 75 67.5 74.175 67.5 73.125C67.5 72.075 66.675 71.25 65.625 71.25Z" fill="#8569B4"/>
<path d="M36.6375 28.9875C37.0125 29.3625 37.5 29.55 37.95 29.55C38.4 29.55 38.925 29.3625 39.2625 28.9875L43.0875 25.1625L46.9125 28.9875C47.2875 29.3625 47.775 29.55 48.225 29.55C48.675 29.55 49.2 29.3625 49.5375 28.9875C50.2875 28.2375 50.2875 27.075 49.5375 26.325L45.7875 22.5L49.6125 18.675C50.3625 17.925 50.3625 16.7625 49.6125 16.0125C48.8625 15.2625 47.7 15.2625 46.95 16.0125L43.125 19.8375L39.3 16.0125C38.55 15.2625 37.3875 15.2625 36.6375 16.0125C35.8875 16.7625 35.8875 17.925 36.6375 18.675L40.4625 22.5L36.6375 26.325C35.925 27.075 35.925 28.2375 36.6375 28.9875Z" fill="#8569B4"/>
<path d="M56.25 22.5C57.3 22.5 58.125 21.675 58.125 20.625V16.875C58.125 15.825 57.3 15 56.25 15C55.2 15 54.375 15.825 54.375 16.875V20.625C54.375 21.675 55.2 22.5 56.25 22.5Z" fill="#8569B4"/>
<path d="M56.25 30C57.2855 30 58.125 29.1605 58.125 28.125C58.125 27.0895 57.2855 26.25 56.25 26.25C55.2145 26.25 54.375 27.0895 54.375 28.125C54.375 29.1605 55.2145 30 56.25 30Z" fill="#8569B4"/>
</svg>
