<svg width="60" height="64" viewBox="0 0 60 64" fill="none" xmlns="http://www.w3.org/2000/svg">
<path d="M49.2308 4.92308H44.3077V1.23077C44.3077 0.541538 43.7662 0 43.0769 0C42.3877 0 41.8462 0.541538 41.8462 1.23077V4.92308H17.2308V1.23077C17.2308 0.541538 16.6892 0 16 0C15.3108 0 14.7692 0.541538 14.7692 1.23077V4.92308H9.84615C4.40615 4.92308 0 9.32923 0 14.7692V54.1538C0 59.5938 4.40615 64 9.84615 64H49.2308C54.6708 64 59.0769 59.5938 59.0769 54.1538V14.7692C59.0769 9.32923 54.6708 4.92308 49.2308 4.92308ZM56.6154 54.1538C56.6154 58.2154 53.2923 61.5385 49.2308 61.5385H9.84615C5.78462 61.5385 2.46154 58.2154 2.46154 54.1538V19.6923H56.6154V54.1538ZM56.6154 17.2308H2.46154V14.7692C2.46154 10.7077 5.78462 7.38462 9.84615 7.38462H49.2308C53.2923 7.38462 56.6154 10.7077 56.6154 14.7692V17.2308Z" fill="#8569B4"/>
<path d="M21.9077 34.4122C22.1538 34.6584 22.4738 34.7815 22.7692 34.7815C23.0646 34.7815 23.4092 34.6584 23.6308 34.4122C24.1231 33.9199 24.1231 33.1569 23.6308 32.6646L17.4769 26.5107C16.9846 26.0184 16.2215 26.0184 15.7292 26.5107C15.2369 27.003 15.2369 27.7661 15.7292 28.2584L21.9077 34.4122Z" fill="#8569B4"/>
<path d="M36.3077 34.7815C36.6277 34.7815 36.9477 34.6584 37.1692 34.4122L43.3231 28.2584C43.8154 27.7661 43.8154 27.003 43.3231 26.5107C42.8308 26.0184 42.0677 26.0184 41.5754 26.5107L35.4215 32.6646C34.9292 33.1569 34.9292 33.9199 35.4215 34.4122C35.6677 34.6584 35.9877 34.7815 36.3077 34.7815Z" fill="#8569B4"/>
<path d="M41.6 54.7938C41.8462 55.04 42.1662 55.1631 42.4615 55.1631C42.7569 55.1631 43.1015 55.04 43.3231 54.7938C43.8154 54.3015 43.8154 53.5385 43.3231 53.0462L37.1692 46.8923C36.6769 46.4 35.9138 46.4 35.4215 46.8923C34.9292 47.3846 34.9292 48.1477 35.4215 48.64L41.6 54.7938Z" fill="#8569B4"/>
<path d="M21.9077 46.917L15.7538 53.0708C15.2615 53.5631 15.2615 54.3262 15.7538 54.8185C16 55.0647 16.32 55.1877 16.6154 55.1877C16.9107 55.1877 17.2554 55.0647 17.4769 54.8185L23.6307 48.6647C24.123 48.1723 24.123 47.4093 23.6307 46.917C23.1384 46.4247 22.3754 46.4247 21.9077 46.917Z" fill="#8569B4"/>
<path d="M29.5384 32C30.2277 32 30.7692 31.4584 30.7692 30.7692V25.8461C30.7692 25.1569 30.2277 24.6154 29.5384 24.6154C28.8492 24.6154 28.3077 25.1569 28.3077 25.8461V30.7692C28.3077 31.4584 28.8492 32 29.5384 32Z" fill="#8569B4"/>
<path d="M29.5384 56.6153C30.2277 56.6153 30.7692 56.0738 30.7692 55.3846V50.4615C30.7692 49.7723 30.2277 49.2307 29.5384 49.2307C28.8492 49.2307 28.3077 49.7723 28.3077 50.4615V55.3846C28.3077 56.0738 28.8492 56.6153 29.5384 56.6153Z" fill="#8569B4"/>
<path d="M38.1538 40.6154C38.1538 41.3046 38.6953 41.8462 39.3846 41.8462H44.3077C44.9969 41.8462 45.5384 41.3046 45.5384 40.6154C45.5384 39.9262 44.9969 39.3846 44.3077 39.3846H39.3846C38.6953 39.3846 38.1538 39.9262 38.1538 40.6154Z" fill="#8569B4"/>
<path d="M14.7692 41.8462H19.6923C20.3815 41.8462 20.9231 41.3046 20.9231 40.6154C20.9231 39.9262 20.3815 39.3846 19.6923 39.3846H14.7692C14.08 39.3846 13.5385 39.9262 13.5385 40.6154C13.5385 41.3046 14.08 41.8462 14.7692 41.8462Z" fill="#8569B4"/>
</svg>
