<svg width="321" height="240" viewBox="0 0 321 240" fill="none" xmlns="http://www.w3.org/2000/svg">
<g clip-path="url(#clip0)">
<path d="M58 173C108 139 385 120 410 139C435 158 410 231 410 231H26C26 231 7.99996 207 58 173Z" fill="#E2D9F2" fill-opacity="0.78"/>
<path d="M120.622 164.672C176.196 40.8527 399.649 114.603 386.438 241H245.552C245.552 241 102.278 205.544 120.622 164.672Z" fill="#C7B3E9" fill-opacity="0.78"/>
<path d="M264.202 122.077C260.947 130.387 257.284 138.54 253.271 146.51C253.271 146.51 191.078 146.51 191.068 146.51C181.763 146.51 173.987 150.754 166.013 155.16C161.245 157.792 156.243 159.932 151.245 162.088C143.297 165.515 135.196 168.603 126.965 171.298C128.142 185.835 130.989 198.346 134.851 206.839C140.089 206.845 145.327 206.714 150.565 206.541C151.429 206.515 151.455 206.881 151.319 207.624C151.245 208.027 151.209 208.435 151.151 208.838C150.994 209.99 150.832 211.146 150.675 212.297C150.241 215.463 149.801 218.634 149.367 221.8C148.587 227.452 147.807 233.108 147.028 238.76C146.97 239.178 146.913 239.592 146.855 240.01H290.136V193.182C290.199 193.208 290.262 193.234 290.324 193.26C290.084 193.155 293.04 180.963 293.271 179.785C294.176 175.217 294.987 170.633 295.709 166.039C297.064 157.378 298.08 148.66 298.749 139.916C281.099 137.792 267.441 130.811 264.202 122.077Z" fill="#DA1F47"/>
<path d="M307.902 19.304C307.891 19.8011 307.839 20.3035 307.739 20.8059L305.934 29.7017C305.819 30.2721 305.646 30.8163 305.421 31.3344C305.411 31.3658 305.395 31.3972 305.379 31.4286C305.17 31.8995 304.919 32.3443 304.626 32.7629C304.495 32.9461 304.364 33.1292 304.223 33.3019C303.485 32.8728 302.742 32.449 301.994 32.0303C297.363 30.696 292.826 29.168 288.383 27.4568C285.824 26.473 283.297 25.4265 280.806 24.3223L281.193 22.4176L281.198 22.3966L281.381 21.4861L282.554 15.7091C283.255 15.8503 283.878 15.9236 284.432 15.9393C285.217 15.9602 285.871 15.8608 286.415 15.6724C286.62 15.6044 286.803 15.5207 286.981 15.4317C287.509 15.9812 288.205 16.3789 289.006 16.5411C291.12 16.9702 293.202 15.5887 293.632 13.4746L294.291 10.2093L294.406 9.6337L294.453 9.64416L294.338 10.225L293.553 14.0869C293.475 15.9759 294.783 17.7132 296.693 18.1005C298.807 18.5296 300.89 17.1481 301.319 15.034L301.868 12.3129L301.983 11.7478L302.083 11.2454C302.098 11.2507 302.114 11.2559 302.13 11.2611L302.03 11.7635L301.915 12.3286L301.24 15.641C301.156 17.5353 302.47 19.2726 304.38 19.6599C305.683 19.9267 306.97 19.5029 307.87 18.6447C307.902 18.854 307.907 19.079 307.902 19.304Z" fill="#FCD5B6"/>
<path d="M288.393 27.4464C285.835 26.4626 283.307 25.416 280.816 24.3119C280.152 24.0188 279.492 23.7206 278.833 23.4171L278.252 21.8367L278.032 21.2402L277.541 19.9006L275.217 13.5688C274.558 11.7635 275.489 9.74882 277.295 9.08948L278.106 8.79121C279.911 8.13187 281.926 9.06332 282.585 10.8687L284.443 15.9288L287.347 23.8409L287.378 23.9351L287.776 25.0235L288.179 26.1277C288.341 26.562 288.409 27.012 288.393 27.4464Z" fill="#FCD5B6"/>
<path d="M320.843 15.7614C320.45 17.2423 320.047 18.7127 319.628 20.1779C318.749 23.2653 317.807 26.3161 316.813 29.3145C316.159 31.2768 315.484 33.2234 314.783 35.1491C314.511 35.0968 314.244 35.0392 313.972 34.9817C312.883 34.7567 311.805 34.5212 310.727 34.2752C310.147 34.1444 309.571 34.0084 308.995 33.8671C307.535 33.5165 306.081 33.1449 304.636 32.7577C303.757 32.5222 302.878 32.2763 302.004 32.0251C297.373 30.6907 292.836 29.1627 288.394 27.4516C285.835 26.4678 283.307 25.4212 280.816 24.3171C280.152 24.0241 279.492 23.7258 278.833 23.4223C277.211 22.6792 275.599 21.91 274.003 21.1198C273.208 20.7274 272.418 20.3244 271.633 19.9215C270.597 19.3878 269.571 18.8435 268.55 18.2941C268.488 18.2575 268.42 18.2208 268.357 18.1894C266.693 17.2894 265.05 16.3579 263.422 15.4055C266.64 11.1722 269.728 6.65097 272.653 1.8472C273.166 2.08791 273.684 2.32862 274.202 2.5641C274.83 2.85191 275.458 3.13448 276.091 3.41706C279.236 4.809 282.433 6.11198 285.678 7.31031C285.678 7.31031 285.678 7.31031 285.683 7.31031C286.054 7.44636 286.426 7.58242 286.803 7.71847C286.818 7.7237 286.834 7.72893 286.85 7.73417L285.876 12.517C285.829 13.6159 286.248 14.6625 286.986 15.4265C287.514 15.9759 288.21 16.3736 289.011 16.5358C291.125 16.9649 293.208 15.5835 293.637 13.4694L294.296 10.2041C294.312 10.2093 294.328 10.2145 294.343 10.2198L293.558 14.0816C293.48 15.9707 294.788 17.708 296.698 18.0952C298.812 18.5243 300.895 17.1429 301.324 15.0288L301.873 12.3077C301.889 12.3129 301.905 12.3182 301.92 12.3182L301.245 15.6306C301.162 17.5249 302.475 19.2622 304.385 19.6494C305.688 19.9163 306.975 19.4924 307.875 18.6342C308.435 18.1005 308.844 17.3993 309.011 16.5829L309.409 14.6101L309.471 14.3066L309.534 14.0031C309.55 14.0084 309.566 14.0084 309.581 14.0136C310.523 14.1968 311.465 14.3694 312.412 14.5369C315.207 15.0235 318.012 15.4317 320.843 15.7614Z" fill="#2C285D"/>
<path d="M317.813 18.5348C317.755 18.6604 317.698 18.786 317.64 18.9063C315.327 23.9247 313.119 28.8331 311.015 33.6211C310.916 33.8409 310.822 34.0555 310.727 34.2753C310.628 34.5055 310.529 34.7305 310.429 34.9608C310.183 35.5207 309.942 36.0754 309.702 36.63C307.902 35.4788 306.075 34.3642 304.233 33.2915C303.496 32.8624 302.752 32.4385 302.004 32.0199C297.389 29.4401 292.648 27.101 287.781 25.0183C285.662 24.1078 283.516 23.2496 281.35 22.4385C281.303 22.4228 281.261 22.4071 281.214 22.3862C280.162 21.9937 279.105 21.6117 278.043 21.2402C276.002 20.5285 273.94 19.864 271.863 19.236C270.769 18.9063 269.67 18.5871 268.566 18.2836C268.493 18.2627 268.425 18.2418 268.352 18.2261C268.357 18.2104 268.362 18.1947 268.367 18.179C270.094 13.1502 271.983 7.92779 274.029 2.51701C274.092 2.52748 274.15 2.54318 274.212 2.55364C274.898 2.69493 275.583 2.84145 276.269 2.9932C279.969 3.81476 283.611 4.75145 287.195 5.81372C287.211 5.81895 287.227 5.82418 287.242 5.82942L286.886 7.57196L286.855 7.71848L285.882 12.5013C285.835 13.6002 286.253 14.6468 286.991 15.4108C287.52 15.9602 288.216 16.3579 289.016 16.5202C291.13 16.9492 293.213 15.5678 293.642 13.4537L294.301 10.1884L294.417 9.61278L294.448 9.44532L294.694 8.2313C294.71 8.23653 294.725 8.24177 294.741 8.247L294.495 9.45579L294.464 9.61801L294.349 10.1989L293.564 14.0607C293.485 15.9498 294.793 17.6871 296.703 18.0743C298.817 18.5034 300.9 17.1219 301.329 15.0079L301.879 12.2868L301.994 11.7216L302.093 11.2193L302.125 11.0623C302.14 11.0675 302.156 11.0727 302.166 11.0832L302.135 11.235L302.036 11.7373L301.92 12.3025L301.245 15.6149C301.162 17.5092 302.475 19.2465 304.385 19.6337C305.688 19.9006 306.975 19.4767 307.875 18.6185C308.435 18.0848 308.844 17.3836 309.011 16.5672L309.409 14.5945L309.472 14.291C309.487 14.2962 309.503 14.3067 309.513 14.3119C312.329 15.6515 315.092 17.0539 317.813 18.5348Z" fill="#675890"/>
<path d="M310.105 10.8477C310.105 11.1041 310.078 11.3658 310.026 11.6222L309.984 11.8158L309.66 13.4066L309.539 14.0031L309.477 14.3066L309.414 14.6102L309.016 16.5829C308.854 17.394 308.446 18.1005 307.881 18.6342C306.981 19.4924 305.693 19.9163 304.39 19.6494C302.48 19.2622 301.167 17.5249 301.251 15.6306L301.926 12.3182L302.041 11.753L302.14 11.2507L302.172 11.0989L302.219 10.8687C302.219 10.8582 302.224 10.8477 302.229 10.8373C302.261 10.6907 302.297 10.5495 302.344 10.4134L302.318 10.4029L302.501 9.48718C303.161 7.70801 305.044 6.61434 306.96 7.00681C308.817 7.37311 310.105 9.02146 310.105 10.8477Z" fill="#FCD5B6"/>
<path d="M319.984 17.6347L319.09 19.8221L313.082 34.4689L311.015 33.6211L305.426 31.3291L304.867 31.0989L287.384 23.9299L286.813 23.6944L281.402 21.4757L277.551 19.9006L272.35 17.7656L270.523 17.0173L276.102 3.4066L276.269 2.99843L277.42 0.188385L287.499 4.32235L287.546 4.34328L287.242 5.84511L286.886 7.58765L286.855 7.73417L285.882 12.517C285.835 13.6159 286.253 14.6625 286.991 15.4265C287.52 15.9759 288.216 16.3736 289.016 16.5358C291.13 16.9649 293.213 15.5835 293.642 13.4694L294.301 10.2041L294.417 9.62847L294.448 9.46102L294.694 8.24699L294.877 7.34171L294.924 7.35741L294.741 8.25746L294.495 9.46625L294.464 9.62847L294.349 10.2093L293.564 14.0712C293.485 15.9602 294.793 17.6975 296.703 18.0848C298.817 18.5139 300.9 17.1324 301.329 15.0183L301.879 12.2972L301.994 11.7321L302.093 11.2297L302.125 11.0727L302.266 10.3715L302.313 10.3925L302.339 10.4029C302.292 10.539 302.255 10.6803 302.224 10.8268C302.219 10.8373 302.219 10.8477 302.214 10.8582L302.166 11.0884L302.135 11.2402L302.036 11.7425L301.92 12.3077L301.245 15.6201C301.162 17.5144 302.475 19.2517 304.385 19.6389C305.688 19.9058 306.975 19.4819 307.875 18.6238C308.435 18.09 308.844 17.3888 309.011 16.5725L309.409 14.5997L309.472 14.2962L309.534 13.9927L309.655 13.3961L309.702 13.4118L312.412 14.5264L319.984 17.6347Z" fill="#2C285D"/>
<path d="M320.853 21.0152C319.461 23.9247 318.116 26.6824 316.813 29.3145C315.845 31.2664 314.898 33.1554 313.972 34.9817C313.621 35.6777 313.271 36.3632 312.925 37.0382C312.098 36.3108 311.266 35.6201 310.429 34.9555C309.953 34.584 309.477 34.2177 308.995 33.8619C307.802 32.988 306.604 32.1716 305.39 31.4181C305.217 31.3082 305.039 31.1983 304.867 31.0937C299.226 27.6609 293.339 25.4317 287.347 23.8357C287.169 23.7886 286.991 23.7415 286.808 23.6944C284.997 23.2235 283.176 22.8101 281.35 22.4333C281.303 22.4228 281.256 22.4124 281.209 22.4071C280.23 22.2083 279.246 22.0199 278.263 21.8367C276.85 21.5803 275.432 21.3396 274.014 21.1146C273.14 20.9733 272.266 20.8373 271.392 20.7064C271.476 20.4396 271.559 20.1779 271.643 19.9163C271.716 19.6913 271.79 19.4663 271.863 19.2412C272.025 18.7494 272.187 18.2575 272.35 17.7708C273.794 13.4903 275.374 9.38253 277.07 5.35323C279.963 6.01257 282.841 6.64574 285.688 7.29985C285.688 7.29985 285.688 7.29985 285.693 7.29985C286.075 7.38881 286.457 7.47777 286.845 7.56673C286.86 7.57196 286.876 7.57196 286.892 7.57719L286.86 7.72371L285.887 12.5065C285.84 13.6055 286.259 14.652 286.996 15.416C287.525 15.9655 288.221 16.3632 289.021 16.5254C291.136 16.9545 293.218 15.573 293.647 13.4589L294.307 10.1936L294.422 9.61801L294.453 9.45056C294.469 9.45579 294.485 9.46102 294.5 9.46102L294.469 9.62324L294.354 10.2041L293.569 14.0659C293.49 15.955 294.799 17.6923 296.709 18.0795C298.823 18.5086 300.905 17.1272 301.334 15.0131L301.884 12.292L301.999 11.7269C302.015 11.7321 302.03 11.7373 302.046 11.7426L301.931 12.3077L301.256 15.6201C301.172 17.5144 302.486 19.2517 304.396 19.6389C305.699 19.9058 306.986 19.482 307.886 18.6238C308.446 18.09 308.854 17.3888 309.021 16.5725L309.419 14.5997C309.435 14.6049 309.451 14.6102 309.466 14.6206C312.245 15.8556 314.971 17.2632 317.64 18.9011C318.127 19.1994 318.608 19.5029 319.089 19.8169C319.267 19.932 319.451 20.0523 319.634 20.1727C320.042 20.45 320.45 20.7274 320.853 21.0152Z" fill="#675890"/>
<path d="M295.379 4.89796C295.369 5.09681 295.348 5.3009 295.306 5.50498L295.259 5.72476L294.982 7.09053C294.982 7.101 294.976 7.10623 294.976 7.11147L294.924 7.36264L294.741 8.2627L294.495 9.47149L294.464 9.6337L294.349 10.2146L293.564 14.0764L293.527 14.2648C293.098 16.3789 291.015 17.7603 288.901 17.3312C287.849 17.1167 286.981 16.494 286.421 15.662C285.861 14.8195 285.62 13.7677 285.835 12.7054L285.877 12.5118C285.829 13.6107 286.248 14.6573 286.986 15.4213C287.514 15.9707 288.21 16.3684 289.011 16.5306C291.125 16.9597 293.208 15.5782 293.637 13.4642L294.296 10.1989L294.411 9.62324L294.443 9.45579L294.689 8.24176L294.872 7.33648L295.081 6.30037C295.081 6.29514 295.081 6.28991 295.086 6.28467L295.379 4.89796Z" fill="#2C285D"/>
<path d="M294.929 7.36787L294.746 8.26793L294.929 7.36787Z" fill="#D6AE92"/>
<path d="M302.742 8.05861C302.732 8.26269 302.711 8.46154 302.669 8.67085L302.507 9.48195L302.323 10.3977L302.234 10.832C302.229 10.8425 302.229 10.853 302.224 10.8634L302.177 11.0937L302.146 11.2454L302.046 11.7478L301.931 12.3129L301.256 15.6253L301.214 15.8189C300.785 17.933 298.702 19.3145 296.588 18.8854C294.474 18.4563 293.093 16.3736 293.522 14.2596L293.558 14.0712C293.48 15.9602 294.788 17.6975 296.698 18.0848C298.812 18.5139 300.895 17.1324 301.324 15.0183L301.873 12.2972L301.988 11.7321L302.088 11.2297L302.119 11.0727L302.261 10.3715L302.323 10.0576L302.742 8.05861Z" fill="#2C285D"/>
<path d="M309.99 11.821C309.979 12.0199 309.958 12.224 309.916 12.4281L309.712 13.4275L309.592 14.0188L309.529 14.3328L309.466 14.6363L308.906 17.3888C308.755 18.1371 308.394 18.7912 307.902 19.3093C307.002 20.2512 305.646 20.7326 304.28 20.4553C302.166 20.0262 300.785 17.9435 301.214 15.8294L301.256 15.6358C301.172 17.5301 302.486 19.2674 304.396 19.6546C305.699 19.9215 306.986 19.4977 307.886 18.6395C308.446 18.1057 308.854 17.4045 309.021 16.5882L309.419 14.6154L309.482 14.3119L309.545 14.0084L309.665 13.4118L309.99 11.821Z" fill="#2C285D"/>
<path d="M295.5 3.92466C295.5 4.18107 295.474 4.44271 295.421 4.69912L295.379 4.89274L295.097 6.28991C295.097 6.29514 295.097 6.30037 295.092 6.30561L294.882 7.34171L294.699 8.247L294.453 9.46102L294.422 9.62847L294.307 10.2041L293.647 13.4694C293.218 15.5835 291.136 16.9649 289.021 16.5359C288.221 16.3736 287.525 15.9759 286.996 15.4265C286.258 14.6625 285.835 13.6211 285.887 12.517L286.86 7.73418L286.892 7.58766L287.247 5.84512L287.551 4.34328L287.504 4.32235L287.739 3.15019C288.168 1.03612 290.251 -0.34536 292.365 0.083735C294.207 0.455268 295.5 2.09839 295.5 3.92466Z" fill="#FCD5B6"/>
<path d="M287.493 4.31711L287.541 4.33804L287.237 5.83987L286.881 7.58241L286.85 7.72893L285.876 12.5118C285.887 12.3129 285.908 12.1088 285.95 11.9048L286.803 7.708L286.834 7.56672L287.19 5.81894L287.493 4.31711Z" fill="#FCD5B6"/>
<path d="M294.307 10.2041L293.642 13.4642L294.301 10.2041H294.307Z" fill="#FCD5B6"/>
<path d="M302.862 7.09575C302.862 7.35217 302.836 7.61381 302.784 7.87545L302.747 8.06383L302.344 10.068L302.282 10.382L302.14 11.0832L302.109 11.2402L302.009 11.7425L301.894 12.3077L301.345 15.0288C300.916 17.1428 298.833 18.5243 296.719 18.0952C294.809 17.708 293.501 15.9707 293.579 14.0816L294.364 10.2198L294.479 9.63893L294.511 9.47671L294.757 8.26792L294.94 7.36786L294.992 7.11669C294.992 7.10622 294.997 7.10099 294.997 7.09575L295.275 5.72998C295.934 3.95604 297.818 2.86237 299.733 3.2496C301.57 3.62113 302.862 5.26949 302.862 7.09575Z" fill="#FCD5B6"/>
<path d="M258.456 110.994C257.216 112.234 255.61 112.883 253.987 112.936C254.851 124.129 254.506 135.317 252.957 146.51C232.883 156.641 212.805 156.641 192.732 146.51C191.177 135.311 190.832 124.113 191.701 112.92C192.036 108.613 192.543 104.301 193.239 99.9948C194.788 90.3349 197.237 80.6751 200.591 71.0152C215.432 63.527 230.267 63.527 245.107 71.0152C248.435 80.607 250.874 90.1989 252.423 99.7907C254.537 99.3564 256.824 99.9582 258.462 101.601C261.052 104.192 261.052 108.399 258.456 110.994Z" fill="#FCD5B6"/>
<path d="M295.259 5.72475L294.982 7.09052C294.982 7.10099 294.976 7.10622 294.976 7.11146L294.924 7.36263L294.741 8.26268L294.495 9.47148L294.464 9.63369L294.349 10.2145L293.564 14.0764C293.574 13.8723 293.595 13.6682 293.637 13.4641L294.296 10.1988L294.411 9.62323L294.443 9.45578L294.689 8.24175L294.872 7.33647L295.081 6.30036C295.081 6.29513 295.081 6.2899 295.086 6.28466C295.139 6.10151 295.191 5.9079 295.259 5.72475Z" fill="#FCD5B6"/>
<path d="M302.318 10.3977L302.344 10.4082C302.297 10.5442 302.261 10.6855 302.229 10.832C302.224 10.8425 302.224 10.853 302.219 10.8634L302.172 11.0937L302.14 11.2454L302.041 11.7478L301.926 12.3129L301.251 15.6253C301.261 15.4265 301.282 15.2224 301.324 15.0235L301.873 12.3025L301.988 11.7373L302.088 11.235L302.119 11.078L302.261 10.3768L302.323 10.0628C302.365 9.86395 302.418 9.67033 302.491 9.48195L302.318 10.3977Z" fill="#FCD5B6"/>
<path d="M207.745 103.59C207.033 103.59 206.447 103.009 206.447 102.292V97.1115C206.447 96.3998 207.028 95.8137 207.745 95.8137C208.456 95.8137 209.042 96.3946 209.042 97.1115V102.292C209.037 103.009 208.456 103.59 207.745 103.59Z" fill="black"/>
<path d="M229.482 103.59C228.77 103.59 228.184 103.009 228.184 102.292V97.1115C228.184 96.3998 228.765 95.8137 229.482 95.8137C230.194 95.8137 230.78 96.3946 230.78 97.1115V102.292C230.78 103.009 230.194 103.59 229.482 103.59Z" fill="black"/>
<path d="M220.256 135.113C214.71 135.113 210.895 133.998 208.598 131.706C208.404 131.518 208.373 131.162 208.519 130.916C208.666 130.67 208.943 130.628 209.137 130.816C211.277 132.946 214.914 133.982 220.256 133.982C226.285 133.982 230.089 133.025 232.977 130.78C233.187 130.617 233.454 130.701 233.579 130.968C233.705 131.235 233.637 131.58 233.433 131.743C230.398 134.103 226.457 135.113 220.256 135.113Z" fill="#E2AB86"/>
<path d="M194.851 101.79C194.851 101.79 198.561 84.2805 206.013 79.843C213.464 75.4055 194.851 76.5306 194.851 76.5306C194.851 76.5306 191.481 95.0497 192.214 100.471C192.941 105.892 194.851 101.79 194.851 101.79Z" fill="#000099"/>
<path d="M193.234 99.9895C192.543 104.296 192.03 108.608 191.695 112.915C189.812 113.077 187.87 112.439 186.426 110.994C183.83 108.399 183.83 104.192 186.426 101.596C188.268 99.754 190.921 99.2203 193.234 99.9895Z" fill="#FCD5B6"/>
<path d="M232.37 71.9519C232.37 71.9519 216.688 84.3485 198.953 78.3412C181.219 72.3339 173.448 47.708 185.175 33.9299C191.915 42.8728 196.902 48.8802 211.852 44.9241C226.803 40.9681 227.975 49.0267 229.88 52.3966C231.784 55.7666 232.957 59.8692 241.02 58.1109C249.084 56.3527 255.824 55.4736 253.773 61.4809C251.722 67.4882 251.136 72.1926 252.308 77.4621C253.48 82.7316 255.453 95.8346 253.762 99.6442C249.775 100.162 251.177 109.555 249.257 109.555C247.336 109.555 250.047 86.5777 242.496 83.3072C234.976 80.0628 234.861 83.8828 232.37 71.9519Z" fill="#0000CC"/>
<path d="M21.664 186.525C21.664 186.614 21.6588 186.709 21.6536 186.792L22.1298 186.724L21.664 186.525Z" fill="#FCD5B6"/>
<path d="M36.6824 184.919C36.3998 184.71 36.1067 184.516 35.798 184.343C35.9916 184.532 36.1591 184.741 36.3004 184.961L36.6824 184.919Z" fill="#FCD5B6"/>
<path d="M30.696 197.577C30.3872 195.442 28.3883 193.946 26.2533 194.254L25.798 194.322C27.3208 194.683 28.5453 195.945 28.7808 197.577C29.0895 199.712 27.5981 201.711 25.4579 202.02C25.9602 201.947 26.4521 201.973 26.9179 202.088L27.3731 202.02C29.5081 201.711 31.0047 199.712 30.696 197.577Z" fill="#D6AE92"/>
<path d="M24.0659 210.147L19.6599 210.785C19.9529 210.853 20.2512 210.89 20.5599 210.89C20.7431 210.89 20.9315 210.874 21.1198 210.848L28.4982 209.78C28.9168 209.717 29.3093 209.597 29.6703 209.414L25.2224 210.058C24.8352 210.12 24.4479 210.147 24.0659 210.147Z" fill="#D6AE92"/>
<path d="M31.8158 205.343C31.5071 203.208 29.5081 201.711 27.3731 202.02L26.9178 202.088C28.4406 202.449 29.6651 203.71 29.9006 205.343C30.2093 207.478 28.7179 209.477 26.5777 209.785L24.0607 210.152C24.4427 210.152 24.8299 210.12 25.2172 210.068L29.6651 209.424C31.146 208.687 32.067 207.059 31.8158 205.343Z" fill="#D6AE92"/>
<path d="M15.8713 203.391C15.8713 203.396 15.8713 203.401 15.8765 203.407L15.9131 203.401C15.8974 203.396 15.8817 203.396 15.8713 203.391Z" fill="#FCD5B6"/>
<path d="M24.3328 194.254L14.741 195.641L14.7514 195.719L24.898 194.254C24.966 194.244 25.0288 194.233 25.0968 194.218C24.8456 194.207 24.5944 194.218 24.3328 194.254Z" fill="#FCD5B6"/>
<path d="M36.6824 184.919L36.3004 184.961C36.1591 184.736 35.9916 184.532 35.798 184.343C35.505 184.055 35.1491 183.815 34.7514 183.642L19.8325 177.19C18.0691 176.426 16.0021 177.247 15.2433 179.011L14.9032 179.801C14.1392 181.565 14.9607 183.632 16.7242 184.39L21.6693 186.531L22.1298 186.729L21.6536 186.797L3.35949 189.445C1.22448 189.754 -0.272117 191.753 0.0366223 193.888C0.319197 195.835 2.00418 197.247 3.91941 197.247C4.10256 197.247 4.29094 197.232 4.47932 197.206L13.5583 195.892C11.8472 196.51 10.7326 198.278 11.0047 200.147C11.2873 202.093 12.9775 203.506 14.8875 203.506C15.0706 203.506 15.259 203.49 15.4474 203.464L15.866 203.401C15.866 203.396 15.866 203.391 15.8608 203.386C15.8713 203.391 15.887 203.391 15.8974 203.396L15.8608 203.401C15.9027 203.621 15.955 203.836 16.0126 204.045C15.0706 204.893 14.5526 206.18 14.7462 207.525C15.0288 209.471 16.7138 210.884 18.629 210.884C18.8121 210.884 19.0005 210.869 19.1889 210.842L19.6442 210.774L24.0502 210.136L26.5672 209.77C28.7022 209.461 30.1988 207.462 29.8901 205.327C29.6546 203.694 28.4249 202.433 26.9074 202.072L19.9843 203.077L17.3574 203.459C17.169 203.485 16.9806 203.501 16.7975 203.501H16.7922C17.1795 203.291 17.6086 203.145 18.0691 203.082L25.4474 202.015C27.5824 201.706 29.079 199.707 28.7703 197.572C28.5348 195.939 27.3051 194.678 25.7875 194.317L26.2428 194.249C28.3778 193.94 30.3768 195.432 30.6855 197.572C30.9942 199.707 29.5029 201.706 27.3626 202.015C29.4976 201.706 31.4966 203.202 31.8053 205.337C32.0513 207.054 31.1355 208.687 29.6599 209.414L34.1915 208.76C37.3836 208.299 39.9058 206.049 40.8739 203.171L41.303 203.187L36.8655 184.887L36.6824 184.919ZM24.898 194.254L14.7514 195.719L14.741 195.641L24.3328 194.254C24.5892 194.218 24.8456 194.207 25.0968 194.218C25.034 194.233 24.966 194.244 24.898 194.254Z" fill="#FCD5B6"/>
<path d="M25.4579 202.02L18.0795 203.087C17.619 203.155 17.19 203.297 16.8027 203.506H16.808C16.9911 203.506 17.1795 203.49 17.3679 203.464L19.9948 203.082L26.9178 202.077C26.4521 201.973 25.9602 201.947 25.4579 202.02Z" fill="#FCD5B6"/>
<path d="M298.755 139.911C298.791 139.451 298.828 138.995 298.864 138.535C299.754 126.269 299.649 113.977 299.869 101.69C300.031 92.5903 300.194 83.4903 300.356 74.3904C300.523 64.9974 300.691 55.6044 300.858 46.2166C300.921 42.7106 300.984 39.1994 301.047 35.6933C302.282 35.1648 303.38 34.3433 304.239 33.3019C303.501 32.8728 302.758 32.449 302.009 32.0303C297.378 30.696 292.841 29.168 288.399 27.4568C285.84 26.473 283.312 25.4265 280.822 24.3223C280.157 24.0293 279.498 23.731 278.838 23.4275L280.822 28.8331C280.973 29.2412 281.193 29.6075 281.465 29.9215C281.873 30.7483 282.418 31.5018 283.072 32.1559C282.261 37.0434 281.444 41.9309 280.633 46.8184C279.016 56.5463 277.394 66.2794 275.777 76.0073C274.579 83.2077 273.485 90.4343 272.182 97.6138C270.691 105.829 267.378 113.961 264.354 121.716C264.307 121.842 264.254 121.962 264.207 122.083C267.441 130.811 281.099 137.792 298.755 139.911Z" fill="#FCD5B6"/>
<path d="M120.078 173.454C108.069 177.028 61.528 182.213 50.6593 183.396C46.0649 183.898 41.4704 184.396 36.8812 184.898L41.3187 203.197C41.6379 203.208 41.9623 203.223 42.2815 203.234C43.1816 203.271 44.0816 203.302 44.9817 203.339C46.3684 203.391 47.7603 203.448 49.147 203.501C50.9314 203.569 52.7159 203.637 54.5003 203.71C56.5882 203.789 58.6813 203.872 60.7692 203.951C63.0717 204.04 128.613 206.782 131.743 206.824C132.779 206.839 133.815 206.834 134.856 206.839C130.994 198.346 128.148 185.835 126.97 171.298C124.683 172.041 122.386 172.763 120.078 173.454Z" fill="#FCD5B6"/>
<path d="M101.238 121.305L112.543 130.69L123.848 121.305L135.152 130.69L146.457 121.305L157.762 130.69" stroke="#EB8F4D" stroke-miterlimit="10" stroke-linecap="round"/>
<path d="M218.807 121.941C218.796 122.48 218.284 122.852 217.76 122.716C216.525 122.402 214.84 122.669 213.59 122.501C212.036 122.292 211.868 119.628 212.36 115.997C212.773 112.93 217.059 106.918 218.744 104.851C218.906 104.652 219.22 104.772 219.215 105.029L218.21 110.147C217.572 113.396 217.624 116.745 218.362 119.974L218.807 121.941Z" fill="#E2AB86"/>
</g>
<defs>
<clipPath id="clip0">
<rect width="320.853" height="240" fill="white"/>
</clipPath>
</defs>
</svg>
