<svg width="33" height="32" viewBox="0 0 33 32" fill="none" xmlns="http://www.w3.org/2000/svg">
<rect x="0.5" width="32" height="32" rx="8" fill="#F0EAFB"/>
<path d="M24.6107 9.14832C24.7641 9.21291 24.8933 9.26972 24.9958 9.31599C24.9919 9.511 24.9842 9.78979 24.9692 10.1345C24.9383 10.8449 24.8765 11.8334 24.7531 12.9448C24.5043 15.1836 24.0112 17.8595 23.0528 19.7764C22.1025 21.6771 20.5469 23.1203 19.2059 24.0956C18.5384 24.5811 17.9315 24.9452 17.4928 25.1872C17.2876 25.3005 17.1196 25.3867 17 25.446C16.8804 25.3867 16.7125 25.3005 16.5072 25.1872C16.0685 24.9452 15.4616 24.5811 14.7941 24.0956C13.4531 23.1203 11.8975 21.6771 10.9472 19.7764C9.98876 17.8595 9.4957 15.1836 9.24695 12.9448C9.12346 11.8334 9.06167 10.8449 9.03079 10.1345C9.0158 9.78979 9.00811 9.511 9.00417 9.31599C9.10674 9.26972 9.23594 9.21291 9.38936 9.14832C9.82335 8.96558 10.45 8.72099 11.2149 8.47621C12.7486 7.98544 14.8195 7.5 17 7.5C19.1805 7.5 21.2514 7.98544 22.7851 8.47621C23.55 8.72099 24.1767 8.96558 24.6107 9.14832Z" stroke="#A388D1"/>
<path d="M16.9333 23.5C16.9333 17.9 16.9333 13.2333 16.9333 9.5C20.1451 9.5 23 10.9737 23 10.9737C23 10.9737 23 16.1316 21.5725 19.0789C20.1451 22.0263 16.9333 23.5 16.9333 23.5Z" fill="#A388D1"/>
</svg>
