<svg width="33" height="32" viewBox="0 0 33 32" fill="none" xmlns="http://www.w3.org/2000/svg">
<rect x="0.5" width="32" height="32" rx="8" fill="#F0EAFB"/>
<path d="M9.65789 9H23.3421C24.1796 9 24.9829 9.31607 25.5751 9.87868C26.1673 10.4413 26.5 11.2044 26.5 12V21C26.5 21.7956 26.1673 22.5587 25.5751 23.1213C24.9829 23.6839 24.1796 24 23.3421 24H9.65789C8.82037 24 8.01715 23.6839 7.42493 23.1213C6.83271 22.5587 6.5 21.7956 6.5 21V12C6.5 11.2044 6.83271 10.4413 7.42493 9.87868C8.01715 9.31607 8.82037 9 9.65789 9ZM9.65789 10C9.09954 10 8.56406 10.2107 8.16925 10.5858C7.77444 10.9609 7.55263 11.4696 7.55263 12V13H25.4474V12C25.4474 11.4696 25.2256 10.9609 24.8308 10.5858C24.4359 10.2107 23.9005 10 23.3421 10H9.65789ZM7.55263 21C7.55263 21.5304 7.77444 22.0391 8.16925 22.4142C8.56406 22.7893 9.09954 23 9.65789 23H23.3421C23.9005 23 24.4359 22.7893 24.8308 22.4142C25.2256 22.0391 25.4474 21.5304 25.4474 21V16H7.55263V21ZM9.65789 20H13.8684V21H9.65789V20ZM15.9737 20H19.1316V21H15.9737V20ZM7.55263 14V15H25.4474V14H7.55263Z" fill="#A388D1"/>
</svg>
