<svg width="243" height="288" viewBox="0 0 243 288" fill="none" xmlns="http://www.w3.org/2000/svg">
<path d="M168.381 288C209.488 288 242.812 254.677 242.812 213.57C242.812 172.463 209.488 139.14 168.381 139.14C127.275 139.14 93.9513 172.463 93.9513 213.57C93.9513 254.677 127.275 288 168.381 288Z" fill="#B9B9EA"/>
<g style="mix-blend-mode:multiply">
<path d="M101.268 239.877L61.4326 229.3C40.9712 223.868 19.9545 236.627 15.7108 257.367C15.2054 259.84 14.9388 262.399 14.9388 265.021V287.445H160.05C148.121 263.942 126.741 246.641 101.268 239.877Z" fill="#8282D1"/>
</g>
<g style="mix-blend-mode:multiply">
<path d="M112.751 222.088L116.897 145.173C117.337 137.014 118.206 128.983 119.38 121.124C121.316 108.153 112.421 91.0227 96.5911 91.2338C71.9431 91.5629 50.7777 109.866 48.2671 149.706C46.2272 182.08 52.1302 205.465 58.4624 222.579C66.8177 245.165 59.9926 269.43 40.2131 287.443H147.831C138.984 227.72 131.641 239.276 112.751 222.088Z" fill="#B9B9EA"/>
</g>
<path d="M213.139 63.7433L208.315 63.4628C207.971 63.4433 207.707 63.1475 207.728 62.8032C207.748 62.4588 208.045 62.1949 208.388 62.2158L212.159 62.4352L213.128 58.2388L217.428 58.4887L218.397 54.2923L223.222 54.5714C223.567 54.5908 223.83 54.8866 223.81 55.231C223.79 55.5754 223.493 55.8378 223.15 55.8184L219.377 55.599L218.408 59.7954L214.109 59.5455L213.139 63.7433Z" fill="#EB8F4D"/>
<path d="M21.9749 73.8316C21.9194 73.8316 21.8638 73.8205 21.8097 73.7969C20.8363 73.3761 20.7113 72.3999 20.6016 71.5404C20.4933 70.6905 20.3905 70.1587 19.8892 69.9421C19.3879 69.7254 18.9311 70.0157 18.2381 70.5183C17.5355 71.028 16.7398 71.6056 15.7664 71.1849C14.793 70.7641 14.6694 69.7879 14.5597 68.9284C14.4514 68.0785 14.35 67.5467 13.8487 67.3301C13.3474 67.1134 12.8906 67.4037 12.1976 67.9063C11.495 68.416 10.7007 68.995 9.7259 68.5729C8.75248 68.1521 8.62889 67.1773 8.51919 66.3164C8.41088 65.4665 8.30951 64.9347 7.80822 64.7181C7.59714 64.6264 7.49994 64.382 7.59159 64.171C7.68324 63.9599 7.92764 63.8627 8.13871 63.9543C9.11213 64.3751 9.23572 65.3513 9.34681 66.2108C9.45512 67.0607 9.55649 67.5925 10.0578 67.8091C10.5591 68.0258 11.0159 67.7355 11.7088 67.2329C12.4115 66.7232 13.2072 66.1456 14.1806 66.5663C15.154 66.9871 15.2776 67.9633 15.3873 68.8228C15.4956 69.6727 15.597 70.2045 16.0983 70.4211C16.5996 70.6378 17.0564 70.3475 17.7493 69.8449C18.452 69.3352 19.2477 68.7576 20.2211 69.1783C21.1945 69.5991 21.3195 70.5753 21.4292 71.4348C21.5375 72.2847 21.6403 72.8165 22.1416 73.0331C22.3526 73.1248 22.4498 73.3692 22.3582 73.5802C22.2887 73.7372 22.136 73.8316 21.9749 73.8316Z" fill="#824DCE"/>
<path d="M145.315 19.2296C145.279 19.2296 145.242 19.224 145.204 19.2143C144.982 19.1532 144.851 18.9241 144.912 18.7019C145.194 17.6799 146.143 17.4202 146.98 17.1925C147.806 16.9675 148.319 16.7926 148.463 16.2649C148.607 15.7386 148.258 15.3262 147.663 14.7096C147.061 14.0848 146.377 13.3766 146.659 12.3545C146.94 11.3325 147.89 11.0728 148.727 10.8451C149.553 10.6201 150.065 10.4452 150.21 9.9189C150.354 9.39261 150.004 8.98019 149.409 8.36364C148.806 7.73876 148.123 7.03195 148.405 6.00854C148.685 4.98651 149.635 4.72684 150.472 4.49911C151.299 4.27415 151.811 4.09918 151.955 3.5729C152.016 3.35072 152.246 3.22158 152.468 3.28129C152.69 3.34239 152.82 3.57151 152.759 3.79369C152.479 4.81571 151.529 5.07538 150.692 5.30312C149.866 5.52808 149.353 5.70304 149.209 6.22933C149.064 6.75562 149.414 7.16804 150.01 7.78458C150.613 8.40946 151.296 9.11627 151.014 10.1397C150.732 11.1617 149.784 11.4214 148.946 11.6491C148.12 11.8741 147.608 12.049 147.463 12.5753C147.319 13.1016 147.669 13.514 148.263 14.1306C148.866 14.7555 149.549 15.4637 149.267 16.4857C148.985 17.5077 148.037 17.7674 147.199 17.9951C146.373 18.2201 145.861 18.395 145.716 18.9227C145.666 19.1074 145.498 19.2296 145.315 19.2296Z" fill="#E2B72D"/>
<path d="M165.167 188.951L171.024 287.445H70.9905L76.077 196.041C76.077 182.93 72.9276 177.289 82.0925 169.302C87.6289 164.477 94.3943 161.026 101.86 159.487C104.717 158.897 107.678 158.587 110.711 158.587H127.453C130.839 158.587 134.134 158.972 137.296 159.705C144.846 161.447 151.644 165.153 157.127 170.256C165.675 178.209 165.167 176.352 165.167 188.951Z" fill="#000099"/>
<path d="M154.999 67.5286C130.491 53.6119 105.984 53.6119 81.4759 67.5286C81.3121 72.8581 89.2494 70.5836 89.4855 75.9131C89.8924 85.0738 82.9882 101.839 84.5795 110.999C87.3734 127.095 91.9947 143.19 98.4435 159.287C111.64 166.78 124.837 166.78 138.033 159.287C150.286 128.7 155.942 98.1144 154.999 67.5286Z" fill="#FCD5B6"/>
<path d="M101.858 159.487C94.3929 161.027 87.6289 164.477 82.0911 169.302C72.436 168.355 64.1945 166.053 67.1356 160.744C78.6695 139.926 87.9441 79.668 87.9441 79.668C87.9441 79.668 91.3365 75.6868 90.5645 80.2845C85.4863 110.538 95.6718 143.322 101.858 159.487Z" fill="#BA3A3A"/>
<path d="M157.125 170.255C151.643 165.151 144.844 161.445 137.294 159.704C141.316 151.224 147.21 136.635 150.986 113.116C151.45 110.22 154.995 110.355 157.67 110.891C159.401 111.238 160.634 112.773 160.607 114.539C160.48 122.455 161.002 145.464 170.407 162.438C173.265 167.598 165.974 169.605 157.125 170.255Z" fill="#E0504C"/>
<path d="M106.804 100.786H107.156C108.035 100.786 108.753 101.504 108.753 102.383V106.588C108.753 107.465 108.035 108.185 107.156 108.185H106.804C105.927 108.185 105.207 107.465 105.207 106.588V102.383C105.207 101.504 105.927 100.786 106.804 100.786Z" fill="black"/>
<path d="M132.876 104.309V104.66C132.876 105.539 132.158 106.257 131.279 106.257H127.074C126.196 106.257 125.477 105.539 125.477 104.66V104.309C125.477 103.431 126.195 102.712 127.074 102.712H131.279C132.156 102.712 132.876 103.431 132.876 104.309Z" fill="black"/>
<path d="M117.23 123.253C114.574 123.253 112.413 121.066 112.413 118.377C112.413 115.689 114.574 113.502 117.23 113.502C117.613 113.502 117.924 113.813 117.924 114.196C117.924 114.579 117.613 114.89 117.23 114.89C115.339 114.89 113.802 116.454 113.802 118.377C113.802 120.3 115.34 121.864 117.23 121.864C117.613 121.864 117.924 122.175 117.924 122.558C117.924 122.942 117.613 123.253 117.23 123.253Z" fill="#E5AB83"/>
<path d="M116.498 143.097C111.68 143.097 108.361 141.823 106.353 139.202C106.12 138.898 106.178 138.462 106.482 138.229C106.786 137.996 107.222 138.054 107.456 138.358C109.184 140.613 112.142 141.71 116.5 141.71C121.447 141.71 124.561 140.688 126.91 138.294C127.18 138.021 127.618 138.016 127.892 138.284C128.166 138.552 128.17 138.993 127.902 139.266C125.299 141.916 121.783 143.097 116.498 143.097Z" fill="#E5AB83"/>
<path d="M150.006 118.148C152.462 120.604 156.446 120.604 158.903 118.148C161.359 115.692 161.359 111.708 158.903 109.251C156.446 106.795 152.462 106.795 150.006 109.251" fill="#FCD5B6"/>
<path d="M96.4772 109.714C94.0207 107.257 90.0368 107.257 87.5803 109.714C85.1239 112.17 85.1239 116.154 87.5803 118.61C90.0368 121.067 94.0207 121.067 96.4772 118.61V109.714Z" fill="#FCD5B6"/>
<path d="M146.516 78.128C140.689 73.4275 121.751 76.2991 114.629 78.6015C106.586 81.2024 92.6488 82.0328 84.8253 78.6154C77.0018 75.198 66.8288 52.5398 92.1058 42.6751C119.635 31.9327 136.926 60.5105 148.212 60.8632C177.806 61.7881 159.629 103.626 159.926 110.495C159.155 109.262 156.073 106.642 153.298 108.646C149.763 111.199 152.75 113.886 150.678 113.886C148.046 113.886 155.456 90.1493 145.129 85.6793C139.845 83.3936 148.269 79.5416 146.516 78.128Z" fill="#E0504C"/>
<path d="M7.63601 151.31L15.4581 151.2C19.3962 151.144 22.5734 147.877 22.5179 143.939L22.4082 136.117C14.6638 136.225 19.0852 129.001 15.1471 129.057L7.32496 129.167C3.38683 129.222 0.209668 132.49 0.265213 136.428L0.374914 144.25C0.430459 148.188 3.69788 151.364 7.63601 151.31Z" fill="#FCD5B6"/>
<path d="M3.098 144.226L3.69928 144.218C5.20454 144.197 6.4182 142.949 6.39598 141.444L6.07243 118.397C6.0516 116.891 4.80323 115.678 3.29796 115.7L2.69669 115.708C1.19281 115.729 -0.0208398 116.977 -1.05004e-05 118.481L0.323538 141.528C0.344368 143.033 1.59274 144.247 3.098 144.226Z" fill="#FCD5B6"/>
<path d="M10.0133 140.77L10.6146 140.762C12.1199 140.741 13.3335 139.492 13.3113 137.987L12.9878 114.94C12.9669 113.435 11.7186 112.221 10.2133 112.244L9.61202 112.252C8.10675 112.273 6.8931 113.521 6.91532 115.026L7.23887 138.073C7.26108 139.577 8.50945 140.791 10.0133 140.77Z" fill="#FCD5B6"/>
<path d="M16.8926 142.917L17.4939 142.909C18.9991 142.888 20.2128 141.639 20.1906 140.134L19.867 117.087C19.8462 115.582 18.5978 114.368 17.0925 114.39L16.4913 114.399C14.986 114.42 13.7723 115.668 13.7946 117.173L14.1181 140.22C14.1403 141.725 15.3887 142.939 16.8926 142.917Z" fill="#FCD5B6"/>
<path d="M17.8979 147.477L18.4256 147.767C19.7434 148.494 21.4167 148.01 22.1429 146.693L29.3388 133.644C30.065 132.326 29.5818 130.653 28.264 129.926L27.7363 129.636C26.4185 128.91 24.7452 129.393 24.019 130.711L16.8231 143.76C16.0969 145.078 16.5801 146.749 17.8979 147.477Z" fill="#FCD5B6"/>
<path d="M143.968 234.078L147.86 227.294C149.82 223.878 148.628 219.478 145.212 217.519L138.427 213.627C134.574 220.345 130.612 212.859 128.653 216.275L124.761 223.06C122.801 226.476 123.993 230.875 127.409 232.834L134.194 236.726C137.611 238.687 142.009 237.496 143.968 234.078Z" fill="#FCD5B6"/>
<path d="M135.561 234.373L135.861 233.851C136.61 232.545 136.154 230.865 134.849 230.117L114.856 218.648C113.55 217.9 111.87 218.355 111.122 219.66L110.822 220.182C110.073 221.488 110.529 223.168 111.834 223.917L131.827 235.385C133.131 236.134 134.812 235.678 135.561 234.373Z" fill="#FCD5B6"/>
<path d="M136.113 226.662L136.413 226.14C137.161 224.834 136.706 223.154 135.4 222.406L115.407 210.937C114.102 210.189 112.421 210.644 111.673 211.949L111.373 212.471C110.624 213.777 111.08 215.457 112.385 216.206L132.379 227.674C133.683 228.423 135.363 227.967 136.113 226.662Z" fill="#FCD5B6"/>
<path d="M141.466 221.838L141.766 221.316C142.514 220.01 142.059 218.33 140.753 217.582L120.76 206.113C119.455 205.365 117.775 205.82 117.026 207.125L116.726 207.647C115.978 208.953 116.433 210.633 117.738 211.381L137.732 222.85C139.037 223.598 140.717 223.143 141.466 221.838Z" fill="#FCD5B6"/>
<path d="M145.901 223.296L146.42 222.99C147.717 222.227 148.153 220.541 147.39 219.245L139.83 206.403C139.066 205.106 137.38 204.67 136.085 205.434L135.565 205.739C134.269 206.503 133.833 208.189 134.596 209.485L142.156 222.327C142.92 223.624 144.604 224.06 145.901 223.296Z" fill="#FCD5B6"/>
<path d="M178.809 175.712C164.422 168.304 150.236 165.058 149.641 164.924L145.743 182.216C145.866 182.244 158.296 185.086 170.693 191.471C172.161 192.227 173.671 193.056 175.179 193.956L182.584 177.757C181.362 177.06 180.104 176.378 178.809 175.712Z" fill="#000099"/>
<path d="M199.941 191.121C195.485 186.265 189.658 181.78 182.584 177.756L175.179 193.954C184.137 199.298 193.061 207.154 193.147 217.269C193.185 221.654 190.638 227.753 184.96 230.782C181.173 232.801 176.349 233.293 170.62 232.241C162.719 230.793 153.519 226.51 143.278 219.51L133.276 234.145C151.536 246.625 165.769 250.595 176.549 250.504C183.528 250.446 189.064 248.683 193.299 246.423C198.96 243.404 203.611 238.765 206.746 233.006C209.451 228.039 210.916 222.397 210.872 217.119C210.793 207.688 207.114 198.939 199.941 191.121Z" fill="#FCD5B6"/>
<path d="M32.6867 191.889C24.3828 188.273 19.967 173.169 20.2544 149.359L2.53008 149.145C2.33289 165.568 4.09644 178.316 7.9207 188.116C11.7686 197.976 17.7271 204.716 25.6312 208.15C29.479 209.822 33.6532 210.657 38.1412 210.657C45.3593 210.657 53.3897 208.494 62.1713 204.187L55.7767 187.56C45.9772 192.621 37.9149 194.165 32.6867 191.889Z" fill="#FCD5B6"/>
<path d="M93.993 181.716L81.7467 168.901C81.6606 168.983 73.0498 177.151 62.0616 183.977C59.8981 185.321 57.8013 186.514 55.7753 187.56L62.1699 204.187C65.2499 202.676 68.4215 200.903 71.6848 198.864C84.1657 191.067 93.5972 182.094 93.993 181.716Z" fill="#000099"/>
<path d="M39.1702 50.2681C41.7394 50.2681 43.8221 48.1854 43.8221 45.6162C43.8221 43.047 41.7394 40.9643 39.1702 40.9643C36.601 40.9643 34.5183 43.047 34.5183 45.6162C34.5183 48.1854 36.601 50.2681 39.1702 50.2681Z" fill="#E0504C"/>
<path d="M215.525 91.2324C218.094 91.2324 220.177 89.1497 220.177 86.5805C220.177 84.0114 218.094 81.9286 215.525 81.9286C212.956 81.9286 210.873 84.0114 210.873 86.5805C210.873 89.1497 212.956 91.2324 215.525 91.2324Z" fill="#000099"/>
<path d="M191.62 34.4848L185.183 28.0485L178.747 34.4848L185.183 40.9211L191.62 34.4848Z" fill="#824DCE"/>
<path d="M199.484 112.756L195.876 124.004L207.074 121.682L199.484 112.756Z" fill="#EB8F4D"/>
<path d="M94.504 0L90.8964 11.2478L102.094 8.92606L94.504 0Z" fill="#EB8F4D"/>
</svg>
