<?xml version="1.0" encoding="UTF-8"?>
<!-- Generator: Adobe Illustrator 23.0.2, SVG Export Plug-In . SVG Version: 6.00 Build 0)  -->
<svg version="1.1" id="Layer_1" xmlns="http://www.w3.org/2000/svg" xmlns:xlink="http://www.w3.org/1999/xlink" x="0px" y="0px" viewBox="0 0 1844 2167" style="enable-background:new 0 0 1844 2167;" xml:space="preserve">
<style type="text/css">
	.st0{fill:none;}
	.st1{fill:#B9B9EA;}
	.st2{fill:#8282D1;}
	.st3{fill:#6161AD;}
	.st4{fill:#000099;}
	.st5{fill:#FCD5B6;}
	.st6{fill:#BA3A3A;}
	.st7{fill:#E0504C;}
	.st8{fill:#E5AB83;}
	.st9{fill:#604848;}
	.st10{fill:#CE4646;}
	.st11{fill:#FFFFFF;}
	.st12{fill:#824DCE;}
	.st13{fill:#EB8F4D;}
	.st14{fill:#E2B72D;}
</style>
<g>
	<path class="st0" d="M1103.9,1693c-0.1,1.3-0.3,2.6-0.5,3.9c0.2-0.2,0.4-0.4,0.6-0.6L1103.9,1693z"/>
</g>
<g>
	<path class="st1" d="M1103.5,1696.9c0.2-1.3,0.3-2.6,0.5-3.9l-9.8-181.3C1040,1273.1,826.5,1095,571.5,1095c-296,0-536,240-536,536   s240,536,536,536c77.5,0,151.2-16.5,217.7-46.1c26-42.6,56.6-81.8,90.9-117.1C933.1,1757.9,988.6,1801.1,1103.5,1696.9z"/>
</g>
<g>
	<path class="st2" d="M865.6,2079.2c-24.2,15.9-49.7,29.9-76.4,41.7c-9.1,15-17.7,30.3-25.7,46.1l0,0h88l0,0   C856.2,2135,860.9,2105.8,865.6,2079.2z"/>
</g>
<g>
	<path class="st2" d="M1802.9,1950.4c-30.1-146.9-177-238.2-322-203.9c-35.8,148.8,16.7,303.1,145.6,420.5l0,0h182v-161.5   C1808.5,1986.6,1806.6,1968.2,1802.9,1950.4z"/>
</g>
<g>
	<path class="st2" d="M880.2,2003.8c-34.4,35.3-64.9,74.5-90.9,117.1c26.7-11.9,52.2-25.8,76.4-41.7   C870.5,2051.4,875.3,2026.4,880.2,2003.8z"/>
</g>
<g>
	<path class="st1" d="M1103.9,1693l0.2,3.3c-0.2,0.2-0.4,0.4-0.6,0.6c-8,65.1-27.6,126.6-56.8,182.3c44.1-23.3,91.1-41.8,140.1-54.8   l286.9-76.2c2.4-0.6,4.8-1.2,7.2-1.8c3.8-15.6,8.5-31.1,14.2-46.6c45.6-123.3,88.1-291.6,73.4-524.8   c-18.1-286.9-170.5-418.7-348-421.1c-114-1.5-178,121.8-164.1,215.2c8.4,56.6,14.7,114.4,17.9,173.2l19.9,369.3   c8.7,38.4,13.3,78.3,13.3,119.3C1107.5,1652,1106.3,1672.7,1103.9,1693z"/>
</g>
<g>
	<path class="st1" d="M880.2,2003.8c48.6-49.9,104.8-92,166.5-124.6c29.2-55.7,48.8-117.2,56.8-182.3   C988.6,1801.1,933.1,1757.9,880.2,2003.8z"/>
</g>
<g>
	<path class="st1" d="M880.2,2003.8c48.6-49.9,104.8-92,166.5-124.6c29.2-55.7,48.8-117.2,56.8-182.3   C988.6,1801.1,933.1,1757.9,880.2,2003.8z"/>
</g>
<g>
	<path class="st1" d="M1107.5,1631c0-41-4.6-80.9-13.3-119.3l9.8,181.3C1106.3,1672.7,1107.5,1652,1107.5,1631z"/>
</g>
<g>
	<path class="st1" d="M1107.5,1631c0-41-4.6-80.9-13.3-119.3l9.8,181.3C1106.3,1672.7,1107.5,1652,1107.5,1631z"/>
</g>
<g>
	<path class="st3" d="M1626.5,2167c-128.9-117.4-181.4-271.7-145.6-420.5c-2.4,0.6-4.8,1.2-7.2,1.8l-286.9,76.2   c-49.1,13-96,31.5-140.1,54.8c-42.4,81.1-105,149.9-181.1,200c-4.7,26.6-9.3,55.8-14.1,87.8l0,0L1626.5,2167L1626.5,2167z"/>
</g>
<g>
	<path class="st2" d="M880.2,2003.8c-4.9,22.6-9.7,47.6-14.6,75.3c76.1-50,138.6-118.9,181.1-200   C984.9,1911.8,928.7,1953.9,880.2,2003.8z"/>
</g>
<g>
	<path class="st1" d="M880.2,2003.8c-4.9,22.6-9.7,47.6-14.6,75.3c76.1-50,138.6-118.9,181.1-200   C984.9,1911.8,928.7,1953.9,880.2,2003.8z"/>
</g>
<g>
	<g>
		<path class="st4" d="M1249.4,1457.7l42.2,709.3H571.1l36.6-658.2c0-94.4-22.7-135,43.3-192.6c39.9-34.8,88.6-59.6,142.3-70.7    c20.6-4.3,41.9-6.5,63.7-6.5h120.6c24.4,0,48.1,2.8,70.9,8c54.4,12.5,103.3,39.2,142.8,76C1253,1380.3,1249.4,1367,1249.4,1457.7z    "/>
	</g>
</g>
<g>
	<g>
		<g>
			<path class="st5" d="M1176.1,583.3c-176.5-100.2-353-100.2-529.5,0c-1.2,38.4,56,22,57.7,60.4c2.9,66-46.8,186.7-35.3,252.7     c20.1,115.9,53.4,231.8,99.8,347.7c95,54,190.1,54,285.1,0C1142.2,1023.8,1182.9,803.6,1176.1,583.3z"/>
		</g>
	</g>
</g>
<g>
	<g>
		<path class="st6" d="M793.4,1245.5c-53.8,11.1-102.5,35.9-142.3,70.7c-69.5-6.8-128.9-23.4-107.7-61.6    c83.1-149.9,149.8-583.9,149.8-583.9s24.4-28.7,18.9,4.4C675.5,893,748.9,1129.1,793.4,1245.5z"/>
	</g>
</g>
<g>
	<g>
		<path class="st7" d="M1191.4,1323.1c-39.5-36.8-88.4-63.4-142.8-76c29-61.1,71.4-166.1,98.6-335.5c3.3-20.8,28.9-19.9,48.1-16    c12.5,2.5,21.3,13.6,21.1,26.3c-0.9,57,2.9,222.7,70.6,344.9C1307.7,1303.9,1255.2,1318.4,1191.4,1323.1z"/>
	</g>
</g>
<g>
	<g>
		<path d="M831.6,876.1h-2.5c-6.3,0-11.5-5.2-11.5-11.5v-30.3c0-6.3,5.2-11.5,11.5-11.5h2.5c6.3,0,11.5,5.2,11.5,11.5v30.3    C843.1,870.9,837.9,876.1,831.6,876.1z"/>
	</g>
</g>
<g>
	<g>
		<path d="M1016.8,848.2v2.5c0,6.3-5.2,11.5-11.5,11.5H975c-6.3,0-11.5-5.2-11.5-11.5v-2.5c0-6.3,5.2-11.5,11.5-11.5h30.3    C1011.6,836.7,1016.8,841.8,1016.8,848.2z"/>
	</g>
</g>
<g>
	<g>
		<path class="st8" d="M904.1,984.6c-19.1,0-34.7-15.8-34.7-35.1s15.6-35.1,34.7-35.1c2.8,0,5,2.2,5,5s-2.2,5-5,5    c-13.6,0-24.7,11.3-24.7,25.1s11.1,25.1,24.7,25.1c2.8,0,5,2.2,5,5S906.9,984.6,904.1,984.6z"/>
	</g>
</g>
<g>
	<g>
		<path class="st5" d="M1140.2,947.8c17.7,17.7,46.4,17.7,64.1,0c17.7-17.7,17.7-46.4,0-64.1c-17.7-17.7-46.4-17.7-64.1,0"/>
	</g>
</g>
<g>
	<g>
		<path class="st5" d="M754.7,887.1c-17.7-17.7-46.4-17.7-64.1,0s-17.7,46.4,0,64.1s46.4,17.7,64.1,0V887.1z"/>
	</g>
</g>
<g>
	<g>
		<path class="st7" d="M1115,659.6c-42-33.8-178.3-13.2-229.6,3.4c-57.9,18.7-158.3,24.7-214.6,0.1    c-56.3-24.6-129.6-187.8,52.4-258.8c198.2-77.4,322.8,128.4,404,131c213.1,6.7,82.2,307.9,84.4,357.4    c-5.5-8.9-27.7-27.7-47.7-13.3c-25.5,18.4-3.9,37.7-18.9,37.7c-19,0,34.4-170.9-40-203.1C1067,697.5,1127.7,669.8,1115,659.6z"/>
	</g>
</g>
<g>
	<g>
		<path class="st5" d="M1613.9,1042.1l-53.6-17.4c-27-8.7-41.9-38-33.2-64.9l17.4-53.6c53.1,17.2,38-41.9,64.9-33.2l53.6,17.4    c27,8.7,41.9,38,33.2,64.9l-17.4,53.6C1670.1,1035.9,1640.8,1050.9,1613.9,1042.1z"/>
	</g>
</g>
<g>
	<g>
		<path class="st5" d="M1660.1,1003l-4.1-1.3c-10.3-3.3-16-14.5-12.7-24.8l51.1-157.9c3.3-10.3,14.5-16,24.8-12.7l4.1,1.3    c10.3,3.3,16,14.5,12.7,24.8l-51.1,157.9C1681.6,1000.7,1670.4,1006.4,1660.1,1003z"/>
	</g>
</g>
<g>
	<g>
		<path class="st5" d="M1619.9,964.6l-4.1-1.3c-10.3-3.3-16-14.5-12.7-24.8l51.1-157.9c3.3-10.3,14.5-16,24.8-12.7l4.1,1.3    c10.3,3.3,16,14.5,12.7,24.8l-51.1,157.9C1641.4,962.2,1630.2,967.9,1619.9,964.6z"/>
	</g>
</g>
<g>
	<g>
		<path class="st5" d="M1568,964.7l-4.1-1.3c-10.3-3.3-16-14.5-12.7-24.8l51.1-157.9c3.3-10.3,14.5-16,24.8-12.7l4.1,1.3    c10.3,3.3,16,14.5,12.7,24.8l-51.1,157.9C1589.5,962.4,1578.3,968.1,1568,964.7z"/>
	</g>
</g>
<g>
	<g>
		<path class="st5" d="M1516,1370.9c53.1-37.8,60.9-191.7,23.5-359l125.4,13c25.8,115.4,32.4,207.9,20,282.6    c-12.4,75.2-44.4,131.5-95,167.5c-24.6,17.5-52.8,29.6-84.4,36.3c-50.9,10.7-110.7,7.4-178.9-9.8l20.3-126.7    C1423.5,1395.8,1482.6,1394.7,1516,1370.9z"/>
	</g>
</g>
<g>
	<g>
		<path class="st4" d="M1068.9,1390.4l67.2-108.5c0.7,0.4,73.6,45.2,161.1,76.9c17.2,6.3,33.8,11.5,49.6,15.9l-20.3,126.7    c-24-6.1-48.9-13.8-75-23.3C1152.1,1441.7,1072.3,1392.5,1068.9,1390.4z"/>
	</g>
</g>
<g>
	<g>
		<path class="st5" d="M238.5,1041.9l46.9-31.2c23.6-15.7,30.1-47.9,14.4-71.5l-31.2-46.9c-46.4,30.9-47.9-30.1-71.5-14.4    l-46.9,31.2c-23.6,15.7-30.1,47.9-14.4,71.5l31.2,46.9C182.8,1051.1,214.9,1057.6,238.5,1041.9z"/>
	</g>
</g>
<g>
	<g>
		<path class="st5" d="M183.4,1016.7l3.6-2.4c9-6,11.5-18.3,5.5-27.3l-92-138.2c-6-9-18.3-11.5-27.3-5.5l-3.6,2.4    c-9,6-11.5,18.3-5.5,27.3l92,138.2C162.1,1020.3,174.4,1022.7,183.4,1016.7z"/>
	</g>
</g>
<g>
	<g>
		<path class="st5" d="M211.8,968.8l3.6-2.4c9-6,11.5-18.3,5.5-27.3l-92-138.2c-6-9-18.3-11.5-27.3-5.5l-3.6,2.4    c-9,6-11.5,18.3-5.5,27.3l92,138.2C190.4,972.3,202.7,974.8,211.8,968.8z"/>
	</g>
</g>
<g>
	<g>
		<path class="st5" d="M261.8,954.9l3.6-2.4c9-6,11.5-18.3,5.5-27.3l-92-138.2c-6-9-18.3-11.5-27.3-5.5L148,784    c-9,6-11.5,18.3-5.5,27.3l92,138.2C240.5,958.5,252.7,960.9,261.8,954.9z"/>
	</g>
</g>
<g>
	<g>
		<path class="st5" d="M316.7,1370.9c-53.1-37.8-50.5-215.9-13.1-383.2l-135.8,37.2c-25.8,115.4-32.4,207.9-20,282.6    c12.4,75.2,44.4,131.5,95,167.5c24.6,17.5,52.8,29.6,84.4,36.3c50.9,10.7,110.7,7.4,178.9-9.8l-20.3-126.7    C409.2,1395.8,350.1,1394.7,316.7,1370.9z"/>
	</g>
</g>
<g>
	<g>
		<path class="st4" d="M766,1390.4l-67.2-108.5c-0.7,0.4-73.6,45.2-161.1,76.9c-17.2,6.3-33.8,11.5-49.6,15.9l20.3,126.7    c24-6.1,48.9-13.8,75-23.3C682.8,1441.7,762.6,1392.5,766,1390.4z"/>
	</g>
</g>
<g>
	<g>
		<path class="st9" d="M301.7,759.5v126.9c0,22.1-17.9,40-40,40H134.8c-22.1,0-40-17.9-40-40V759.5c0-22.1,17.9-40,40-40h126.9    C283.8,719.5,301.7,737.4,301.7,759.5z"/>
	</g>
	<g>
		<path class="st10" d="M136.5,731.2c-16.6,0-30,13.4-30,30v123.5c0,16.6,13.4,30,30,30h33.9V731.2H136.5z"/>
	</g>
	<g>
		<path class="st11" d="M170.4,914.6H260c16.6,0,30-13.4,30-30V761.2c0-16.6-13.4-30-30-30h-89.6V914.6z"/>
	</g>
	<g>
		<path class="st10" d="M230.2,855.9c-18.2,0-33-14.8-33-33s14.8-33,33-33s33,14.8,33,33S248.3,855.9,230.2,855.9z M230.2,792    c-17.1,0-31,13.9-31,31c0,17.1,13.9,31,31,31s31-13.9,31-31C261.1,805.8,247.2,792,230.2,792z"/>
	</g>
	<g>
		<g>
			<path class="st9" d="M125.9,865.8L125.9,865.8c0,5.7-4.6,10.2-10.2,10.2h-34c-5.7,0-10.2-4.6-10.2-10.2l0,0     c0-5.7,4.6-10.2,10.2-10.2h34C121.3,855.6,125.9,860.2,125.9,865.8z"/>
		</g>
		<g>
			<path class="st9" d="M125.9,780L125.9,780c0,5.7-4.6,10.2-10.2,10.2h-34c-5.7,0-10.2-4.6-10.2-10.2l0,0c0-5.7,4.6-10.2,10.2-10.2     h34C121.3,769.7,125.9,774.3,125.9,780z"/>
		</g>
	</g>
</g>
<g>
	<g>
		<path class="st9" d="M525,401.3L435.3,491c-15.6,15.6-40.9,15.6-56.6,0L289,401.3c-15.6-15.6-15.6-40.9,0-56.6l89.7-89.7    c15.6-15.6,40.9-15.6,56.6,0l89.7,89.7C540.7,360.3,540.7,385.6,525,401.3z"/>
	</g>
	<g>
		<path class="st10" d="M428.2,264.5c-11.7-11.7-30.7-11.7-42.4,0l-87.3,87.3c-11.7,11.7-11.7,30.7,0,42.4l24,24l129.7-129.7    L428.2,264.5z"/>
	</g>
	<g>
		<path class="st11" d="M322.5,418.2l63.3,63.3c11.7,11.7,30.7,11.7,42.4,0l87.3-87.3c11.7-11.7,11.7-30.7,0-42.4l-63.3-63.3    L322.5,418.2z"/>
	</g>
	<g>
		<path class="st10" d="M429.6,428.5c-8.8,0-17.1-3.4-23.3-9.7c-12.8-12.8-12.8-33.8,0-46.6c6.2-6.2,14.5-9.7,23.3-9.7    s17.1,3.4,23.3,9.7l0,0c12.8,12.8,12.8,33.8,0,46.6C446.7,425.1,438.4,428.5,429.6,428.5z M429.6,364.6c-7.9,0-15.9,3-21.9,9.1    c-12.1,12.1-12.1,31.7,0,43.8s31.7,12.1,43.8,0c12.1-12.1,12.1-31.7,0-43.8C445.5,367.6,437.5,364.6,429.6,364.6z"/>
	</g>
	<g>
		<g>
			<path class="st9" d="M325.5,352.2L325.5,352.2c-4,4-10.5,4-14.5,0l-24-24c-4-4-4-10.5,0-14.5l0,0c4-4,10.5-4,14.5,0l24,24     C329.5,341.7,329.5,348.2,325.5,352.2z"/>
		</g>
		<g>
			<path class="st9" d="M386.3,291.5L386.3,291.5c-4,4-10.5,4-14.5,0l-24-24c-4-4-4-10.5,0-14.5v0c4-4,10.5-4,14.5,0l24,24     C390.3,281,390.3,287.5,386.3,291.5z"/>
		</g>
	</g>
</g>
<g>
	<g>
		<path class="st9" d="M1386,490l-89.7-89.7c-15.6-15.6-15.6-40.9,0-56.6L1386,254c15.6-15.6,40.9-15.6,56.6,0l89.7,89.7    c15.6,15.6,15.6,40.9,0,56.6l-89.7,89.7C1426.9,505.6,1401.6,505.6,1386,490z"/>
	</g>
	<g>
		<path class="st10" d="M1522.8,393.2c11.7-11.7,11.7-30.7,0-42.4l-87.3-87.3c-11.7-11.7-30.7-11.7-42.4,0l-24,24l129.7,129.7    L1522.8,393.2z"/>
	</g>
	<g>
		<path class="st11" d="M1369.1,287.4l-63.3,63.3c-11.7,11.7-11.7,30.7,0,42.4l87.3,87.3c11.7,11.7,30.7,11.7,42.4,0l63.3-63.3    L1369.1,287.4z"/>
	</g>
	<g>
		<path class="st10" d="M1391.7,427.5c-8.8,0-17.1-3.4-23.3-9.7c-12.8-12.8-12.8-33.8,0-46.6c12.8-12.8,33.8-12.8,46.6,0    c6.2,6.2,9.7,14.5,9.7,23.3c0,8.8-3.4,17.1-9.7,23.3l0,0l0,0C1408.8,424.1,1400.5,427.5,1391.7,427.5z M1391.7,363.6    c-7.9,0-15.9,3-21.9,9.1c-12.1,12.1-12.1,31.7,0,43.8c5.8,5.8,13.6,9.1,21.9,9.1s16-3.2,21.9-9.1l0,0c5.8-5.8,9.1-13.6,9.1-21.9    s-3.2-16-9.1-21.9C1407.5,366.6,1399.6,363.6,1391.7,363.6z"/>
	</g>
	<g>
		<g>
			<path class="st9" d="M1435,290.5L1435,290.5c-4-4-4-10.5,0-14.5l24-24c4-4,10.5-4,14.5,0v0c4,4,4,10.5,0,14.5l-24,24     C1445.5,294.5,1439,294.5,1435,290.5z"/>
		</g>
		<g>
			<path class="st9" d="M1495.8,351.2L1495.8,351.2c-4-4-4-10.5,0-14.5l24-24c4-4,10.5-4,14.5,0l0,0c4,4,4,10.5,0,14.5l-24,24     C1506.2,355.2,1499.7,355.2,1495.8,351.2z"/>
		</g>
	</g>
</g>
<g>
	<g>
		<path class="st9" d="M975.2,262.8H848.3c-22.1,0-40-17.9-40-40V95.9c0-22.1,17.9-40,40-40h126.9c22.1,0,40,17.9,40,40v126.9    C1015.2,244.9,997.3,262.8,975.2,262.8z"/>
	</g>
	<g>
		<path class="st10" d="M1003.5,97.6c0-16.6-13.4-30-30-30H850c-16.6,0-30,13.4-30,30v33.9h183.5V97.6z"/>
	</g>
	<g>
		<path class="st11" d="M820,131.6v89.6c0,16.6,13.4,30,30,30h123.5c16.6,0,30-13.4,30-30v-89.6H820z"/>
	</g>
	<g>
		<path class="st10" d="M911.8,224.3c-18.2,0-33-14.8-33-33s14.8-33,33-33s33,14.8,33,33S929.9,224.3,911.8,224.3z M911.8,160.4    c-17.1,0-31,13.9-31,31c0,17.1,13.9,31,31,31s31-13.9,31-31C942.7,174.3,928.8,160.4,911.8,160.4z"/>
	</g>
	<g>
		<g>
			<path class="st9" d="M868.8,87.1L868.8,87.1c-5.7,0-10.2-4.6-10.2-10.2v-34c0-5.7,4.6-10.2,10.2-10.2l0,0     c5.7,0,10.2,4.6,10.2,10.2v34C879,82.5,874.5,87.1,868.8,87.1z"/>
		</g>
		<g>
			<path class="st9" d="M954.7,87.1L954.7,87.1c-5.7,0-10.2-4.6-10.2-10.2v-34c0-5.7,4.6-10.2,10.2-10.2l0,0     c5.7,0,10.2,4.6,10.2,10.2v34C964.9,82.5,960.3,87.1,954.7,87.1z"/>
		</g>
	</g>
</g>
<g>
	<g>
		<path class="st5" d="M285.7,978.6l4.3-0.3c10.8-0.8,19-10.2,18.3-21l-7.4-107.1c-0.8-10.8-10.2-19-21-18.3l-4.3,0.3    c-10.8,0.8-19,10.2-18.3,21l7.4,107.1C265.4,971.1,274.8,979.3,285.7,978.6z"/>
	</g>
</g>
<g>
	<g>
		<path class="st9" d="M1519.1,890.6V763.7c0-22.1,17.9-40,40-40H1686c22.1,0,40,17.9,40,40v126.9c0,22.1-17.9,40-40,40h-126.9    C1537,930.6,1519.1,912.7,1519.1,890.6z"/>
	</g>
	<g>
		<path class="st10" d="M1684.3,918.9c16.6,0,30-13.4,30-30V765.4c0-16.6-13.4-30-30-30h-33.9v183.5H1684.3z"/>
	</g>
	<g>
		<path class="st11" d="M1650.4,735.4h-89.6c-16.6,0-30,13.4-30,30v123.5c0,16.6,13.4,30,30,30h89.6V735.4z"/>
	</g>
	<g>
		<path class="st10" d="M1590.6,860.1c-18.2,0-33-14.8-33-33s14.8-33,33-33s33,14.8,33,33S1608.8,860.1,1590.6,860.1z M1590.6,796.2    c-17.1,0-31,13.9-31,31c0,17.1,13.9,31,31,31c17.1,0,31-13.9,31-31C1621.6,810.1,1607.7,796.2,1590.6,796.2z"/>
	</g>
	<g>
		<g>
			<path class="st9" d="M1694.9,784.2L1694.9,784.2c0-5.7,4.6-10.2,10.2-10.2h34c5.7,0,10.2,4.6,10.2,10.2l0,0     c0,5.7-4.6,10.2-10.2,10.2h-34C1699.4,794.4,1694.9,789.8,1694.9,784.2z"/>
		</g>
		<g>
			<path class="st9" d="M1694.9,870.1L1694.9,870.1c0-5.7,4.6-10.2,10.2-10.2h34c5.7,0,10.2,4.6,10.2,10.2l0,0     c0,5.7-4.6,10.2-10.2,10.2h-34C1699.4,880.3,1694.9,875.7,1694.9,870.1z"/>
		</g>
	</g>
</g>
<g>
	<g>
		<path class="st5" d="M1551.4,994l-4.2,0.9c-10.6,2.2-21.1-4.7-23.3-15.3L1502,874.5c-2.2-10.6,4.7-21.1,15.3-23.3l4.2-0.9    c10.6-2.2,21.1,4.7,23.3,15.3l21.8,105.1C1568.9,981.3,1562,991.8,1551.4,994z"/>
	</g>
</g>
<g>
	<path class="st8" d="M903.6,1129.3c-41.5,0-75.2-28.5-75.2-63.6c0-2.8,2.2-5,5-5s5,2.2,5,5c0,29.5,29.3,53.6,65.2,53.6   c36,0,65.2-24,65.2-53.6c0-2.8,2.2-5,5-5s5,2.2,5,5C978.8,1100.8,945.1,1129.3,903.6,1129.3z"/>
</g>
<g>
	<g>
		<path class="st12" d="M1532.1,618.4l-34.5-4.6c-2.5-0.3-4.2-2.6-3.9-5.1c0.3-2.5,2.6-4.2,5.1-3.9l27,3.6l9.2-29.6l30.7,4.1    l9.2-29.6l34.5,4.6c2.5,0.3,4.2,2.6,3.9,5.1c-0.3,2.5-2.6,4.2-5.1,3.9l-27-3.6l-9.2,29.6l-30.7-4.1L1532.1,618.4z"/>
	</g>
</g>
<g>
	<g>
		<path class="st12" d="M569.5,163.7l-7.6-34c-0.5-2.4,1-4.8,3.4-5.4c2.4-0.5,4.8,1,5.4,3.4l5.9,26.5l31-1.6l6.8,30.3l31-1.6l7.6,34    c0.5,2.4-1,4.8-3.4,5.4c-2.4,0.5-4.8-1-5.4-3.4l-6-26.6l-31,1.6l-6.8-30.3L569.5,163.7z"/>
	</g>
</g>
<g>
	<g>
		<path class="st13" d="M1141.6,256.7c0.1-0.4,0.3-0.8,0.5-1.1c4.5-6.2,11.5-5.5,17.8-4.9c6.1,0.6,10,0.7,12.4-2.5    c2.3-3.2,1-6.8-1.4-12.5c-2.5-5.7-5.3-12.2-0.8-18.4c4.5-6.2,11.5-5.5,17.8-4.9c6.1,0.6,10,0.7,12.3-2.5c2.3-3.2,1-6.8-1.4-12.5    c-2.5-5.7-5.3-12.2-0.8-18.4c4.5-6.2,11.5-5.5,17.8-4.9c6.1,0.6,10,0.7,12.4-2.5c1-1.3,2.9-1.6,4.2-0.7c1.3,1,1.6,2.9,0.7,4.2    c-4.5,6.2-11.5,5.5-17.8,4.9c-6.1-0.6-10-0.7-12.3,2.5c-2.3,3.2-1,6.8,1.4,12.5c2.5,5.7,5.3,12.2,0.8,18.4    c-4.5,6.2-11.5,5.5-17.8,4.9c-6.1-0.6-10-0.7-12.3,2.5c-2.3,3.2-1,6.9,1.4,12.5c2.5,5.7,5.3,12.2,0.8,18.4    c-4.5,6.2-11.5,5.5-17.8,4.9c-6.1-0.6-10-0.7-12.4,2.5c-1,1.3-2.9,1.6-4.2,0.7C1141.8,259.1,1141.4,257.9,1141.6,256.7z"/>
	</g>
</g>
<g>
	<g>
		<path class="st14" d="M199.3,587.6c-0.1-0.2-0.2-0.5-0.2-0.8c-0.3-1.6,0.8-3.2,2.4-3.5c7.5-1.3,12.1,4,16.2,8.8    c4,4.7,6.7,7.5,10.6,6.8c3.9-0.7,5.5-4.2,7.6-10c2.2-5.8,4.7-12.5,12.2-13.8c7.5-1.3,12.1,4,16.2,8.8c4,4.7,6.7,7.5,10.6,6.8    c3.9-0.7,5.5-4.2,7.6-10c2.2-5.8,4.7-12.5,12.2-13.8c7.5-1.3,12.1,4,16.2,8.8c4,4.7,6.7,7.5,10.6,6.8c1.6-0.3,3.2,0.8,3.5,2.4    c0.3,1.6-0.8,3.2-2.4,3.5c-7.5,1.3-12.1-4-16.2-8.8c-4-4.7-6.7-7.5-10.6-6.8c-3.9,0.7-5.5,4.2-7.6,10c-2.2,5.8-4.7,12.5-12.2,13.8    c-7.5,1.3-12.1-4-16.2-8.8c-4-4.7-6.7-7.5-10.6-6.8c-3.9,0.7-5.5,4.2-7.6,10c-2.2,5.8-4.7,12.5-12.2,13.8    c-7.5,1.3-12.1-4-16.2-8.8c-4-4.7-6.7-7.5-10.6-6.8C201.2,589.5,199.9,588.8,199.3,587.6z"/>
	</g>
</g>
<g>
	<g>
		<circle class="st4" cx="506.1" cy="773.9" r="19.9"/>
	</g>
</g>
<g>
	<g>
		
			<rect x="1028.1" y="352.4" transform="matrix(0.7071 0.7071 -0.7071 0.7071 570.8702 -632.252)" class="st12" width="41.1" height="41.1"/>
	</g>
</g>
<g>
	<g>
		<polygon class="st13" points="1336.3,681.9 1317.2,741.6 1376.6,729.2   "/>
	</g>
</g>
</svg>