<svg width="20" height="14" viewBox="0 0 20 14" fill="none" xmlns="http://www.w3.org/2000/svg">
<mask id="path-1-inside-1" fill="white">
<path d="M0 2V0H20V2H0ZM20 6V8H0V6H20ZM0 12H20V14H0V12Z"/>
</mask>
<path d="M0 2H-2V4H0V2ZM0 0V-2H-2V0H0ZM20 0H22V-2H20V0ZM20 2V4H22V2H20ZM20 6H22V4H20V6ZM20 8V10H22V8H20ZM0 8H-2V10H0V8ZM0 6V4H-2V6H0ZM0 12V10H-2V12H0ZM20 12H22V10H20V12ZM20 14V16H22V14H20ZM0 14H-2V16H0V14ZM2 2V0H-2V2H2ZM0 2H20V-2H0V2ZM18 0V2H22V0H18ZM20 0H0V4H20V0ZM18 6V8H22V6H18ZM20 6H0V10H20V6ZM2 8V6H-2V8H2ZM0 8H20V4H0V8ZM0 14H20V10H0V14ZM18 12V14H22V12H18ZM20 12H0V16H20V12ZM2 14V12H-2V14H2Z" fill="#8569B4" mask="url(#path-1-inside-1)"/>
</svg>
