<svg width="23" height="24" viewBox="0 0 23 24" fill="none" xmlns="http://www.w3.org/2000/svg">
<path d="M8.66666 0.333328C10.3247 0.333293 11.948 0.808887 13.3439 1.70368C14.7398 2.59848 15.8497 3.87492 16.542 5.38156C17.2343 6.8882 17.4798 8.56181 17.2495 10.2038C17.0192 11.8458 16.3227 13.3873 15.2427 14.6453L22.768 22.1707L21.8253 23.1133L14.2987 15.5867C13.2372 16.4944 11.972 17.1322 10.6109 17.4456C9.24981 17.7591 7.83312 17.7389 6.48151 17.3868C5.12989 17.0348 3.88338 16.3613 2.84814 15.4237C1.81291 14.4861 1.01961 13.3122 0.535828 12.0019C0.0520419 10.6917 -0.107904 9.28388 0.0696137 7.89849C0.247131 6.51311 0.756851 5.19114 1.55536 4.0452C2.35387 2.89925 3.41752 1.96328 4.65571 1.31698C5.8939 0.670686 7.26995 0.333221 8.66666 0.333328ZM8.66666 1.66666C6.72174 1.66666 4.85648 2.43928 3.48121 3.81455C2.10595 5.18981 1.33333 7.05507 1.33333 9C1.33333 10.9449 2.10595 12.8102 3.48121 14.1854C4.85648 15.5607 6.72174 16.3333 8.66666 16.3333C10.6116 16.3333 12.4768 15.5607 13.8521 14.1854C15.2274 12.8102 16 10.9449 16 9C16 7.05507 15.2274 5.18981 13.8521 3.81455C12.4768 2.43928 10.6116 1.66666 8.66666 1.66666Z" fill="#8569B4"/>
</svg>
