<svg width="32" height="32" viewBox="0 0 32 32" fill="none" xmlns="http://www.w3.org/2000/svg">
<path d="M12.6667 5.33333C14.3247 5.33329 15.948 5.80889 17.3439 6.70368C18.7398 7.59848 19.8497 8.87492 20.542 10.3816C21.2343 11.8882 21.4798 13.5618 21.2495 15.2038C21.0192 16.8458 20.3227 18.3873 19.2427 19.6453L26.768 27.1707L25.8253 28.1133L18.2987 20.5867C17.2372 21.4944 15.972 22.1322 14.6109 22.4456C13.2498 22.7591 11.8331 22.7389 10.4815 22.3868C9.12989 22.0348 7.88338 21.3613 6.84814 20.4237C5.81291 19.4861 5.01961 18.3122 4.53583 17.0019C4.05204 15.6917 3.8921 14.2839 4.06961 12.8985C4.24713 11.5131 4.75685 10.1911 5.55536 9.0452C6.35387 7.89925 7.41752 6.96328 8.65571 6.31698C9.8939 5.67069 11.2699 5.33322 12.6667 5.33333ZM12.6667 6.66666C10.7217 6.66666 8.85648 7.43928 7.48121 8.81455C6.10595 10.1898 5.33333 12.0551 5.33333 14C5.33333 15.9449 6.10595 17.8102 7.48121 19.1854C8.85648 20.5607 10.7217 21.3333 12.6667 21.3333C14.6116 21.3333 16.4768 20.5607 17.8521 19.1854C19.2274 17.8102 20 15.9449 20 14C20 12.0551 19.2274 10.1898 17.8521 8.81455C16.4768 7.43928 14.6116 6.66666 12.6667 6.66666Z" fill="#8569B4"/>
</svg>
