<svg width="16" height="16" viewBox="0 0 16 16" fill="none" xmlns="http://www.w3.org/2000/svg">
<path d="M4 3H11.0573L13.3333 5.276V12.3333C13.3333 12.8638 13.1226 13.3725 12.7475 13.7475C12.3725 14.1226 11.8638 14.3333 11.3333 14.3333H4C3.46957 14.3333 2.96086 14.1226 2.58579 13.7475C2.21071 13.3725 2 12.8638 2 12.3333V5C2 4.46957 2.21071 3.96086 2.58579 3.58579C2.96086 3.21071 3.46957 3 4 3ZM4 3.66667C3.64638 3.66667 3.30724 3.80714 3.05719 4.05719C2.80714 4.30724 2.66667 4.64638 2.66667 5V12.3333C2.66667 12.687 2.80714 13.0261 3.05719 13.2761C3.30724 13.5262 3.64638 13.6667 4 13.6667H11.3333C11.687 13.6667 12.0261 13.5262 12.2761 13.2761C12.5262 13.0261 12.6667 12.687 12.6667 12.3333V5.60933L10.724 3.66667H10V7H4V3.66667ZM4.66667 3.66667V6.33333H9.33333V3.66667H4.66667ZM8 8.33333C8.53043 8.33333 9.03914 8.54405 9.41421 8.91912C9.78929 9.29419 10 9.8029 10 10.3333C10 10.8638 9.78929 11.3725 9.41421 11.7475C9.03914 12.1226 8.53043 12.3333 8 12.3333C7.46957 12.3333 6.96086 12.1226 6.58579 11.7475C6.21071 11.3725 6 10.8638 6 10.3333C6 9.8029 6.21071 9.29419 6.58579 8.91912C6.96086 8.54405 7.46957 8.33333 8 8.33333ZM8 9C7.64638 9 7.30724 9.14048 7.05719 9.39052C6.80714 9.64057 6.66667 9.97971 6.66667 10.3333C6.66667 10.687 6.80714 11.0261 7.05719 11.2761C7.30724 11.5262 7.64638 11.6667 8 11.6667C8.35362 11.6667 8.69276 11.5262 8.94281 11.2761C9.19286 11.0261 9.33333 10.687 9.33333 10.3333C9.33333 9.97971 9.19286 9.64057 8.94281 9.39052C8.69276 9.14048 8.35362 9 8 9Z" fill="#8569B4"/>
</svg>
