<svg width="89" height="96" viewBox="0 0 89 96" fill="none" xmlns="http://www.w3.org/2000/svg">
<path d="M22.1716 85.1716L22.8787 84.4645L22.1716 85.1716ZM23 86L22.2929 86.7071L22.2929 86.7071L23 86ZM75 86L74.2929 85.2929L74.2929 85.2929L75 86ZM75.8284 85.1716L76.5355 85.8787L76.5355 85.8787L75.8284 85.1716ZM18 18.5C18 19.0523 17.5523 19.5 17 19.5C16.4477 19.5 16 19.0523 16 18.5L18 18.5ZM16 48C16 47.4477 16.4477 47 17 47C17.5523 47 18 47.4477 18 48L16 48ZM17 84L18 84L17 84ZM78.1716 85.1716L77.4645 85.8787L77.4645 85.8787L78.1716 85.1716ZM71 86L71.7071 85.2929L71 86ZM67 86L67.7071 86.7071L67.7071 86.7071L67 86ZM63 86L62.2929 86.7071L62.2929 86.7071L63 86ZM59 86L58.2929 85.2929L58.2929 85.2929L59 86ZM55 86L55.7071 85.2929L55.7071 85.2929L55 86ZM51 86L51.7071 86.7071L51.7071 86.7071L51 86ZM47 86L47.7071 85.2929L47.7071 85.2929L47 86ZM43 86L43.7071 86.7071L43.7071 86.7071L43 86ZM39 86L38.2929 86.7071L39 86ZM35 86L35.7071 86.7071L35.7071 86.7071L35 86ZM31 86L31.7071 85.2929L31 86ZM27 86L27.7071 86.7071L27.7071 86.7071L27 86ZM19.8284 85.1716L19.1213 84.4645L19.1213 84.4645L19.8284 85.1716ZM22.8787 84.4645L23.7071 85.2929L22.2929 86.7071L21.4645 85.8787L22.8787 84.4645ZM74.2929 85.2929L75.1213 84.4645L76.5355 85.8787L75.7071 86.7071L74.2929 85.2929ZM80 84L80 12L82 12L82 84L80 84ZM21 7L77 7.00001L77 9.00001L21 9L21 7ZM18 12L18 18.5L16 18.5L16 12L18 12ZM18 48L18 84L16 84L16 48L18 48ZM80 12C80 10.3432 78.6569 9.00001 77 9.00001L77 7.00001C79.7614 7.00001 82 9.23858 82 12L80 12ZM78.8787 84.4645C79.2925 84.8783 80 84.5852 80 84L82 84C82 86.367 79.1382 87.5524 77.4645 85.8787L78.8787 84.4645ZM75.1213 84.4645C76.1589 83.4269 77.8411 83.4269 78.8787 84.4645L77.4645 85.8787C77.2079 85.6222 76.792 85.6222 76.5355 85.8787L75.1213 84.4645ZM71.7071 85.2929C72.4211 86.0069 73.5788 86.0069 74.2929 85.2929L75.7071 86.7071C74.212 88.2022 71.788 88.2022 70.2929 86.7071L71.7071 85.2929ZM66.2929 85.2929C67.788 83.7978 70.212 83.7978 71.7071 85.2929L70.2929 86.7071C69.5788 85.9931 68.4211 85.9931 67.7071 86.7071L66.2929 85.2929ZM63.7071 85.2929C64.4211 86.0069 65.5788 86.0069 66.2929 85.2929L67.7071 86.7071C66.212 88.2022 63.788 88.2022 62.2929 86.7071L63.7071 85.2929ZM58.2929 85.2929C59.788 83.7978 62.212 83.7978 63.7071 85.2929L62.2929 86.7071C61.5788 85.9931 60.4211 85.9931 59.7071 86.7071L58.2929 85.2929ZM55.7071 85.2929C56.4211 86.0069 57.5788 86.0069 58.2929 85.2929L59.7071 86.7071C58.212 88.2022 55.788 88.2022 54.2929 86.7071L55.7071 85.2929ZM50.2929 85.2929C51.788 83.7978 54.212 83.7978 55.7071 85.2929L54.2929 86.7071C53.5788 85.9931 52.4211 85.9931 51.7071 86.7071L50.2929 85.2929ZM47.7071 85.2929C48.4211 86.0069 49.5788 86.0069 50.2929 85.2929L51.7071 86.7071C50.212 88.2022 47.788 88.2022 46.2929 86.7071L47.7071 85.2929ZM42.2929 85.2929C43.788 83.7978 46.212 83.7978 47.7071 85.2929L46.2929 86.7071C45.5788 85.9931 44.4211 85.9931 43.7071 86.7071L42.2929 85.2929ZM39.7071 85.2929C40.4211 86.0069 41.5788 86.0069 42.2929 85.2929L43.7071 86.7071C42.212 88.2022 39.788 88.2022 38.2929 86.7071L39.7071 85.2929ZM34.2929 85.2929C35.788 83.7978 38.212 83.7978 39.7071 85.2929L38.2929 86.7071C37.5788 85.9931 36.4211 85.9931 35.7071 86.7071L34.2929 85.2929ZM31.7071 85.2929C32.4211 86.0069 33.5788 86.0069 34.2929 85.2929L35.7071 86.7071C34.212 88.2022 31.788 88.2022 30.2929 86.7071L31.7071 85.2929ZM26.2929 85.2929C27.788 83.7978 30.212 83.7978 31.7071 85.2929L30.2929 86.7071C29.5788 85.9931 28.4211 85.9931 27.7071 86.7071L26.2929 85.2929ZM23.7071 85.2929C24.4211 86.0069 25.5788 86.0069 26.2929 85.2929L27.7071 86.7071C26.212 88.2022 23.788 88.2022 22.2929 86.7071L23.7071 85.2929ZM19.1213 84.4645C20.1589 83.4269 21.8411 83.4269 22.8787 84.4645L21.4645 85.8787C21.2079 85.6222 20.792 85.6222 20.5355 85.8787L19.1213 84.4645ZM20.5355 85.8787C18.8618 87.5524 16 86.367 16 84L18 84C18 84.5852 18.7075 84.8783 19.1213 84.4645L20.5355 85.8787ZM21 9C19.3432 9 18 10.3431 18 12L16 12C16 9.23858 18.2386 7 21 7L21 9Z" fill="#8569B4"/>
<rect x="27" y="61" width="28" height="2" rx="1" fill="#8569B4"/>
<rect x="31" y="29" width="24" height="2" rx="1" fill="#8569B4"/>
<rect x="63" y="61" width="8" height="2" rx="1" fill="#8569B4"/>
<rect x="63" y="29" width="8" height="2" rx="1" fill="#8569B4"/>
<path d="M63 68C63 67.4477 63.4477 67 64 67H70C70.5523 67 71 67.4477 71 68C71 68.5523 70.5523 69 70 69H64C63.4477 69 63 68.5523 63 68Z" fill="#8569B4"/>
<path d="M11.7887 42.9999H8.91548C8.40746 42.9999 7.92025 42.7892 7.56103 42.4141C7.20181 42.039 7 41.5303 7 40.9999V33.9999C7 33.4695 7.20181 32.9608 7.56103 32.5857C7.92025 32.2107 8.40746 31.9999 8.91548 31.9999H11.7887" stroke="#8569B4" stroke-width="2" stroke-linecap="round" stroke-linejoin="round"/>
<path d="M28 52C28 51.4477 28.4477 51 29 51C29.5523 51 30 51.4477 30 52C30 52.5523 29.5523 53 29 53C28.4477 53 28 52.5523 28 52Z" fill="#8569B4"/>
<path d="M24 52C24 51.4477 24.4477 51 25 51C25.5523 51 26 51.4477 26 52C26 52.5523 25.5523 53 25 53C24.4477 53 24 52.5523 24 52Z" fill="#8569B4"/>
<path d="M32 52C32 51.4477 32.4477 51 33 51C33.5523 51 34 51.4477 34 52C34 52.5523 33.5523 53 33 53C32.4477 53 32 52.5523 32 52Z" fill="#8569B4"/>
<path d="M36 52C36 51.4477 36.4477 51 37 51C37.5523 51 38 51.4477 38 52C38 52.5523 37.5523 53 37 53C36.4477 53 36 52.5523 36 52Z" fill="#8569B4"/>
<path d="M40 52C40 51.4477 40.4477 51 41 51C41.5523 51 42 51.4477 42 52C42 52.5523 41.5523 53 41 53C40.4477 53 40 52.5523 40 52Z" fill="#8569B4"/>
<path d="M44 52C44 51.4477 44.4477 51 45 51C45.5523 51 46 51.4477 46 52C46 52.5523 45.5523 53 45 53C44.4477 53 44 52.5523 44 52Z" fill="#8569B4"/>
<path d="M48 52C48 51.4477 48.4477 51 49 51C49.5523 51 50 51.4477 50 52C50 52.5523 49.5523 53 49 53C48.4477 53 48 52.5523 48 52Z" fill="#8569B4"/>
<path d="M52 52C52 51.4477 52.4477 51 53 51C53.5523 51 54 51.4477 54 52C54 52.5523 53.5523 53 53 53C52.4477 53 52 52.5523 52 52Z" fill="#8569B4"/>
<path d="M56 52C56 51.4477 56.4477 51 57 51C57.5523 51 58 51.4477 58 52C58 52.5523 57.5523 53 57 53C56.4477 53 56 52.5523 56 52Z" fill="#8569B4"/>
<path d="M60 52C60 51.4477 60.4477 51 61 51C61.5523 51 62 51.4477 62 52C62 52.5523 61.5523 53 61 53C60.4477 53 60 52.5523 60 52Z" fill="#8569B4"/>
<path d="M64 52C64 51.4477 64.4477 51 65 51C65.5523 51 66 51.4477 66 52C66 52.5523 65.5523 53 65 53C64.4477 53 64 52.5523 64 52Z" fill="#8569B4"/>
<path d="M68 52C68 51.4477 68.4477 51 69 51C69.5523 51 70 51.4477 70 52C70 52.5523 69.5523 53 69 53C68.4477 53 68 52.5523 68 52Z" fill="#8569B4"/>
<path d="M72 52C72 51.4477 72.4477 51 73 51C73.5523 51 74 51.4477 74 52C74 52.5523 73.5523 53 73 53C72.4477 53 72 52.5523 72 52Z" fill="#8569B4"/>
</svg>
