<svg width="96" height="96" viewBox="0 0 96 96" fill="none" xmlns="http://www.w3.org/2000/svg">
<path d="M21.915 20.5L21.915 12C21.915 9.79086 23.7059 8 25.915 8L81.915 8.00001C84.1242 8.00001 85.915 9.79087 85.915 12L85.915 84C85.915 85.4761 84.1304 86.2153 83.0866 85.1716V85.1716C82.4396 84.5245 81.3905 84.5245 80.7435 85.1716L79.915 86C78.8105 87.1046 77.0196 87.1046 75.915 86V86C74.8105 84.8954 73.0196 84.8954 71.915 86V86C70.8105 87.1046 69.0196 87.1046 67.915 86V86C66.8105 84.8954 65.0196 84.8954 63.915 86V86C62.8105 87.1046 61.0196 87.1046 59.915 86V86C58.8105 84.8954 57.0196 84.8954 55.915 86V86C54.8105 87.1046 53.0196 87.1046 51.915 86V86C50.8105 84.8954 49.0196 84.8954 47.915 86V86C46.8105 87.1046 45.0196 87.1046 43.915 86V86C42.8105 84.8954 41.0196 84.8954 39.915 86V86C38.8105 87.1046 37.0196 87.1046 35.915 86V86C34.8105 84.8954 33.0196 84.8954 31.915 86V86C30.8105 87.1046 29.0196 87.1046 27.915 86L27.0866 85.1716C26.4396 84.5245 25.3905 84.5245 24.7435 85.1716V85.1716C23.6997 86.2153 21.915 85.4761 21.915 84L21.915 47" stroke="#8569B4" stroke-width="2" stroke-linecap="round" stroke-linejoin="round"/>
<rect x="31.915" y="24" width="28" height="2" rx="1" fill="#8569B4"/>
<rect x="67.915" y="24" width="8" height="2" rx="1" fill="#8569B4"/>
<rect x="35.915" y="30" width="24" height="2" rx="1" fill="#8569B4"/>
<rect x="67.915" y="30" width="8" height="2" rx="1" fill="#8569B4"/>
<rect x="35.915" y="36" width="24" height="2" rx="1" fill="#8569B4"/>
<rect x="31.915" y="42" width="28" height="2" rx="1" fill="#8569B4"/>
<path d="M32.915 55C32.915 54.4477 33.3628 54 33.915 54C34.4673 54 34.915 54.4477 34.915 55C34.915 55.5523 34.4673 56 33.915 56C33.3628 56 32.915 55.5523 32.915 55Z" fill="#8569B4"/>
<path d="M28.915 55C28.915 54.4477 29.3628 54 29.915 54C30.4673 54 30.915 54.4477 30.915 55C30.915 55.5523 30.4673 56 29.915 56C29.3628 56 28.915 55.5523 28.915 55Z" fill="#8569B4"/>
<path d="M36.915 55C36.915 54.4477 37.3628 54 37.915 54C38.4673 54 38.915 54.4477 38.915 55C38.915 55.5523 38.4673 56 37.915 56C37.3628 56 36.915 55.5523 36.915 55Z" fill="#8569B4"/>
<path d="M40.915 55C40.915 54.4477 41.3628 54 41.915 54C42.4673 54 42.915 54.4477 42.915 55C42.915 55.5523 42.4673 56 41.915 56C41.3628 56 40.915 55.5523 40.915 55Z" fill="#8569B4"/>
<path d="M44.915 55C44.915 54.4477 45.3628 54 45.915 54C46.4673 54 46.915 54.4477 46.915 55C46.915 55.5523 46.4673 56 45.915 56C45.3628 56 44.915 55.5523 44.915 55Z" fill="#8569B4"/>
<path d="M48.915 55C48.915 54.4477 49.3628 54 49.915 54C50.4673 54 50.915 54.4477 50.915 55C50.915 55.5523 50.4673 56 49.915 56C49.3628 56 48.915 55.5523 48.915 55Z" fill="#8569B4"/>
<path d="M52.915 55C52.915 54.4477 53.3628 54 53.915 54C54.4673 54 54.915 54.4477 54.915 55C54.915 55.5523 54.4673 56 53.915 56C53.3628 56 52.915 55.5523 52.915 55Z" fill="#8569B4"/>
<path d="M56.915 55C56.915 54.4477 57.3628 54 57.915 54C58.4673 54 58.915 54.4477 58.915 55C58.915 55.5523 58.4673 56 57.915 56C57.3628 56 56.915 55.5523 56.915 55Z" fill="#8569B4"/>
<path d="M60.915 55C60.915 54.4477 61.3628 54 61.915 54C62.4673 54 62.915 54.4477 62.915 55C62.915 55.5523 62.4673 56 61.915 56C61.3628 56 60.915 55.5523 60.915 55Z" fill="#8569B4"/>
<path d="M64.915 55C64.915 54.4477 65.3628 54 65.915 54C66.4673 54 66.915 54.4477 66.915 55C66.915 55.5523 66.4673 56 65.915 56C65.3628 56 64.915 55.5523 64.915 55Z" fill="#8569B4"/>
<path d="M68.915 55C68.915 54.4477 69.3628 54 69.915 54C70.4673 54 70.915 54.4477 70.915 55C70.915 55.5523 70.4673 56 69.915 56C69.3628 56 68.915 55.5523 68.915 55Z" fill="#8569B4"/>
<path d="M72.915 55C72.915 54.4477 73.3628 54 73.915 54C74.4673 54 74.915 54.4477 74.915 55C74.915 55.5523 74.4673 56 73.915 56C73.3628 56 72.915 55.5523 72.915 55Z" fill="#8569B4"/>
<path d="M76.915 55C76.915 54.4477 77.3628 54 77.915 54C78.4673 54 78.915 54.4477 78.915 55C78.915 55.5523 78.4673 56 77.915 56C77.3628 56 76.915 55.5523 76.915 55Z" fill="#8569B4"/>
<rect x="31.915" y="64" width="30" height="2" rx="1" fill="#8569B4"/>
<rect x="67.915" y="36" width="8" height="2" rx="1" fill="#8569B4"/>
<rect x="67.915" y="42" width="8" height="2" rx="1" fill="#8569B4"/>
<rect x="67.915" y="64" width="8" height="2" rx="1" fill="#8569B4"/>
<rect x="67.915" y="70" width="8" height="2" rx="1" fill="#8569B4"/>
<path d="M28.7969 37.7161C29.5825 36.4905 30 35.0653 30 33.6096C30.0001 32.3833 29.7038 31.1752 29.1364 30.0881C28.569 29.001 27.7472 28.0672 26.7411 27.3661C25.735 26.6651 24.5744 26.2176 23.3581 26.0617C22.1417 25.9059 20.9058 26.0463 19.7554 26.471C18.6051 26.8958 17.5744 27.5923 16.7512 28.5012C15.9281 29.4101 15.3367 30.5044 15.0276 31.6911C14.7186 32.8778 14.7009 34.1216 14.976 35.3166C15.1818 36.2102 15.5468 37.0567 16.0511 37.8165C16.3398 38.2516 16.3233 38.8392 15.9541 39.2083L10.4138 44.7486C10.1853 44.9772 10.1853 45.3477 10.4138 45.5762C10.6424 45.8048 11.0129 45.8048 11.2414 45.5762L16.7793 40.0384C17.149 39.6687 17.7376 39.6527 18.1728 39.9425C19.1197 40.5733 20.1996 40.9859 21.3341 41.145C22.7757 41.3472 24.2451 41.1316 25.5678 40.5239C26.8906 39.9161 28.0113 38.9416 28.7969 37.7161Z" stroke="#8569B4" stroke-width="2" stroke-linecap="round" stroke-linejoin="round"/>
</svg>
