<svg width="24" height="24" viewBox="0 0 24 24" fill="none" xmlns="http://www.w3.org/2000/svg">
<path d="M1.5 5.50001V6.5C1.5 8.70914 3.29086 10.5 5.5 10.5H6.5C8.70914 10.5 10.5 8.70914 10.5 6.5V5.50001C10.5 3.29087 8.70914 1.50001 6.50001 1.50001L5.50001 1.50001C3.29087 1.5 1.5 3.29087 1.5 5.50001Z" stroke="#B6A1DA" stroke-width="2"/>
<path d="M1.5 17.5V18.5C1.5 20.7091 3.29086 22.5 5.5 22.5H6.5C8.70914 22.5 10.5 20.7091 10.5 18.5V17.5C10.5 15.2909 8.70914 13.5 6.50001 13.5L5.50001 13.5C3.29087 13.5 1.5 15.2909 1.5 17.5Z" stroke="#B6A1DA" stroke-width="2"/>
<path d="M13.5 5.50001V6.5C13.5 8.70914 15.2909 10.5 17.5 10.5H18.5C20.7091 10.5 22.5 8.70914 22.5 6.5V5.50001C22.5 3.29087 20.7091 1.50001 18.5 1.50001L17.5 1.50001C15.2909 1.5 13.5 3.29087 13.5 5.50001Z" stroke="#B6A1DA" stroke-width="2"/>
<path d="M13.5 17.5V18.5C13.5 20.7091 15.2909 22.5 17.5 22.5H18.5C20.7091 22.5 22.5 20.7091 22.5 18.5V17.5C22.5 15.2909 20.7091 13.5 18.5 13.5L17.5 13.5C15.2909 13.5 13.5 15.2909 13.5 17.5Z" stroke="#B6A1DA" stroke-width="2"/>
<rect x="1.5" y="3.75" width="9" height="1.5" rx="0.75" fill="#B6A1DA"/>
<rect x="1.5" y="15.75" width="9" height="1.5" rx="0.75" fill="#B6A1DA"/>
<rect x="13.5" y="3.75" width="9" height="1.5" rx="0.75" fill="#B6A1DA"/>
<rect x="13.5" y="15.75" width="9" height="1.5" rx="0.75" fill="#B6A1DA"/>
</svg>
