<svg width="24" height="24" viewBox="0 0 24 24" fill="none" xmlns="http://www.w3.org/2000/svg">
<g clip-path="url(#clip0)">
<path d="M0.75 7.00001V21.6295C0.75 22.6024 1.99828 23.0024 2.56374 22.2108L3.30354 21.175C4.05438 20.1239 5.26667 19.5 6.55847 19.5H19.25C21.4591 19.5 23.25 17.7091 23.25 15.5V7.00002C23.25 4.79089 21.4591 3.00003 19.25 3.00002L4.75001 3.00001C2.54086 3 0.75 4.79086 0.75 7.00001Z" stroke="#B6A1DA" stroke-width="2"/>
<path d="M11.25 8.625C11.25 9.24632 10.7463 9.75 10.125 9.75C9.50368 9.75 9 9.24632 9 8.625C9 8.00368 9.50368 7.5 10.125 7.5C10.7463 7.5 11.25 8.00368 11.25 8.625Z" fill="#B6A1DA"/>
<circle cx="14.625" cy="8.625" r="1.125" fill="#B6A1DA"/>
<path d="M9 12C9.58927 13.299 10.8975 14.2025 12.4168 14.2025C13.9361 14.2025 15.2443 13.299 15.8336 12" stroke="#B6A1DA" stroke-width="2" stroke-linecap="round" stroke-linejoin="round"/>
</g>
<defs>
<clipPath id="clip0">
<rect width="24" height="24" fill="white"/>
</clipPath>
</defs>
</svg>
