<?xml version="1.0" encoding="utf-8"?>
<!-- Generator: Adobe Illustrator 24.1.0, SVG Export Plug-In . SVG Version: 6.00 Build 0)  -->
<svg version="1.1" id="Capa_1" xmlns="http://www.w3.org/2000/svg" xmlns:xlink="http://www.w3.org/1999/xlink" x="0px" y="0px"
	 viewBox="0 0 64 64" style="enable-background:new 0 0 64 64;" xml:space="preserve">
<style type="text/css">
	.st0{fill:url(#SVGID_1_);}
	.st1{clip-path:url(#SVGID_3_);}
	.st2{fill:none;stroke:#FFFFFF;stroke-width:2;}
	.st3{fill:#FFFFFF;}
	.st4{fill:none;stroke:#FFFFFF;stroke-width:2;stroke-linecap:round;stroke-linejoin:round;}
</style>
<g>
	
		<linearGradient id="SVGID_1_" gradientUnits="userSpaceOnUse" x1="32" y1="102" x2="32" y2="38" gradientTransform="matrix(1 0 0 -1 0 102)">
		<stop  offset="0" style="stop-color:#FFC8B0"/>
		<stop  offset="1" style="stop-color:#ED7F4F"/>
	</linearGradient>
	<path class="st0" d="M16,0h32c8.8,0,16,7.2,16,16v32c0,8.8-7.2,16-16,16H16C7.2,64,0,56.8,0,48V16C0,7.2,7.2,0,16,0z"/>
</g>
<g>
	<defs>
		<rect id="SVGID_2_" x="16" y="16" width="32" height="32"/>
	</defs>
	<clipPath id="SVGID_3_">
		<use xlink:href="#SVGID_2_"  style="overflow:visible;"/>
	</clipPath>
	<g class="st1">
		<path class="st2" d="M17,24v21.9c0,1,1.2,1.4,1.8,0.6l2-2.8c0.8-1.1,2-1.7,3.3-1.7H43c2.2,0,4-1.8,4-4V24c0-2.2-1.8-4-4-4H21
			C18.8,20,17,21.8,17,24z"/>
		<path class="st3" d="M31,27.5c0,0.8-0.7,1.5-1.5,1.5S28,28.3,28,27.5s0.7-1.5,1.5-1.5S31,26.7,31,27.5z"/>
		<circle class="st3" cx="35.5" cy="27.5" r="1.5"/>
		<path class="st4" d="M28,32c0.8,1.7,2.5,2.9,4.6,2.9c2,0,3.8-1.2,4.6-2.9"/>
	</g>
</g>
</svg>
