<?xml version="1.0" encoding="utf-8"?>
<!-- Generator: Adobe Illustrator 24.1.0, SVG Export Plug-In . SVG Version: 6.00 Build 0)  -->
<svg version="1.1" id="Capa_1" xmlns="http://www.w3.org/2000/svg" xmlns:xlink="http://www.w3.org/1999/xlink" x="0px" y="0px"
	 viewBox="0 0 64 64" style="enable-background:new 0 0 64 64;" xml:space="preserve">
<style type="text/css">
	.st0{fill:url(#SVGID_1_);}
	.st1{fill:none;stroke:#FFFFFF;stroke-width:2;}
	.st2{fill:#FFFFFF;}
</style>
<g>
	
		<linearGradient id="SVGID_1_" gradientUnits="userSpaceOnUse" x1="32" y1="100" x2="32" y2="36" gradientTransform="matrix(1 0 0 -1 0 100)">
		<stop  offset="0" style="stop-color:#FFC8B0"/>
		<stop  offset="1" style="stop-color:#ED7F4F"/>
	</linearGradient>
	<path class="st0" d="M16,0h32c8.8,0,16,7.2,16,16v32c0,8.8-7.2,16-16,16H16C7.2,64,0,56.8,0,48V16C0,7.2,7.2,0,16,0z"/>
</g>
<path class="st1" d="M18,22v4c0,2.2,1.8,4,4,4h4c2.2,0,4-1.8,4-4v-4c0-2.2-1.8-4-4-4h-4C19.8,18,18,19.8,18,22z"/>
<path class="st1" d="M18,38v4c0,2.2,1.8,4,4,4h4c2.2,0,4-1.8,4-4v-4c0-2.2-1.8-4-4-4h-4C19.8,34,18,35.8,18,38z"/>
<path class="st1" d="M34,22v4c0,2.2,1.8,4,4,4h4c2.2,0,4-1.8,4-4v-4c0-2.2-1.8-4-4-4h-4C35.8,18,34,19.8,34,22z"/>
<path class="st1" d="M34,38v4c0,2.2,1.8,4,4,4h4c2.2,0,4-1.8,4-4v-4c0-2.2-1.8-4-4-4h-4C35.8,34,34,35.8,34,38z"/>
<path class="st2" d="M19,21h10c0.6,0,1,0.4,1,1l0,0c0,0.6-0.4,1-1,1H19c-0.6,0-1-0.4-1-1l0,0C18,21.4,18.4,21,19,21z"/>
<path class="st2" d="M19,37h10c0.6,0,1,0.4,1,1l0,0c0,0.6-0.4,1-1,1H19c-0.6,0-1-0.4-1-1l0,0C18,37.4,18.4,37,19,37z"/>
<path class="st2" d="M35,21h10c0.6,0,1,0.4,1,1l0,0c0,0.6-0.4,1-1,1H35c-0.6,0-1-0.4-1-1l0,0C34,21.4,34.4,21,35,21z"/>
<path class="st2" d="M35,37h10c0.6,0,1,0.4,1,1l0,0c0,0.6-0.4,1-1,1H35c-0.6,0-1-0.4-1-1l0,0C34,37.4,34.4,37,35,37z"/>
</svg>
