<?xml version="1.0" encoding="UTF-8"?>
<!-- Generator: Adobe Illustrator 23.0.2, SVG Export Plug-In . SVG Version: 6.00 Build 0)  -->
<svg version="1.1" id="Layer_1"  width="60" height="64"  xmlns="http://www.w3.org/2000/svg" xmlns:xlink="http://www.w3.org/1999/xlink" x="0px" y="0px" viewBox="0 0 29.3 32" style="enable-background:new 0 0 29.3 32;" xml:space="preserve">
<style type="text/css">
	.st0{fill:#8569B4;}
</style>
<g>
	<path class="st0" d="M19.8,12.2v-1.3c0-0.3-0.2-0.5-0.5-0.5s-0.5,0.2-0.5,0.5v1.1c0,0,0,0,0,0c0,0-0.1,0-0.1,0h-0.1   c-0.3-1.4-1.4-2.4-2.7-2.8V7.9c0-0.3-0.2-0.5-0.5-0.5s-0.5,0.2-0.5,0.5v1.1c0,0,0,0,0,0c0,0-0.1,0-0.1,0h-4c0,0-0.1,0-0.1,0   c0,0,0,0,0,0V7.9c0-0.3-0.2-0.5-0.5-0.5S9.5,7.6,9.5,7.9v1.3c-1.7,0.5-2.9,2-2.9,3.8v4c0,2.2,1.8,4,4,4h0.1c0.4,1.7,2,3,3.9,3h4   c2.2,0,4-1.8,4-4v-4C22.7,14.2,21.5,12.7,19.8,12.2z M21.5,15h-2.8v-2C20,13,21.1,13.9,21.5,15z M10.7,10h4c1.3,0,2.4,0.8,2.8,2   h-2.8H7.8C8.3,10.9,9.4,10,10.7,10z M10.7,20c-1.7,0-3-1.4-3-3v-4H12h5.6v2v1v1c0,1.6-1.3,3-3,3h-3H10.7z M21.7,20c0,1.6-1.3,3-3,3   h-4c-1.3,0-2.4-0.8-2.8-2h2.8c2.2,0,4-1.8,4-4v-1h3V20z"/>
	<path class="st0" d="M27.1,28.3c0.1,0.1,0.2,0.1,0.4,0.1s0.3,0,0.4-0.1c0.2-0.2,0.2-0.5,0-0.7l-2.5-2.5c-0.2-0.2-0.5-0.2-0.7,0   s-0.2,0.5,0,0.7L27.1,28.3z"/>
	<path class="st0" d="M5.1,25.1l-2.5,2.5c-0.2,0.2-0.2,0.5,0,0.7c0.1,0.1,0.2,0.1,0.4,0.1s0.3,0,0.4-0.1l2.5-2.5   c0.2-0.2,0.2-0.5,0-0.7S5.3,24.9,5.1,25.1z"/>
	<path class="st0" d="M15.2,30c0.3,0,0.5-0.2,0.5-0.5v-2c0-0.3-0.2-0.5-0.5-0.5s-0.5,0.2-0.5,0.5v2C14.7,29.8,14.9,30,15.2,30z"/>
	<path class="st0" d="M4.3,3.7C4.2,3.6,4,3.5,3.9,3.5c-0.1,0-0.3,0-0.4,0.1c-0.2,0.2-0.2,0.5,0,0.7l2.5,2.5c0.2,0.2,0.5,0.2,0.7,0   s0.2-0.5,0-0.7L4.3,3.7z"/>
	<path class="st0" d="M25.3,6.9l2.5-2.5c0.2-0.2,0.2-0.5,0-0.7c-0.1-0.1-0.2-0.1-0.4-0.1s-0.3,0-0.4,0.1l-2.5,2.5   c-0.2,0.2-0.2,0.5,0,0.7S25.1,7.1,25.3,6.9z"/>
	<path class="st0" d="M15.2,2c-0.3,0-0.5,0.2-0.5,0.5v2c0,0.3,0.2,0.5,0.5,0.5s0.5-0.2,0.5-0.5v-2C15.7,2.2,15.4,2,15.2,2z"/>
	<path class="st0" d="M25.7,17.5c0,0.3,0.2,0.5,0.5,0.5h2c0.3,0,0.5-0.2,0.5-0.5S28.4,17,28.2,17h-2C25.9,17,25.7,17.3,25.7,17.5z"/>
	<path class="st0" d="M1.2,18h2c0.3,0,0.5-0.2,0.5-0.5S3.4,17,3.2,17h-2c-0.3,0-0.5,0.2-0.5,0.5S0.9,18,1.2,18z"/>
</g>
</svg>