<svg width="359" height="203" viewBox="12 99 329 1" fill="none" xmlns="http://www.w3.org/2000/svg">
<mask id="mask0" mask-type="alpha" maskUnits="userSpaceOnUse" x="12" y="8" width="327" height="171">
<rect x="12" y="8" width="327" height="171" rx="8" fill="white"/>
</mask>
<g mask="url(#mask0)">
<g style="mix-blend-mode:multiply">
<path d="M-60.9062 10.208C-60.9062 102.99 -87.4865 186.692 -5.1875 186.692C77.1116 186.692 398.451 272.151 414 128.989C414 36.2076 395.859 127.805 283.773 63.9821C171.688 0.158918 35.6299 -63.841 -60.9062 10.208Z" fill="#000099"/>
</g>
<g style="mix-blend-mode:multiply">
<path d="M371.718 -11.6724C371.718 87.0316 393.027 176.077 327.05 176.077C261.073 176.077 3.46554 266.991 -9 114.691C-9 15.9868 5.54308 113.431 95.3989 45.5341C185.255 -22.3629 294.328 -90.4479 371.718 -11.6724Z" fill="#0000CC"/>
</g>
<g style="mix-blend-mode:screen">
<path d="M459.419 113.555C459.419 154.221 489.162 190.908 397.07 190.908C304.977 190.908 -54.6002 228.364 -72 165.617C-72 124.951 -51.7003 165.098 73.7234 137.124C199.147 109.151 351.395 81.0995 459.419 113.555Z" fill="#E0504C"/>
</g>
</g>
</svg>
