<svg width="65" height="45" viewBox="0 0 65 45" fill="none" xmlns="http://www.w3.org/2000/svg">
<path d="M45.9099 11.68C45.9099 6.85999 39.9099 2.92999 32.5399 2.92999C25.1699 2.92999 19.1699 6.85999 19.1699 11.68C19.1699 11.8 19.1699 12.15 19.1699 12.19C19.1699 17.3 24.4099 21.44 32.5499 21.44C40.6899 21.44 45.9199 17.3 45.9199 12.19L45.9099 11.68Z" fill="#2C3378"/>
<path d="M45.3997 11.67C45.3997 16.22 39.6397 19.9 32.5397 19.9C25.4397 19.9 19.6797 16.22 19.6797 11.67C19.6797 7.12 25.4397 3.45 32.5397 3.45C39.6397 3.45 45.3997 7.13 45.3997 11.67Z" fill="#219CD8"/>
<path d="M28.2704 9.08C28.2704 9.08 28.1404 9.22 28.2204 9.33C28.4238 9.48963 28.6629 9.59758 28.9171 9.6446C29.1714 9.69163 29.4333 9.67632 29.6804 9.6C30.1708 9.40389 30.6189 9.11532 31.0004 8.75C31.4476 8.33414 31.9614 7.99614 32.5204 7.75C32.8795 7.62344 33.2712 7.62344 33.6304 7.75C33.9974 7.883 34.3365 8.08307 34.6304 8.34C35.5104 9 39.0504 12.09 39.6304 12.62C41.4511 11.834 43.3431 11.2245 45.2804 10.8C44.9369 9.11142 43.9826 7.60885 42.6004 6.58C41.5122 7.10782 40.3218 7.39117 39.1125 7.41018C37.9033 7.42918 36.7045 7.18337 35.6004 6.69C34.7742 6.31161 33.8789 6.10737 32.9704 6.09C32.2672 6.09508 31.574 6.25654 30.941 6.56268C30.3079 6.86881 29.7509 7.31196 29.3104 7.86L28.2704 9.08Z" fill="white"/>
<path d="M39.5303 13C39.5303 13 35.3703 9.35 34.4403 8.65C34.1131 8.3612 33.711 8.17057 33.2803 8.1C33.0981 8.0848 32.9147 8.10518 32.7403 8.16C32.1909 8.34775 31.6796 8.63223 31.2303 9C30.8096 9.40317 30.3088 9.71323 29.7603 9.91C29.2089 10.0242 28.6349 9.93912 28.1403 9.67C28.0253 9.60007 27.9319 9.49971 27.8703 9.38C27.8391 9.29006 27.8348 9.19299 27.8579 9.10065C27.881 9.0083 27.9305 8.92468 28.0003 8.86L29.1303 7.63L29.5403 7.23C29.2021 7.28825 28.8681 7.36842 28.5403 7.47C28.1482 7.59535 27.7415 7.6693 27.3303 7.69C26.9169 7.65113 26.5062 7.58769 26.1003 7.5C24.9717 7.20841 23.8734 6.80995 22.8203 6.31C21.306 7.33721 20.2347 8.89769 19.8203 10.68L20.5803 10.89C24.2403 11.7 25.3803 12.54 25.5803 12.71C25.7017 12.5726 25.8527 12.4646 26.0219 12.3942C26.1911 12.3237 26.3741 12.2926 26.5571 12.3031C26.74 12.3137 26.9182 12.3658 27.0782 12.4553C27.2381 12.5448 27.3756 12.6695 27.4803 12.82C27.729 12.6262 28.0351 12.5206 28.3503 12.52C28.5307 12.5215 28.7096 12.5519 28.8803 12.61C29.0423 12.661 29.1914 12.7464 29.3174 12.8603C29.4434 12.9742 29.5433 13.1139 29.6103 13.27C29.771 13.1987 29.9446 13.1613 30.1203 13.16C30.3311 13.1644 30.5387 13.2121 30.7303 13.3C30.9954 13.4261 31.2105 13.6375 31.3411 13.9005C31.4717 14.1634 31.5101 14.4626 31.4503 14.75H31.5903C31.9662 14.7604 32.3233 14.9163 32.5864 15.185C32.8494 15.4537 32.9979 15.814 33.0003 16.19C33.0009 16.4304 32.9426 16.6674 32.8303 16.88C33.2088 17.1113 33.647 17.226 34.0903 17.21C34.3121 17.2068 34.5238 17.1171 34.6803 16.96C34.6803 16.91 34.7503 16.85 34.6803 16.8L33.6803 15.66C33.6803 15.66 33.5103 15.5 33.5703 15.43C33.6303 15.36 33.7303 15.43 33.8103 15.52C34.3303 15.96 34.9703 16.62 34.9703 16.62C35.0489 16.6974 35.1509 16.7466 35.2603 16.76C35.5479 16.8046 35.8417 16.7366 36.0803 16.57C36.1477 16.5141 36.2082 16.4503 36.2603 16.38C36.3349 16.2824 36.3753 16.1629 36.3753 16.04C36.3753 15.9171 36.3349 15.7976 36.2603 15.7L35.0003 14.36C35.0003 14.36 34.8303 14.2 34.8903 14.14C34.9503 14.08 35.0503 14.14 35.1303 14.23C35.5103 14.55 36.0503 15.09 36.5703 15.59C36.7387 15.7083 36.9395 15.7718 37.1453 15.7718C37.3511 15.7718 37.5519 15.7083 37.7203 15.59C37.8555 15.5184 37.9676 15.4099 38.0437 15.2772C38.1198 15.1444 38.1568 14.9929 38.1503 14.84C38.1201 14.6496 38.0289 14.4741 37.8903 14.34L36.2503 12.68C36.2503 12.68 36.0803 12.53 36.1403 12.46C36.2003 12.39 36.3003 12.46 36.3703 12.55C36.9003 12.99 38.3203 14.29 38.3203 14.29C38.4846 14.3996 38.6778 14.4581 38.8753 14.4581C39.0729 14.4581 39.266 14.3996 39.4303 14.29C39.5357 14.2296 39.6245 14.1441 39.6891 14.0412C39.7536 13.9383 39.7918 13.8212 39.8003 13.7C39.8104 13.5706 39.7914 13.4405 39.7446 13.3194C39.6979 13.1983 39.6247 13.0891 39.5303 13Z" fill="white"/>
<path d="M31.5503 15.06C31.3573 15.089 31.1668 15.1324 30.9803 15.19C30.9803 15.19 30.9803 15.07 30.9803 15.01C30.9803 14.95 31.3403 13.94 30.5203 13.59C30.3359 13.4972 30.1274 13.4638 29.9233 13.4942C29.7192 13.5247 29.5295 13.6175 29.3803 13.76H29.3303C29.3242 13.5708 29.2593 13.3882 29.1446 13.2377C29.0299 13.0871 28.8711 12.9761 28.6903 12.92C28.4358 12.8399 28.1621 12.8454 27.911 12.9357C27.66 13.026 27.4454 13.1961 27.3003 13.42C27.281 13.2472 27.212 13.0836 27.1016 12.9491C26.9913 12.8147 26.8444 12.7151 26.6787 12.6624C26.5129 12.6096 26.3354 12.6061 26.1677 12.6521C26 12.6981 25.8492 12.7917 25.7336 12.9217C25.6179 13.0516 25.5424 13.2122 25.5162 13.3842C25.4899 13.5561 25.514 13.732 25.5856 13.8905C25.6572 14.049 25.7732 14.1833 25.9196 14.2773C26.0659 14.3713 26.2364 14.4209 26.4103 14.42C26.6412 14.4183 26.8628 14.329 27.0303 14.17C26.9684 14.4466 27.008 14.7362 27.1421 14.9859C27.2761 15.2356 27.4956 15.4288 27.7603 15.53C27.905 15.5842 28.0613 15.5998 28.2138 15.5752C28.3664 15.5507 28.5099 15.4868 28.6303 15.39C28.7003 15.34 28.7103 15.39 28.7003 15.39C28.6797 15.5907 28.7321 15.792 28.8478 15.9573C28.9634 16.1225 29.1347 16.2406 29.3303 16.29C29.484 16.3682 29.6592 16.3939 29.8289 16.3632C29.9986 16.3325 30.1536 16.2471 30.2703 16.12C30.3503 16.05 30.3703 16.06 30.3703 16.12C30.3856 16.4101 30.511 16.6834 30.721 16.8842C30.9311 17.0849 31.2098 17.1979 31.5003 17.2C31.6491 17.2013 31.7966 17.173 31.9343 17.1167C32.072 17.0604 32.1971 16.9772 32.3023 16.872C32.4075 16.7668 32.4907 16.6417 32.547 16.504C32.6033 16.3663 32.6316 16.2188 32.6303 16.07C32.5997 15.8008 32.4742 15.5512 32.2762 15.3661C32.0783 15.1811 31.821 15.0725 31.5503 15.06Z" fill="white"/>
<path d="M39.6897 12.53C38.4197 11.43 35.4897 8.88 34.6897 8.28C34.3913 8.02683 34.0535 7.82416 33.6897 7.68C33.5251 7.6259 33.3529 7.59888 33.1797 7.6C32.9621 7.60495 32.7464 7.64202 32.5397 7.71C31.979 7.95287 31.4647 8.29122 31.0197 8.71C30.6456 9.06517 30.208 9.34674 29.7297 9.54C29.5716 9.57145 29.4109 9.58819 29.2497 9.59C29.0879 9.60398 28.925 9.58553 28.7704 9.53574C28.6159 9.48594 28.4729 9.40579 28.3497 9.3C28.3497 9.3 28.3497 9.22 28.3497 9.16L29.4597 7.96C29.892 7.41917 30.4395 6.98149 31.0622 6.67877C31.6849 6.37606 32.3673 6.21592 33.0597 6.21H33.1597C34.0228 6.24702 34.8711 6.44722 35.6597 6.8C36.7155 7.3295 37.8786 7.61001 39.0597 7.62C40.3571 7.59622 41.6335 7.28905 42.7997 6.72C42.6597 6.6 42.4997 6.48 42.3497 6.37C41.3183 6.83786 40.2021 7.0897 39.0697 7.11C37.9613 7.10231 36.8696 6.8388 35.8797 6.34C35.0224 5.95446 34.099 5.73719 33.1597 5.7H32.9997C31.869 5.6901 30.7712 6.07966 29.8997 6.8C29.3729 6.83126 28.8521 6.92869 28.3497 7.09C27.9971 7.20724 27.6306 7.27784 27.2597 7.3H26.8497C25.5332 7.04708 24.244 6.66868 22.9997 6.17L22.5397 6.51C23.9044 7.08181 25.3305 7.49453 26.7897 7.74H27.3297C27.7477 7.72197 28.1614 7.64798 28.5597 7.52C28.7997 7.45 29.0597 7.38 29.3397 7.32L29.1197 7.54L27.9997 8.8C27.9137 8.87739 27.8533 8.9791 27.8265 9.09163C27.7997 9.20415 27.8078 9.32217 27.8497 9.43C27.9141 9.56461 28.0145 9.67881 28.1397 9.76C28.5101 9.96352 28.9271 10.0669 29.3497 10.06C29.5112 10.0642 29.6725 10.0474 29.8297 10.01C30.388 9.81053 30.8988 9.49725 31.3297 9.09C31.7653 8.70895 32.2669 8.41072 32.8097 8.21C32.9428 8.17047 33.0809 8.15027 33.2197 8.15H33.3297C33.7426 8.22351 34.127 8.41048 34.4397 8.69C35.3697 9.39 39.4397 12.99 39.5297 13.03C39.6137 13.1048 39.6798 13.1976 39.7231 13.3015C39.7663 13.4054 39.7857 13.5176 39.7797 13.63C39.771 13.7383 39.7365 13.8429 39.6791 13.9351C39.6217 14.0273 39.543 14.1044 39.4497 14.16C39.2898 14.2675 39.1023 14.3265 38.9097 14.33C38.7399 14.328 38.5739 14.2796 38.4297 14.19C38.4297 14.19 36.9997 12.88 36.4397 12.45C36.3716 12.3821 36.2844 12.3367 36.1897 12.32C36.1745 12.3112 36.1572 12.3066 36.1397 12.3066C36.1221 12.3066 36.1049 12.3112 36.0897 12.32C35.9997 12.42 36.0897 12.56 36.1997 12.65L37.8497 14.31C37.9734 14.4268 38.0544 14.5817 38.0797 14.75C38.0833 14.8896 38.049 15.0275 37.9803 15.149C37.9116 15.2706 37.8111 15.3711 37.6897 15.44C37.5143 15.5566 37.3101 15.6224 37.0997 15.63C36.9334 15.6257 36.7712 15.5774 36.6297 15.49L36.3997 15.25C35.9597 14.83 35.5197 14.39 35.1897 14.12C35.1388 14.0631 35.073 14.0215 34.9997 14C34.9643 13.9861 34.925 13.9861 34.8897 14C34.8897 14 34.8297 14.12 34.8897 14.24C34.9167 14.2728 34.9469 14.303 34.9797 14.33L36.1797 15.69C36.2455 15.7704 36.2814 15.8711 36.2814 15.975C36.2814 16.0789 36.2455 16.1796 36.1797 16.26V16.32C36.148 16.3584 36.111 16.3921 36.0697 16.42C35.8981 16.5442 35.6915 16.6108 35.4797 16.61H35.3197C35.2316 16.601 35.1481 16.5662 35.0797 16.51C34.7054 16.1235 34.3115 15.7563 33.8997 15.41C33.8423 15.3391 33.7601 15.2926 33.6697 15.28C33.6279 15.2816 33.5884 15.2996 33.5597 15.33C33.4597 15.44 33.6097 15.6 33.6797 15.66L34.6797 16.79C34.6861 16.8129 34.6861 16.8371 34.6797 16.86C34.6797 16.91 34.5197 17.04 34.1497 17.08H34.0097C33.6581 17.0559 33.3164 16.9534 33.0097 16.78C33.1019 16.5757 33.1497 16.3541 33.1497 16.13C33.1497 15.7242 32.9885 15.3351 32.7016 15.0481C32.4146 14.7612 32.0255 14.6 31.6197 14.6H31.4997C31.5421 14.308 31.4891 14.0101 31.3485 13.7506C31.208 13.4912 30.9874 13.284 30.7197 13.16C30.5179 13.0708 30.3003 13.0231 30.0797 13.02C29.9187 13.0199 29.7592 13.0505 29.6097 13.11C29.4543 12.8058 29.1846 12.5756 28.8597 12.47C28.6823 12.411 28.4966 12.3806 28.3097 12.38C28.0051 12.3791 27.7079 12.4735 27.4597 12.65C27.3476 12.5066 27.2062 12.3888 27.0449 12.3044C26.8837 12.22 26.7063 12.171 26.5246 12.1606C26.3429 12.1502 26.161 12.1786 25.9912 12.244C25.8214 12.3095 25.6674 12.4104 25.5397 12.54C25.2197 12.3 23.9497 11.54 20.5397 10.72C20.3797 10.72 19.9997 10.58 19.7697 10.51C19.7291 10.6948 19.6991 10.8818 19.6797 11.07L20.4297 11.24C23.8897 12.01 25.0397 12.81 25.2297 12.96C25.1669 13.1194 25.133 13.2887 25.1297 13.46C25.1297 13.8048 25.2667 14.1354 25.5104 14.3792C25.7542 14.623 26.0849 14.76 26.4297 14.76H26.6697C26.7217 15.0199 26.8416 15.2614 27.0173 15.4599C27.1929 15.6584 27.418 15.8068 27.6697 15.89C27.816 15.9487 27.972 15.9793 28.1297 15.98C28.2291 15.9951 28.3303 15.9951 28.4297 15.98C28.5437 16.233 28.7275 16.4483 28.9595 16.6006C29.1915 16.753 29.4622 16.836 29.7397 16.84C29.8762 16.8419 30.0119 16.8182 30.1397 16.77C30.2533 17.0508 30.4482 17.2913 30.6994 17.4606C30.9507 17.6298 31.2468 17.7202 31.5497 17.72C31.9626 17.7173 32.3578 17.552 32.6497 17.26C33.0484 17.4841 33.4931 17.6141 33.9497 17.64H34.1397C34.3057 17.6302 34.4679 17.5861 34.6159 17.5104C34.764 17.4346 34.8947 17.3289 34.9997 17.2C35.003 17.1701 35.003 17.1399 34.9997 17.11C35.1352 17.1551 35.2769 17.1787 35.4197 17.18C35.7246 17.1728 36.0192 17.0676 36.2597 16.88C36.5089 16.7113 36.6841 16.4537 36.7497 16.16C36.8428 16.1698 36.9366 16.1698 37.0297 16.16C37.337 16.1584 37.6366 16.0643 37.8897 15.89C38.0843 15.779 38.245 15.6169 38.3542 15.4213C38.4635 15.2257 38.5172 15.0039 38.5097 14.78C38.6028 14.7898 38.6966 14.7898 38.7897 14.78C39.0786 14.7792 39.3606 14.6922 39.5997 14.53C39.7586 14.4337 39.8923 14.3009 39.9896 14.1427C40.087 13.9844 40.1453 13.8052 40.1597 13.62C40.1816 13.3603 40.1184 13.1006 39.9797 12.88C41.7139 12.1766 43.5033 11.618 45.3297 11.21C45.3297 11.02 45.3297 10.84 45.2497 10.66C43.3411 11.1052 41.4794 11.7314 39.6897 12.53ZM31.5497 17.24C31.2845 17.24 31.0301 17.1346 30.8426 16.9471C30.655 16.7596 30.5497 16.5052 30.5497 16.24C30.5497 16.24 30.5497 16.06 30.4297 16.06C30.3823 16.0673 30.3394 16.0924 30.3097 16.13C30.2425 16.2007 30.1619 16.2575 30.0727 16.2969C29.9834 16.3364 29.8872 16.3578 29.7897 16.36C29.6729 16.3589 29.5574 16.3352 29.4497 16.29C29.2709 16.2454 29.114 16.138 29.0076 15.9876C28.9012 15.8371 28.8522 15.6535 28.8697 15.47C28.8793 15.4515 28.8844 15.4309 28.8844 15.41C28.8844 15.3891 28.8793 15.3685 28.8697 15.35C28.8337 15.3402 28.7957 15.3402 28.7597 15.35C28.6156 15.4601 28.4409 15.523 28.2597 15.53C28.16 15.5295 28.0614 15.5091 27.9697 15.47C27.7213 15.3773 27.5152 15.1971 27.39 14.9633C27.2648 14.7296 27.2291 14.4582 27.2897 14.2C27.2969 14.1843 27.3006 14.1673 27.3006 14.15C27.3006 14.1327 27.2969 14.1157 27.2897 14.1H27.2397H27.1897C27.094 14.1956 26.9762 14.266 26.8467 14.3051C26.7172 14.3441 26.5801 14.3505 26.4475 14.3237C26.315 14.2969 26.1911 14.2377 26.087 14.1514C25.9828 14.0651 25.9016 13.9544 25.8506 13.8292C25.7996 13.7039 25.7804 13.568 25.7947 13.4335C25.8089 13.299 25.8562 13.1701 25.9324 13.0583C26.0085 12.9466 26.1111 12.8553 26.231 12.7928C26.3509 12.7303 26.4845 12.6984 26.6197 12.7C26.8183 12.6985 27.0105 12.77 27.1598 12.9009C27.3091 13.0317 27.4052 13.2129 27.4297 13.41V13.63L27.5497 13.44C27.6556 13.2844 27.797 13.1561 27.9621 13.0657C28.1273 12.9753 28.3115 12.9253 28.4997 12.92C28.6188 12.9213 28.737 12.9415 28.8497 12.98C29.0145 13.032 29.159 13.1341 29.2629 13.2722C29.3669 13.4102 29.4252 13.5772 29.4297 13.75C29.4297 13.85 29.5097 13.86 29.5297 13.86C29.5587 13.8707 29.5906 13.8707 29.6197 13.86C29.6966 13.7787 29.7898 13.7144 29.8932 13.6713C29.9965 13.6282 30.1077 13.6074 30.2197 13.61C30.3751 13.6106 30.5286 13.6447 30.6697 13.71C31.2997 14 30.9997 15 30.9997 15C30.9297 15.17 30.9297 15.24 30.9997 15.28C31.0492 15.2902 31.1002 15.2902 31.1497 15.28C31.282 15.2327 31.4197 15.2024 31.5597 15.19C31.8374 15.1926 32.1029 15.3041 32.2993 15.5004C32.4956 15.6968 32.6071 15.9623 32.6097 16.24C32.6099 16.3765 32.5822 16.5117 32.5283 16.6371C32.4743 16.7625 32.3952 16.8755 32.2959 16.9692C32.1966 17.0629 32.0792 17.1352 31.9508 17.1818C31.8225 17.2284 31.686 17.2482 31.5497 17.24Z" fill="#2C3378"/>
<path d="M52.8697 26.67C52.5809 26.3809 52.238 26.1516 51.8605 25.9952C51.483 25.8387 51.0784 25.7582 50.6697 25.7582C50.2611 25.7582 49.8565 25.8387 49.479 25.9952C49.1015 26.1516 48.7586 26.3809 48.4697 26.67C48.0033 27.2878 47.751 28.0409 47.751 28.815C47.751 29.5891 48.0033 30.3422 48.4697 30.96C49.0569 31.5365 49.8469 31.8596 50.6697 31.8596C51.4926 31.8596 52.2826 31.5365 52.8697 30.96C53.3362 30.3422 53.5885 29.5891 53.5885 28.815C53.5885 28.0409 53.3362 27.2878 52.8697 26.67ZM51.6697 30.14C51.5542 30.2935 51.4023 30.4159 51.2278 30.4962C51.0532 30.5765 50.8615 30.6121 50.6697 30.6C50.4782 30.6104 50.2871 30.5739 50.1128 30.4937C49.9386 30.4136 49.7865 30.2922 49.6697 30.14C49.4071 29.7482 49.2806 29.2808 49.3097 28.81C49.2806 28.3423 49.4072 27.8781 49.6697 27.49C49.7865 27.3378 49.9386 27.2164 50.1128 27.1363C50.2871 27.0561 50.4782 27.0196 50.6697 27.03C50.8615 27.0179 51.0532 27.0535 51.2278 27.1338C51.4023 27.2141 51.5542 27.3365 51.6697 27.49C51.9218 27.8818 52.0378 28.3457 51.9997 28.81C52.0378 29.2775 51.9219 29.7445 51.6697 30.14Z" fill="#2C3378"/>
<path d="M40.5295 26.16C40.0071 25.9042 39.431 25.7773 38.8495 25.79C38.4723 25.7493 38.0908 25.7968 37.7351 25.9286C37.3793 26.0605 37.059 26.2732 36.7995 26.55C36.5366 26.9072 36.3899 27.3366 36.3795 27.78H37.8195C37.8455 27.5902 37.9214 27.4108 38.0395 27.26C38.1391 27.1632 38.2589 27.0897 38.3904 27.0447C38.5218 26.9998 38.6615 26.9845 38.7995 27C39.0506 26.9876 39.3009 27.0356 39.5295 27.14C39.6128 27.1901 39.6804 27.2626 39.7246 27.3492C39.7688 27.4359 39.7878 27.5331 39.7795 27.63C39.7766 27.7261 39.743 27.8187 39.6836 27.8943C39.6242 27.9698 39.5422 28.0244 39.4495 28.05C39.2563 28.1202 39.0545 28.1639 38.8495 28.18L38.3395 28.25C37.8791 28.2833 37.4301 28.4091 37.0195 28.62C36.7499 28.7696 36.5286 28.993 36.3816 29.2641C36.2346 29.5351 36.1679 29.8424 36.1895 30.15C36.1761 30.3847 36.2149 30.6194 36.3031 30.8372C36.3913 31.0551 36.5267 31.2507 36.6995 31.41C37.0698 31.701 37.5286 31.8562 37.9995 31.85C41.2695 32 41.2395 30.13 41.2695 29.74V27.57C41.2985 27.2883 41.2438 27.0042 41.1122 26.7534C40.9805 26.5026 40.7779 26.2962 40.5295 26.16ZM39.7695 29.43C39.7817 29.6188 39.7492 29.8078 39.6744 29.9816C39.5997 30.1554 39.485 30.309 39.3395 30.43C39.0759 30.6145 38.7613 30.7124 38.4395 30.71C38.2481 30.7195 38.0597 30.6591 37.9095 30.54C37.8332 30.4713 37.7736 30.386 37.7354 30.2906C37.6973 30.1953 37.6816 30.0924 37.6895 29.99C37.6832 29.8603 37.7136 29.7314 37.7773 29.6181C37.841 29.5049 37.9354 29.412 38.0495 29.35C38.2675 29.2452 38.5002 29.1744 38.7395 29.14L39.0795 29.08C39.2148 29.0551 39.3484 29.0217 39.4795 28.98C39.5811 28.9401 39.6783 28.8898 39.7695 28.83V29.43Z" fill="#2C3378"/>
<path d="M33.0701 27.07C33.2245 27.0609 33.3789 27.0878 33.5212 27.1486C33.6635 27.2093 33.7898 27.3022 33.8901 27.42C34.013 27.5916 34.092 27.7908 34.1201 28H35.7301C35.7274 27.6692 35.6495 27.3432 35.5023 27.047C35.355 26.7507 35.1422 26.4918 34.8801 26.29C34.3159 25.9446 33.6607 25.7774 33.0001 25.81C32.6131 25.7874 32.2259 25.849 31.8651 25.9906C31.5042 26.1322 31.1784 26.3503 30.9101 26.63C30.3695 27.266 30.097 28.087 30.1501 28.92C30.132 29.6757 30.3837 30.4131 30.8601 31C31.1309 31.2905 31.4644 31.5153 31.8353 31.6574C32.2061 31.7995 32.6045 31.8551 33.0001 31.82C33.4203 31.8439 33.8401 31.7653 34.2233 31.5911C34.6065 31.4169 34.9417 31.1523 35.2001 30.82C35.4929 30.4484 35.6733 30.0008 35.7201 29.53H34.1101C34.0848 29.7943 33.988 30.0466 33.8301 30.26C33.7265 30.361 33.6022 30.4384 33.4658 30.4868C33.3294 30.5351 33.1842 30.5533 33.0401 30.54C32.8205 30.5543 32.6019 30.4993 32.4153 30.3826C32.2287 30.266 32.0834 30.0937 32.0001 29.89C31.8896 29.5686 31.8387 29.2297 31.8501 28.89C31.837 28.5273 31.8878 28.1651 32.0001 27.82C32.0734 27.5962 32.2173 27.4021 32.4102 27.2669C32.6031 27.1317 32.8346 27.0626 33.0701 27.07Z" fill="#2C3378"/>
<path d="M29.74 25.81C29.3335 25.7611 28.9212 25.8019 28.5322 25.9296C28.1432 26.0573 27.7869 26.2687 27.4885 26.5491C27.19 26.8294 26.9567 27.1717 26.8049 27.552C26.6532 27.9323 26.5866 28.3412 26.61 28.75V31.75H28.12V28.95C28.1042 28.6083 28.1622 28.2672 28.29 27.95C28.4152 27.7448 28.5968 27.58 28.8132 27.4753C29.0295 27.3707 29.2715 27.3306 29.51 27.36H29.68H29.94V25.82H29.74V25.81Z" fill="#2C3378"/>
<path d="M24.1999 30.17C24.1438 30.2553 24.0765 30.3326 23.9999 30.4C23.7543 30.5702 23.4579 30.6514 23.1599 30.63C22.8789 30.6477 22.5994 30.5779 22.3599 30.43C22.1629 30.3024 22.0029 30.1254 21.8958 29.9165C21.7888 29.7077 21.7384 29.4744 21.7499 29.24H25.9099C25.9236 28.8593 25.9069 28.4781 25.8599 28.1C25.7981 27.6785 25.6444 27.2757 25.4099 26.92C25.1628 26.5485 24.8163 26.254 24.4099 26.07C23.9821 25.8928 23.5228 25.8044 23.0599 25.81C22.6904 25.7994 22.3226 25.864 21.9788 25.9998C21.635 26.1356 21.3224 26.3398 21.0599 26.6C20.7815 26.9073 20.5681 27.2676 20.4323 27.6594C20.2966 28.0512 20.2413 28.4664 20.2699 28.88C20.2304 29.3028 20.2882 29.729 20.439 30.126C20.5898 30.523 20.8296 30.8801 21.1399 31.17C21.7045 31.6295 22.412 31.8771 23.1399 31.87C23.538 31.8862 23.935 31.817 24.3041 31.6669C24.6733 31.5168 25.006 31.2894 25.2799 31C25.528 30.7618 25.7076 30.4613 25.7999 30.13L24.1999 30.17ZM22.1999 27.37C22.3173 27.2564 22.457 27.1684 22.6102 27.1116C22.7634 27.0548 22.9268 27.0304 23.0899 27.04C23.415 27.0274 23.7329 27.1381 23.9799 27.35C24.104 27.4651 24.2035 27.6042 24.2722 27.7589C24.341 27.9137 24.3776 28.0807 24.3799 28.25H21.7799C21.8173 27.9219 21.9573 27.614 22.1799 27.37H22.1999Z" fill="#2C3378"/>
<path d="M19.6301 31.73H18.2601V28.27C18.2697 28.1329 18.251 27.9953 18.2051 27.8658C18.1591 27.7363 18.087 27.6176 17.9932 27.5172C17.8993 27.4168 17.7858 27.3368 17.6597 27.2822C17.5335 27.2277 17.3975 27.1997 17.2601 27.2C17.1185 27.1926 16.977 27.2153 16.8449 27.2667C16.7128 27.3181 16.5931 27.397 16.4938 27.4982C16.3945 27.5994 16.3179 27.7205 16.269 27.8536C16.22 27.9867 16.2 28.1286 16.2101 28.27V31.73H14.8301V28.27C14.8397 28.1329 14.821 27.9953 14.7751 27.8658C14.7291 27.7363 14.657 27.6176 14.5632 27.5172C14.4693 27.4168 14.3558 27.3368 14.2297 27.2822C14.1035 27.2277 13.9675 27.1997 13.8301 27.2C13.6885 27.1926 13.547 27.2153 13.4149 27.2667C13.2828 27.3181 13.1631 27.397 13.0638 27.4982C12.9645 27.5994 12.8879 27.7205 12.839 27.8536C12.79 27.9867 12.77 28.1286 12.7801 28.27V31.73H11.4101V28.3C11.3891 27.9726 11.4366 27.6444 11.5496 27.3364C11.6626 27.0283 11.8386 26.7473 12.0663 26.5111C12.294 26.2749 12.5685 26.0888 12.8722 25.9646C13.1759 25.8405 13.5021 25.781 13.8301 25.79C14.1578 25.7806 14.4831 25.8481 14.7801 25.987C15.077 26.1259 15.3373 26.3324 15.5401 26.59C15.746 26.3359 16.0069 26.1319 16.3031 25.9933C16.5993 25.8547 16.9231 25.7852 17.2501 25.79C17.5777 25.7756 17.9047 25.8317 18.2088 25.9545C18.5128 26.0774 18.787 26.2641 19.0126 26.5021C19.2383 26.7401 19.4102 27.0238 19.5167 27.334C19.6233 27.6441 19.6619 27.9736 19.6301 28.3V31.73Z" fill="#2C3378"/>
<path d="M47.3004 24C47.3004 24 45.7804 23.84 45.7804 25.06V26.67C45.6243 26.4054 45.3997 26.1878 45.1304 26.04C44.8473 25.8798 44.5256 25.8002 44.2004 25.81C43.8554 25.7982 43.5125 25.8682 43.1997 26.0142C42.8869 26.1602 42.613 26.378 42.4004 26.65C41.9159 27.3341 41.6796 28.1632 41.7304 29C41.7003 29.7524 41.9417 30.4906 42.4104 31.08C42.6975 31.3485 43.0361 31.556 43.4056 31.6901C43.7751 31.8241 44.1679 31.8819 44.5604 31.86C44.9001 31.9021 45.2449 31.8723 45.5723 31.7725C45.8997 31.6727 46.2024 31.5051 46.4608 31.2807C46.7193 31.0562 46.9276 30.7799 47.0722 30.4696C47.2168 30.1594 47.2946 29.8222 47.3004 29.48V24ZM45.4904 30.15C45.38 30.3096 45.2293 30.4371 45.0537 30.5197C44.8781 30.6022 44.6837 30.6368 44.4904 30.62C44.2969 30.639 44.1018 30.6053 43.9258 30.5226C43.7497 30.4398 43.5993 30.3111 43.4904 30.15C43.2653 29.7514 43.1578 29.2972 43.1804 28.84C43.1636 28.4088 43.2713 27.9818 43.4904 27.61C43.5883 27.4365 43.7358 27.2963 43.914 27.2072C44.0922 27.1181 44.2929 27.0843 44.4904 27.11C44.769 27.1099 45.0385 27.2092 45.2504 27.39C45.4418 27.5951 45.588 27.8383 45.6793 28.1036C45.7706 28.3689 45.805 28.6505 45.7804 28.93C45.817 29.3572 45.7154 29.7849 45.4904 30.15Z" fill="#2C3378"/>
<path d="M22.3697 40.83C22.37 40.9294 22.3497 41.0279 22.3101 41.1191C22.2706 41.2103 22.2125 41.2923 22.1397 41.36C22.0708 41.4306 21.9883 41.4865 21.8972 41.5243C21.8061 41.5621 21.7083 41.581 21.6097 41.58H20.8597V36.34C20.8271 35.9436 20.8931 35.5453 21.0519 35.1806C21.2107 34.8159 21.4573 34.4962 21.7697 34.25C22.3484 33.8312 23.0576 33.6326 23.7697 33.69C24.1422 33.6759 24.5135 33.7418 24.8585 33.8832C25.2035 34.0247 25.5142 34.2384 25.7697 34.51C26.2658 35.1249 26.5185 35.9008 26.4797 36.69C26.5171 37.4864 26.2845 38.2722 25.8197 38.92C25.6205 39.1837 25.3617 39.3964 25.0645 39.5406C24.7672 39.6849 24.44 39.7567 24.1097 39.75C23.7655 39.76 23.4235 39.6916 23.1097 39.55C22.8055 39.4064 22.5563 39.1677 22.3997 38.87L22.3697 40.83ZM24.8897 36.75C24.9184 36.2897 24.8031 35.8318 24.5597 35.44C24.4532 35.2891 24.3102 35.1678 24.144 35.0873C23.9779 35.0069 23.794 34.9699 23.6097 34.98C23.4283 34.9715 23.2479 35.0093 23.0852 35.0897C22.9225 35.1702 22.7829 35.2907 22.6797 35.44C22.4407 35.833 22.3322 36.2916 22.3697 36.75C22.3382 37.1917 22.4543 37.6314 22.6997 38C22.8061 38.1509 22.9491 38.2722 23.1153 38.3527C23.2814 38.4331 23.4653 38.4701 23.6497 38.46C23.8286 38.472 24.0076 38.4356 24.1677 38.3547C24.3278 38.2738 24.4632 38.1513 24.5597 38C24.7977 37.6281 24.9132 37.1909 24.8897 36.75Z" fill="#219CD8"/>
<path d="M36.4197 39.27V38.9C36.3022 39.0906 36.148 39.2559 35.966 39.3864C35.7841 39.5168 35.578 39.6099 35.3597 39.66C34.9065 39.772 34.4291 39.7334 33.9997 39.55C33.531 39.3421 33.1392 38.9923 32.8797 38.55C32.5454 37.9853 32.3821 37.3357 32.4097 36.68C32.3755 35.8992 32.5929 35.128 33.0297 34.48C33.2727 34.1915 33.5808 33.9649 33.9285 33.8189C34.2762 33.6728 34.6537 33.6115 35.0297 33.64C35.722 33.5793 36.4115 33.783 36.9597 34.21C37.2718 34.4583 37.5173 34.7801 37.6744 35.1466C37.8315 35.5131 37.8952 35.9128 37.8597 36.31V39.39C37.8716 39.7564 37.805 40.121 37.6643 40.4595C37.5237 40.798 37.3122 41.1025 37.0442 41.3526C36.7761 41.6026 36.4577 41.7924 36.1103 41.9093C35.7628 42.0261 35.3944 42.0673 35.0297 42.03C34.4626 42.0472 33.9066 41.8702 33.4538 41.5283C33.001 41.1865 32.6785 40.7002 32.5397 40.15H34.1297C34.2517 40.363 34.442 40.5286 34.6697 40.62C34.8933 40.7283 35.1464 40.76 35.3897 40.71C35.6463 40.6443 35.8744 40.4968 36.0397 40.29C36.2511 39.9985 36.3696 39.6499 36.3797 39.29L36.4197 39.27ZM33.8897 36.77C33.8897 37.77 34.1797 38.33 34.7697 38.44C34.9984 38.5126 35.2438 38.5131 35.4727 38.4416C35.7017 38.37 35.9031 38.2298 36.0497 38.04C36.2029 37.8166 36.299 37.5591 36.3297 37.29C36.3873 36.9591 36.3873 36.6209 36.3297 36.29C36.2854 35.965 36.1617 35.6559 35.9697 35.39C35.8819 35.2682 35.7661 35.1692 35.6322 35.1014C35.4982 35.0335 35.3499 34.9988 35.1997 35C34.9969 34.9787 34.7923 35.02 34.6136 35.1183C34.4348 35.2166 34.2904 35.3673 34.1997 35.55C34.0147 35.9368 33.9222 36.3613 33.9297 36.79" fill="#219CD8"/>
<path d="M31.1596 34.09C30.638 33.8311 30.0619 33.7008 29.4796 33.71C29.1025 33.6708 28.7215 33.719 28.366 33.8508C28.0105 33.9826 27.6901 34.1945 27.4296 34.47C27.1587 34.8274 27.0082 35.2616 26.9996 35.71H28.4496C28.4757 35.5172 28.5515 35.3346 28.6696 35.18C28.7715 35.0865 28.8916 35.0151 29.0224 34.9703C29.1532 34.9256 29.2919 34.9084 29.4296 34.92C29.6798 34.9052 29.9299 34.9497 30.1596 35.05C30.2422 35.101 30.3091 35.1736 30.3532 35.26C30.3973 35.3464 30.4168 35.4433 30.4096 35.54C30.4072 35.6374 30.374 35.7315 30.3147 35.8088C30.2554 35.886 30.1731 35.9425 30.0796 35.97C29.885 36.0354 29.6838 36.0789 29.4796 36.1L28.9696 36.16C28.5075 36.2015 28.0568 36.3269 27.6396 36.53C27.3719 36.6835 27.1529 36.9095 27.0079 37.1819C26.8628 37.4543 26.7976 37.7622 26.8196 38.07C26.8062 38.3047 26.845 38.5394 26.9332 38.7572C27.0214 38.9751 27.1568 39.1707 27.3296 39.33C27.6961 39.629 28.1567 39.7884 28.6296 39.78C31.9096 39.92 31.8696 38.05 31.8996 37.66V35.5C31.9286 35.2182 31.8739 34.9342 31.7423 34.6834C31.6106 34.4326 31.408 34.2262 31.1596 34.09ZM30.3996 37.36C30.4119 37.5488 30.3793 37.7378 30.3045 37.9116C30.2298 38.0853 30.1151 38.239 29.9696 38.36C29.7023 38.5447 29.3845 38.6425 29.0596 38.64C28.8715 38.648 28.6868 38.5876 28.5396 38.47C28.4614 38.4028 28.4005 38.3177 28.3622 38.222C28.3239 38.1262 28.3093 38.0226 28.3196 37.92C28.3135 37.7915 28.3429 37.6637 28.4047 37.5508C28.4664 37.4379 28.5581 37.3442 28.6696 37.28C28.8912 37.1754 29.1271 37.1046 29.3696 37.07L29.7096 37.01C29.8449 36.9851 29.9785 36.9517 30.1096 36.91C30.2112 36.8701 30.3084 36.8198 30.3996 36.76V37.36Z" fill="#219CD8"/>
<path d="M43.6001 34.56C43.3112 34.2709 42.9683 34.0416 42.5908 33.8852C42.2133 33.7287 41.8087 33.6482 41.4001 33.6482C40.9914 33.6482 40.5868 33.7287 40.2093 33.8852C39.8318 34.0416 39.4889 34.2709 39.2001 34.56C38.7108 35.1682 38.4523 35.9297 38.4701 36.71C38.4479 37.491 38.707 38.254 39.2001 38.86C39.7872 39.4365 40.5772 39.7596 41.4001 39.7596C42.2229 39.7596 43.0129 39.4365 43.6001 38.86C44.0932 38.254 44.3522 37.491 44.3301 36.71C44.3478 35.9297 44.0893 35.1682 43.6001 34.56ZM42.4001 38C42.2839 38.1528 42.1319 38.2747 41.9575 38.3549C41.7831 38.4352 41.5917 38.4712 41.4001 38.46C41.2089 38.4679 41.0186 38.4303 40.8447 38.3503C40.6709 38.2703 40.5185 38.1503 40.4001 38C40.1372 37.6214 39.9975 37.1709 40.0001 36.71C39.9709 36.2406 40.0936 35.7743 40.3501 35.38C40.4685 35.2297 40.6209 35.1097 40.7947 35.0297C40.9686 34.9497 41.1589 34.9121 41.3501 34.92C41.5417 34.9088 41.7331 34.9448 41.9075 35.0251C42.0819 35.1053 42.2339 35.2272 42.3501 35.38C42.6141 35.7712 42.7407 36.239 42.7101 36.71C42.7439 37.1618 42.6355 37.6129 42.4001 38Z" fill="#219CD8"/>
</svg>
