<?xml version="1.0" encoding="UTF-8"?>
<!-- Generator: Adobe Illustrator 23.0.2, SVG Export Plug-In . SVG Version: 6.00 Build 0)  -->
<svg version="1.1" id="Layer_1" xmlns="http://www.w3.org/2000/svg" xmlns:xlink="http://www.w3.org/1999/xlink" x="0px" y="0px" viewBox="0 0 16 16" style="enable-background:new 0 0 16 16;" xml:space="preserve">
<style type="text/css">
	.st0{fill:#EC008C;}
	.st1{fill:#0054A6;}
	.st2{fill:#FFFFFF;}
</style>
<g>
	<path class="st0" d="M9.93,1.29C9.21,1.93,8.88,2.72,8.97,3.68C8.94,3.67,8.91,3.65,8.88,3.64C8.77,3.64,8.66,3.63,8.55,3.63   C8.13,3.66,7.74,3.77,7.38,3.98C6.71,4.38,6.22,4.93,6,5.7C5.82,6.32,5.89,6.93,6.16,7.52c0.01,0.02,0.02,0.04,0.03,0.07   C6.12,7.56,6.07,7.54,6.01,7.52C5.59,7.34,5.17,7.17,4.75,7c-0.23-0.1-0.4-0.06-0.58,0.12c-0.27,0.27-0.53,0.53-0.8,0.8   c-0.16,0.16-0.2,0.34-0.11,0.56c0.1,0.24,0.2,0.48,0.3,0.72C3.57,9.2,3.57,9.22,3.58,9.24C3.44,9.21,3.29,9.18,3.15,9.17   C2.7,9.14,2.29,9.27,1.91,9.51C1.72,9.64,1.54,9.78,1.38,9.94C1.37,9.96,1.35,9.98,1.34,10C1.32,9.98,1.31,9.97,1.29,9.95   C0.93,9.59,0.57,9.23,0.21,8.86c-0.27-0.28-0.27-0.67,0-0.94c1.27-1.27,2.54-2.53,3.81-3.8c1.31-1.3,2.61-2.61,3.92-3.91   C8.2-0.05,8.59-0.05,8.85,0.21c0.35,0.35,0.7,0.7,1.06,1.06C9.91,1.27,9.92,1.28,9.93,1.29z"/>
	<path class="st1" d="M11.71,5.64C10.68,5.65,9.73,4.9,9.48,3.89c-0.31-1.29,0.55-2.47,1.7-2.71c0.81-0.17,1.51,0.07,2.09,0.65   c0.36,0.36,0.59,0.8,0.64,1.31c0.09,0.77-0.16,1.42-0.73,1.94c-0.36,0.33-0.78,0.51-1.27,0.56c-0.01,0-0.01,0-0.02,0   C11.83,5.64,11.77,5.64,11.71,5.64z M12.7,3.5c-0.01-0.05-0.01-0.1-0.02-0.16c-0.08-0.55-0.67-1.04-1.25-0.95   c-0.46,0.07-0.83,0.52-0.77,0.99c0.06,0.52,0.49,0.95,1.01,1.02C12.22,4.46,12.69,4.05,12.7,3.5z"/>
	<path class="st1" d="M9.65,4.83c0.03,0.03,0.06,0.07,0.1,0.1c0.42,0.42,0.84,0.84,1.27,1.27c0.02,0.02,0.04,0.06,0.03,0.08   c-0.03,0.42-0.15,0.82-0.37,1.18C10.35,8.01,9.91,8.42,9.3,8.6C8.57,8.83,7.91,8.69,7.31,8.23c-0.46-0.36-0.78-0.82-0.89-1.4   c-0.13-0.67,0.02-1.27,0.44-1.8C7.21,4.59,7.65,4.28,8.2,4.16C8.37,4.12,8.55,4.1,8.74,4.08c0.05,0.41,0.09,0.8,0.14,1.19   C8.73,5.29,8.59,5.31,8.45,5.34C8.22,5.39,8.03,5.51,7.87,5.68c-0.27,0.3-0.31,0.64-0.17,1c0.14,0.35,0.4,0.59,0.75,0.72   c0.31,0.11,0.6,0.06,0.87-0.13c0.2-0.14,0.35-0.33,0.43-0.56c0.01-0.04,0.01-0.06-0.02-0.09C9.66,6.55,9.58,6.47,9.5,6.39   C9.32,6.58,9.13,6.77,8.95,6.95C8.71,6.7,8.47,6.47,8.24,6.24C8.71,5.78,9.17,5.31,9.65,4.83z"/>
	<path class="st1" d="M8.92,9.23c-0.1,0.1-0.2,0.2-0.3,0.3c-0.22,0.22-0.43,0.43-0.65,0.65c-0.03,0.03-0.05,0.03-0.09,0.02   c-0.21-0.09-0.43-0.18-0.64-0.28C7.21,9.9,7.19,9.9,7.16,9.93c-0.32,0.33-0.65,0.65-0.97,0.97c-0.03,0.03-0.03,0.06-0.02,0.1   c0.09,0.21,0.19,0.42,0.28,0.64c0.01,0.03,0.01,0.05-0.01,0.08c-0.3,0.3-0.61,0.6-0.91,0.91c-0.01,0.01-0.01,0.01-0.03,0.02   c-0.01-0.02-0.02-0.04-0.03-0.06C4.88,11.16,4.29,9.74,3.7,8.32C3.69,8.28,3.69,8.25,3.72,8.22C3.98,7.96,4.24,7.7,4.49,7.45   c0.03-0.03,0.05-0.03,0.09-0.02c1.43,0.59,2.86,1.19,4.3,1.78C8.89,9.21,8.9,9.22,8.92,9.23z M6.15,9.41   C5.87,9.29,5.59,9.16,5.3,9.03c0,0-0.01,0.01-0.01,0.01C5.42,9.33,5.54,9.62,5.67,9.9C5.83,9.74,5.99,9.58,6.15,9.41z"/>
	<path class="st1" d="M0.42,11.56c0,0,0.01-0.01,0.01-0.02c0.46-0.46,0.92-0.92,1.38-1.37c0.24-0.23,0.52-0.4,0.84-0.49   c0.47-0.13,0.9-0.02,1.28,0.28c0.28,0.23,0.49,0.51,0.59,0.87c0.1,0.38,0.03,0.73-0.14,1.08c-0.12,0.24-0.28,0.44-0.47,0.63   c-0.1,0.1-0.2,0.2-0.31,0.31c-0.01,0.01-0.02,0.03-0.03,0.04c0.28,0.28,0.56,0.56,0.84,0.84c-0.31,0.31-0.61,0.61-0.91,0.91   C2.47,13.62,1.45,12.59,0.42,11.56z M2.81,12.11c0.13-0.12,0.26-0.24,0.39-0.37c0.09-0.09,0.14-0.2,0.15-0.33   c0.01-0.2-0.09-0.33-0.25-0.43c-0.15-0.09-0.3-0.09-0.44,0c-0.21,0.12-0.35,0.32-0.52,0.47C2.37,11.67,2.59,11.9,2.81,12.11z"/>
	<path class="st2" d="M12.35,10.32c-0.03-0.12-0.05-0.23-0.08-0.34c-0.02-0.07-0.04-0.15-0.06-0.22c-0.01-0.03-0.03-0.06-0.05-0.09   c-0.04-0.06-0.1-0.06-0.13,0.01C12,9.73,11.99,9.79,11.98,9.84c-0.04,0.44,0.02,0.86,0.23,1.26c0.05,0.1,0.12,0.2,0.19,0.28   c0.12,0.15,0.27,0.15,0.41,0.02c0.16-0.15,0.24-0.33,0.28-0.54c0.08-0.42,0.09-0.84,0.01-1.26c-0.06-0.34-0.12-0.69-0.18-1.04   c-0.01-0.03,0-0.06,0-0.09c0-0.07,0.04-0.12,0.11-0.12c0.12-0.01,0.24-0.01,0.36-0.01c0.05,0,0.06,0.02,0.07,0.07   c0.05,0.37,0.13,0.74,0.26,1.1c0.04,0.12,0.1,0.23,0.15,0.35c0.02,0.04,0.07,0.06,0.1,0.09c0.02-0.04,0.06-0.07,0.07-0.11   c0.03-0.14,0.06-0.27,0.07-0.41c0.04-0.39-0.03-0.77-0.12-1.14c-0.11-0.45-0.19-0.91-0.25-1.38c-0.03-0.19-0.05-0.38-0.08-0.57   c0-0.03-0.01-0.06,0-0.09c0.01-0.07,0.05-0.12,0.11-0.12C13.89,6.11,14,6.11,14.11,6.1c0.05,0,0.08,0.03,0.09,0.08   c0.04,0.28,0.08,0.55,0.12,0.83c0.09,0.52,0.2,1.04,0.36,1.54c0.04,0.12,0.09,0.23,0.15,0.34c0.02,0.04,0.06,0.08,0.1,0.08   c0.05,0,0.07-0.06,0.08-0.11c0.03-0.15,0.05-0.29,0.07-0.44c0.01-0.1,0-0.21,0-0.32c0-0.07,0.03-0.1,0.09-0.1c0.05,0,0.11,0,0.16,0   c0.04,0,0.06,0.02,0.06,0.06c0.02,0.5,0.01,0.99-0.15,1.47c-0.02,0.06-0.04,0.11-0.07,0.16c-0.1,0.19-0.31,0.24-0.48,0.11   c-0.08-0.06-0.15-0.15-0.22-0.22c-0.01-0.01-0.02-0.03-0.04-0.05c-0.01,0.12-0.02,0.23-0.03,0.34c-0.03,0.25-0.07,0.51-0.18,0.74   c-0.11,0.25-0.34,0.3-0.55,0.12c-0.07-0.07-0.14-0.15-0.2-0.22c-0.01-0.01-0.02-0.03-0.04-0.04c-0.02,0.15-0.03,0.3-0.05,0.44   c-0.05,0.35-0.15,0.68-0.37,0.96c-0.09,0.12-0.2,0.21-0.35,0.26c-0.18,0.06-0.35,0.01-0.51-0.07c-0.05-0.02-0.09-0.05-0.14-0.08   c-0.01,0.14-0.02,0.28-0.04,0.42c-0.03,0.22-0.07,0.44-0.17,0.64c-0.11,0.25-0.34,0.3-0.54,0.12c-0.09-0.08-0.16-0.17-0.23-0.24   c0,0.17,0.01,0.36,0.01,0.55c0,0.17-0.04,0.32-0.13,0.47c-0.09,0.15-0.21,0.26-0.4,0.25c-0.12-0.01-0.22-0.07-0.3-0.16   c-0.12-0.13-0.21-0.28-0.29-0.44c-0.18-0.39-0.29-0.8-0.28-1.23c0-0.34,0.07-0.67,0.24-0.96c0.03-0.06,0.08-0.11,0.12-0.16   c0.11-0.13,0.25-0.15,0.41-0.1c0.03,0.01,0.06,0.03,0.11,0.04c-0.01-0.06-0.02-0.12-0.03-0.18c-0.01-0.04-0.01-0.08-0.01-0.12   c0-0.06,0.04-0.11,0.1-0.11c0.12-0.01,0.25-0.01,0.37-0.01c0.04,0,0.05,0.03,0.06,0.06c0.05,0.34,0.11,0.67,0.22,1   c0.04,0.13,0.1,0.25,0.15,0.38c0.02,0.04,0.04,0.08,0.07,0.12c0.05,0.06,0.1,0.06,0.12-0.02c0.03-0.09,0.06-0.17,0.07-0.26   c0.05-0.28,0.02-0.56-0.07-0.83c-0.14-0.44-0.17-0.89-0.03-1.33c0.04-0.13,0.11-0.25,0.19-0.36c0.1-0.15,0.25-0.24,0.44-0.24   c0.2,0,0.36,0.11,0.43,0.3c0.05,0.12,0.06,0.25,0.04,0.38C12.65,10.14,12.55,10.26,12.35,10.32z M10.21,11.9   c0,0.47,0.1,0.88,0.26,1.27c0.03,0.07,0.07,0.14,0.11,0.2c0.02,0.03,0.07,0.05,0.1,0.05c0.02,0,0.04-0.05,0.06-0.08   c0.01-0.01,0.01-0.03,0.01-0.04c0.05-0.23,0.03-0.47,0.01-0.7c-0.03-0.34-0.09-0.68-0.13-1.02c-0.01-0.11-0.08-0.17-0.18-0.18   c-0.09-0.01-0.14,0.03-0.18,0.14C10.21,11.68,10.21,11.81,10.21,11.9z"/>
	<path class="st2" d="M8.05,12.75c-0.02,0.03-0.04,0.06-0.05,0.08c-0.19,0.26-0.38,0.53-0.57,0.79c-0.06,0.08-0.14,0.14-0.25,0.16   c-0.02,0-0.04,0-0.06,0c-0.15-0.02-0.2-0.08-0.15-0.23c0.03-0.08,0.06-0.16,0.1-0.24c0.39-0.73,0.79-1.46,1.3-2.12   c0.21-0.28,0.44-0.54,0.71-0.78c0.22-0.2,0.48-0.32,0.78-0.35c0,0,0,0,0.01,0c0.03,0.01,0.07,0.01,0.1,0.02   c-0.01,0.03-0.02,0.07-0.04,0.09c-0.35,0.46-0.71,0.92-1.07,1.39c-0.11,0.15-0.2,0.3-0.31,0.45c-0.08,0.11-0.11,0.24-0.09,0.37   c0.04,0.32,0.09,0.63,0.15,0.97c0.02-0.02,0.03-0.03,0.04-0.04c0.11-0.12,0.21-0.24,0.32-0.35c0.11-0.11,0.24-0.19,0.4-0.18   c0.06,0,0.12,0.03,0.18,0.05c0.06,0.03,0.07,0.06,0.03,0.11c-0.06,0.09-0.12,0.18-0.19,0.27c-0.15,0.2-0.31,0.41-0.47,0.6   c-0.09,0.11-0.11,0.22-0.07,0.34C8.92,14.37,9,14.59,9.08,14.8c0.06,0.17,0.14,0.33,0.22,0.49c0.04,0.09,0.1,0.16,0.16,0.24   c0.04,0.05,0.04,0.07-0.01,0.11c-0.11,0.08-0.3,0.09-0.42,0.01c-0.06-0.04-0.11-0.09-0.16-0.15c-0.2-0.25-0.34-0.54-0.42-0.85   c-0.01-0.05-0.03-0.07-0.08-0.08c-0.05-0.01-0.09-0.01-0.14-0.02c-0.04-0.01-0.09-0.03-0.13-0.05c-0.06-0.03-0.08-0.09-0.05-0.15   c0.04-0.1,0.09-0.19,0.14-0.29c0.03-0.06,0.05-0.1,0.04-0.17c-0.06-0.37-0.11-0.74-0.17-1.11C8.06,12.78,8.06,12.77,8.05,12.75z"/>
	<path class="st2" d="M10.67,9.83c-0.01,0.16-0.06,0.32-0.13,0.47c-0.06,0.12-0.12,0.24-0.18,0.37c-0.04,0.07-0.15,0.13-0.24,0.11   c-0.06-0.01-0.08-0.06-0.07-0.13c0.02-0.1,0.05-0.2,0.07-0.3c0.04-0.2,0.04-0.41,0.01-0.61c-0.01-0.05,0.01-0.08,0.06-0.09   c0.09-0.01,0.17-0.03,0.26-0.04C10.61,9.6,10.68,9.68,10.67,9.83z"/>
	<path class="st2" d="M13.3,7.33c-0.01,0.19-0.05,0.33-0.16,0.44c-0.11,0.12-0.24,0.11-0.34,0c-0.15-0.17-0.18-0.48-0.05-0.67   c0.06-0.09,0.15-0.16,0.27-0.14c0.11,0.01,0.18,0.09,0.22,0.18C13.28,7.21,13.29,7.29,13.3,7.33z"/>
	<path class="st2" d="M12.7,3.5c-0.01,0.55-0.48,0.96-1.03,0.89c-0.51-0.07-0.94-0.5-1.01-1.02c-0.06-0.46,0.31-0.92,0.77-0.99   c0.57-0.08,1.16,0.41,1.25,0.95C12.69,3.39,12.69,3.45,12.7,3.5z"/>
	<path class="st2" d="M6.15,9.41C5.99,9.58,5.83,9.74,5.67,9.9C5.54,9.62,5.42,9.33,5.29,9.05c0,0,0.01-0.01,0.01-0.01   C5.59,9.16,5.87,9.29,6.15,9.41z"/>
	<g>
		<path class="st0" d="M4.21,12.9c0.23-0.23,0.42-0.47,0.57-0.75c0.01,0.02,0.02,0.04,0.03,0.05c0.09,0.21,0.17,0.41,0.26,0.62    c0.14,0.33,0.52,0.41,0.77,0.15c0.32-0.32,0.64-0.63,0.95-0.95c0.15-0.15,0.19-0.34,0.1-0.53c-0.06-0.13-0.11-0.26-0.17-0.4    c-0.01-0.03-0.01-0.05,0.01-0.08c0.18-0.18,0.36-0.36,0.54-0.54c0.03-0.03,0.05-0.03,0.08-0.02c0.13,0.06,0.26,0.12,0.4,0.17    c0.19,0.08,0.38,0.05,0.53-0.1c0.33-0.33,0.66-0.65,0.98-0.98c0.13-0.13,0.17-0.29,0.11-0.48c0.65-0.2,1.16-0.58,1.56-1.13    c0.39-0.54,0.59-1.15,0.59-1.83c0,0,0,0,0.01,0c1.1,0.05,1.92-0.42,2.5-1.33c0.02-0.02,0.04-0.04,0.06-0.06    c0.04-0.04,0.09-0.07,0.13-0.11c0.44-0.44,0.88-0.88,1.33-1.32c0.05-0.05,0.12-0.1,0.19-0.13c0.1-0.05,0.2-0.01,0.23,0.1    C15.99,3.3,16,3.37,16,3.44c0,1.07,0,2.13,0,3.2c0,0.89,0,1.78,0,2.68c0,1.9,0,3.8,0,5.7c0,0.13,0,0.27-0.01,0.4    c-0.03,0.33-0.3,0.58-0.63,0.58c-0.87,0-1.73,0-2.6,0c-0.67,0-1.33,0-2,0c-2.1,0-4.2,0-6.3,0c-0.32,0-0.64,0-0.95,0    c-0.08,0-0.16-0.01-0.23-0.03c-0.12-0.04-0.16-0.14-0.1-0.25c0.04-0.07,0.09-0.14,0.15-0.2c0.47-0.47,0.94-0.94,1.41-1.41    c0.07-0.07,0.12-0.15,0.14-0.25c0.03-0.17-0.01-0.31-0.13-0.43c-0.15-0.16-0.31-0.31-0.47-0.47C4.25,12.92,4.23,12.91,4.21,12.9z     M12.35,10.32c0.2-0.05,0.3-0.18,0.33-0.36c0.02-0.13,0-0.26-0.04-0.38c-0.07-0.19-0.23-0.3-0.43-0.3c-0.19,0-0.34,0.09-0.44,0.24    c-0.08,0.11-0.14,0.23-0.19,0.36c-0.14,0.45-0.11,0.89,0.03,1.33c0.09,0.27,0.12,0.55,0.07,0.83c-0.01,0.09-0.04,0.18-0.07,0.26    c-0.03,0.07-0.07,0.08-0.12,0.02c-0.03-0.04-0.06-0.08-0.07-0.12c-0.05-0.13-0.11-0.25-0.15-0.38c-0.11-0.32-0.17-0.66-0.22-1    c-0.01-0.04-0.02-0.07-0.06-0.06c-0.12,0-0.25,0-0.37,0.01c-0.06,0-0.09,0.05-0.1,0.11c0,0.04,0,0.08,0.01,0.12    c0.01,0.06,0.02,0.11,0.03,0.18c-0.04-0.02-0.07-0.03-0.11-0.04c-0.16-0.05-0.3-0.03-0.41,0.1c-0.04,0.05-0.09,0.11-0.12,0.16    c-0.17,0.3-0.24,0.63-0.24,0.96c0,0.43,0.1,0.84,0.28,1.23c0.07,0.16,0.17,0.31,0.29,0.44c0.08,0.09,0.17,0.15,0.3,0.16    c0.19,0.01,0.31-0.1,0.4-0.25c0.08-0.14,0.12-0.3,0.13-0.47c0-0.19-0.01-0.38-0.01-0.55c0.07,0.07,0.14,0.16,0.23,0.24    c0.2,0.18,0.44,0.13,0.54-0.12c0.09-0.21,0.14-0.42,0.17-0.64c0.02-0.14,0.03-0.27,0.04-0.42c0.05,0.03,0.09,0.06,0.14,0.08    c0.16,0.08,0.33,0.13,0.51,0.07c0.14-0.05,0.25-0.14,0.35-0.26c0.23-0.28,0.32-0.61,0.37-0.96c0.02-0.14,0.03-0.29,0.05-0.44    c0.02,0.02,0.03,0.03,0.04,0.04c0.07,0.08,0.13,0.16,0.2,0.22c0.2,0.18,0.44,0.13,0.55-0.12c0.1-0.24,0.15-0.49,0.18-0.74    c0.01-0.11,0.02-0.22,0.03-0.34c0.02,0.02,0.03,0.04,0.04,0.05c0.07,0.08,0.14,0.16,0.22,0.22c0.17,0.13,0.38,0.08,0.48-0.11    c0.03-0.05,0.05-0.11,0.07-0.16c0.16-0.48,0.17-0.98,0.15-1.47c0-0.04-0.02-0.06-0.06-0.06c-0.05,0-0.11,0-0.16,0    c-0.07,0-0.09,0.04-0.09,0.1c0,0.11,0.01,0.21,0,0.32c-0.02,0.15-0.04,0.29-0.07,0.44c-0.01,0.05-0.03,0.11-0.08,0.11    c-0.04,0-0.08-0.05-0.1-0.08c-0.06-0.11-0.11-0.22-0.15-0.34c-0.16-0.5-0.28-1.02-0.36-1.54c-0.05-0.27-0.09-0.55-0.12-0.83    c-0.01-0.06-0.03-0.08-0.09-0.08c-0.11,0-0.23,0-0.34,0.01c-0.07,0.01-0.11,0.05-0.11,0.12c0,0.03,0,0.06,0,0.09    c0.03,0.19,0.05,0.38,0.08,0.57C13.8,7.37,13.89,7.83,14,8.28c0.09,0.38,0.16,0.75,0.12,1.14c-0.02,0.14-0.04,0.28-0.07,0.41    C14.03,9.88,14,9.91,13.97,9.95c-0.03-0.03-0.08-0.05-0.1-0.09c-0.06-0.11-0.11-0.23-0.15-0.35c-0.13-0.36-0.2-0.73-0.26-1.1    c-0.01-0.04-0.02-0.07-0.07-0.07c-0.12,0-0.24,0-0.36,0.01c-0.07,0.01-0.1,0.06-0.11,0.12c0,0.03,0,0.06,0,0.09    c0.06,0.35,0.12,0.69,0.18,1.04c0.08,0.42,0.07,0.84-0.01,1.26c-0.04,0.21-0.12,0.39-0.28,0.54c-0.14,0.13-0.28,0.13-0.41-0.02    c-0.07-0.09-0.14-0.18-0.19-0.28c-0.21-0.39-0.27-0.82-0.23-1.26c0-0.06,0.02-0.12,0.05-0.17c0.03-0.06,0.09-0.06,0.13-0.01    c0.02,0.03,0.04,0.06,0.05,0.09c0.02,0.07,0.04,0.15,0.06,0.22C12.29,10.09,12.32,10.2,12.35,10.32z M8.05,12.75    c0.01,0.02,0.01,0.02,0.01,0.03c0.06,0.37,0.11,0.74,0.17,1.11c0.01,0.07,0,0.11-0.04,0.17c-0.05,0.09-0.1,0.19-0.14,0.29    c-0.03,0.06-0.01,0.12,0.05,0.15c0.04,0.02,0.08,0.04,0.13,0.05c0.04,0.01,0.09,0.02,0.14,0.02c0.05,0.01,0.07,0.03,0.08,0.08    c0.08,0.32,0.22,0.6,0.42,0.85c0.04,0.06,0.1,0.11,0.16,0.15c0.12,0.08,0.31,0.07,0.42-0.01c0.05-0.04,0.05-0.06,0.01-0.11    C9.4,15.46,9.34,15.38,9.3,15.3c-0.08-0.16-0.15-0.32-0.22-0.49C9,14.59,8.92,14.37,8.85,14.16c-0.04-0.12-0.02-0.23,0.07-0.34    c0.16-0.19,0.31-0.4,0.47-0.6c0.07-0.09,0.13-0.18,0.19-0.27c0.04-0.06,0.03-0.08-0.03-0.11c-0.05-0.03-0.12-0.05-0.18-0.05    c-0.16-0.01-0.29,0.08-0.4,0.18c-0.12,0.11-0.22,0.23-0.32,0.35c-0.01,0.01-0.02,0.02-0.04,0.04c-0.05-0.33-0.1-0.65-0.15-0.97    c-0.02-0.13,0.01-0.25,0.09-0.37c0.11-0.15,0.2-0.31,0.31-0.45c0.35-0.46,0.71-0.92,1.07-1.39c0.02-0.03,0.02-0.06,0.04-0.09    c-0.03-0.01-0.07-0.01-0.1-0.02c0,0,0,0-0.01,0c-0.3,0.03-0.56,0.15-0.78,0.35c-0.26,0.23-0.49,0.5-0.71,0.78    c-0.51,0.66-0.91,1.39-1.3,2.12c-0.04,0.08-0.08,0.16-0.1,0.24c-0.05,0.15,0,0.21,0.15,0.23c0.02,0,0.04,0,0.06,0    c0.11-0.02,0.19-0.08,0.25-0.16c0.19-0.26,0.38-0.52,0.57-0.79C8.01,12.81,8.03,12.79,8.05,12.75z M10.67,9.83    c0-0.15-0.07-0.23-0.22-0.22c-0.09,0-0.17,0.02-0.26,0.04c-0.05,0.01-0.07,0.04-0.06,0.09c0.03,0.2,0.03,0.41-0.01,0.61    c-0.02,0.1-0.05,0.2-0.07,0.3c-0.02,0.07,0.01,0.12,0.07,0.13c0.08,0.01,0.2-0.04,0.24-0.11c0.06-0.12,0.13-0.24,0.18-0.37    C10.62,10.14,10.66,9.99,10.67,9.83z M13.3,7.33c-0.01-0.04-0.02-0.12-0.05-0.19c-0.04-0.1-0.11-0.17-0.22-0.18    c-0.12-0.01-0.2,0.05-0.27,0.14c-0.13,0.19-0.11,0.5,0.05,0.67c0.1,0.12,0.24,0.12,0.34,0C13.25,7.66,13.3,7.52,13.3,7.33z"/>
		<path class="st0" d="M10.21,11.9c0-0.09,0-0.23,0.05-0.35c0.04-0.11,0.09-0.15,0.18-0.14c0.1,0.01,0.16,0.07,0.18,0.18    c0.05,0.34,0.1,0.68,0.13,1.02c0.02,0.23,0.04,0.47-0.01,0.7c0,0.01,0,0.03-0.01,0.04c-0.02,0.03-0.04,0.08-0.06,0.08    c-0.03,0-0.08-0.03-0.1-0.05c-0.04-0.06-0.08-0.13-0.11-0.2C10.31,12.78,10.21,12.37,10.21,11.9z"/>
	</g>
</g>
</svg>