<?xml version="1.0" encoding="UTF-8"?>
<!-- Generator: Adobe Illustrator 23.0.2, SVG Export Plug-In . SVG Version: 6.00 Build 0)  -->
<svg version="1.1" id="Layer_1" xmlns="http://www.w3.org/2000/svg" xmlns:xlink="http://www.w3.org/1999/xlink" x="0px" y="0px" viewBox="0 0 296.2 288" style="enable-background:new 0 0 296.2 288;" xml:space="preserve">
<style type="text/css">
	.st0{fill:#604848;}
	.st1{fill:#CE4646;}
	.st2{fill:#FFFFFF;}
	.st3{fill:#B9B9EA;}
	.st4{fill:#8282D1;}
	.st5{fill:#6161AD;}
	.st6{fill:#E0504C;}
	.st7{fill:#FCD5B6;}
	.st8{fill:#000099;}
	.st9{fill:#BA3A3A;}
	.st10{fill:#E5AB83;}
	.st11{fill:#E2B72D;}
</style>
<g>
	<path class="st0" d="M29.6,114H10.2c-3.2,0-5.9-2.6-5.9-5.9V88.8c0-3.2,2.6-5.9,5.9-5.9h19.4c3.2,0,5.9,2.6,5.9,5.9v19.4   C35.5,111.4,32.8,114,29.6,114z"/>
</g>
<g>
	<path class="st1" d="M33.7,89.2c0-2.5-2-4.5-4.5-4.5H10.6c-2.5,0-4.5,2-4.5,4.5v5.1h27.6V89.2z"/>
</g>
<g>
	<path class="st2" d="M6.1,94.3v13.5c0,2.5,2,4.5,4.5,4.5h18.6c2.5,0,4.5-2,4.5-4.5V94.3H6.1z"/>
</g>
<g>
	<path class="st1" d="M19.9,108.2c-2.7,0-5-2.2-5-5s2.2-5,5-5s5,2.2,5,5S22.6,108.2,19.9,108.2z M19.9,98.6c-2.6,0-4.7,2.1-4.7,4.7   c0,2.6,2.1,4.7,4.7,4.7s4.7-2.1,4.7-4.7C24.6,100.7,22.5,98.6,19.9,98.6z"/>
</g>
<g>
	<g>
		<path class="st0" d="M13.8,87.6h-0.8c-0.6,0-1.2-0.5-1.2-1.2v-5.9c0-0.6,0.5-1.2,1.2-1.2h0.8c0.6,0,1.2,0.5,1.2,1.2v5.9    C15,87.1,14.5,87.6,13.8,87.6z"/>
	</g>
	<g>
		<path class="st0" d="M26.7,87.6H26c-0.6,0-1.2-0.5-1.2-1.2v-5.9c0-0.6,0.5-1.2,1.2-1.2h0.8c0.6,0,1.2,0.5,1.2,1.2v5.9    C27.9,87.1,27.4,87.6,26.7,87.6z"/>
	</g>
</g>
<g>
	<g>
		<path class="st0" d="M262.2,117.1h-19.4c-3.2,0-5.9-2.6-5.9-5.9V91.9c0-3.2,2.6-5.9,5.9-5.9h19.4c3.2,0,5.9,2.6,5.9,5.9v19.4    C268,114.5,265.4,117.1,262.2,117.1z"/>
	</g>
	<g>
		<path class="st1" d="M266.3,92.3c0-2.5-2-4.5-4.5-4.5h-18.6c-2.5,0-4.5,2-4.5,4.5v5.1h27.6V92.3z"/>
	</g>
	<g>
		<path class="st2" d="M238.7,97.4v13.5c0,2.5,2,4.5,4.5,4.5h18.6c2.5,0,4.5-2,4.5-4.5V97.4H238.7z"/>
	</g>
	<g>
		<path class="st1" d="M252.5,111.3c-2.7,0-5-2.2-5-5s2.2-5,5-5c2.7,0,5,2.2,5,5S255.2,111.3,252.5,111.3z M252.5,101.7    c-2.6,0-4.7,2.1-4.7,4.7c0,2.6,2.1,4.7,4.7,4.7c2.6,0,4.7-2.1,4.7-4.7C257.1,103.8,255.1,101.7,252.5,101.7z"/>
	</g>
	<g>
		<g>
			<path class="st0" d="M246.4,90.7h-0.8c-0.6,0-1.2-0.5-1.2-1.2v-5.9c0-0.6,0.5-1.2,1.2-1.2h0.8c0.6,0,1.2,0.5,1.2,1.2v5.9     C247.6,90.1,247,90.7,246.4,90.7z"/>
		</g>
		<g>
			<path class="st0" d="M259.3,90.7h-0.8c-0.6,0-1.2-0.5-1.2-1.2v-5.9c0-0.6,0.5-1.2,1.2-1.2h0.8c0.6,0,1.2,0.5,1.2,1.2v5.9     C260.5,90.1,260,90.7,259.3,90.7z"/>
		</g>
	</g>
</g>
<g>
	<g>
		<path class="st0" d="M282.4,99.8H263c-3.2,0-5.9-2.6-5.9-5.9V74.5c0-3.2,2.6-5.9,5.9-5.9h19.4c3.2,0,5.9,2.6,5.9,5.9v19.4    C288.3,97.2,285.6,99.8,282.4,99.8z"/>
	</g>
	<g>
		<path class="st1" d="M286.5,74.9c0-2.5-2-4.5-4.5-4.5h-18.6c-2.5,0-4.5,2-4.5,4.5V80h27.6V74.9z"/>
	</g>
	<g>
		<path class="st2" d="M258.9,80v13.5c0,2.5,2,4.5,4.5,4.5H282c2.5,0,4.5-2,4.5-4.5V80H258.9z"/>
	</g>
	<g>
		<path class="st1" d="M272.7,94c-2.7,0-5-2.2-5-5c0-2.7,2.2-5,5-5s5,2.2,5,5C277.7,91.8,275.4,94,272.7,94z M272.7,84.4    c-2.6,0-4.7,2.1-4.7,4.7c0,2.6,2.1,4.7,4.7,4.7s4.7-2.1,4.7-4.7C277.4,86.5,275.3,84.4,272.7,84.4z"/>
	</g>
	<g>
		<g>
			<path class="st0" d="M266.6,73.4h-0.8c-0.6,0-1.2-0.5-1.2-1.2v-5.9c0-0.6,0.5-1.2,1.2-1.2h0.8c0.6,0,1.2,0.5,1.2,1.2v5.9     C267.8,72.8,267.3,73.4,266.6,73.4z"/>
		</g>
		<g>
			<path class="st0" d="M279.5,73.4h-0.8c-0.6,0-1.2-0.5-1.2-1.2v-5.9c0-0.6,0.5-1.2,1.2-1.2h0.8c0.6,0,1.2,0.5,1.2,1.2v5.9     C280.7,72.8,280.2,73.4,279.5,73.4z"/>
		</g>
	</g>
</g>
<g>
	<g>
		<path class="st0" d="M288.8,123.7h-19.4c-3.2,0-5.9-2.6-5.9-5.9V98.4c0-3.2,2.6-5.9,5.9-5.9h19.4c3.2,0,5.9,2.6,5.9,5.9v19.4    C294.6,121,292,123.7,288.8,123.7z"/>
	</g>
	<g>
		<path class="st1" d="M292.9,98.8c0-2.5-2-4.5-4.5-4.5h-18.6c-2.5,0-4.5,2-4.5,4.5v5.1h27.6V98.8z"/>
	</g>
	<g>
		<path class="st2" d="M265.3,103.9v13.5c0,2.5,2,4.5,4.5,4.5h18.6c2.5,0,4.5-2,4.5-4.5v-13.5H265.3z"/>
	</g>
	<g>
		<path class="st1" d="M279.1,117.9c-2.7,0-5-2.2-5-5c0-2.7,2.2-5,5-5s5,2.2,5,5C284,115.6,281.8,117.9,279.1,117.9z M279.1,108.2    c-2.6,0-4.7,2.1-4.7,4.7c0,2.6,2.1,4.7,4.7,4.7s4.7-2.1,4.7-4.7C283.7,110.3,281.6,108.2,279.1,108.2z"/>
	</g>
	<g>
		<g>
			<path class="st0" d="M273,97.2h-0.8c-0.6,0-1.2-0.5-1.2-1.2v-5.9c0-0.6,0.5-1.2,1.2-1.2h0.8c0.6,0,1.2,0.5,1.2,1.2v5.9     C274.1,96.7,273.6,97.2,273,97.2z"/>
		</g>
		<g>
			<path class="st0" d="M285.9,97.2h-0.8c-0.6,0-1.2-0.5-1.2-1.2v-5.9c0-0.6,0.5-1.2,1.2-1.2h0.8c0.6,0,1.2,0.5,1.2,1.2v5.9     C287.1,96.7,286.5,97.2,285.9,97.2z"/>
		</g>
	</g>
</g>
<path class="st3" d="M265.4,258.6c-20.9-49.9-82.2-87.8-126.8-87.8c-2.6,0-4.9,0.2-7.1,0.6c-0.3,2.2-0.6,4.4-0.8,6.7l-3.6,44.1  c25.4,10.7,46.6,34.2,58.7,65.4c3,0.1,6,0.2,9.1,0.2C275.6,287.9,279.2,291.6,265.4,258.6z"/>
<path class="st4" d="M167.3,287.8H186l0,0c0-0.1,0-0.1-0.1-0.2c-6.7-0.3-13.1-1-19.1-2C167,286.4,167.1,287.1,167.3,287.8z"/>
<path class="st4" d="M61.9,237.8c-4.4-7.8-8.6-17.2-10.8-28.8c-10.6,6.9-18.8,19.7-21.4,36.1c-0.5,3.5-0.8,7.1-0.8,10.9v31.8h11.6  C63.7,273.9,71.7,255.2,61.9,237.8z"/>
<path class="st3" d="M127.2,222.2l-1.3,15.2c21.9,13,30.7,4.6,40.9,48.3c6.1,1,12.5,1.6,19.1,2C173.7,256.4,152.6,232.9,127.2,222.2  z"/>
<path class="st4" d="M127.2,222.2l-1.3,15.2c21.9,13,30.7,4.6,40.9,48.3c6.1,1,12.5,1.6,19.1,2C173.7,256.4,152.6,232.9,127.2,222.2  z"/>
<path class="st3" d="M79.2,205.3l30.9,10.8c-1.4-20.3,1.2-40.9,21.4-44.7c0.6-4,1.3-8,2.2-11.9c2.3-10-8.2-23.2-26.9-23.1  c-29.1,0.3-54,14.4-57,45.1c-1,10.3-0.4,19.4,1.2,27.4C59.5,203.6,69.4,201.9,79.2,205.3z"/>
<path class="st3" d="M110.1,216.1l12.2,4.2c1.6,0.6,3.2,1.2,4.8,1.9l3.6-44.1c0.2-2.2,0.5-4.5,0.8-6.7  C111.4,175.2,108.7,195.8,110.1,216.1z"/>
<path class="st3" d="M110.1,216.1l12.2,4.2c1.6,0.6,3.2,1.2,4.8,1.9l3.6-44.1c0.2-2.2,0.5-4.5,0.8-6.7  C111.4,175.2,108.7,195.8,110.1,216.1z"/>
<path class="st5" d="M167.3,287.8c-0.2-0.7-0.3-1.4-0.5-2.1c-30.6-4.9-52.4-17.6-52.4-32.3c0-7.6-3.2-22.3-4.3-37.3l-30.9-10.8  c-9.8-3.4-19.7-1.8-28.1,3.7c2.2,11.5,6.4,21,10.8,28.8c9.9,17.4,1.8,36.1-21.5,50c0,0,0,0,0,0v0L167.3,287.8L167.3,287.8  C167.3,287.8,167.3,287.8,167.3,287.8z"/>
<path class="st3" d="M110.1,216.1c1,15,4.3,29.7,4.3,37.3c0,14.7,21.8,27.4,52.4,32.3c-10.2-43.7-19-35.2-40.9-48.3l1.3-15.2  c-1.6-0.7-3.2-1.3-4.8-1.9L110.1,216.1z"/>
<path class="st4" d="M110.1,216.1c1,15,4.3,29.7,4.3,37.3c0,14.7,21.8,27.4,52.4,32.3c-10.2-43.7-19-35.2-40.9-48.3l1.3-15.2  c-1.6-0.7-3.2-1.3-4.8-1.9L110.1,216.1z"/>
<path class="st3" d="M110.1,216.1c1,15,4.3,29.7,4.3,37.3c0,14.7,21.8,27.4,52.4,32.3c-10.2-43.7-19-35.2-40.9-48.3l1.3-15.2  c-1.6-0.7-3.2-1.3-4.8-1.9L110.1,216.1z"/>
<g>
	<path class="st6" d="M182.8,160.9c-5.9-5.5-13.3-9.5-21.5-11.4c4.4-9.2,10.7-25,14.8-50.5c0.5-3.1,4.3-3,7.2-2.4   c1.9,0.4,3.2,2,3.2,4c-0.1,8.6,0.4,33.5,10.6,51.9C200.3,158,192.4,160.2,182.8,160.9z"/>
</g>
<g>
	<g>
		<path class="st7" d="M11,167.7l8.5-0.5c4.3-0.3,7.5-4,7.3-8.2l-0.5-8.5c-8.4,0.5-4-7.5-8.2-7.3l-8.5,0.5c-4.3,0.3-7.5,4-7.3,8.2    l0.5,8.5C3,164.7,6.7,168,11,167.7z"/>
	</g>
</g>
<g>
	<g>
		<path class="st7" d="M5.7,160.3l0.7,0c1.6-0.1,2.9-1.1,2.8-2.2l-1.5-16.7c-0.1-1.1-1.5-1.9-3.1-1.8l-0.7,0    c-1.6,0.1-2.4,0.8-2.4,1.9l1.1,17C2.7,159.6,4.1,160.4,5.7,160.3z"/>
	</g>
</g>
<g>
	<g>
		<path class="st7" d="M13.1,157.4l0.7,0c1.6-0.1,2.9-1.1,2.8-2.2L15,138.5c-0.1-1.1-1.5-1.9-3.1-1.8l-0.7,0    c-1.6,0.1-2.9,1.1-2.8,2.2l1.5,16.7C10,156.6,11.4,157.5,13.1,157.4z"/>
	</g>
</g>
<g>
	<g>
		<path class="st7" d="M20.1,158.2l1.6-0.1c1.4-0.1,2.4-1.3,2.3-2.6l-1.6-25.9c-0.1-1.4-1.3-2.4-2.6-2.3l-1.6,0.1    c-1.4,0.1-2.4,1.3-2.3,2.6l1.6,25.9C17.5,157.2,18.7,158.3,20.1,158.2z"/>
	</g>
</g>
<g>
	<g>
		<path class="st7" d="M19.9,164.4l1.5,0.7c1.2,0.6,2.7,0.1,3.3-1.1l7.5-15.4c0.6-1.2,0.1-2.7-1.1-3.3l-1.5-0.7    c-1.2-0.6-2.7-0.1-3.3,1.1l-7.5,15.4C18.2,162.3,18.7,163.8,19.9,164.4z"/>
	</g>
</g>
<path class="st7" d="M77.1,184.3c-6.9,7-17.6,15.7-31.2,20.8c-2.9,1.1-4.4,0.5-5.6-0.3c-2.1-1.3-7.4-6.2-12-23.2  c-2.8-10.4-3.8-19.9-3.8-20.2c0,0,0,0,0,0l-9.5,0.9l-9.5,0.9c0,0.4,1.1,11,4.3,23c1.9,7.2,4.2,13.6,6.9,18.8  c3.7,7.3,8.3,12.7,13.5,15.9c4,2.5,8.4,3.8,12.9,3.8c3.1,0,6.3-0.6,9.5-1.8c16.7-6.2,29.6-16.8,38-25.2  C84.8,194.9,80,190.2,77.1,184.3z"/>
<path class="st8" d="M191.5,181v0.1l2.7,46.2l1.2,19.8l2.4,40.7H89.5l5.3-94.4c-1.2,1.4-2.6,2.9-4.2,4.4  c-5.8-2.9-10.6-7.6-13.5-13.5c2.2-2.2,4-4.3,5.4-6c4.7-5.6,9.9-10.8,15.5-15.5c0.7-0.6,1.3-1.1,2-1.6c0.5-0.4,1-0.9,1.5-1.4  c6-5.2,13.3-9,21.4-10.6c3.1-0.6,6.3-1,9.6-1h18.1c3.7,0,8,0,11.5,0.8c2.3,0.5,7.4,4.1,15.1,6.9C186.7,159.4,193.5,181.9,191.5,181z  "/>
<g>
	<g>
		<path class="st7" d="M276.2,168.2l-8.5-0.5c-4.3-0.3-7.5-4-7.3-8.2l0.5-8.5c8.4,0.5,4-7.5,8.2-7.3l8.5,0.5c4.3,0.3,7.5,4,7.3,8.2    l-0.5,8.5C284.1,165.2,280.4,168.4,276.2,168.2z"/>
	</g>
</g>
<g>
	<g>
		<path class="st7" d="M281.5,160.7l-0.7,0c-1.6-0.1-2.9-1.1-2.8-2.2l1.5-16.7c0.1-1.1,1.5-1.9,3.1-1.8l0.7,0    c1.6,0.1,2.4,0.8,2.4,1.9l-1.1,17C284.5,160,283.1,160.8,281.5,160.7z"/>
	</g>
</g>
<g>
	<g>
		<path class="st7" d="M274.1,157.8l-0.7,0c-1.6-0.1-2.9-1.1-2.8-2.2l1.5-16.7c0.1-1.1,1.5-1.9,3.1-1.8l0.7,0    c1.6,0.1,2.9,1.1,2.8,2.2l-1.5,16.7C277.1,157.1,275.7,157.9,274.1,157.8z"/>
	</g>
</g>
<g>
	<g>
		<path class="st7" d="M267.1,158.6l-1.6-0.1c-1.4-0.1-2.4-1.3-2.3-2.6l1.6-25.9c0.1-1.4,1.3-2.4,2.6-2.3l1.6,0.1    c1.4,0.1,2.4,1.3,2.3,2.6l-1.6,25.9C269.6,157.7,268.4,158.7,267.1,158.6z"/>
	</g>
</g>
<g>
	<g>
		<path class="st7" d="M267.3,164.8l-1.5,0.7c-1.2,0.6-2.7,0.1-3.3-1.1L255,149c-0.6-1.2-0.1-2.7,1.1-3.3l1.5-0.7    c1.2-0.6,2.7-0.1,3.3,1.1l7.5,15.4C269,162.7,268.5,164.2,267.3,164.8z"/>
	</g>
</g>
<path class="st7" d="M210,184.8c6.9,7,17.6,15.7,31.2,20.8c2.9,1.1,4.4,0.5,5.6-0.3c2.1-1.3,7.4-6.2,12-23.2  c2.8-10.4,3.8-19.9,3.8-20.2c0,0,0,0,0,0l9.5,0.9l9.5,0.9c0,0.4-1.1,11-4.3,23c-1.9,7.2-4.2,13.6-6.9,18.8  c-3.7,7.3-8.3,12.7-13.5,15.9c-4,2.5-8.4,3.8-12.9,3.8c-3.1,0-6.3-0.6-9.5-1.8c-16.7-6.2-29.6-16.8-38-25.2  C202.4,195.3,207.1,190.6,210,184.8z"/>
<g>
	<g>
		<path class="st7" d="M180.5,49.6c-26.5-15.1-53.1-15.1-79.6,0c-0.2,5.8,8.4,3.3,8.7,9.1c0.4,9.9-7,28.1-5.3,38    c3,17.4,8,34.9,15,52.3c14.3,8.1,28.6,8.1,42.9,0C175.4,115.9,181.5,82.8,180.5,49.6z"/>
	</g>
</g>
<g>
	<path class="st9" d="M123,149.2c-8.1,1.7-15.4,5.4-21.4,10.6c-10.5-1-19.4-3.5-16.2-9.3c12.5-22.5,22.5-87.8,22.5-87.8   s3.7-4.3,2.8,0.7C105.2,96.2,116.3,131.7,123,149.2z"/>
</g>
<g>
	<path d="M128,85.7h0.9c0.8,0,1.4,0.7,1.4,1.4v5.1c0,0.8-0.7,1.4-1.4,1.4H128c-0.8,0-1.4-0.7-1.4-1.4v-5.1   C126.6,86.3,127.2,85.7,128,85.7z"/>
</g>
<g>
	<path d="M153,93.7h-0.9c-0.8,0-1.4-0.7-1.4-1.4v-5.1c0-0.8,0.7-1.4,1.4-1.4h0.9c0.8,0,1.4,0.7,1.4,1.4v5.1   C154.5,93,153.8,93.7,153,93.7z"/>
</g>
<g>
	<path class="st10" d="M139.6,110c-2.9,0-5.2-2.4-5.2-5.3s2.3-5.3,5.2-5.3c0.4,0,0.8,0.3,0.8,0.8s-0.3,0.8-0.8,0.8   c-2,0-3.7,1.7-3.7,3.8s1.7,3.8,3.7,3.8c0.4,0,0.8,0.3,0.8,0.8S140,110,139.6,110z"/>
</g>
<g>
	<path class="st7" d="M175.1,104.5c2.7,2.7,7,2.7,9.6,0s2.7-7,0-9.6s-7-2.7-9.6,0"/>
</g>
<g>
	<path class="st7" d="M117.1,95.3c-2.7-2.7-7-2.7-9.6,0c-2.7,2.7-2.7,7,0,9.6s7,2.7,9.6,0V95.3z"/>
</g>
<g>
	<path class="st6" d="M171.3,61.1c-6.3-5.1-26.8-2-34.5,0.5c-8.7,2.8-23.8,3.7-32.3,0C96,58,85,33.4,112.4,22.7   c29.8-11.6,48.5,19.3,60.8,19.7c32.1,1,12.4,46.3,12.7,53.8c-0.8-1.3-4.2-4.2-7.2-2c-3.8,2.8-0.6,5.7-2.8,5.7   c-2.8,0,5.2-25.7-6-30.5C164.1,66.8,173.2,62.7,171.3,61.1z"/>
</g>
<path class="st10" d="M140.3,137.7c-2.2,0-4.3-0.8-6-2.3c-1.8-1.6-2.9-3.8-3-6.2c0-0.4,0.3-0.8,0.7-0.8c0.4,0,0.8,0.3,0.8,0.7  c0.1,2,1,3.9,2.5,5.2c1.5,1.3,3.5,2,5.5,1.9c4.2-0.2,7.3-3.8,7.1-8c-0.2-4.2-3.8-7.3-8-7.1c-0.4,0-0.8-0.3-0.8-0.7  c0-0.4,0.3-0.8,0.7-0.8c5-0.3,9.3,3.5,9.6,8.5c0.3,5-3.5,9.3-8.5,9.6C140.7,137.7,140.5,137.7,140.3,137.7z"/>
<path class="st8" d="M163,169.1c0-6.8-3.9-14.7-0.9-20c6.7,1.9,18.4,6.8,23.5,11.3c0.5,0.5,1,0.9,1.5,1.4c0.7,0.5,1.3,1.1,2,1.6  c5.6,4.7,10.8,9.9,15.5,15.5c1.4,1.7,3.3,3.8,5.4,6c-2.9,5.8-7.7,10.6-13.5,13.5c-1.5-1.6-2.9-3-4.2-4.4l0.5,9.7  C176.3,203.1,163,187.8,163,169.1z"/>
<g>
	<path class="st11" d="M32,68.9c0,0-0.1,0-0.1,0c-0.3-0.1-0.5-0.3-0.4-0.6c0-0.1,2.5-10.8,13.5-23.9c6.5-7.7,14.6-14.7,24.1-20.8   c11.9-7.6,26-13.9,42-18.7c18.1-5.4,35.9-6.3,53.1-2.7c14,2.9,27.6,8.9,40.4,17.7c9.6,6.6,18.5,14.6,26.7,23.9   c6.6,7.5,10.7,13.6,12.2,15.9c0.2,0.2,0.1,0.6-0.2,0.7c-0.2,0.2-0.6,0.1-0.7-0.2c-3.5-5.4-16.6-24.4-38.6-39.5   C175.4,1.1,144.3-3.9,111.5,5.9c-36,10.8-55.6,27.2-65.6,39.2C35,57.9,32.6,68.4,32.5,68.5C32.5,68.7,32.3,68.9,32,68.9z"/>
</g>
<g>
	<g>
		<path class="st11" d="M234.9,56.6c0.1-0.3,0.4-0.4,0.7-0.3l7.3,3.4l0-8.1c0-0.3,0.2-0.5,0.5-0.5c0.3,0,0.5,0.2,0.5,0.5l0,8.9    c0,0.2-0.1,0.3-0.2,0.4c-0.2,0.1-0.3,0.1-0.5,0l-8-3.8c-0.1,0-0.2-0.1-0.2-0.2C234.9,57,234.9,56.8,234.9,56.6z"/>
	</g>
</g>
</svg>